{
  "header": {
    "keySignatures": [
      {
        "key": "D",
        "scale": "major",
        "ticks": 0
      },
      {
        "key": "D",
        "scale": "major",
        "ticks": 0
      }
    ],
    "meta": [],
    "name": "Piano\u0000",
    "ppq": 480,
    "tempos": [
      {
        "bpm": 100.00016666694445,
        "ticks": 0
      }
    ],
    "timeSignatures": [
      {
        "ticks": 0,
        "timeSignature": [4, 4],
        "measures": 0
      }
    ]
  },
  "tracks": [
    {
      "channel": 0,
      "controlChanges": {
        "7": [
          {
            "number": 7,
            "ticks": 0,
            "time": 0,
            "value": 0.7874015748031497
          }
        ],
        "10": [
          {
            "number": 10,
            "ticks": 0,
            "time": 0,
            "value": 0.5039370078740157
          }
        ],
        "91": [
          {
            "number": 91,
            "ticks": 0,
            "time": 0,
            "value": 0
          }
        ],
        "93": [
          {
            "number": 93,
            "ticks": 0,
            "time": 0,
            "value": 0
          }
        ],
        "121": [
          {
            "number": 121,
            "ticks": 0,
            "time": 0,
            "value": 0
          }
        ]
      },
      "pitchBends": [],
      "instrument": {
        "family": "piano",
        "name": "acoustic grand piano",
        "number": 0
      },
      "name": "Piano\u0000",
      "notes": [
        {
          "duration": 1.1387481020833334,
          "durationTicks": 911,
          "midi": 78,
          "name": "F#5",
          "ticks": 7680,
          "time": 9.599984,
          "velocity": 0.7559055118110236
        },
        {
          "duration": 1.1387481020833334,
          "durationTicks": 911,
          "midi": 76,
          "name": "E5",
          "ticks": 8640,
          "time": 10.799982,
          "velocity": 0.6299212598425197
        },
        {
          "duration": 1.1387481020833334,
          "durationTicks": 911,
          "midi": 74,
          "name": "D5",
          "ticks": 9600,
          "time": 11.999979999999999,
          "velocity": 0.6299212598425197
        },
        {
          "duration": 1.1387481020833352,
          "durationTicks": 911,
          "midi": 73,
          "name": "C#5",
          "ticks": 10560,
          "time": 13.199977999999998,
          "velocity": 0.6299212598425197
        },
        {
          "duration": 1.1387481020833334,
          "durationTicks": 911,
          "midi": 71,
          "name": "B4",
          "ticks": 11520,
          "time": 14.399975999999999,
          "velocity": 0.6299212598425197
        },
        {
          "duration": 1.1387481020833334,
          "durationTicks": 911,
          "midi": 69,
          "name": "A4",
          "ticks": 12480,
          "time": 15.599974,
          "velocity": 0.6299212598425197
        },
        {
          "duration": 1.138748102083337,
          "durationTicks": 911,
          "midi": 71,
          "name": "B4",
          "ticks": 13440,
          "time": 16.799971999999997,
          "velocity": 0.6299212598425197
        },
        {
          "duration": 1.1387481020833334,
          "durationTicks": 911,
          "midi": 73,
          "name": "C#5",
          "ticks": 14400,
          "time": 17.999969999999998,
          "velocity": 0.6299212598425197
        },
        {
          "duration": 1.1387481020833334,
          "durationTicks": 911,
          "midi": 69,
          "name": "A4",
          "ticks": 15360,
          "time": 19.199968,
          "velocity": 0.6299212598425197
        },
        {
          "duration": 1.1387481020833334,
          "durationTicks": 911,
          "midi": 74,
          "name": "D5",
          "ticks": 15360,
          "time": 19.199968,
          "velocity": 0.6299212598425197
        },
        {
          "duration": 1.1387481020833334,
          "durationTicks": 911,
          "midi": 78,
          "name": "F#5",
          "ticks": 15360,
          "time": 19.199968,
          "velocity": 0.6299212598425197
        },
        {
          "duration": 1.1387481020833334,
          "durationTicks": 911,
          "midi": 69,
          "name": "A4",
          "ticks": 16320,
          "time": 20.399966,
          "velocity": 0.6299212598425197
        },
        {
          "duration": 1.1387481020833334,
          "durationTicks": 911,
          "midi": 73,
          "name": "C#5",
          "ticks": 16320,
          "time": 20.399966,
          "velocity": 0.6299212598425197
        },
        {
          "duration": 1.1387481020833334,
          "durationTicks": 911,
          "midi": 76,
          "name": "E5",
          "ticks": 16320,
          "time": 20.399966,
          "velocity": 0.6299212598425197
        },
        {
          "duration": 1.1387481020833334,
          "durationTicks": 911,
          "midi": 66,
          "name": "F#4",
          "ticks": 17280,
          "time": 21.599964,
          "velocity": 0.6299212598425197
        },
        {
          "duration": 1.1387481020833334,
          "durationTicks": 911,
          "midi": 71,
          "name": "B4",
          "ticks": 17280,
          "time": 21.599964,
          "velocity": 0.6299212598425197
        },
        {
          "duration": 1.1387481020833334,
          "durationTicks": 911,
          "midi": 74,
          "name": "D5",
          "ticks": 17280,
          "time": 21.599964,
          "velocity": 0.6299212598425197
        },
        {
          "duration": 1.1387481020833334,
          "durationTicks": 911,
          "midi": 66,
          "name": "F#4",
          "ticks": 18240,
          "time": 22.799961999999997,
          "velocity": 0.6299212598425197
        },
        {
          "duration": 1.1387481020833334,
          "durationTicks": 911,
          "midi": 69,
          "name": "A4",
          "ticks": 18240,
          "time": 22.799961999999997,
          "velocity": 0.6299212598425197
        },
        {
          "duration": 1.1387481020833334,
          "durationTicks": 911,
          "midi": 73,
          "name": "C#5",
          "ticks": 18240,
          "time": 22.799961999999997,
          "velocity": 0.6299212598425197
        },
        {
          "duration": 1.1387481020833334,
          "durationTicks": 911,
          "midi": 62,
          "name": "D4",
          "ticks": 19200,
          "time": 23.999959999999998,
          "velocity": 0.6299212598425197
        },
        {
          "duration": 1.1387481020833334,
          "durationTicks": 911,
          "midi": 67,
          "name": "G4",
          "ticks": 19200,
          "time": 23.999959999999998,
          "velocity": 0.6299212598425197
        },
        {
          "duration": 1.1387481020833334,
          "durationTicks": 911,
          "midi": 71,
          "name": "B4",
          "ticks": 19200,
          "time": 23.999959999999998,
          "velocity": 0.6299212598425197
        },
        {
          "duration": 1.1387481020833334,
          "durationTicks": 911,
          "midi": 62,
          "name": "D4",
          "ticks": 20160,
          "time": 25.199958,
          "velocity": 0.6299212598425197
        },
        {
          "duration": 1.1387481020833334,
          "durationTicks": 911,
          "midi": 66,
          "name": "F#4",
          "ticks": 20160,
          "time": 25.199958,
          "velocity": 0.6299212598425197
        },
        {
          "duration": 1.1387481020833334,
          "durationTicks": 911,
          "midi": 69,
          "name": "A4",
          "ticks": 20160,
          "time": 25.199958,
          "velocity": 0.6299212598425197
        },
        {
          "duration": 1.138748102083337,
          "durationTicks": 911,
          "midi": 62,
          "name": "D4",
          "ticks": 21120,
          "time": 26.399955999999996,
          "velocity": 0.6299212598425197
        },
        {
          "duration": 1.138748102083337,
          "durationTicks": 911,
          "midi": 67,
          "name": "G4",
          "ticks": 21120,
          "time": 26.399955999999996,
          "velocity": 0.6299212598425197
        },
        {
          "duration": 1.138748102083337,
          "durationTicks": 911,
          "midi": 71,
          "name": "B4",
          "ticks": 21120,
          "time": 26.399955999999996,
          "velocity": 0.6299212598425197
        },
        {
          "duration": 1.1387481020833334,
          "durationTicks": 911,
          "midi": 64,
          "name": "E4",
          "ticks": 22080,
          "time": 27.599953999999997,
          "velocity": 0.6299212598425197
        },
        {
          "duration": 1.1387481020833334,
          "durationTicks": 911,
          "midi": 69,
          "name": "A4",
          "ticks": 22080,
          "time": 27.599953999999997,
          "velocity": 0.6299212598425197
        },
        {
          "duration": 1.1387481020833334,
          "durationTicks": 911,
          "midi": 73,
          "name": "C#5",
          "ticks": 22080,
          "time": 27.599953999999997,
          "velocity": 0.6299212598425197
        },
        {
          "duration": 0.5687490520833336,
          "durationTicks": 455,
          "midi": 74,
          "name": "D5",
          "ticks": 23040,
          "time": 28.799951999999998,
          "velocity": 0.6299212598425197
        },
        {
          "duration": 0.56874905208333,
          "durationTicks": 455,
          "midi": 78,
          "name": "F#5",
          "ticks": 23520,
          "time": 29.399950999999998,
          "velocity": 0.6299212598425197
        },
        {
          "duration": 0.56874905208333,
          "durationTicks": 455,
          "midi": 81,
          "name": "A5",
          "ticks": 24000,
          "time": 29.99995,
          "velocity": 0.6299212598425197
        },
        {
          "duration": 0.56874905208333,
          "durationTicks": 455,
          "midi": 79,
          "name": "G5",
          "ticks": 24480,
          "time": 30.599949,
          "velocity": 0.6299212598425197
        },
        {
          "duration": 0.56874905208333,
          "durationTicks": 455,
          "midi": 78,
          "name": "F#5",
          "ticks": 24960,
          "time": 31.199948,
          "velocity": 0.6299212598425197
        },
        {
          "duration": 0.5687490520833336,
          "durationTicks": 455,
          "midi": 74,
          "name": "D5",
          "ticks": 25440,
          "time": 31.799946999999996,
          "velocity": 0.6299212598425197
        },
        {
          "duration": 0.85374857708333,
          "durationTicks": 683,
          "midi": 78,
          "name": "F#5",
          "ticks": 25920,
          "time": 32.399946,
          "velocity": 0.6299212598425197
        },
        {
          "duration": 0.2837495270833372,
          "durationTicks": 227,
          "midi": 76,
          "name": "E5",
          "ticks": 26640,
          "time": 33.299944499999995,
          "velocity": 0.6299212598425197
        },
        {
          "duration": 0.5687490520833336,
          "durationTicks": 455,
          "midi": 74,
          "name": "D5",
          "ticks": 26880,
          "time": 33.599943999999994,
          "velocity": 0.6299212598425197
        },
        {
          "duration": 0.5687490520833336,
          "durationTicks": 455,
          "midi": 71,
          "name": "B4",
          "ticks": 27360,
          "time": 34.199943,
          "velocity": 0.6299212598425197
        },
        {
          "duration": 0.5687490520833336,
          "durationTicks": 455,
          "midi": 74,
          "name": "D5",
          "ticks": 27840,
          "time": 34.799941999999994,
          "velocity": 0.6299212598425197
        },
        {
          "duration": 0.5687490520833336,
          "durationTicks": 455,
          "midi": 78,
          "name": "F#5",
          "ticks": 28320,
          "time": 35.399941,
          "velocity": 0.6299212598425197
        },
        {
          "duration": 0.5687490520833336,
          "durationTicks": 455,
          "midi": 79,
          "name": "G5",
          "ticks": 28800,
          "time": 35.999939999999995,
          "velocity": 0.6299212598425197
        },
        {
          "duration": 0.5687490520833265,
          "durationTicks": 455,
          "midi": 83,
          "name": "B5",
          "ticks": 29280,
          "time": 36.599939,
          "velocity": 0.6299212598425197
        },
        {
          "duration": 0.8537485770833371,
          "durationTicks": 683,
          "midi": 81,
          "name": "A5",
          "ticks": 29760,
          "time": 37.199937999999996,
          "velocity": 0.6299212598425197
        },
        {
          "duration": 0.2837495270833372,
          "durationTicks": 227,
          "midi": 79,
          "name": "G5",
          "ticks": 30480,
          "time": 38.0999365,
          "velocity": 0.6299212598425197
        },
        {
          "duration": 0.5687490520833336,
          "durationTicks": 455,
          "midi": 74,
          "name": "D5",
          "ticks": 30720,
          "time": 38.399936,
          "velocity": 0.6299212598425197
        },
        {
          "duration": 0.5687490520833336,
          "durationTicks": 455,
          "midi": 78,
          "name": "F#5",
          "ticks": 30720,
          "time": 38.399936,
          "velocity": 0.6299212598425197
        },
        {
          "duration": 0.5687490520833407,
          "durationTicks": 455,
          "midi": 78,
          "name": "F#5",
          "ticks": 31200,
          "time": 38.999934999999994,
          "velocity": 0.6299212598425197
        },
        {
          "duration": 0.5687490520833336,
          "durationTicks": 455,
          "midi": 76,
          "name": "E5",
          "ticks": 31680,
          "time": 39.599934,
          "velocity": 0.6299212598425197
        },
        {
          "duration": 0.5687490520833336,
          "durationTicks": 455,
          "midi": 81,
          "name": "A5",
          "ticks": 31680,
          "time": 39.599934,
          "velocity": 0.6299212598425197
        },
        {
          "duration": 0.5687490520833407,
          "durationTicks": 455,
          "midi": 79,
          "name": "G5",
          "ticks": 32160,
          "time": 40.199932999999994,
          "velocity": 0.6299212598425197
        },
        {
          "duration": 0.5687490520833336,
          "durationTicks": 455,
          "midi": 74,
          "name": "D5",
          "ticks": 32640,
          "time": 40.799932,
          "velocity": 0.6299212598425197
        },
        {
          "duration": 0.5687490520833336,
          "durationTicks": 455,
          "midi": 78,
          "name": "F#5",
          "ticks": 32640,
          "time": 40.799932,
          "velocity": 0.6299212598425197
        },
        {
          "duration": 0.5687490520833407,
          "durationTicks": 455,
          "midi": 74,
          "name": "D5",
          "ticks": 33120,
          "time": 41.399930999999995,
          "velocity": 0.6299212598425197
        },
        {
          "duration": 0.85374857708333,
          "durationTicks": 683,
          "midi": 73,
          "name": "C#5",
          "ticks": 33600,
          "time": 41.99993,
          "velocity": 0.6299212598425197
        },
        {
          "duration": 0.85374857708333,
          "durationTicks": 683,
          "midi": 78,
          "name": "F#5",
          "ticks": 33600,
          "time": 41.99993,
          "velocity": 0.6299212598425197
        },
        {
          "duration": 0.2837495270833301,
          "durationTicks": 227,
          "midi": 76,
          "name": "E5",
          "ticks": 34320,
          "time": 42.899928499999994,
          "velocity": 0.6299212598425197
        },
        {
          "duration": 0.5687490520833336,
          "durationTicks": 455,
          "midi": 71,
          "name": "B4",
          "ticks": 34560,
          "time": 43.199928,
          "velocity": 0.6299212598425197
        },
        {
          "duration": 0.5687490520833336,
          "durationTicks": 455,
          "midi": 74,
          "name": "D5",
          "ticks": 34560,
          "time": 43.199928,
          "velocity": 0.6299212598425197
        },
        {
          "duration": 0.5687490520833336,
          "durationTicks": 455,
          "midi": 71,
          "name": "B4",
          "ticks": 35040,
          "time": 43.799927,
          "velocity": 0.6299212598425197
        },
        {
          "duration": 0.5687490520833407,
          "durationTicks": 455,
          "midi": 69,
          "name": "A4",
          "ticks": 35520,
          "time": 44.399925999999994,
          "velocity": 0.6299212598425197
        },
        {
          "duration": 0.5687490520833407,
          "durationTicks": 455,
          "midi": 74,
          "name": "D5",
          "ticks": 35520,
          "time": 44.399925999999994,
          "velocity": 0.6299212598425197
        },
        {
          "duration": 0.5687490520833336,
          "durationTicks": 455,
          "midi": 78,
          "name": "F#5",
          "ticks": 36000,
          "time": 44.999925,
          "velocity": 0.6299212598425197
        },
        {
          "duration": 0.5687490520833407,
          "durationTicks": 455,
          "midi": 71,
          "name": "B4",
          "ticks": 36480,
          "time": 45.599923999999994,
          "velocity": 0.6299212598425197
        },
        {
          "duration": 0.5687490520833407,
          "durationTicks": 455,
          "midi": 79,
          "name": "G5",
          "ticks": 36480,
          "time": 45.599923999999994,
          "velocity": 0.6299212598425197
        },
        {
          "duration": 0.5687490520833336,
          "durationTicks": 455,
          "midi": 83,
          "name": "B5",
          "ticks": 36960,
          "time": 46.199923,
          "velocity": 0.6299212598425197
        },
        {
          "duration": 0.8537485770833371,
          "durationTicks": 683,
          "midi": 73,
          "name": "C#5",
          "ticks": 37440,
          "time": 46.799921999999995,
          "velocity": 0.6299212598425197
        },
        {
          "duration": 0.8537485770833371,
          "durationTicks": 683,
          "midi": 81,
          "name": "A5",
          "ticks": 37440,
          "time": 46.799921999999995,
          "velocity": 0.6299212598425197
        },
        {
          "duration": 0.2837495270833301,
          "durationTicks": 227,
          "midi": 79,
          "name": "G5",
          "ticks": 38160,
          "time": 47.6999205,
          "velocity": 0.6299212598425197
        },
        {
          "duration": 0.2837495270833301,
          "durationTicks": 227,
          "midi": 74,
          "name": "D5",
          "ticks": 38400,
          "time": 47.999919999999996,
          "velocity": 0.6299212598425197
        },
        {
          "duration": 0.2837495270833301,
          "durationTicks": 227,
          "midi": 73,
          "name": "C#5",
          "ticks": 38640,
          "time": 48.299919499999994,
          "velocity": 0.6299212598425197
        },
        {
          "duration": 0.2837495270833372,
          "durationTicks": 227,
          "midi": 74,
          "name": "D5",
          "ticks": 38880,
          "time": 48.59991899999999,
          "velocity": 0.6299212598425197
        },
        {
          "duration": 0.2837495270833301,
          "durationTicks": 227,
          "midi": 69,
          "name": "A4",
          "ticks": 39120,
          "time": 48.8999185,
          "velocity": 0.6299212598425197
        },
        {
          "duration": 0.5687490520833336,
          "durationTicks": 455,
          "midi": 69,
          "name": "A4",
          "ticks": 39360,
          "time": 49.199918,
          "velocity": 0.6299212598425197
        },
        {
          "duration": 0.5687490520833407,
          "durationTicks": 455,
          "midi": 73,
          "name": "C#5",
          "ticks": 39840,
          "time": 49.79991699999999,
          "velocity": 0.6299212598425197
        },
        {
          "duration": 0.5687490520833336,
          "durationTicks": 455,
          "midi": 74,
          "name": "D5",
          "ticks": 40320,
          "time": 50.399916,
          "velocity": 0.6299212598425197
        },
        {
          "duration": 0.5687490520833407,
          "durationTicks": 455,
          "midi": 78,
          "name": "F#5",
          "ticks": 40800,
          "time": 50.999914999999994,
          "velocity": 0.6299212598425197
        },
        {
          "duration": 0.85374857708333,
          "durationTicks": 683,
          "midi": 81,
          "name": "A5",
          "ticks": 41280,
          "time": 51.599914,
          "velocity": 0.6299212598425197
        },
        {
          "duration": 0.2837495270833301,
          "durationTicks": 227,
          "midi": 83,
          "name": "B5",
          "ticks": 42000,
          "time": 52.49991249999999,
          "velocity": 0.6299212598425197
        },
        {
          "duration": 0.2837495270833372,
          "durationTicks": 227,
          "midi": 79,
          "name": "G5",
          "ticks": 42240,
          "time": 52.79991199999999,
          "velocity": 0.6299212598425197
        },
        {
          "duration": 0.2837495270833301,
          "durationTicks": 227,
          "midi": 78,
          "name": "F#5",
          "ticks": 42480,
          "time": 53.0999115,
          "velocity": 0.6299212598425197
        },
        {
          "duration": 0.2837495270833301,
          "durationTicks": 227,
          "midi": 76,
          "name": "E5",
          "ticks": 42720,
          "time": 53.399910999999996,
          "velocity": 0.6299212598425197
        },
        {
          "duration": 0.2837495270833301,
          "durationTicks": 227,
          "midi": 79,
          "name": "G5",
          "ticks": 42960,
          "time": 53.699910499999994,
          "velocity": 0.6299212598425197
        },
        {
          "duration": 0.2837495270833372,
          "durationTicks": 227,
          "midi": 78,
          "name": "F#5",
          "ticks": 43200,
          "time": 53.99990999999999,
          "velocity": 0.6299212598425197
        },
        {
          "duration": 0.2837495270833301,
          "durationTicks": 227,
          "midi": 76,
          "name": "E5",
          "ticks": 43440,
          "time": 54.2999095,
          "velocity": 0.6299212598425197
        },
        {
          "duration": 0.2837495270833301,
          "durationTicks": 227,
          "midi": 74,
          "name": "D5",
          "ticks": 43680,
          "time": 54.599909,
          "velocity": 0.6299212598425197
        },
        {
          "duration": 0.2837495270833301,
          "durationTicks": 227,
          "midi": 73,
          "name": "C#5",
          "ticks": 43920,
          "time": 54.899908499999995,
          "velocity": 0.6299212598425197
        },
        {
          "duration": 0.2987495020833393,
          "durationTicks": 239,
          "midi": 71,
          "name": "B4",
          "ticks": 44160,
          "time": 55.19990799999999,
          "velocity": 0.6299212598425197
        },
        {
          "duration": 0.2837495270833372,
          "durationTicks": 227,
          "midi": 69,
          "name": "A4",
          "ticks": 44400,
          "time": 55.49990749999999,
          "velocity": 0.6299212598425197
        },
        {
          "duration": 0.5687490520833336,
          "durationTicks": 455,
          "midi": 74,
          "name": "D5",
          "ticks": 44640,
          "time": 55.799907,
          "velocity": 0.6299212598425197
        },
        {
          "duration": 0.8537485770833371,
          "durationTicks": 683,
          "midi": 74,
          "name": "D5",
          "ticks": 45120,
          "time": 56.399905999999994,
          "velocity": 0.6299212598425197
        },
        {
          "duration": 0.2837495270833301,
          "durationTicks": 227,
          "midi": 73,
          "name": "C#5",
          "ticks": 45840,
          "time": 57.2999045,
          "velocity": 0.6299212598425197
        },
        {
          "duration": 0.2837495270833301,
          "durationTicks": 227,
          "midi": 74,
          "name": "D5",
          "ticks": 46080,
          "time": 57.599903999999995,
          "velocity": 0.6299212598425197
        },
        {
          "duration": 0.2837495270833301,
          "durationTicks": 227,
          "midi": 73,
          "name": "C#5",
          "ticks": 46320,
          "time": 57.89990349999999,
          "velocity": 0.6299212598425197
        },
        {
          "duration": 0.2837495270833372,
          "durationTicks": 227,
          "midi": 74,
          "name": "D5",
          "ticks": 46560,
          "time": 58.19990299999999,
          "velocity": 0.6299212598425197
        },
        {
          "duration": 0.2837495270833301,
          "durationTicks": 227,
          "midi": 69,
          "name": "A4",
          "ticks": 46800,
          "time": 58.4999025,
          "velocity": 0.6299212598425197
        },
        {
          "duration": 0.5687490520833336,
          "durationTicks": 455,
          "midi": 69,
          "name": "A4",
          "ticks": 47040,
          "time": 58.799901999999996,
          "velocity": 0.6299212598425197
        },
        {
          "duration": 0.5687490520833407,
          "durationTicks": 455,
          "midi": 73,
          "name": "C#5",
          "ticks": 47520,
          "time": 59.39990099999999,
          "velocity": 0.6299212598425197
        },
        {
          "duration": 0.5687490520833336,
          "durationTicks": 455,
          "midi": 74,
          "name": "D5",
          "ticks": 48000,
          "time": 59.9999,
          "velocity": 0.6299212598425197
        },
        {
          "duration": 0.5687490520833407,
          "durationTicks": 455,
          "midi": 78,
          "name": "F#5",
          "ticks": 48480,
          "time": 60.59989899999999,
          "velocity": 0.6299212598425197
        },
        {
          "duration": 0.85374857708333,
          "durationTicks": 683,
          "midi": 81,
          "name": "A5",
          "ticks": 48960,
          "time": 61.199898,
          "velocity": 0.6299212598425197
        },
        {
          "duration": 0.2837495270833301,
          "durationTicks": 227,
          "midi": 83,
          "name": "B5",
          "ticks": 49680,
          "time": 62.09989649999999,
          "velocity": 0.6299212598425197
        },
        {
          "duration": 0.2837495270833301,
          "durationTicks": 227,
          "midi": 79,
          "name": "G5",
          "ticks": 49920,
          "time": 62.399896,
          "velocity": 0.6299212598425197
        },
        {
          "duration": 0.2837495270833301,
          "durationTicks": 227,
          "midi": 78,
          "name": "F#5",
          "ticks": 50160,
          "time": 62.6998955,
          "velocity": 0.6299212598425197
        },
        {
          "duration": 0.2837495270833301,
          "durationTicks": 227,
          "midi": 76,
          "name": "E5",
          "ticks": 50400,
          "time": 62.999894999999995,
          "velocity": 0.6299212598425197
        },
        {
          "duration": 0.2837495270833301,
          "durationTicks": 227,
          "midi": 79,
          "name": "G5",
          "ticks": 50640,
          "time": 63.29989449999999,
          "velocity": 0.6299212598425197
        },
        {
          "duration": 0.2837495270833372,
          "durationTicks": 227,
          "midi": 78,
          "name": "F#5",
          "ticks": 50880,
          "time": 63.59989399999999,
          "velocity": 0.6299212598425197
        },
        {
          "duration": 0.283749527083323,
          "durationTicks": 227,
          "midi": 76,
          "name": "E5",
          "ticks": 51120,
          "time": 63.8998935,
          "velocity": 0.6299212598425197
        },
        {
          "duration": 0.2837495270833301,
          "durationTicks": 227,
          "midi": 74,
          "name": "D5",
          "ticks": 51360,
          "time": 64.19989299999999,
          "velocity": 0.6299212598425197
        },
        {
          "duration": 0.2837495270833301,
          "durationTicks": 227,
          "midi": 73,
          "name": "C#5",
          "ticks": 51600,
          "time": 64.4998925,
          "velocity": 0.6299212598425197
        },
        {
          "duration": 0.29874950208332507,
          "durationTicks": 239,
          "midi": 71,
          "name": "B4",
          "ticks": 51840,
          "time": 64.799892,
          "velocity": 0.6299212598425197
        },
        {
          "duration": 0.2837495270833301,
          "durationTicks": 227,
          "midi": 69,
          "name": "A4",
          "ticks": 52080,
          "time": 65.0998915,
          "velocity": 0.6299212598425197
        },
        {
          "duration": 0.5687490520833336,
          "durationTicks": 455,
          "midi": 74,
          "name": "D5",
          "ticks": 52320,
          "time": 65.399891,
          "velocity": 0.6299212598425197
        },
        {
          "duration": 0.8537485770833371,
          "durationTicks": 683,
          "midi": 74,
          "name": "D5",
          "ticks": 52800,
          "time": 65.99989,
          "velocity": 0.6299212598425197
        },
        {
          "duration": 0.2837495270833301,
          "durationTicks": 227,
          "midi": 73,
          "name": "C#5",
          "ticks": 53520,
          "time": 66.89988849999999,
          "velocity": 0.6299212598425197
        },
        {
          "duration": 0.28374952708334433,
          "durationTicks": 227,
          "midi": 74,
          "name": "D5",
          "ticks": 53760,
          "time": 67.19988799999999,
          "velocity": 0.6299212598425197
        },
        {
          "duration": 0.2837495270833301,
          "durationTicks": 227,
          "midi": 73,
          "name": "C#5",
          "ticks": 54000,
          "time": 67.4998875,
          "velocity": 0.6299212598425197
        },
        {
          "duration": 0.2837495270833301,
          "durationTicks": 227,
          "midi": 74,
          "name": "D5",
          "ticks": 54240,
          "time": 67.799887,
          "velocity": 0.6299212598425197
        },
        {
          "duration": 0.2837495270833301,
          "durationTicks": 227,
          "midi": 69,
          "name": "A4",
          "ticks": 54480,
          "time": 68.0998865,
          "velocity": 0.6299212598425197
        },
        {
          "duration": 0.2837495270833301,
          "durationTicks": 227,
          "midi": 73,
          "name": "C#5",
          "ticks": 54720,
          "time": 68.399886,
          "velocity": 0.6299212598425197
        },
        {
          "duration": 0.2837495270833301,
          "durationTicks": 227,
          "midi": 69,
          "name": "A4",
          "ticks": 54960,
          "time": 68.6998855,
          "velocity": 0.6299212598425197
        },
        {
          "duration": 0.2837495270833301,
          "durationTicks": 227,
          "midi": 76,
          "name": "E5",
          "ticks": 55200,
          "time": 68.99988499999999,
          "velocity": 0.6299212598425197
        },
        {
          "duration": 0.2837495270833301,
          "durationTicks": 227,
          "midi": 78,
          "name": "F#5",
          "ticks": 55440,
          "time": 69.29988449999999,
          "velocity": 0.6299212598425197
        },
        {
          "duration": 0.2837495270833301,
          "durationTicks": 227,
          "midi": 74,
          "name": "D5",
          "ticks": 55680,
          "time": 69.59988399999999,
          "velocity": 0.6299212598425197
        },
        {
          "duration": 0.28374952708334433,
          "durationTicks": 227,
          "midi": 74,
          "name": "D5",
          "ticks": 55920,
          "time": 69.89988349999999,
          "velocity": 0.6299212598425197
        },
        {
          "duration": 0.2837495270833301,
          "durationTicks": 227,
          "midi": 73,
          "name": "C#5",
          "ticks": 56160,
          "time": 70.199883,
          "velocity": 0.6299212598425197
        },
        {
          "duration": 0.2837495270833301,
          "durationTicks": 227,
          "midi": 71,
          "name": "B4",
          "ticks": 56400,
          "time": 70.4998825,
          "velocity": 0.6299212598425197
        },
        {
          "duration": 0.2837495270833301,
          "durationTicks": 227,
          "midi": 73,
          "name": "C#5",
          "ticks": 56640,
          "time": 70.799882,
          "velocity": 0.6299212598425197
        },
        {
          "duration": 0.2837495270833301,
          "durationTicks": 227,
          "midi": 78,
          "name": "F#5",
          "ticks": 56880,
          "time": 71.0998815,
          "velocity": 0.6299212598425197
        },
        {
          "duration": 0.2837495270833301,
          "durationTicks": 227,
          "midi": 81,
          "name": "A5",
          "ticks": 57120,
          "time": 71.399881,
          "velocity": 0.6299212598425197
        },
        {
          "duration": 0.2837495270833301,
          "durationTicks": 227,
          "midi": 83,
          "name": "B5",
          "ticks": 57360,
          "time": 71.69988049999999,
          "velocity": 0.6299212598425197
        },
        {
          "duration": 0.2837495270833301,
          "durationTicks": 227,
          "midi": 79,
          "name": "G5",
          "ticks": 57600,
          "time": 71.99987999999999,
          "velocity": 0.6299212598425197
        },
        {
          "duration": 0.2837495270833301,
          "durationTicks": 227,
          "midi": 78,
          "name": "F#5",
          "ticks": 57840,
          "time": 72.29987949999999,
          "velocity": 0.6299212598425197
        },
        {
          "duration": 0.28374952708334433,
          "durationTicks": 227,
          "midi": 76,
          "name": "E5",
          "ticks": 58080,
          "time": 72.59987899999999,
          "velocity": 0.6299212598425197
        },
        {
          "duration": 0.2837495270833301,
          "durationTicks": 227,
          "midi": 79,
          "name": "G5",
          "ticks": 58320,
          "time": 72.8998785,
          "velocity": 0.6299212598425197
        },
        {
          "duration": 0.2837495270833301,
          "durationTicks": 227,
          "midi": 78,
          "name": "F#5",
          "ticks": 58560,
          "time": 73.199878,
          "velocity": 0.6299212598425197
        },
        {
          "duration": 0.2837495270833301,
          "durationTicks": 227,
          "midi": 76,
          "name": "E5",
          "ticks": 58800,
          "time": 73.4998775,
          "velocity": 0.6299212598425197
        },
        {
          "duration": 0.2837495270833301,
          "durationTicks": 227,
          "midi": 74,
          "name": "D5",
          "ticks": 59040,
          "time": 73.799877,
          "velocity": 0.6299212598425197
        },
        {
          "duration": 0.2837495270833301,
          "durationTicks": 227,
          "midi": 73,
          "name": "C#5",
          "ticks": 59280,
          "time": 74.0998765,
          "velocity": 0.6299212598425197
        },
        {
          "duration": 0.2837495270833301,
          "durationTicks": 227,
          "midi": 71,
          "name": "B4",
          "ticks": 59520,
          "time": 74.39987599999999,
          "velocity": 0.6299212598425197
        },
        {
          "duration": 0.2837495270833301,
          "durationTicks": 227,
          "midi": 69,
          "name": "A4",
          "ticks": 59760,
          "time": 74.69987549999999,
          "velocity": 0.6299212598425197
        },
        {
          "duration": 0.2837495270833301,
          "durationTicks": 227,
          "midi": 67,
          "name": "G4",
          "ticks": 60000,
          "time": 74.99987499999999,
          "velocity": 0.6299212598425197
        },
        {
          "duration": 0.28374952708334433,
          "durationTicks": 227,
          "midi": 66,
          "name": "F#4",
          "ticks": 60240,
          "time": 75.29987449999999,
          "velocity": 0.6299212598425197
        },
        {
          "duration": 0.2837495270833301,
          "durationTicks": 227,
          "midi": 64,
          "name": "E4",
          "ticks": 60480,
          "time": 75.599874,
          "velocity": 0.6299212598425197
        },
        {
          "duration": 0.2837495270833301,
          "durationTicks": 227,
          "midi": 67,
          "name": "G4",
          "ticks": 60720,
          "time": 75.8998735,
          "velocity": 0.6299212598425197
        },
        {
          "duration": 0.2837495270833301,
          "durationTicks": 227,
          "midi": 66,
          "name": "F#4",
          "ticks": 60960,
          "time": 76.199873,
          "velocity": 0.6299212598425197
        },
        {
          "duration": 0.2837495270833301,
          "durationTicks": 227,
          "midi": 64,
          "name": "E4",
          "ticks": 61200,
          "time": 76.4998725,
          "velocity": 0.6299212598425197
        },
        {
          "duration": 0.2837495270833301,
          "durationTicks": 227,
          "midi": 74,
          "name": "D5",
          "ticks": 61440,
          "time": 76.799872,
          "velocity": 0.6299212598425197
        },
        {
          "duration": 0.2837495270833301,
          "durationTicks": 227,
          "midi": 76,
          "name": "E5",
          "ticks": 61680,
          "time": 77.09987149999999,
          "velocity": 0.6299212598425197
        },
        {
          "duration": 0.2837495270833301,
          "durationTicks": 227,
          "midi": 78,
          "name": "F#5",
          "ticks": 61920,
          "time": 77.39987099999999,
          "velocity": 0.6299212598425197
        },
        {
          "duration": 0.2837495270833301,
          "durationTicks": 227,
          "midi": 79,
          "name": "G5",
          "ticks": 62160,
          "time": 77.69987049999999,
          "velocity": 0.6299212598425197
        },
        {
          "duration": 0.28374952708334433,
          "durationTicks": 227,
          "midi": 81,
          "name": "A5",
          "ticks": 62400,
          "time": 77.99986999999999,
          "velocity": 0.6299212598425197
        },
        {
          "duration": 0.2837495270833301,
          "durationTicks": 227,
          "midi": 76,
          "name": "E5",
          "ticks": 62640,
          "time": 78.2998695,
          "velocity": 0.6299212598425197
        },
        {
          "duration": 0.2837495270833301,
          "durationTicks": 227,
          "midi": 81,
          "name": "A5",
          "ticks": 62880,
          "time": 78.599869,
          "velocity": 0.6299212598425197
        },
        {
          "duration": 0.2837495270833301,
          "durationTicks": 227,
          "midi": 79,
          "name": "G5",
          "ticks": 63120,
          "time": 78.8998685,
          "velocity": 0.6299212598425197
        },
        {
          "duration": 0.2837495270833301,
          "durationTicks": 227,
          "midi": 78,
          "name": "F#5",
          "ticks": 63360,
          "time": 79.199868,
          "velocity": 0.6299212598425197
        },
        {
          "duration": 0.2837495270833301,
          "durationTicks": 227,
          "midi": 83,
          "name": "B5",
          "ticks": 63600,
          "time": 79.4998675,
          "velocity": 0.6299212598425197
        },
        {
          "duration": 0.2837495270833301,
          "durationTicks": 227,
          "midi": 81,
          "name": "A5",
          "ticks": 63840,
          "time": 79.79986699999999,
          "velocity": 0.6299212598425197
        },
        {
          "duration": 0.2837495270833301,
          "durationTicks": 227,
          "midi": 79,
          "name": "G5",
          "ticks": 64080,
          "time": 80.09986649999999,
          "velocity": 0.6299212598425197
        },
        {
          "duration": 0.2837495270833301,
          "durationTicks": 227,
          "midi": 81,
          "name": "A5",
          "ticks": 64320,
          "time": 80.39986599999999,
          "velocity": 0.6299212598425197
        },
        {
          "duration": 0.2837495270833301,
          "durationTicks": 227,
          "midi": 79,
          "name": "G5",
          "ticks": 64560,
          "time": 80.69986549999999,
          "velocity": 0.6299212598425197
        },
        {
          "duration": 0.2837495270833301,
          "durationTicks": 227,
          "midi": 78,
          "name": "F#5",
          "ticks": 64800,
          "time": 80.999865,
          "velocity": 0.6299212598425197
        },
        {
          "duration": 0.2837495270833301,
          "durationTicks": 227,
          "midi": 76,
          "name": "E5",
          "ticks": 65040,
          "time": 81.2998645,
          "velocity": 0.6299212598425197
        },
        {
          "duration": 0.2837495270833301,
          "durationTicks": 227,
          "midi": 74,
          "name": "D5",
          "ticks": 65280,
          "time": 81.599864,
          "velocity": 0.6299212598425197
        },
        {
          "duration": 0.2837495270833301,
          "durationTicks": 227,
          "midi": 71,
          "name": "B4",
          "ticks": 65520,
          "time": 81.8998635,
          "velocity": 0.6299212598425197
        },
        {
          "duration": 0.2837495270833301,
          "durationTicks": 227,
          "midi": 71,
          "name": "B4",
          "ticks": 65760,
          "time": 82.199863,
          "velocity": 0.6299212598425197
        },
        {
          "duration": 0.2837495270833301,
          "durationTicks": 227,
          "midi": 73,
          "name": "C#5",
          "ticks": 66000,
          "time": 82.49986249999999,
          "velocity": 0.6299212598425197
        },
        {
          "duration": 0.2837495270833301,
          "durationTicks": 227,
          "midi": 74,
          "name": "D5",
          "ticks": 66240,
          "time": 82.79986199999999,
          "velocity": 0.6299212598425197
        },
        {
          "duration": 0.14874975208333296,
          "durationTicks": 119,
          "midi": 78,
          "name": "F#5",
          "ticks": 66480,
          "time": 83.09986149999999,
          "velocity": 0.6299212598425197
        },
        {
          "duration": 0.14874975208333296,
          "durationTicks": 119,
          "midi": 76,
          "name": "E5",
          "ticks": 66600,
          "time": 83.24986125,
          "velocity": 0.6299212598425197
        },
        {
          "duration": 0.2837495270833301,
          "durationTicks": 227,
          "midi": 74,
          "name": "D5",
          "ticks": 66720,
          "time": 83.39986099999999,
          "velocity": 0.6299212598425197
        },
        {
          "duration": 0.2837495270833301,
          "durationTicks": 227,
          "midi": 78,
          "name": "F#5",
          "ticks": 66960,
          "time": 83.6998605,
          "velocity": 0.6299212598425197
        },
        {
          "duration": 0.2837495270833301,
          "durationTicks": 227,
          "midi": 79,
          "name": "G5",
          "ticks": 67200,
          "time": 83.99986,
          "velocity": 0.6299212598425197
        },
        {
          "duration": 0.14874975208333296,
          "durationTicks": 119,
          "midi": 74,
          "name": "D5",
          "ticks": 67440,
          "time": 84.2998595,
          "velocity": 0.6299212598425197
        },
        {
          "duration": 0.14874975208333296,
          "durationTicks": 119,
          "midi": 73,
          "name": "C#5",
          "ticks": 67560,
          "time": 84.44985924999999,
          "velocity": 0.6299212598425197
        },
        {
          "duration": 0.2837495270833301,
          "durationTicks": 227,
          "midi": 71,
          "name": "B4",
          "ticks": 67680,
          "time": 84.599859,
          "velocity": 0.6299212598425197
        },
        {
          "duration": 0.2987495020833393,
          "durationTicks": 239,
          "midi": 73,
          "name": "C#5",
          "ticks": 67920,
          "time": 84.8998585,
          "velocity": 0.6299212598425197
        },
        {
          "duration": 0.8537485770833371,
          "durationTicks": 683,
          "midi": 74,
          "name": "D5",
          "ticks": 68160,
          "time": 85.19985799999999,
          "velocity": 0.6299212598425197
        },
        {
          "duration": 0.2837495270833301,
          "durationTicks": 227,
          "midi": 73,
          "name": "C#5",
          "ticks": 68880,
          "time": 86.09985649999999,
          "velocity": 0.6299212598425197
        },
        {
          "duration": 0.2837495270833301,
          "durationTicks": 227,
          "midi": 81,
          "name": "A5",
          "ticks": 69120,
          "time": 86.399856,
          "velocity": 0.7559055118110236
        },
        {
          "duration": 0.14874975208333296,
          "durationTicks": 119,
          "midi": 78,
          "name": "F#5",
          "ticks": 69360,
          "time": 86.6998555,
          "velocity": 0.7559055118110236
        },
        {
          "duration": 0.14874975208333296,
          "durationTicks": 119,
          "midi": 79,
          "name": "G5",
          "ticks": 69480,
          "time": 86.84985524999999,
          "velocity": 0.7559055118110236
        },
        {
          "duration": 0.2837495270833301,
          "durationTicks": 227,
          "midi": 81,
          "name": "A5",
          "ticks": 69600,
          "time": 86.999855,
          "velocity": 0.7559055118110236
        },
        {
          "duration": 0.14874975208333296,
          "durationTicks": 119,
          "midi": 78,
          "name": "F#5",
          "ticks": 69840,
          "time": 87.2998545,
          "velocity": 0.7559055118110236
        },
        {
          "duration": 0.14874975208333296,
          "durationTicks": 119,
          "midi": 79,
          "name": "G5",
          "ticks": 69960,
          "time": 87.44985424999999,
          "velocity": 0.7559055118110236
        },
        {
          "duration": 0.1412497645833355,
          "durationTicks": 113,
          "midi": 81,
          "name": "A5",
          "ticks": 70080,
          "time": 87.599854,
          "velocity": 0.7559055118110236
        },
        {
          "duration": 0.1412497645833497,
          "durationTicks": 113,
          "midi": 69,
          "name": "A4",
          "ticks": 70200,
          "time": 87.74985374999999,
          "velocity": 0.7559055118110236
        },
        {
          "duration": 0.1412497645833355,
          "durationTicks": 113,
          "midi": 71,
          "name": "B4",
          "ticks": 70320,
          "time": 87.89985349999999,
          "velocity": 0.7559055118110236
        },
        {
          "duration": 0.1412497645833355,
          "durationTicks": 113,
          "midi": 73,
          "name": "C#5",
          "ticks": 70440,
          "time": 88.04985325,
          "velocity": 0.7559055118110236
        },
        {
          "duration": 0.1412497645833497,
          "durationTicks": 113,
          "midi": 74,
          "name": "D5",
          "ticks": 70560,
          "time": 88.19985299999999,
          "velocity": 0.7559055118110236
        },
        {
          "duration": 0.1412497645833355,
          "durationTicks": 113,
          "midi": 76,
          "name": "E5",
          "ticks": 70680,
          "time": 88.34985275,
          "velocity": 0.7559055118110236
        },
        {
          "duration": 0.1412497645833497,
          "durationTicks": 113,
          "midi": 78,
          "name": "F#5",
          "ticks": 70800,
          "time": 88.49985249999999,
          "velocity": 0.7559055118110236
        },
        {
          "duration": 0.1412497645833355,
          "durationTicks": 113,
          "midi": 79,
          "name": "G5",
          "ticks": 70920,
          "time": 88.64985225,
          "velocity": 0.7559055118110236
        },
        {
          "duration": 0.2837495270833301,
          "durationTicks": 227,
          "midi": 78,
          "name": "F#5",
          "ticks": 71040,
          "time": 88.79985199999999,
          "velocity": 0.7559055118110236
        },
        {
          "duration": 0.14874975208334718,
          "durationTicks": 119,
          "midi": 74,
          "name": "D5",
          "ticks": 71280,
          "time": 89.09985149999999,
          "velocity": 0.7559055118110236
        },
        {
          "duration": 0.14874975208333296,
          "durationTicks": 119,
          "midi": 76,
          "name": "E5",
          "ticks": 71400,
          "time": 89.24985124999999,
          "velocity": 0.7559055118110236
        },
        {
          "duration": 0.2837495270833301,
          "durationTicks": 227,
          "midi": 78,
          "name": "F#5",
          "ticks": 71520,
          "time": 89.399851,
          "velocity": 0.7559055118110236
        },
        {
          "duration": 0.14874975208333296,
          "durationTicks": 119,
          "midi": 66,
          "name": "F#4",
          "ticks": 71760,
          "time": 89.6998505,
          "velocity": 0.7559055118110236
        },
        {
          "duration": 0.1412497645833497,
          "durationTicks": 113,
          "midi": 67,
          "name": "G4",
          "ticks": 71880,
          "time": 89.84985024999999,
          "velocity": 0.7559055118110236
        },
        {
          "duration": 0.1412497645833355,
          "durationTicks": 113,
          "midi": 69,
          "name": "A4",
          "ticks": 72000,
          "time": 89.99985,
          "velocity": 0.7559055118110236
        },
        {
          "duration": 0.1412497645833497,
          "durationTicks": 113,
          "midi": 71,
          "name": "B4",
          "ticks": 72120,
          "time": 90.14984974999999,
          "velocity": 0.7559055118110236
        },
        {
          "duration": 0.1412497645833355,
          "durationTicks": 113,
          "midi": 69,
          "name": "A4",
          "ticks": 72240,
          "time": 90.2998495,
          "velocity": 0.7559055118110236
        },
        {
          "duration": 0.1412497645833497,
          "durationTicks": 113,
          "midi": 67,
          "name": "G4",
          "ticks": 72360,
          "time": 90.44984924999999,
          "velocity": 0.7559055118110236
        },
        {
          "duration": 0.1412497645833355,
          "durationTicks": 113,
          "midi": 69,
          "name": "A4",
          "ticks": 72480,
          "time": 90.59984899999999,
          "velocity": 0.7559055118110236
        },
        {
          "duration": 0.1412497645833355,
          "durationTicks": 113,
          "midi": 66,
          "name": "F#4",
          "ticks": 72600,
          "time": 90.74984875,
          "velocity": 0.7559055118110236
        },
        {
          "duration": 0.1412497645833497,
          "durationTicks": 113,
          "midi": 67,
          "name": "G4",
          "ticks": 72720,
          "time": 90.89984849999999,
          "velocity": 0.7559055118110236
        },
        {
          "duration": 0.1412497645833355,
          "durationTicks": 113,
          "midi": 69,
          "name": "A4",
          "ticks": 72840,
          "time": 91.04984825,
          "velocity": 0.7559055118110236
        },
        {
          "duration": 0.2837495270833301,
          "durationTicks": 227,
          "midi": 67,
          "name": "G4",
          "ticks": 72960,
          "time": 91.19984799999999,
          "velocity": 0.7559055118110236
        },
        {
          "duration": 0.14874975208333296,
          "durationTicks": 119,
          "midi": 71,
          "name": "B4",
          "ticks": 73200,
          "time": 91.49984749999999,
          "velocity": 0.7559055118110236
        },
        {
          "duration": 0.14874975208333296,
          "durationTicks": 119,
          "midi": 69,
          "name": "A4",
          "ticks": 73320,
          "time": 91.64984725,
          "velocity": 0.7559055118110236
        },
        {
          "duration": 0.28374952708334433,
          "durationTicks": 227,
          "midi": 67,
          "name": "G4",
          "ticks": 73440,
          "time": 91.79984699999999,
          "velocity": 0.7559055118110236
        },
        {
          "duration": 0.14874975208333296,
          "durationTicks": 119,
          "midi": 66,
          "name": "F#4",
          "ticks": 73680,
          "time": 92.0998465,
          "velocity": 0.7559055118110236
        },
        {
          "duration": 0.1412497645833497,
          "durationTicks": 113,
          "midi": 64,
          "name": "E4",
          "ticks": 73800,
          "time": 92.24984624999999,
          "velocity": 0.7559055118110236
        },
        {
          "duration": 0.1412497645833355,
          "durationTicks": 113,
          "midi": 66,
          "name": "F#4",
          "ticks": 73920,
          "time": 92.399846,
          "velocity": 0.7559055118110236
        },
        {
          "duration": 0.1412497645833497,
          "durationTicks": 113,
          "midi": 64,
          "name": "E4",
          "ticks": 74040,
          "time": 92.54984574999999,
          "velocity": 0.7559055118110236
        },
        {
          "duration": 0.1412497645833355,
          "durationTicks": 113,
          "midi": 62,
          "name": "D4",
          "ticks": 74160,
          "time": 92.6998455,
          "velocity": 0.7559055118110236
        },
        {
          "duration": 0.1412497645833497,
          "durationTicks": 113,
          "midi": 64,
          "name": "E4",
          "ticks": 74280,
          "time": 92.84984524999999,
          "velocity": 0.7559055118110236
        },
        {
          "duration": 0.1412497645833355,
          "durationTicks": 113,
          "midi": 66,
          "name": "F#4",
          "ticks": 74400,
          "time": 92.999845,
          "velocity": 0.7559055118110236
        },
        {
          "duration": 0.1412497645833497,
          "durationTicks": 113,
          "midi": 67,
          "name": "G4",
          "ticks": 74520,
          "time": 93.14984474999999,
          "velocity": 0.7559055118110236
        },
        {
          "duration": 0.1412497645833355,
          "durationTicks": 113,
          "midi": 69,
          "name": "A4",
          "ticks": 74640,
          "time": 93.29984449999999,
          "velocity": 0.7559055118110236
        },
        {
          "duration": 0.1412497645833355,
          "durationTicks": 113,
          "midi": 71,
          "name": "B4",
          "ticks": 74760,
          "time": 93.44984425,
          "velocity": 0.7559055118110236
        },
        {
          "duration": 0.2837495270833301,
          "durationTicks": 227,
          "midi": 67,
          "name": "G4",
          "ticks": 74880,
          "time": 93.59984399999999,
          "velocity": 0.7559055118110236
        },
        {
          "duration": 0.14874975208333296,
          "durationTicks": 119,
          "midi": 71,
          "name": "B4",
          "ticks": 75120,
          "time": 93.89984349999999,
          "velocity": 0.7559055118110236
        },
        {
          "duration": 0.1412497645833355,
          "durationTicks": 113,
          "midi": 69,
          "name": "A4",
          "ticks": 75240,
          "time": 94.04984325,
          "velocity": 0.7559055118110236
        },
        {
          "duration": 0.2837495270833301,
          "durationTicks": 227,
          "midi": 71,
          "name": "B4",
          "ticks": 75360,
          "time": 94.19984299999999,
          "velocity": 0.7559055118110236
        },
        {
          "duration": 0.14874975208334718,
          "durationTicks": 119,
          "midi": 73,
          "name": "C#5",
          "ticks": 75600,
          "time": 94.49984249999999,
          "velocity": 0.7559055118110236
        },
        {
          "duration": 0.1412497645833355,
          "durationTicks": 113,
          "midi": 74,
          "name": "D5",
          "ticks": 75720,
          "time": 94.64984224999999,
          "velocity": 0.7559055118110236
        },
        {
          "duration": 0.1412497645833355,
          "durationTicks": 113,
          "midi": 69,
          "name": "A4",
          "ticks": 75840,
          "time": 94.799842,
          "velocity": 0.7559055118110236
        },
        {
          "duration": 0.1412497645833497,
          "durationTicks": 113,
          "midi": 71,
          "name": "B4",
          "ticks": 75960,
          "time": 94.94984174999999,
          "velocity": 0.7559055118110236
        },
        {
          "duration": 0.1412497645833355,
          "durationTicks": 113,
          "midi": 73,
          "name": "C#5",
          "ticks": 76080,
          "time": 95.0998415,
          "velocity": 0.7559055118110236
        },
        {
          "duration": 0.1412497645833497,
          "durationTicks": 113,
          "midi": 74,
          "name": "D5",
          "ticks": 76200,
          "time": 95.24984124999999,
          "velocity": 0.7559055118110236
        },
        {
          "duration": 0.1412497645833355,
          "durationTicks": 113,
          "midi": 76,
          "name": "E5",
          "ticks": 76320,
          "time": 95.399841,
          "velocity": 0.7559055118110236
        },
        {
          "duration": 0.1412497645833497,
          "durationTicks": 113,
          "midi": 78,
          "name": "F#5",
          "ticks": 76440,
          "time": 95.54984074999999,
          "velocity": 0.7559055118110236
        },
        {
          "duration": 0.1412497645833355,
          "durationTicks": 113,
          "midi": 79,
          "name": "G5",
          "ticks": 76560,
          "time": 95.6998405,
          "velocity": 0.7559055118110236
        },
        {
          "duration": 0.1412497645833497,
          "durationTicks": 113,
          "midi": 81,
          "name": "A5",
          "ticks": 76680,
          "time": 95.84984024999999,
          "velocity": 0.7559055118110236
        },
        {
          "duration": 0.2837495270833301,
          "durationTicks": 227,
          "midi": 81,
          "name": "A5",
          "ticks": 76800,
          "time": 95.99983999999999,
          "velocity": 0.7559055118110236
        },
        {
          "duration": 0.14874975208333296,
          "durationTicks": 119,
          "midi": 78,
          "name": "F#5",
          "ticks": 77040,
          "time": 96.29983949999999,
          "velocity": 0.7559055118110236
        },
        {
          "duration": 0.14874975208333296,
          "durationTicks": 119,
          "midi": 79,
          "name": "G5",
          "ticks": 77160,
          "time": 96.44983925,
          "velocity": 0.7559055118110236
        },
        {
          "duration": 0.2837495270833301,
          "durationTicks": 227,
          "midi": 81,
          "name": "A5",
          "ticks": 77280,
          "time": 96.59983899999999,
          "velocity": 0.7559055118110236
        },
        {
          "duration": 0.14874975208333296,
          "durationTicks": 119,
          "midi": 78,
          "name": "F#5",
          "ticks": 77520,
          "time": 96.89983849999999,
          "velocity": 0.7559055118110236
        },
        {
          "duration": 0.14874975208333296,
          "durationTicks": 119,
          "midi": 79,
          "name": "G5",
          "ticks": 77640,
          "time": 97.04983825,
          "velocity": 0.7559055118110236
        },
        {
          "duration": 0.1412497645833497,
          "durationTicks": 113,
          "midi": 81,
          "name": "A5",
          "ticks": 77760,
          "time": 97.19983799999999,
          "velocity": 0.7559055118110236
        },
        {
          "duration": 0.1412497645833355,
          "durationTicks": 113,
          "midi": 69,
          "name": "A4",
          "ticks": 77880,
          "time": 97.34983774999999,
          "velocity": 0.7559055118110236
        },
        {
          "duration": 0.1412497645833355,
          "durationTicks": 113,
          "midi": 71,
          "name": "B4",
          "ticks": 78000,
          "time": 97.4998375,
          "velocity": 0.7559055118110236
        },
        {
          "duration": 0.1412497645833497,
          "durationTicks": 113,
          "midi": 73,
          "name": "C#5",
          "ticks": 78120,
          "time": 97.64983724999999,
          "velocity": 0.7559055118110236
        },
        {
          "duration": 0.1412497645833355,
          "durationTicks": 113,
          "midi": 74,
          "name": "D5",
          "ticks": 78240,
          "time": 97.799837,
          "velocity": 0.7559055118110236
        },
        {
          "duration": 0.1412497645833497,
          "durationTicks": 113,
          "midi": 76,
          "name": "E5",
          "ticks": 78360,
          "time": 97.94983674999999,
          "velocity": 0.7559055118110236
        },
        {
          "duration": 0.1412497645833355,
          "durationTicks": 113,
          "midi": 78,
          "name": "F#5",
          "ticks": 78480,
          "time": 98.0998365,
          "velocity": 0.7559055118110236
        },
        {
          "duration": 0.1412497645833497,
          "durationTicks": 113,
          "midi": 79,
          "name": "G5",
          "ticks": 78600,
          "time": 98.24983624999999,
          "velocity": 0.7559055118110236
        },
        {
          "duration": 0.2837495270833301,
          "durationTicks": 227,
          "midi": 78,
          "name": "F#5",
          "ticks": 78720,
          "time": 98.399836,
          "velocity": 0.7559055118110236
        },
        {
          "duration": 0.14874975208333296,
          "durationTicks": 119,
          "midi": 74,
          "name": "D5",
          "ticks": 78960,
          "time": 98.69983549999999,
          "velocity": 0.7559055118110236
        },
        {
          "duration": 0.14874975208333296,
          "durationTicks": 119,
          "midi": 76,
          "name": "E5",
          "ticks": 79080,
          "time": 98.84983525,
          "velocity": 0.7559055118110236
        },
        {
          "duration": 0.2837495270833301,
          "durationTicks": 227,
          "midi": 78,
          "name": "F#5",
          "ticks": 79200,
          "time": 98.99983499999999,
          "velocity": 0.7559055118110236
        },
        {
          "duration": 0.14874975208333296,
          "durationTicks": 119,
          "midi": 66,
          "name": "F#4",
          "ticks": 79440,
          "time": 99.29983449999999,
          "velocity": 0.7559055118110236
        },
        {
          "duration": 0.1412497645833355,
          "durationTicks": 113,
          "midi": 67,
          "name": "G4",
          "ticks": 79560,
          "time": 99.44983425,
          "velocity": 0.7559055118110236
        },
        {
          "duration": 0.1412497645833497,
          "durationTicks": 113,
          "midi": 69,
          "name": "A4",
          "ticks": 79680,
          "time": 99.59983399999999,
          "velocity": 0.7559055118110236
        },
        {
          "duration": 0.1412497645833355,
          "durationTicks": 113,
          "midi": 71,
          "name": "B4",
          "ticks": 79800,
          "time": 99.74983375,
          "velocity": 0.7559055118110236
        },
        {
          "duration": 0.1412497645833497,
          "durationTicks": 113,
          "midi": 69,
          "name": "A4",
          "ticks": 79920,
          "time": 99.89983349999999,
          "velocity": 0.7559055118110236
        },
        {
          "duration": 0.1412497645833355,
          "durationTicks": 113,
          "midi": 67,
          "name": "G4",
          "ticks": 80040,
          "time": 100.04983324999999,
          "velocity": 0.7559055118110236
        },
        {
          "duration": 0.1412497645833355,
          "durationTicks": 113,
          "midi": 69,
          "name": "A4",
          "ticks": 80160,
          "time": 100.199833,
          "velocity": 0.7559055118110236
        },
        {
          "duration": 0.1412497645833355,
          "durationTicks": 113,
          "midi": 66,
          "name": "F#4",
          "ticks": 80280,
          "time": 100.34983274999999,
          "velocity": 0.7559055118110236
        },
        {
          "duration": 0.1412497645833355,
          "durationTicks": 113,
          "midi": 67,
          "name": "G4",
          "ticks": 80400,
          "time": 100.4998325,
          "velocity": 0.7559055118110236
        },
        {
          "duration": 0.1412497645833497,
          "durationTicks": 113,
          "midi": 69,
          "name": "A4",
          "ticks": 80520,
          "time": 100.64983224999999,
          "velocity": 0.7559055118110236
        },
        {
          "duration": 0.2837495270833301,
          "durationTicks": 227,
          "midi": 67,
          "name": "G4",
          "ticks": 80640,
          "time": 100.799832,
          "velocity": 0.7559055118110236
        },
        {
          "duration": 0.14874975208333296,
          "durationTicks": 119,
          "midi": 71,
          "name": "B4",
          "ticks": 80880,
          "time": 101.0998315,
          "velocity": 0.7559055118110236
        },
        {
          "duration": 0.14874975208334718,
          "durationTicks": 119,
          "midi": 69,
          "name": "A4",
          "ticks": 81000,
          "time": 101.24983124999999,
          "velocity": 0.7559055118110236
        },
        {
          "duration": 0.2837495270833301,
          "durationTicks": 227,
          "midi": 67,
          "name": "G4",
          "ticks": 81120,
          "time": 101.39983099999999,
          "velocity": 0.7559055118110236
        },
        {
          "duration": 0.14874975208333296,
          "durationTicks": 119,
          "midi": 66,
          "name": "F#4",
          "ticks": 81360,
          "time": 101.69983049999999,
          "velocity": 0.7559055118110236
        },
        {
          "duration": 0.1412497645833355,
          "durationTicks": 113,
          "midi": 64,
          "name": "E4",
          "ticks": 81480,
          "time": 101.84983025,
          "velocity": 0.7559055118110236
        },
        {
          "duration": 0.1412497645833497,
          "durationTicks": 113,
          "midi": 66,
          "name": "F#4",
          "ticks": 81600,
          "time": 101.99982999999999,
          "velocity": 0.7559055118110236
        },
        {
          "duration": 0.1412497645833355,
          "durationTicks": 113,
          "midi": 64,
          "name": "E4",
          "ticks": 81720,
          "time": 102.14982975,
          "velocity": 0.7559055118110236
        },
        {
          "duration": 0.1412497645833497,
          "durationTicks": 113,
          "midi": 62,
          "name": "D4",
          "ticks": 81840,
          "time": 102.29982949999999,
          "velocity": 0.7559055118110236
        },
        {
          "duration": 0.1412497645833355,
          "durationTicks": 113,
          "midi": 64,
          "name": "E4",
          "ticks": 81960,
          "time": 102.44982925,
          "velocity": 0.7559055118110236
        },
        {
          "duration": 0.1412497645833497,
          "durationTicks": 113,
          "midi": 66,
          "name": "F#4",
          "ticks": 82080,
          "time": 102.59982899999999,
          "velocity": 0.7559055118110236
        },
        {
          "duration": 0.1412497645833355,
          "durationTicks": 113,
          "midi": 67,
          "name": "G4",
          "ticks": 82200,
          "time": 102.74982874999999,
          "velocity": 0.7559055118110236
        },
        {
          "duration": 0.1412497645833355,
          "durationTicks": 113,
          "midi": 69,
          "name": "A4",
          "ticks": 82320,
          "time": 102.8998285,
          "velocity": 0.7559055118110236
        },
        {
          "duration": 0.1412497645833355,
          "durationTicks": 113,
          "midi": 71,
          "name": "B4",
          "ticks": 82440,
          "time": 103.04982824999999,
          "velocity": 0.7559055118110236
        },
        {
          "duration": 0.2837495270833301,
          "durationTicks": 227,
          "midi": 67,
          "name": "G4",
          "ticks": 82560,
          "time": 103.199828,
          "velocity": 0.7559055118110236
        },
        {
          "duration": 0.14874975208333296,
          "durationTicks": 119,
          "midi": 71,
          "name": "B4",
          "ticks": 82800,
          "time": 103.4998275,
          "velocity": 0.7559055118110236
        },
        {
          "duration": 0.1412497645833497,
          "durationTicks": 113,
          "midi": 69,
          "name": "A4",
          "ticks": 82920,
          "time": 103.64982724999999,
          "velocity": 0.7559055118110236
        },
        {
          "duration": 0.2837495270833301,
          "durationTicks": 227,
          "midi": 71,
          "name": "B4",
          "ticks": 83040,
          "time": 103.799827,
          "velocity": 0.7559055118110236
        },
        {
          "duration": 0.14874975208333296,
          "durationTicks": 119,
          "midi": 73,
          "name": "C#5",
          "ticks": 83280,
          "time": 104.09982649999999,
          "velocity": 0.7559055118110236
        },
        {
          "duration": 0.1412497645833355,
          "durationTicks": 113,
          "midi": 74,
          "name": "D5",
          "ticks": 83400,
          "time": 104.24982625,
          "velocity": 0.7559055118110236
        },
        {
          "duration": 0.1412497645833355,
          "durationTicks": 113,
          "midi": 69,
          "name": "A4",
          "ticks": 83520,
          "time": 104.39982599999999,
          "velocity": 0.7559055118110236
        },
        {
          "duration": 0.1412497645833355,
          "durationTicks": 113,
          "midi": 71,
          "name": "B4",
          "ticks": 83640,
          "time": 104.54982575,
          "velocity": 0.7559055118110236
        },
        {
          "duration": 0.1412497645833497,
          "durationTicks": 113,
          "midi": 73,
          "name": "C#5",
          "ticks": 83760,
          "time": 104.69982549999999,
          "velocity": 0.7559055118110236
        },
        {
          "duration": 0.1412497645833355,
          "durationTicks": 113,
          "midi": 74,
          "name": "D5",
          "ticks": 83880,
          "time": 104.84982525,
          "velocity": 0.7559055118110236
        },
        {
          "duration": 0.1412497645833497,
          "durationTicks": 113,
          "midi": 76,
          "name": "E5",
          "ticks": 84000,
          "time": 104.99982499999999,
          "velocity": 0.7559055118110236
        },
        {
          "duration": 0.1412497645833355,
          "durationTicks": 113,
          "midi": 78,
          "name": "F#5",
          "ticks": 84120,
          "time": 105.14982475,
          "velocity": 0.7559055118110236
        },
        {
          "duration": 0.1412497645833497,
          "durationTicks": 113,
          "midi": 79,
          "name": "G5",
          "ticks": 84240,
          "time": 105.29982449999999,
          "velocity": 0.7559055118110236
        },
        {
          "duration": 0.1412497645833355,
          "durationTicks": 113,
          "midi": 81,
          "name": "A5",
          "ticks": 84360,
          "time": 105.44982424999999,
          "velocity": 0.7559055118110236
        },
        {
          "duration": 0.28374952708334433,
          "durationTicks": 227,
          "midi": 78,
          "name": "F#5",
          "ticks": 84480,
          "time": 105.59982399999998,
          "velocity": 0.7559055118110236
        },
        {
          "duration": 0.14874975208333296,
          "durationTicks": 119,
          "midi": 74,
          "name": "D5",
          "ticks": 84720,
          "time": 105.8998235,
          "velocity": 0.7559055118110236
        },
        {
          "duration": 0.14874975208333296,
          "durationTicks": 119,
          "midi": 76,
          "name": "E5",
          "ticks": 84840,
          "time": 106.04982324999999,
          "velocity": 0.7559055118110236
        },
        {
          "duration": 0.2837495270833301,
          "durationTicks": 227,
          "midi": 78,
          "name": "F#5",
          "ticks": 84960,
          "time": 106.199823,
          "velocity": 0.7559055118110236
        },
        {
          "duration": 0.14874975208333296,
          "durationTicks": 119,
          "midi": 76,
          "name": "E5",
          "ticks": 85200,
          "time": 106.4998225,
          "velocity": 0.7559055118110236
        },
        {
          "duration": 0.1412497645833497,
          "durationTicks": 113,
          "midi": 74,
          "name": "D5",
          "ticks": 85320,
          "time": 106.64982224999999,
          "velocity": 0.7559055118110236
        },
        {
          "duration": 0.1412497645833355,
          "durationTicks": 113,
          "midi": 76,
          "name": "E5",
          "ticks": 85440,
          "time": 106.79982199999999,
          "velocity": 0.7559055118110236
        },
        {
          "duration": 0.1412497645833497,
          "durationTicks": 113,
          "midi": 73,
          "name": "C#5",
          "ticks": 85560,
          "time": 106.94982174999998,
          "velocity": 0.7559055118110236
        },
        {
          "duration": 0.1412497645833355,
          "durationTicks": 113,
          "midi": 74,
          "name": "D5",
          "ticks": 85680,
          "time": 107.09982149999999,
          "velocity": 0.7559055118110236
        },
        {
          "duration": 0.1412497645833355,
          "durationTicks": 113,
          "midi": 76,
          "name": "E5",
          "ticks": 85800,
          "time": 107.24982125,
          "velocity": 0.7559055118110236
        },
        {
          "duration": 0.1412497645833497,
          "durationTicks": 113,
          "midi": 78,
          "name": "F#5",
          "ticks": 85920,
          "time": 107.39982099999999,
          "velocity": 0.7559055118110236
        },
        {
          "duration": 0.1412497645833355,
          "durationTicks": 113,
          "midi": 76,
          "name": "E5",
          "ticks": 86040,
          "time": 107.54982075,
          "velocity": 0.7559055118110236
        },
        {
          "duration": 0.1412497645833497,
          "durationTicks": 113,
          "midi": 74,
          "name": "D5",
          "ticks": 86160,
          "time": 107.69982049999999,
          "velocity": 0.7559055118110236
        },
        {
          "duration": 0.1412497645833355,
          "durationTicks": 113,
          "midi": 73,
          "name": "C#5",
          "ticks": 86280,
          "time": 107.84982025,
          "velocity": 0.7559055118110236
        },
        {
          "duration": 0.2837495270833301,
          "durationTicks": 227,
          "midi": 74,
          "name": "D5",
          "ticks": 86400,
          "time": 107.99981999999999,
          "velocity": 0.7559055118110236
        },
        {
          "duration": 0.14874975208334718,
          "durationTicks": 119,
          "midi": 71,
          "name": "B4",
          "ticks": 86640,
          "time": 108.29981949999998,
          "velocity": 0.7559055118110236
        },
        {
          "duration": 0.14874975208333296,
          "durationTicks": 119,
          "midi": 73,
          "name": "C#5",
          "ticks": 86760,
          "time": 108.44981924999999,
          "velocity": 0.7559055118110236
        },
        {
          "duration": 0.2837495270833301,
          "durationTicks": 227,
          "midi": 74,
          "name": "D5",
          "ticks": 86880,
          "time": 108.599819,
          "velocity": 0.7559055118110236
        },
        {
          "duration": 0.14874975208333296,
          "durationTicks": 119,
          "midi": 74,
          "name": "D5",
          "ticks": 87120,
          "time": 108.8998185,
          "velocity": 0.7559055118110236
        },
        {
          "duration": 0.1412497645833497,
          "durationTicks": 113,
          "midi": 76,
          "name": "E5",
          "ticks": 87240,
          "time": 109.04981824999999,
          "velocity": 0.7559055118110236
        },
        {
          "duration": 0.1412497645833355,
          "durationTicks": 113,
          "midi": 78,
          "name": "F#5",
          "ticks": 87360,
          "time": 109.199818,
          "velocity": 0.7559055118110236
        },
        {
          "duration": 0.1412497645833497,
          "durationTicks": 113,
          "midi": 79,
          "name": "G5",
          "ticks": 87480,
          "time": 109.34981774999999,
          "velocity": 0.7559055118110236
        },
        {
          "duration": 0.1412497645833355,
          "durationTicks": 113,
          "midi": 78,
          "name": "F#5",
          "ticks": 87600,
          "time": 109.49981749999999,
          "velocity": 0.7559055118110236
        },
        {
          "duration": 0.1412497645833497,
          "durationTicks": 113,
          "midi": 76,
          "name": "E5",
          "ticks": 87720,
          "time": 109.64981724999998,
          "velocity": 0.7559055118110236
        },
        {
          "duration": 0.1412497645833355,
          "durationTicks": 113,
          "midi": 78,
          "name": "F#5",
          "ticks": 87840,
          "time": 109.79981699999999,
          "velocity": 0.7559055118110236
        },
        {
          "duration": 0.1412497645833355,
          "durationTicks": 113,
          "midi": 74,
          "name": "D5",
          "ticks": 87960,
          "time": 109.94981675,
          "velocity": 0.7559055118110236
        },
        {
          "duration": 0.1412497645833497,
          "durationTicks": 113,
          "midi": 73,
          "name": "C#5",
          "ticks": 88080,
          "time": 110.09981649999999,
          "velocity": 0.7559055118110236
        },
        {
          "duration": 0.1412497645833355,
          "durationTicks": 113,
          "midi": 74,
          "name": "D5",
          "ticks": 88200,
          "time": 110.24981625,
          "velocity": 0.7559055118110236
        },
        {
          "duration": 0.2837495270833301,
          "durationTicks": 227,
          "midi": 71,
          "name": "B4",
          "ticks": 88320,
          "time": 110.39981599999999,
          "velocity": 0.7559055118110236
        },
        {
          "duration": 0.14874975208333296,
          "durationTicks": 119,
          "midi": 74,
          "name": "D5",
          "ticks": 88560,
          "time": 110.69981549999999,
          "velocity": 0.7559055118110236
        },
        {
          "duration": 0.14874975208333296,
          "durationTicks": 119,
          "midi": 73,
          "name": "C#5",
          "ticks": 88680,
          "time": 110.84981524999999,
          "velocity": 0.7559055118110236
        },
        {
          "duration": 0.28374952708334433,
          "durationTicks": 227,
          "midi": 71,
          "name": "B4",
          "ticks": 88800,
          "time": 110.99981499999998,
          "velocity": 0.7559055118110236
        },
        {
          "duration": 0.14874975208333296,
          "durationTicks": 119,
          "midi": 69,
          "name": "A4",
          "ticks": 89040,
          "time": 111.2998145,
          "velocity": 0.7559055118110236
        },
        {
          "duration": 0.1412497645833497,
          "durationTicks": 113,
          "midi": 67,
          "name": "G4",
          "ticks": 89160,
          "time": 111.44981424999999,
          "velocity": 0.7559055118110236
        },
        {
          "duration": 0.1412497645833355,
          "durationTicks": 113,
          "midi": 69,
          "name": "A4",
          "ticks": 89280,
          "time": 111.599814,
          "velocity": 0.7559055118110236
        },
        {
          "duration": 0.1412497645833497,
          "durationTicks": 113,
          "midi": 67,
          "name": "G4",
          "ticks": 89400,
          "time": 111.74981374999999,
          "velocity": 0.7559055118110236
        },
        {
          "duration": 0.1412497645833355,
          "durationTicks": 113,
          "midi": 66,
          "name": "F#4",
          "ticks": 89520,
          "time": 111.8998135,
          "velocity": 0.7559055118110236
        },
        {
          "duration": 0.1412497645833497,
          "durationTicks": 113,
          "midi": 67,
          "name": "G4",
          "ticks": 89640,
          "time": 112.04981324999999,
          "velocity": 0.7559055118110236
        },
        {
          "duration": 0.1412497645833355,
          "durationTicks": 113,
          "midi": 69,
          "name": "A4",
          "ticks": 89760,
          "time": 112.19981299999999,
          "velocity": 0.7559055118110236
        },
        {
          "duration": 0.1412497645833497,
          "durationTicks": 113,
          "midi": 71,
          "name": "B4",
          "ticks": 89880,
          "time": 112.34981274999998,
          "velocity": 0.7559055118110236
        },
        {
          "duration": 0.1412497645833355,
          "durationTicks": 113,
          "midi": 73,
          "name": "C#5",
          "ticks": 90000,
          "time": 112.49981249999999,
          "velocity": 0.7559055118110236
        },
        {
          "duration": 0.1412497645833355,
          "durationTicks": 113,
          "midi": 74,
          "name": "D5",
          "ticks": 90120,
          "time": 112.64981225,
          "velocity": 0.7559055118110236
        },
        {
          "duration": 0.2837495270833301,
          "durationTicks": 227,
          "midi": 71,
          "name": "B4",
          "ticks": 90240,
          "time": 112.79981199999999,
          "velocity": 0.7559055118110236
        },
        {
          "duration": 0.14874975208333296,
          "durationTicks": 119,
          "midi": 74,
          "name": "D5",
          "ticks": 90480,
          "time": 113.09981149999999,
          "velocity": 0.7559055118110236
        },
        {
          "duration": 0.14874975208333296,
          "durationTicks": 119,
          "midi": 73,
          "name": "C#5",
          "ticks": 90600,
          "time": 113.24981125,
          "velocity": 0.7559055118110236
        },
        {
          "duration": 0.2837495270833301,
          "durationTicks": 227,
          "midi": 74,
          "name": "D5",
          "ticks": 90720,
          "time": 113.39981099999999,
          "velocity": 0.7559055118110236
        },
        {
          "duration": 0.14874975208334718,
          "durationTicks": 119,
          "midi": 73,
          "name": "C#5",
          "ticks": 90960,
          "time": 113.69981049999998,
          "velocity": 0.7559055118110236
        },
        {
          "duration": 0.1412497645833355,
          "durationTicks": 113,
          "midi": 71,
          "name": "B4",
          "ticks": 91080,
          "time": 113.84981024999999,
          "velocity": 0.7559055118110236
        },
        {
          "duration": 0.1412497645833355,
          "durationTicks": 113,
          "midi": 73,
          "name": "C#5",
          "ticks": 91200,
          "time": 113.99981,
          "velocity": 0.7559055118110236
        },
        {
          "duration": 0.1412497645833497,
          "durationTicks": 113,
          "midi": 69,
          "name": "A4",
          "ticks": 91320,
          "time": 114.14980974999999,
          "velocity": 0.7559055118110236
        },
        {
          "duration": 0.1412497645833355,
          "durationTicks": 113,
          "midi": 71,
          "name": "B4",
          "ticks": 91440,
          "time": 114.2998095,
          "velocity": 0.7559055118110236
        },
        {
          "duration": 0.1412497645833497,
          "durationTicks": 113,
          "midi": 73,
          "name": "C#5",
          "ticks": 91560,
          "time": 114.44980924999999,
          "velocity": 0.7559055118110236
        },
        {
          "duration": 0.1412497645833355,
          "durationTicks": 113,
          "midi": 74,
          "name": "D5",
          "ticks": 91680,
          "time": 114.599809,
          "velocity": 0.7559055118110236
        },
        {
          "duration": 0.1412497645833497,
          "durationTicks": 113,
          "midi": 76,
          "name": "E5",
          "ticks": 91800,
          "time": 114.74980874999999,
          "velocity": 0.7559055118110236
        },
        {
          "duration": 0.1412497645833355,
          "durationTicks": 113,
          "midi": 78,
          "name": "F#5",
          "ticks": 91920,
          "time": 114.89980849999999,
          "velocity": 0.7559055118110236
        },
        {
          "duration": 0.1412497645833497,
          "durationTicks": 113,
          "midi": 79,
          "name": "G5",
          "ticks": 92040,
          "time": 115.04980824999998,
          "velocity": 0.7559055118110236
        },
        {
          "duration": 0.2837495270833301,
          "durationTicks": 227,
          "midi": 78,
          "name": "F#5",
          "ticks": 92160,
          "time": 115.19980799999999,
          "velocity": 0.7559055118110236
        },
        {
          "duration": 0.14874975208333296,
          "durationTicks": 119,
          "midi": 74,
          "name": "D5",
          "ticks": 92400,
          "time": 115.49980749999999,
          "velocity": 0.7559055118110236
        },
        {
          "duration": 0.14874975208333296,
          "durationTicks": 119,
          "midi": 76,
          "name": "E5",
          "ticks": 92520,
          "time": 115.64980725,
          "velocity": 0.7559055118110236
        },
        {
          "duration": 0.2837495270833301,
          "durationTicks": 227,
          "midi": 78,
          "name": "F#5",
          "ticks": 92640,
          "time": 115.79980699999999,
          "velocity": 0.7559055118110236
        },
        {
          "duration": 0.14874975208333296,
          "durationTicks": 119,
          "midi": 76,
          "name": "E5",
          "ticks": 92880,
          "time": 116.09980649999999,
          "velocity": 0.7559055118110236
        },
        {
          "duration": 0.1412497645833355,
          "durationTicks": 113,
          "midi": 74,
          "name": "D5",
          "ticks": 93000,
          "time": 116.24980624999999,
          "velocity": 0.7559055118110236
        },
        {
          "duration": 0.1412497645833497,
          "durationTicks": 113,
          "midi": 76,
          "name": "E5",
          "ticks": 93120,
          "time": 116.39980599999998,
          "velocity": 0.7559055118110236
        },
        {
          "duration": 0.1412497645833355,
          "durationTicks": 113,
          "midi": 73,
          "name": "C#5",
          "ticks": 93240,
          "time": 116.54980574999999,
          "velocity": 0.7559055118110236
        },
        {
          "duration": 0.1412497645833355,
          "durationTicks": 113,
          "midi": 74,
          "name": "D5",
          "ticks": 93360,
          "time": 116.6998055,
          "velocity": 0.7559055118110236
        },
        {
          "duration": 0.1412497645833497,
          "durationTicks": 113,
          "midi": 76,
          "name": "E5",
          "ticks": 93480,
          "time": 116.84980524999999,
          "velocity": 0.7559055118110236
        },
        {
          "duration": 0.1412497645833355,
          "durationTicks": 113,
          "midi": 78,
          "name": "F#5",
          "ticks": 93600,
          "time": 116.999805,
          "velocity": 0.7559055118110236
        },
        {
          "duration": 0.1412497645833497,
          "durationTicks": 113,
          "midi": 76,
          "name": "E5",
          "ticks": 93720,
          "time": 117.14980474999999,
          "velocity": 0.7559055118110236
        },
        {
          "duration": 0.1412497645833355,
          "durationTicks": 113,
          "midi": 74,
          "name": "D5",
          "ticks": 93840,
          "time": 117.2998045,
          "velocity": 0.7559055118110236
        },
        {
          "duration": 0.1412497645833497,
          "durationTicks": 113,
          "midi": 73,
          "name": "C#5",
          "ticks": 93960,
          "time": 117.44980424999999,
          "velocity": 0.7559055118110236
        },
        {
          "duration": 0.2837495270833301,
          "durationTicks": 227,
          "midi": 74,
          "name": "D5",
          "ticks": 94080,
          "time": 117.59980399999999,
          "velocity": 0.7559055118110236
        },
        {
          "duration": 0.14874975208333296,
          "durationTicks": 119,
          "midi": 71,
          "name": "B4",
          "ticks": 94320,
          "time": 117.89980349999999,
          "velocity": 0.7559055118110236
        },
        {
          "duration": 0.14874975208333296,
          "durationTicks": 119,
          "midi": 73,
          "name": "C#5",
          "ticks": 94440,
          "time": 118.04980325,
          "velocity": 0.7559055118110236
        },
        {
          "duration": 0.2837495270833301,
          "durationTicks": 227,
          "midi": 74,
          "name": "D5",
          "ticks": 94560,
          "time": 118.19980299999999,
          "velocity": 0.7559055118110236
        },
        {
          "duration": 0.14874975208333296,
          "durationTicks": 119,
          "midi": 74,
          "name": "D5",
          "ticks": 94800,
          "time": 118.49980249999999,
          "velocity": 0.7559055118110236
        },
        {
          "duration": 0.1412497645833355,
          "durationTicks": 113,
          "midi": 76,
          "name": "E5",
          "ticks": 94920,
          "time": 118.64980225,
          "velocity": 0.7559055118110236
        },
        {
          "duration": 0.1412497645833497,
          "durationTicks": 113,
          "midi": 78,
          "name": "F#5",
          "ticks": 95040,
          "time": 118.79980199999999,
          "velocity": 0.7559055118110236
        },
        {
          "duration": 0.1412497645833355,
          "durationTicks": 113,
          "midi": 79,
          "name": "G5",
          "ticks": 95160,
          "time": 118.94980174999999,
          "velocity": 0.7559055118110236
        },
        {
          "duration": 0.1412497645833497,
          "durationTicks": 113,
          "midi": 78,
          "name": "F#5",
          "ticks": 95280,
          "time": 119.09980149999998,
          "velocity": 0.7559055118110236
        },
        {
          "duration": 0.1412497645833355,
          "durationTicks": 113,
          "midi": 76,
          "name": "E5",
          "ticks": 95400,
          "time": 119.24980124999999,
          "velocity": 0.7559055118110236
        },
        {
          "duration": 0.1412497645833355,
          "durationTicks": 113,
          "midi": 78,
          "name": "F#5",
          "ticks": 95520,
          "time": 119.399801,
          "velocity": 0.7559055118110236
        },
        {
          "duration": 0.1412497645833355,
          "durationTicks": 113,
          "midi": 74,
          "name": "D5",
          "ticks": 95640,
          "time": 119.54980074999999,
          "velocity": 0.7559055118110236
        },
        {
          "duration": 0.1412497645833355,
          "durationTicks": 113,
          "midi": 73,
          "name": "C#5",
          "ticks": 95760,
          "time": 119.6998005,
          "velocity": 0.7559055118110236
        },
        {
          "duration": 0.1412497645833497,
          "durationTicks": 113,
          "midi": 74,
          "name": "D5",
          "ticks": 95880,
          "time": 119.84980024999999,
          "velocity": 0.7559055118110236
        },
        {
          "duration": 0.2837495270833301,
          "durationTicks": 227,
          "midi": 71,
          "name": "B4",
          "ticks": 96000,
          "time": 119.9998,
          "velocity": 0.7559055118110236
        },
        {
          "duration": 0.14874975208333296,
          "durationTicks": 119,
          "midi": 74,
          "name": "D5",
          "ticks": 96240,
          "time": 120.29979949999999,
          "velocity": 0.7559055118110236
        },
        {
          "duration": 0.14874975208334718,
          "durationTicks": 119,
          "midi": 73,
          "name": "C#5",
          "ticks": 96360,
          "time": 120.44979924999998,
          "velocity": 0.7559055118110236
        },
        {
          "duration": 0.2837495270833301,
          "durationTicks": 227,
          "midi": 71,
          "name": "B4",
          "ticks": 96480,
          "time": 120.59979899999999,
          "velocity": 0.7559055118110236
        },
        {
          "duration": 0.14874975208333296,
          "durationTicks": 119,
          "midi": 69,
          "name": "A4",
          "ticks": 96720,
          "time": 120.89979849999999,
          "velocity": 0.7559055118110236
        },
        {
          "duration": 0.1412497645833355,
          "durationTicks": 113,
          "midi": 67,
          "name": "G4",
          "ticks": 96840,
          "time": 121.04979825,
          "velocity": 0.7559055118110236
        },
        {
          "duration": 0.1412497645833497,
          "durationTicks": 113,
          "midi": 69,
          "name": "A4",
          "ticks": 96960,
          "time": 121.19979799999999,
          "velocity": 0.7559055118110236
        },
        {
          "duration": 0.1412497645833355,
          "durationTicks": 113,
          "midi": 67,
          "name": "G4",
          "ticks": 97080,
          "time": 121.34979775,
          "velocity": 0.7559055118110236
        },
        {
          "duration": 0.1412497645833497,
          "durationTicks": 113,
          "midi": 66,
          "name": "F#4",
          "ticks": 97200,
          "time": 121.49979749999999,
          "velocity": 0.7559055118110236
        },
        {
          "duration": 0.1412497645833355,
          "durationTicks": 113,
          "midi": 67,
          "name": "G4",
          "ticks": 97320,
          "time": 121.64979724999999,
          "velocity": 0.7559055118110236
        },
        {
          "duration": 0.1412497645833497,
          "durationTicks": 113,
          "midi": 69,
          "name": "A4",
          "ticks": 97440,
          "time": 121.79979699999998,
          "velocity": 0.7559055118110236
        },
        {
          "duration": 0.1412497645833355,
          "durationTicks": 113,
          "midi": 71,
          "name": "B4",
          "ticks": 97560,
          "time": 121.94979674999999,
          "velocity": 0.7559055118110236
        },
        {
          "duration": 0.1412497645833355,
          "durationTicks": 113,
          "midi": 73,
          "name": "C#5",
          "ticks": 97680,
          "time": 122.0997965,
          "velocity": 0.7559055118110236
        },
        {
          "duration": 0.1412497645833355,
          "durationTicks": 113,
          "midi": 74,
          "name": "D5",
          "ticks": 97800,
          "time": 122.24979624999999,
          "velocity": 0.7559055118110236
        },
        {
          "duration": 0.2837495270833301,
          "durationTicks": 227,
          "midi": 71,
          "name": "B4",
          "ticks": 97920,
          "time": 122.399796,
          "velocity": 0.7559055118110236
        },
        {
          "duration": 0.14874975208333296,
          "durationTicks": 119,
          "midi": 74,
          "name": "D5",
          "ticks": 98160,
          "time": 122.6997955,
          "velocity": 0.7559055118110236
        },
        {
          "duration": 0.14874975208333296,
          "durationTicks": 119,
          "midi": 73,
          "name": "C#5",
          "ticks": 98280,
          "time": 122.84979524999999,
          "velocity": 0.7559055118110236
        },
        {
          "duration": 0.2837495270833301,
          "durationTicks": 227,
          "midi": 74,
          "name": "D5",
          "ticks": 98400,
          "time": 122.99979499999999,
          "velocity": 0.7559055118110236
        },
        {
          "duration": 0.14874975208333296,
          "durationTicks": 119,
          "midi": 73,
          "name": "C#5",
          "ticks": 98640,
          "time": 123.29979449999999,
          "velocity": 0.7559055118110236
        },
        {
          "duration": 0.1412497645833355,
          "durationTicks": 113,
          "midi": 71,
          "name": "B4",
          "ticks": 98760,
          "time": 123.44979425,
          "velocity": 0.7559055118110236
        },
        {
          "duration": 0.1412497645833355,
          "durationTicks": 113,
          "midi": 73,
          "name": "C#5",
          "ticks": 98880,
          "time": 123.59979399999999,
          "velocity": 0.7559055118110236
        },
        {
          "duration": 0.1412497645833355,
          "durationTicks": 113,
          "midi": 69,
          "name": "A4",
          "ticks": 99000,
          "time": 123.74979375,
          "velocity": 0.7559055118110236
        },
        {
          "duration": 0.1412497645833497,
          "durationTicks": 113,
          "midi": 71,
          "name": "B4",
          "ticks": 99120,
          "time": 123.89979349999999,
          "velocity": 0.7559055118110236
        },
        {
          "duration": 0.1412497645833355,
          "durationTicks": 113,
          "midi": 73,
          "name": "C#5",
          "ticks": 99240,
          "time": 124.04979325,
          "velocity": 0.7559055118110236
        },
        {
          "duration": 0.1412497645833497,
          "durationTicks": 113,
          "midi": 74,
          "name": "D5",
          "ticks": 99360,
          "time": 124.19979299999999,
          "velocity": 0.7559055118110236
        },
        {
          "duration": 0.1412497645833355,
          "durationTicks": 113,
          "midi": 76,
          "name": "E5",
          "ticks": 99480,
          "time": 124.34979274999999,
          "velocity": 0.7559055118110236
        },
        {
          "duration": 0.1412497645833497,
          "durationTicks": 113,
          "midi": 78,
          "name": "F#5",
          "ticks": 99600,
          "time": 124.49979249999998,
          "velocity": 0.7559055118110236
        },
        {
          "duration": 0.1412497645833355,
          "durationTicks": 113,
          "midi": 79,
          "name": "G5",
          "ticks": 99720,
          "time": 124.64979224999999,
          "velocity": 0.7559055118110236
        },
        {
          "duration": 0.2837495270833301,
          "durationTicks": 227,
          "midi": 81,
          "name": "A5",
          "ticks": 99840,
          "time": 124.799792,
          "velocity": 0.6299212598425197
        },
        {
          "duration": 0.2837495270833301,
          "durationTicks": 227,
          "midi": 74,
          "name": "D5",
          "ticks": 100080,
          "time": 125.0997915,
          "velocity": 0.6299212598425197
        },
        {
          "duration": 0.2837495270833301,
          "durationTicks": 227,
          "midi": 78,
          "name": "F#5",
          "ticks": 100320,
          "time": 125.399791,
          "velocity": 0.6299212598425197
        },
        {
          "duration": 0.2837495270833301,
          "durationTicks": 227,
          "midi": 81,
          "name": "A5",
          "ticks": 100560,
          "time": 125.69979049999999,
          "velocity": 0.6299212598425197
        },
        {
          "duration": 0.2837495270833301,
          "durationTicks": 227,
          "midi": 81,
          "name": "A5",
          "ticks": 100800,
          "time": 125.99978999999999,
          "velocity": 0.6299212598425197
        },
        {
          "duration": 0.2837495270833301,
          "durationTicks": 227,
          "midi": 83,
          "name": "B5",
          "ticks": 101040,
          "time": 126.29978949999999,
          "velocity": 0.6299212598425197
        },
        {
          "duration": 0.2837495270833301,
          "durationTicks": 227,
          "midi": 81,
          "name": "A5",
          "ticks": 101280,
          "time": 126.59978899999999,
          "velocity": 0.6299212598425197
        },
        {
          "duration": 0.2837495270833301,
          "durationTicks": 227,
          "midi": 79,
          "name": "G5",
          "ticks": 101520,
          "time": 126.89978849999999,
          "velocity": 0.6299212598425197
        },
        {
          "duration": 0.8537485770833371,
          "durationTicks": 683,
          "midi": 78,
          "name": "F#5",
          "ticks": 101760,
          "time": 127.19978799999998,
          "velocity": 0.6299212598425197
        },
        {
          "duration": 0.2837495270833301,
          "durationTicks": 227,
          "midi": 78,
          "name": "F#5",
          "ticks": 102480,
          "time": 128.0997865,
          "velocity": 0.6299212598425197
        },
        {
          "duration": 0.2837495270833301,
          "durationTicks": 227,
          "midi": 78,
          "name": "F#5",
          "ticks": 102720,
          "time": 128.39978599999998,
          "velocity": 0.6299212598425197
        },
        {
          "duration": 0.2837495270833301,
          "durationTicks": 227,
          "midi": 79,
          "name": "G5",
          "ticks": 102960,
          "time": 128.6997855,
          "velocity": 0.6299212598425197
        },
        {
          "duration": 0.2837495270833301,
          "durationTicks": 227,
          "midi": 78,
          "name": "F#5",
          "ticks": 103200,
          "time": 128.999785,
          "velocity": 0.6299212598425197
        },
        {
          "duration": 0.2837495270833301,
          "durationTicks": 227,
          "midi": 76,
          "name": "E5",
          "ticks": 103440,
          "time": 129.2997845,
          "velocity": 0.6299212598425197
        },
        {
          "duration": 0.2837495270833301,
          "durationTicks": 227,
          "midi": 74,
          "name": "D5",
          "ticks": 103680,
          "time": 129.599784,
          "velocity": 0.6299212598425197
        },
        {
          "duration": 0.2837495270833301,
          "durationTicks": 227,
          "midi": 72,
          "name": "C5",
          "ticks": 103920,
          "time": 129.89978349999998,
          "velocity": 0.6299212598425197
        },
        {
          "duration": 0.2837495270833301,
          "durationTicks": 227,
          "midi": 71,
          "name": "B4",
          "ticks": 104160,
          "time": 130.199783,
          "velocity": 0.6299212598425197
        },
        {
          "duration": 0.2837495270833301,
          "durationTicks": 227,
          "midi": 72,
          "name": "C5",
          "ticks": 104400,
          "time": 130.49978249999998,
          "velocity": 0.6299212598425197
        },
        {
          "duration": 0.5687490520833194,
          "durationTicks": 455,
          "midi": 74,
          "name": "D5",
          "ticks": 104640,
          "time": 130.799782,
          "velocity": 0.6299212598425197
        },
        {
          "duration": 0.42624928958332475,
          "durationTicks": 341,
          "midi": 69,
          "name": "A4",
          "ticks": 105120,
          "time": 131.399781,
          "velocity": 0.6299212598425197
        },
        {
          "duration": 0.1412497645833355,
          "durationTicks": 113,
          "midi": 69,
          "name": "A4",
          "ticks": 105480,
          "time": 131.84978024999998,
          "velocity": 0.6299212598425197
        },
        {
          "duration": 0.2837495270833301,
          "durationTicks": 227,
          "midi": 74,
          "name": "D5",
          "ticks": 105600,
          "time": 131.99978,
          "velocity": 0.6299212598425197
        },
        {
          "duration": 0.2837495270833301,
          "durationTicks": 227,
          "midi": 72,
          "name": "C5",
          "ticks": 105840,
          "time": 132.2997795,
          "velocity": 0.6299212598425197
        },
        {
          "duration": 0.2837495270833301,
          "durationTicks": 227,
          "midi": 71,
          "name": "B4",
          "ticks": 106080,
          "time": 132.59977899999998,
          "velocity": 0.6299212598425197
        },
        {
          "duration": 0.2837495270833301,
          "durationTicks": 227,
          "midi": 72,
          "name": "C5",
          "ticks": 106320,
          "time": 132.8997785,
          "velocity": 0.6299212598425197
        },
        {
          "duration": 0.5687490520833478,
          "durationTicks": 455,
          "midi": 74,
          "name": "D5",
          "ticks": 106560,
          "time": 133.19977799999998,
          "velocity": 0.6299212598425197
        },
        {
          "duration": 0.5687490520833478,
          "durationTicks": 455,
          "midi": 73,
          "name": "C#5",
          "ticks": 107040,
          "time": 133.79977699999998,
          "velocity": 0.6299212598425197
        },
        {
          "duration": 0.8537485770833655,
          "durationTicks": 683,
          "midi": 81,
          "name": "A5",
          "ticks": 107520,
          "time": 134.39977599999997,
          "velocity": 0.6299212598425197
        },
        {
          "duration": 0.2837495270833301,
          "durationTicks": 227,
          "midi": 81,
          "name": "A5",
          "ticks": 108240,
          "time": 135.29977449999998,
          "velocity": 0.6299212598425197
        },
        {
          "duration": 0.2837495270833301,
          "durationTicks": 227,
          "midi": 81,
          "name": "A5",
          "ticks": 108480,
          "time": 135.599774,
          "velocity": 0.6299212598425197
        },
        {
          "duration": 0.2837495270833301,
          "durationTicks": 227,
          "midi": 83,
          "name": "B5",
          "ticks": 108720,
          "time": 135.89977349999998,
          "velocity": 0.6299212598425197
        },
        {
          "duration": 0.2837495270833301,
          "durationTicks": 227,
          "midi": 81,
          "name": "A5",
          "ticks": 108960,
          "time": 136.199773,
          "velocity": 0.6299212598425197
        },
        {
          "duration": 0.2837495270833301,
          "durationTicks": 227,
          "midi": 79,
          "name": "G5",
          "ticks": 109200,
          "time": 136.49977249999998,
          "velocity": 0.6299212598425197
        },
        {
          "duration": 0.8537485770833371,
          "durationTicks": 683,
          "midi": 78,
          "name": "F#5",
          "ticks": 109440,
          "time": 136.799772,
          "velocity": 0.6299212598425197
        },
        {
          "duration": 0.2837495270833301,
          "durationTicks": 227,
          "midi": 78,
          "name": "F#5",
          "ticks": 110160,
          "time": 137.6997705,
          "velocity": 0.6299212598425197
        },
        {
          "duration": 0.2837495270833301,
          "durationTicks": 227,
          "midi": 78,
          "name": "F#5",
          "ticks": 110400,
          "time": 137.99976999999998,
          "velocity": 0.6299212598425197
        },
        {
          "duration": 0.2837495270833301,
          "durationTicks": 227,
          "midi": 79,
          "name": "G5",
          "ticks": 110640,
          "time": 138.2997695,
          "velocity": 0.6299212598425197
        },
        {
          "duration": 0.2837495270833301,
          "durationTicks": 227,
          "midi": 78,
          "name": "F#5",
          "ticks": 110880,
          "time": 138.59976899999998,
          "velocity": 0.6299212598425197
        },
        {
          "duration": 0.2837495270833301,
          "durationTicks": 227,
          "midi": 76,
          "name": "E5",
          "ticks": 111120,
          "time": 138.8997685,
          "velocity": 0.6299212598425197
        },
        {
          "duration": 0.2837495270833301,
          "durationTicks": 227,
          "midi": 74,
          "name": "D5",
          "ticks": 111360,
          "time": 139.19976799999998,
          "velocity": 0.6299212598425197
        },
        {
          "duration": 0.2837495270833301,
          "durationTicks": 227,
          "midi": 72,
          "name": "C5",
          "ticks": 111600,
          "time": 139.4997675,
          "velocity": 0.6299212598425197
        },
        {
          "duration": 0.28374952708335854,
          "durationTicks": 227,
          "midi": 71,
          "name": "B4",
          "ticks": 111840,
          "time": 139.79976699999997,
          "velocity": 0.6299212598425197
        },
        {
          "duration": 0.2837495270833301,
          "durationTicks": 227,
          "midi": 72,
          "name": "C5",
          "ticks": 112080,
          "time": 140.0997665,
          "velocity": 0.6299212598425197
        },
        {
          "duration": 0.5687490520833194,
          "durationTicks": 455,
          "midi": 74,
          "name": "D5",
          "ticks": 112320,
          "time": 140.399766,
          "velocity": 0.6299212598425197
        },
        {
          "duration": 0.42624928958332475,
          "durationTicks": 341,
          "midi": 69,
          "name": "A4",
          "ticks": 112800,
          "time": 140.999765,
          "velocity": 0.6299212598425197
        },
        {
          "duration": 0.1412497645833355,
          "durationTicks": 113,
          "midi": 69,
          "name": "A4",
          "ticks": 113160,
          "time": 141.44976425,
          "velocity": 0.6299212598425197
        },
        {
          "duration": 0.2837495270833301,
          "durationTicks": 227,
          "midi": 74,
          "name": "D5",
          "ticks": 113280,
          "time": 141.599764,
          "velocity": 0.6299212598425197
        },
        {
          "duration": 0.2837495270833301,
          "durationTicks": 227,
          "midi": 72,
          "name": "C5",
          "ticks": 113520,
          "time": 141.89976349999998,
          "velocity": 0.6299212598425197
        },
        {
          "duration": 0.2837495270833301,
          "durationTicks": 227,
          "midi": 71,
          "name": "B4",
          "ticks": 113760,
          "time": 142.199763,
          "velocity": 0.6299212598425197
        },
        {
          "duration": 0.28374952708335854,
          "durationTicks": 227,
          "midi": 72,
          "name": "C5",
          "ticks": 114000,
          "time": 142.49976249999997,
          "velocity": 0.6299212598425197
        },
        {
          "duration": 0.8537485770833371,
          "durationTicks": 683,
          "midi": 74,
          "name": "D5",
          "ticks": 114240,
          "time": 142.799762,
          "velocity": 0.6299212598425197
        },
        {
          "duration": 0.2837495270833301,
          "durationTicks": 227,
          "midi": 73,
          "name": "C#5",
          "ticks": 114960,
          "time": 143.6997605,
          "velocity": 0.6299212598425197
        },
        {
          "duration": 0.2837495270833301,
          "durationTicks": 227,
          "midi": 78,
          "name": "F#5",
          "ticks": 115200,
          "time": 143.99975999999998,
          "velocity": 0.6299212598425197
        },
        {
          "duration": 0.2837495270833301,
          "durationTicks": 227,
          "midi": 66,
          "name": "F#4",
          "ticks": 115440,
          "time": 144.2997595,
          "velocity": 0.6299212598425197
        },
        {
          "duration": 0.2837495270833301,
          "durationTicks": 227,
          "midi": 67,
          "name": "G4",
          "ticks": 115680,
          "time": 144.59975899999998,
          "velocity": 0.6299212598425197
        },
        {
          "duration": 0,
          "durationTicks": 0,
          "midi": 66,
          "name": "F#4",
          "ticks": 115920,
          "time": 144.8997585,
          "velocity": 0.6299212598425197
        },
        {
          "duration": 0.28374952708335854,
          "durationTicks": 227,
          "midi": 64,
          "name": "E4",
          "ticks": 116160,
          "time": 145.19975799999997,
          "velocity": 0.6299212598425197
        },
        {
          "duration": 0.2837495270833301,
          "durationTicks": 227,
          "midi": 76,
          "name": "E5",
          "ticks": 116400,
          "time": 145.4997575,
          "velocity": 0.6299212598425197
        },
        {
          "duration": 0.2837495270833301,
          "durationTicks": 227,
          "midi": 78,
          "name": "F#5",
          "ticks": 116640,
          "time": 145.799757,
          "velocity": 0.6299212598425197
        },
        {
          "duration": 0.2837495270833301,
          "durationTicks": 227,
          "midi": 76,
          "name": "E5",
          "ticks": 116880,
          "time": 146.09975649999998,
          "velocity": 0.6299212598425197
        },
        {
          "duration": 0.2837495270833301,
          "durationTicks": 227,
          "midi": 74,
          "name": "D5",
          "ticks": 117120,
          "time": 146.399756,
          "velocity": 0.6299212598425197
        },
        {
          "duration": 0.2837495270833301,
          "durationTicks": 227,
          "midi": 66,
          "name": "F#4",
          "ticks": 117360,
          "time": 146.69975549999998,
          "velocity": 0.6299212598425197
        },
        {
          "duration": 0.2837495270833301,
          "durationTicks": 227,
          "midi": 74,
          "name": "D5",
          "ticks": 117600,
          "time": 146.999755,
          "velocity": 0.6299212598425197
        },
        {
          "duration": 0.2837495270833301,
          "durationTicks": 227,
          "midi": 71,
          "name": "B4",
          "ticks": 117840,
          "time": 147.29975449999998,
          "velocity": 0.6299212598425197
        },
        {
          "duration": 0.2837495270833301,
          "durationTicks": 227,
          "midi": 69,
          "name": "A4",
          "ticks": 118080,
          "time": 147.599754,
          "velocity": 0.6299212598425197
        },
        {
          "duration": 0.2837495270833301,
          "durationTicks": 227,
          "midi": 69,
          "name": "A4",
          "ticks": 118320,
          "time": 147.89975349999997,
          "velocity": 0.6299212598425197
        },
        {
          "duration": 0.2837495270833301,
          "durationTicks": 227,
          "midi": 67,
          "name": "G4",
          "ticks": 118560,
          "time": 148.199753,
          "velocity": 0.6299212598425197
        },
        {
          "duration": 0.2837495270833301,
          "durationTicks": 227,
          "midi": 69,
          "name": "A4",
          "ticks": 118800,
          "time": 148.4997525,
          "velocity": 0.6299212598425197
        },
        {
          "duration": 0.2837495270833301,
          "durationTicks": 227,
          "midi": 71,
          "name": "B4",
          "ticks": 119040,
          "time": 148.79975199999998,
          "velocity": 0.6299212598425197
        },
        {
          "duration": 0.2837495270833301,
          "durationTicks": 227,
          "midi": 71,
          "name": "B4",
          "ticks": 119280,
          "time": 149.0997515,
          "velocity": 0.6299212598425197
        },
        {
          "duration": 0.2837495270833301,
          "durationTicks": 227,
          "midi": 73,
          "name": "C#5",
          "ticks": 119520,
          "time": 149.39975099999998,
          "velocity": 0.6299212598425197
        },
        {
          "duration": 0.2837495270833301,
          "durationTicks": 227,
          "midi": 71,
          "name": "B4",
          "ticks": 119760,
          "time": 149.6997505,
          "velocity": 0.6299212598425197
        },
        {
          "duration": 0.2837495270833301,
          "durationTicks": 227,
          "midi": 69,
          "name": "A4",
          "ticks": 120000,
          "time": 149.99974999999998,
          "velocity": 0.6299212598425197
        },
        {
          "duration": 0.2837495270833301,
          "durationTicks": 227,
          "midi": 69,
          "name": "A4",
          "ticks": 120240,
          "time": 150.2997495,
          "velocity": 0.6299212598425197
        },
        {
          "duration": 0.2837495270833301,
          "durationTicks": 227,
          "midi": 67,
          "name": "G4",
          "ticks": 120480,
          "time": 150.59974899999997,
          "velocity": 0.6299212598425197
        },
        {
          "duration": 0.2837495270833301,
          "durationTicks": 227,
          "midi": 69,
          "name": "A4",
          "ticks": 120720,
          "time": 150.8997485,
          "velocity": 0.6299212598425197
        },
        {
          "duration": 0.2837495270833301,
          "durationTicks": 227,
          "midi": 71,
          "name": "B4",
          "ticks": 120960,
          "time": 151.199748,
          "velocity": 0.6299212598425197
        },
        {
          "duration": 0.2837495270833301,
          "durationTicks": 227,
          "midi": 71,
          "name": "B4",
          "ticks": 121200,
          "time": 151.49974749999998,
          "velocity": 0.6299212598425197
        },
        {
          "duration": 0.2837495270833301,
          "durationTicks": 227,
          "midi": 69,
          "name": "A4",
          "ticks": 121440,
          "time": 151.799747,
          "velocity": 0.6299212598425197
        },
        {
          "duration": 0.2837495270833301,
          "durationTicks": 227,
          "midi": 71,
          "name": "B4",
          "ticks": 121680,
          "time": 152.09974649999998,
          "velocity": 0.6299212598425197
        },
        {
          "duration": 0.2837495270833301,
          "durationTicks": 227,
          "midi": 73,
          "name": "C#5",
          "ticks": 121920,
          "time": 152.399746,
          "velocity": 0.6299212598425197
        },
        {
          "duration": 0.2837495270833301,
          "durationTicks": 227,
          "midi": 73,
          "name": "C#5",
          "ticks": 122160,
          "time": 152.69974549999998,
          "velocity": 0.6299212598425197
        },
        {
          "duration": 0.2837495270833301,
          "durationTicks": 227,
          "midi": 71,
          "name": "B4",
          "ticks": 122400,
          "time": 152.999745,
          "velocity": 0.6299212598425197
        },
        {
          "duration": 0.2837495270833301,
          "durationTicks": 227,
          "midi": 73,
          "name": "C#5",
          "ticks": 122640,
          "time": 153.29974449999997,
          "velocity": 0.6299212598425197
        },
        {
          "duration": 0.2837495270833301,
          "durationTicks": 227,
          "midi": 74,
          "name": "D5",
          "ticks": 122880,
          "time": 153.599744,
          "velocity": 0.6299212598425197
        },
        {
          "duration": 0.2837495270833301,
          "durationTicks": 227,
          "midi": 74,
          "name": "D5",
          "ticks": 123120,
          "time": 153.8997435,
          "velocity": 0.6299212598425197
        },
        {
          "duration": 0.2837495270833301,
          "durationTicks": 227,
          "midi": 76,
          "name": "E5",
          "ticks": 123360,
          "time": 154.19974299999998,
          "velocity": 0.6299212598425197
        },
        {
          "duration": 0.2837495270833301,
          "durationTicks": 227,
          "midi": 74,
          "name": "D5",
          "ticks": 123600,
          "time": 154.4997425,
          "velocity": 0.6299212598425197
        },
        {
          "duration": 0.2837495270833301,
          "durationTicks": 227,
          "midi": 73,
          "name": "C#5",
          "ticks": 123840,
          "time": 154.79974199999998,
          "velocity": 0.6299212598425197
        },
        {
          "duration": 0.2837495270833301,
          "durationTicks": 227,
          "midi": 73,
          "name": "C#5",
          "ticks": 124080,
          "time": 155.0997415,
          "velocity": 0.6299212598425197
        },
        {
          "duration": 0.2837495270833301,
          "durationTicks": 227,
          "midi": 74,
          "name": "D5",
          "ticks": 124320,
          "time": 155.39974099999998,
          "velocity": 0.6299212598425197
        },
        {
          "duration": 0.2837495270833301,
          "durationTicks": 227,
          "midi": 73,
          "name": "C#5",
          "ticks": 124560,
          "time": 155.6997405,
          "velocity": 0.6299212598425197
        },
        {
          "duration": 0.2837495270833301,
          "durationTicks": 227,
          "midi": 71,
          "name": "B4",
          "ticks": 124800,
          "time": 155.99973999999997,
          "velocity": 0.6299212598425197
        },
        {
          "duration": 0.2837495270833301,
          "durationTicks": 227,
          "midi": 71,
          "name": "B4",
          "ticks": 125040,
          "time": 156.2997395,
          "velocity": 0.6299212598425197
        },
        {
          "duration": 0.2837495270833301,
          "durationTicks": 227,
          "midi": 69,
          "name": "A4",
          "ticks": 125280,
          "time": 156.599739,
          "velocity": 0.6299212598425197
        },
        {
          "duration": 0.2837495270833301,
          "durationTicks": 227,
          "midi": 71,
          "name": "B4",
          "ticks": 125520,
          "time": 156.89973849999998,
          "velocity": 0.6299212598425197
        },
        {
          "duration": 0.2837495270833301,
          "durationTicks": 227,
          "midi": 73,
          "name": "C#5",
          "ticks": 125760,
          "time": 157.199738,
          "velocity": 0.6299212598425197
        },
        {
          "duration": 0.2837495270833301,
          "durationTicks": 227,
          "midi": 73,
          "name": "C#5",
          "ticks": 126000,
          "time": 157.49973749999998,
          "velocity": 0.6299212598425197
        },
        {
          "duration": 0.2837495270833301,
          "durationTicks": 227,
          "midi": 78,
          "name": "F#5",
          "ticks": 126240,
          "time": 157.799737,
          "velocity": 0.6299212598425197
        },
        {
          "duration": 0.2837495270833301,
          "durationTicks": 227,
          "midi": 76,
          "name": "E5",
          "ticks": 126480,
          "time": 158.09973649999998,
          "velocity": 0.6299212598425197
        },
        {
          "duration": 0.2837495270833301,
          "durationTicks": 227,
          "midi": 74,
          "name": "D5",
          "ticks": 126720,
          "time": 158.399736,
          "velocity": 0.6299212598425197
        },
        {
          "duration": 0.2837495270833301,
          "durationTicks": 227,
          "midi": 74,
          "name": "D5",
          "ticks": 126960,
          "time": 158.69973549999997,
          "velocity": 0.6299212598425197
        },
        {
          "duration": 0.2837495270833301,
          "durationTicks": 227,
          "midi": 76,
          "name": "E5",
          "ticks": 127200,
          "time": 158.999735,
          "velocity": 0.6299212598425197
        },
        {
          "duration": 0.2837495270833301,
          "durationTicks": 227,
          "midi": 79,
          "name": "G5",
          "ticks": 127440,
          "time": 159.2997345,
          "velocity": 0.6299212598425197
        },
        {
          "duration": 0.2837495270833301,
          "durationTicks": 227,
          "midi": 78,
          "name": "F#5",
          "ticks": 127680,
          "time": 159.59973399999998,
          "velocity": 0.6299212598425197
        },
        {
          "duration": 0.2837495270833301,
          "durationTicks": 227,
          "midi": 66,
          "name": "F#4",
          "ticks": 127920,
          "time": 159.8997335,
          "velocity": 0.6299212598425197
        },
        {
          "duration": 0.2837495270833301,
          "durationTicks": 227,
          "midi": 69,
          "name": "A4",
          "ticks": 128160,
          "time": 160.19973299999998,
          "velocity": 0.6299212598425197
        },
        {
          "duration": 0.2837495270833301,
          "durationTicks": 227,
          "midi": 78,
          "name": "F#5",
          "ticks": 128400,
          "time": 160.4997325,
          "velocity": 0.6299212598425197
        },
        {
          "duration": 0.2837495270833301,
          "durationTicks": 227,
          "midi": 78,
          "name": "F#5",
          "ticks": 128640,
          "time": 160.79973199999998,
          "velocity": 0.6299212598425197
        },
        {
          "duration": 0.2837495270833301,
          "durationTicks": 227,
          "midi": 79,
          "name": "G5",
          "ticks": 128880,
          "time": 161.0997315,
          "velocity": 0.6299212598425197
        },
        {
          "duration": 0.2837495270833301,
          "durationTicks": 227,
          "midi": 78,
          "name": "F#5",
          "ticks": 129120,
          "time": 161.39973099999997,
          "velocity": 0.6299212598425197
        },
        {
          "duration": 0.2837495270833301,
          "durationTicks": 227,
          "midi": 79,
          "name": "G5",
          "ticks": 129360,
          "time": 161.6997305,
          "velocity": 0.6299212598425197
        },
        {
          "duration": 0.2837495270833301,
          "durationTicks": 227,
          "midi": 76,
          "name": "E5",
          "ticks": 129600,
          "time": 161.99973,
          "velocity": 0.6299212598425197
        },
        {
          "duration": 0.2837495270833301,
          "durationTicks": 227,
          "midi": 69,
          "name": "A4",
          "ticks": 129840,
          "time": 162.29972949999998,
          "velocity": 0.6299212598425197
        },
        {
          "duration": 0.2837495270833301,
          "durationTicks": 227,
          "midi": 76,
          "name": "E5",
          "ticks": 130080,
          "time": 162.599729,
          "velocity": 0.6299212598425197
        },
        {
          "duration": 0.2837495270833301,
          "durationTicks": 227,
          "midi": 73,
          "name": "C#5",
          "ticks": 130320,
          "time": 162.89972849999998,
          "velocity": 0.6299212598425197
        },
        {
          "duration": 0.2837495270833301,
          "durationTicks": 227,
          "midi": 74,
          "name": "D5",
          "ticks": 130560,
          "time": 163.199728,
          "velocity": 0.6299212598425197
        },
        {
          "duration": 0.2837495270833301,
          "durationTicks": 227,
          "midi": 78,
          "name": "F#5",
          "ticks": 130560,
          "time": 163.199728,
          "velocity": 0.6299212598425197
        },
        {
          "duration": 0.1412497645833355,
          "durationTicks": 113,
          "midi": 74,
          "name": "D5",
          "ticks": 130800,
          "time": 163.49972749999998,
          "velocity": 0.6299212598425197
        },
        {
          "duration": 0.1412497645833355,
          "durationTicks": 113,
          "midi": 76,
          "name": "E5",
          "ticks": 130920,
          "time": 163.64972724999998,
          "velocity": 0.6299212598425197
        },
        {
          "duration": 0.2837495270833301,
          "durationTicks": 227,
          "midi": 78,
          "name": "F#5",
          "ticks": 131040,
          "time": 163.799727,
          "velocity": 0.6299212598425197
        },
        {
          "duration": 0.2837495270833301,
          "durationTicks": 227,
          "midi": 74,
          "name": "D5",
          "ticks": 131280,
          "time": 164.09972649999997,
          "velocity": 0.6299212598425197
        },
        {
          "duration": 0.2837495270833301,
          "durationTicks": 227,
          "midi": 73,
          "name": "C#5",
          "ticks": 131520,
          "time": 164.399726,
          "velocity": 0.6299212598425197
        },
        {
          "duration": 0.2837495270833301,
          "durationTicks": 227,
          "midi": 76,
          "name": "E5",
          "ticks": 131520,
          "time": 164.399726,
          "velocity": 0.6299212598425197
        },
        {
          "duration": 0.14124976458330707,
          "durationTicks": 113,
          "midi": 73,
          "name": "C#5",
          "ticks": 131760,
          "time": 164.6997255,
          "velocity": 0.6299212598425197
        },
        {
          "duration": 0.1412497645833355,
          "durationTicks": 113,
          "midi": 74,
          "name": "D5",
          "ticks": 131880,
          "time": 164.84972524999998,
          "velocity": 0.6299212598425197
        },
        {
          "duration": 0.2837495270833301,
          "durationTicks": 227,
          "midi": 76,
          "name": "E5",
          "ticks": 132000,
          "time": 164.99972499999998,
          "velocity": 0.6299212598425197
        },
        {
          "duration": 0.2837495270833301,
          "durationTicks": 227,
          "midi": 73,
          "name": "C#5",
          "ticks": 132240,
          "time": 165.2997245,
          "velocity": 0.6299212598425197
        },
        {
          "duration": 0.2837495270833301,
          "durationTicks": 227,
          "midi": 71,
          "name": "B4",
          "ticks": 132480,
          "time": 165.59972399999998,
          "velocity": 0.6299212598425197
        },
        {
          "duration": 0.2837495270833301,
          "durationTicks": 227,
          "midi": 74,
          "name": "D5",
          "ticks": 132480,
          "time": 165.59972399999998,
          "velocity": 0.6299212598425197
        },
        {
          "duration": 0.14124976458330707,
          "durationTicks": 113,
          "midi": 71,
          "name": "B4",
          "ticks": 132720,
          "time": 165.8997235,
          "velocity": 0.6299212598425197
        },
        {
          "duration": 0.14124976458330707,
          "durationTicks": 113,
          "midi": 73,
          "name": "C#5",
          "ticks": 132840,
          "time": 166.04972325,
          "velocity": 0.6299212598425197
        },
        {
          "duration": 0.2837495270833301,
          "durationTicks": 227,
          "midi": 74,
          "name": "D5",
          "ticks": 132960,
          "time": 166.19972299999998,
          "velocity": 0.6299212598425197
        },
        {
          "duration": 0.2837495270833301,
          "durationTicks": 227,
          "midi": 71,
          "name": "B4",
          "ticks": 133200,
          "time": 166.4997225,
          "velocity": 0.6299212598425197
        },
        {
          "duration": 0.2837495270833301,
          "durationTicks": 227,
          "midi": 69,
          "name": "A4",
          "ticks": 133440,
          "time": 166.79972199999997,
          "velocity": 0.6299212598425197
        },
        {
          "duration": 0.2837495270833301,
          "durationTicks": 227,
          "midi": 73,
          "name": "C#5",
          "ticks": 133440,
          "time": 166.79972199999997,
          "velocity": 0.6299212598425197
        },
        {
          "duration": 0.1412497645833355,
          "durationTicks": 113,
          "midi": 81,
          "name": "A5",
          "ticks": 133680,
          "time": 167.0997215,
          "velocity": 0.6299212598425197
        },
        {
          "duration": 0.14124976458330707,
          "durationTicks": 113,
          "midi": 79,
          "name": "G5",
          "ticks": 133800,
          "time": 167.24972125,
          "velocity": 0.6299212598425197
        },
        {
          "duration": 0.2837495270833301,
          "durationTicks": 227,
          "midi": 78,
          "name": "F#5",
          "ticks": 133920,
          "time": 167.399721,
          "velocity": 0.6299212598425197
        },
        {
          "duration": 0.2837495270833301,
          "durationTicks": 227,
          "midi": 76,
          "name": "E5",
          "ticks": 134160,
          "time": 167.69972049999998,
          "velocity": 0.6299212598425197
        },
        {
          "duration": 0.2837495270833301,
          "durationTicks": 227,
          "midi": 71,
          "name": "B4",
          "ticks": 134400,
          "time": 167.99972,
          "velocity": 0.6299212598425197
        },
        {
          "duration": 0.2837495270833301,
          "durationTicks": 227,
          "midi": 74,
          "name": "D5",
          "ticks": 134400,
          "time": 167.99972,
          "velocity": 0.6299212598425197
        },
        {
          "duration": 0.1412497645833355,
          "durationTicks": 113,
          "midi": 79,
          "name": "G5",
          "ticks": 134640,
          "time": 168.29971949999998,
          "velocity": 0.6299212598425197
        },
        {
          "duration": 0.1412497645833355,
          "durationTicks": 113,
          "midi": 78,
          "name": "F#5",
          "ticks": 134760,
          "time": 168.44971925,
          "velocity": 0.6299212598425197
        },
        {
          "duration": 0.2837495270833301,
          "durationTicks": 227,
          "midi": 76,
          "name": "E5",
          "ticks": 134880,
          "time": 168.599719,
          "velocity": 0.6299212598425197
        },
        {
          "duration": 0.2837495270833301,
          "durationTicks": 227,
          "midi": 79,
          "name": "G5",
          "ticks": 135120,
          "time": 168.89971849999998,
          "velocity": 0.6299212598425197
        },
        {
          "duration": 0.2837495270833301,
          "durationTicks": 227,
          "midi": 69,
          "name": "A4",
          "ticks": 135360,
          "time": 169.199718,
          "velocity": 0.6299212598425197
        },
        {
          "duration": 0.2837495270833301,
          "durationTicks": 227,
          "midi": 78,
          "name": "F#5",
          "ticks": 135360,
          "time": 169.199718,
          "velocity": 0.6299212598425197
        },
        {
          "duration": 0.1412497645833355,
          "durationTicks": 113,
          "midi": 74,
          "name": "D5",
          "ticks": 135600,
          "time": 169.49971749999997,
          "velocity": 0.6299212598425197
        },
        {
          "duration": 0.1412497645833355,
          "durationTicks": 113,
          "midi": 76,
          "name": "E5",
          "ticks": 135720,
          "time": 169.64971724999998,
          "velocity": 0.6299212598425197
        },
        {
          "duration": 0.2837495270833301,
          "durationTicks": 227,
          "midi": 78,
          "name": "F#5",
          "ticks": 135840,
          "time": 169.799717,
          "velocity": 0.6299212598425197
        },
        {
          "duration": 0.2837495270833301,
          "durationTicks": 227,
          "midi": 81,
          "name": "A5",
          "ticks": 136080,
          "time": 170.0997165,
          "velocity": 0.6299212598425197
        },
        {
          "duration": 0.2837495270833301,
          "durationTicks": 227,
          "midi": 79,
          "name": "G5",
          "ticks": 136320,
          "time": 170.39971599999998,
          "velocity": 0.6299212598425197
        },
        {
          "duration": 0.2837495270833301,
          "durationTicks": 227,
          "midi": 83,
          "name": "B5",
          "ticks": 136320,
          "time": 170.39971599999998,
          "velocity": 0.6299212598425197
        },
        {
          "duration": 0.14124976458330707,
          "durationTicks": 113,
          "midi": 83,
          "name": "B5",
          "ticks": 136560,
          "time": 170.6997155,
          "velocity": 0.6299212598425197
        },
        {
          "duration": 0.1412497645833355,
          "durationTicks": 113,
          "midi": 81,
          "name": "A5",
          "ticks": 136680,
          "time": 170.84971524999997,
          "velocity": 0.6299212598425197
        },
        {
          "duration": 0.2837495270833301,
          "durationTicks": 227,
          "midi": 79,
          "name": "G5",
          "ticks": 136800,
          "time": 170.99971499999998,
          "velocity": 0.6299212598425197
        },
        {
          "duration": 0.2837495270833301,
          "durationTicks": 227,
          "midi": 83,
          "name": "B5",
          "ticks": 137040,
          "time": 171.2997145,
          "velocity": 0.6299212598425197
        },
        {
          "duration": 0.2837495270833301,
          "durationTicks": 227,
          "midi": 73,
          "name": "C#5",
          "ticks": 137280,
          "time": 171.59971399999998,
          "velocity": 0.6299212598425197
        },
        {
          "duration": 0.2837495270833301,
          "durationTicks": 227,
          "midi": 76,
          "name": "E5",
          "ticks": 137280,
          "time": 171.59971399999998,
          "velocity": 0.6299212598425197
        },
        {
          "duration": 0.14124976458330707,
          "durationTicks": 113,
          "midi": 81,
          "name": "A5",
          "ticks": 137520,
          "time": 171.8997135,
          "velocity": 0.6299212598425197
        },
        {
          "duration": 0.14124976458330707,
          "durationTicks": 113,
          "midi": 79,
          "name": "G5",
          "ticks": 137640,
          "time": 172.04971325,
          "velocity": 0.6299212598425197
        },
        {
          "duration": 0.2837495270833301,
          "durationTicks": 227,
          "midi": 78,
          "name": "F#5",
          "ticks": 137760,
          "time": 172.19971299999997,
          "velocity": 0.6299212598425197
        },
        {
          "duration": 0.2837495270833301,
          "durationTicks": 227,
          "midi": 76,
          "name": "E5",
          "ticks": 138000,
          "time": 172.4997125,
          "velocity": 0.6299212598425197
        },
        {
          "duration": 0.2837495270833301,
          "durationTicks": 227,
          "midi": 74,
          "name": "D5",
          "ticks": 138240,
          "time": 172.799712,
          "velocity": 0.6299212598425197
        },
        {
          "duration": 0.2837495270833301,
          "durationTicks": 227,
          "midi": 78,
          "name": "F#5",
          "ticks": 138240,
          "time": 172.799712,
          "velocity": 0.6299212598425197
        },
        {
          "duration": 0.1412497645833355,
          "durationTicks": 113,
          "midi": 74,
          "name": "D5",
          "ticks": 138480,
          "time": 173.09971149999998,
          "velocity": 0.6299212598425197
        },
        {
          "duration": 0.14124976458330707,
          "durationTicks": 113,
          "midi": 73,
          "name": "C#5",
          "ticks": 138600,
          "time": 173.24971125,
          "velocity": 0.6299212598425197
        },
        {
          "duration": 0.2837495270833301,
          "durationTicks": 227,
          "midi": 74,
          "name": "D5",
          "ticks": 138720,
          "time": 173.399711,
          "velocity": 0.6299212598425197
        },
        {
          "duration": 0.2837495270833301,
          "durationTicks": 227,
          "midi": 69,
          "name": "A4",
          "ticks": 138960,
          "time": 173.69971049999998,
          "velocity": 0.6299212598425197
        },
        {
          "duration": 0.2837495270833301,
          "durationTicks": 227,
          "midi": 69,
          "name": "A4",
          "ticks": 139200,
          "time": 173.99971,
          "velocity": 0.6299212598425197
        },
        {
          "duration": 0.2837495270833301,
          "durationTicks": 227,
          "midi": 76,
          "name": "E5",
          "ticks": 139200,
          "time": 173.99971,
          "velocity": 0.6299212598425197
        },
        {
          "duration": 0.1412497645833355,
          "durationTicks": 113,
          "midi": 69,
          "name": "A4",
          "ticks": 139440,
          "time": 174.29970949999998,
          "velocity": 0.6299212598425197
        },
        {
          "duration": 0.1412497645833355,
          "durationTicks": 113,
          "midi": 71,
          "name": "B4",
          "ticks": 139560,
          "time": 174.44970924999998,
          "velocity": 0.6299212598425197
        },
        {
          "duration": 0.2837495270833301,
          "durationTicks": 227,
          "midi": 73,
          "name": "C#5",
          "ticks": 139680,
          "time": 174.599709,
          "velocity": 0.6299212598425197
        },
        {
          "duration": 0.2837495270833301,
          "durationTicks": 227,
          "midi": 69,
          "name": "A4",
          "ticks": 139920,
          "time": 174.89970849999997,
          "velocity": 0.6299212598425197
        },
        {
          "duration": 0.2837495270833301,
          "durationTicks": 227,
          "midi": 71,
          "name": "B4",
          "ticks": 140160,
          "time": 175.199708,
          "velocity": 0.6299212598425197
        },
        {
          "duration": 0.2837495270833301,
          "durationTicks": 227,
          "midi": 74,
          "name": "D5",
          "ticks": 140160,
          "time": 175.199708,
          "velocity": 0.6299212598425197
        },
        {
          "duration": 0.1412497645833355,
          "durationTicks": 113,
          "midi": 74,
          "name": "D5",
          "ticks": 140400,
          "time": 175.49970749999997,
          "velocity": 0.6299212598425197
        },
        {
          "duration": 0.1412497645833355,
          "durationTicks": 113,
          "midi": 76,
          "name": "E5",
          "ticks": 140520,
          "time": 175.64970724999998,
          "velocity": 0.6299212598425197
        },
        {
          "duration": 0.2837495270833301,
          "durationTicks": 227,
          "midi": 74,
          "name": "D5",
          "ticks": 140640,
          "time": 175.79970699999998,
          "velocity": 0.6299212598425197
        },
        {
          "duration": 0.2837495270833301,
          "durationTicks": 227,
          "midi": 78,
          "name": "F#5",
          "ticks": 140640,
          "time": 175.79970699999998,
          "velocity": 0.6299212598425197
        },
        {
          "duration": 0.2837495270833301,
          "durationTicks": 227,
          "midi": 74,
          "name": "D5",
          "ticks": 140880,
          "time": 176.0997065,
          "velocity": 0.6299212598425197
        },
        {
          "duration": 0.2837495270833301,
          "durationTicks": 227,
          "midi": 73,
          "name": "C#5",
          "ticks": 141120,
          "time": 176.39970599999998,
          "velocity": 0.6299212598425197
        },
        {
          "duration": 0.2837495270833301,
          "durationTicks": 227,
          "midi": 78,
          "name": "F#5",
          "ticks": 141120,
          "time": 176.39970599999998,
          "velocity": 0.6299212598425197
        },
        {
          "duration": 0.14124976458330707,
          "durationTicks": 113,
          "midi": 78,
          "name": "F#5",
          "ticks": 141360,
          "time": 176.6997055,
          "velocity": 0.6299212598425197
        },
        {
          "duration": 0.1412497645833355,
          "durationTicks": 113,
          "midi": 76,
          "name": "E5",
          "ticks": 141480,
          "time": 176.84970524999997,
          "velocity": 0.6299212598425197
        },
        {
          "duration": 0.2837495270833301,
          "durationTicks": 227,
          "midi": 74,
          "name": "D5",
          "ticks": 141600,
          "time": 176.99970499999998,
          "velocity": 0.6299212598425197
        },
        {
          "duration": 0.2837495270833301,
          "durationTicks": 227,
          "midi": 73,
          "name": "C#5",
          "ticks": 141840,
          "time": 177.2997045,
          "velocity": 0.6299212598425197
        },
        {
          "duration": 0.2837495270833301,
          "durationTicks": 227,
          "midi": 67,
          "name": "G4",
          "ticks": 142080,
          "time": 177.59970399999997,
          "velocity": 0.6299212598425197
        },
        {
          "duration": 0.2837495270833301,
          "durationTicks": 227,
          "midi": 71,
          "name": "B4",
          "ticks": 142080,
          "time": 177.59970399999997,
          "velocity": 0.6299212598425197
        },
        {
          "duration": 0.1412497645833355,
          "durationTicks": 113,
          "midi": 71,
          "name": "B4",
          "ticks": 142320,
          "time": 177.8997035,
          "velocity": 0.6299212598425197
        },
        {
          "duration": 0.14124976458330707,
          "durationTicks": 113,
          "midi": 69,
          "name": "A4",
          "ticks": 142440,
          "time": 178.04970325,
          "velocity": 0.6299212598425197
        },
        {
          "duration": 0.28374952708335854,
          "durationTicks": 227,
          "midi": 71,
          "name": "B4",
          "ticks": 142560,
          "time": 178.19970299999997,
          "velocity": 0.6299212598425197
        },
        {
          "duration": 0.2837495270833301,
          "durationTicks": 227,
          "midi": 73,
          "name": "C#5",
          "ticks": 142800,
          "time": 178.49970249999998,
          "velocity": 0.6299212598425197
        },
        {
          "duration": 0.2837495270833301,
          "durationTicks": 227,
          "midi": 69,
          "name": "A4",
          "ticks": 143040,
          "time": 178.799702,
          "velocity": 0.6299212598425197
        },
        {
          "duration": 0.2837495270833301,
          "durationTicks": 227,
          "midi": 74,
          "name": "D5",
          "ticks": 143040,
          "time": 178.799702,
          "velocity": 0.6299212598425197
        },
        {
          "duration": 0.1412497645833355,
          "durationTicks": 113,
          "midi": 78,
          "name": "F#5",
          "ticks": 143280,
          "time": 179.09970149999998,
          "velocity": 0.6299212598425197
        },
        {
          "duration": 0.1412497645833355,
          "durationTicks": 113,
          "midi": 76,
          "name": "E5",
          "ticks": 143400,
          "time": 179.24970125,
          "velocity": 0.6299212598425197
        },
        {
          "duration": 0.2837495270833301,
          "durationTicks": 227,
          "midi": 74,
          "name": "D5",
          "ticks": 143520,
          "time": 179.399701,
          "velocity": 0.6299212598425197
        },
        {
          "duration": 0.2837495270833301,
          "durationTicks": 227,
          "midi": 78,
          "name": "F#5",
          "ticks": 143760,
          "time": 179.69970049999998,
          "velocity": 0.6299212598425197
        },
        {
          "duration": 0.2837495270833301,
          "durationTicks": 227,
          "midi": 71,
          "name": "B4",
          "ticks": 144000,
          "time": 179.9997,
          "velocity": 0.6299212598425197
        },
        {
          "duration": 0.2837495270833301,
          "durationTicks": 227,
          "midi": 79,
          "name": "G5",
          "ticks": 144000,
          "time": 179.9997,
          "velocity": 0.6299212598425197
        },
        {
          "duration": 0.1412497645833355,
          "durationTicks": 113,
          "midi": 74,
          "name": "D5",
          "ticks": 144240,
          "time": 180.29969949999997,
          "velocity": 0.6299212598425197
        },
        {
          "duration": 0.1412497645833355,
          "durationTicks": 113,
          "midi": 73,
          "name": "C#5",
          "ticks": 144360,
          "time": 180.44969924999998,
          "velocity": 0.6299212598425197
        },
        {
          "duration": 0.2837495270833301,
          "durationTicks": 227,
          "midi": 71,
          "name": "B4",
          "ticks": 144480,
          "time": 180.599699,
          "velocity": 0.6299212598425197
        },
        {
          "duration": 0.28374952708335854,
          "durationTicks": 227,
          "midi": 73,
          "name": "C#5",
          "ticks": 144720,
          "time": 180.89969849999997,
          "velocity": 0.6299212598425197
        },
        {
          "duration": 0.5687490520833478,
          "durationTicks": 455,
          "midi": 69,
          "name": "A4",
          "ticks": 144960,
          "time": 181.19969799999998,
          "velocity": 0.6299212598425197
        },
        {
          "duration": 0.5687490520833478,
          "durationTicks": 455,
          "midi": 74,
          "name": "D5",
          "ticks": 144960,
          "time": 181.19969799999998,
          "velocity": 0.6299212598425197
        },
        {
          "duration": 0.5687490520833478,
          "durationTicks": 455,
          "midi": 76,
          "name": "E5",
          "ticks": 144960,
          "time": 181.19969799999998,
          "velocity": 0.6299212598425197
        },
        {
          "duration": 0.5687490520833478,
          "durationTicks": 455,
          "midi": 73,
          "name": "C#5",
          "ticks": 145440,
          "time": 181.79969699999998,
          "velocity": 0.6299212598425197
        },
        {
          "duration": 0.8537485770833371,
          "durationTicks": 683,
          "midi": 69,
          "name": "A4",
          "ticks": 145920,
          "time": 182.39969599999998,
          "velocity": 0.6299212598425197
        },
        {
          "duration": 0.8537485770833371,
          "durationTicks": 683,
          "midi": 74,
          "name": "D5",
          "ticks": 145920,
          "time": 182.39969599999998,
          "velocity": 0.6299212598425197
        },
        {
          "duration": 0.8537485770833371,
          "durationTicks": 683,
          "midi": 78,
          "name": "F#5",
          "ticks": 145920,
          "time": 182.39969599999998,
          "velocity": 0.6299212598425197
        },
        {
          "duration": 0.2837495270833301,
          "durationTicks": 227,
          "midi": 78,
          "name": "F#5",
          "ticks": 146640,
          "time": 183.2996945,
          "velocity": 0.6299212598425197
        },
        {
          "duration": 0.28374952708335854,
          "durationTicks": 227,
          "midi": 78,
          "name": "F#5",
          "ticks": 146880,
          "time": 183.59969399999997,
          "velocity": 0.6299212598425197
        },
        {
          "duration": 0.2837495270833301,
          "durationTicks": 227,
          "midi": 79,
          "name": "G5",
          "ticks": 147120,
          "time": 183.89969349999998,
          "velocity": 0.6299212598425197
        },
        {
          "duration": 0.2837495270833301,
          "durationTicks": 227,
          "midi": 78,
          "name": "F#5",
          "ticks": 147360,
          "time": 184.199693,
          "velocity": 0.6299212598425197
        },
        {
          "duration": 0.2837495270833301,
          "durationTicks": 227,
          "midi": 76,
          "name": "E5",
          "ticks": 147600,
          "time": 184.49969249999998,
          "velocity": 0.6299212598425197
        },
        {
          "duration": 0.8537485770833086,
          "durationTicks": 683,
          "midi": 74,
          "name": "D5",
          "ticks": 147840,
          "time": 184.799692,
          "velocity": 0.6299212598425197
        },
        {
          "duration": 0.2837495270833301,
          "durationTicks": 227,
          "midi": 74,
          "name": "D5",
          "ticks": 148560,
          "time": 185.69969049999997,
          "velocity": 0.6299212598425197
        },
        {
          "duration": 0.2837495270833301,
          "durationTicks": 227,
          "midi": 74,
          "name": "D5",
          "ticks": 148800,
          "time": 185.99969,
          "velocity": 0.6299212598425197
        },
        {
          "duration": 0.2837495270833301,
          "durationTicks": 227,
          "midi": 76,
          "name": "E5",
          "ticks": 149040,
          "time": 186.29968949999997,
          "velocity": 0.6299212598425197
        },
        {
          "duration": 0.2837495270833301,
          "durationTicks": 227,
          "midi": 74,
          "name": "D5",
          "ticks": 149280,
          "time": 186.59968899999998,
          "velocity": 0.6299212598425197
        },
        {
          "duration": 0.2837495270833301,
          "durationTicks": 227,
          "midi": 73,
          "name": "C#5",
          "ticks": 149520,
          "time": 186.8996885,
          "velocity": 0.6299212598425197
        },
        {
          "duration": 1.1387481020833548,
          "durationTicks": 911,
          "midi": 67,
          "name": "G4",
          "ticks": 149760,
          "time": 187.19968799999998,
          "velocity": 0.6299212598425197
        },
        {
          "duration": 1.1387481020833548,
          "durationTicks": 911,
          "midi": 71,
          "name": "B4",
          "ticks": 149760,
          "time": 187.19968799999998,
          "velocity": 0.6299212598425197
        },
        {
          "duration": 0.5687490520833478,
          "durationTicks": 455,
          "midi": 74,
          "name": "D5",
          "ticks": 150720,
          "time": 188.39968599999997,
          "velocity": 0.6299212598425197
        },
        {
          "duration": 0.5687490520833478,
          "durationTicks": 455,
          "midi": 69,
          "name": "A4",
          "ticks": 151200,
          "time": 188.99968499999997,
          "velocity": 0.6299212598425197
        },
        {
          "duration": 1.1387481020833263,
          "durationTicks": 911,
          "midi": 67,
          "name": "G4",
          "ticks": 151680,
          "time": 189.599684,
          "velocity": 0.6299212598425197
        },
        {
          "duration": 1.1387481020833263,
          "durationTicks": 911,
          "midi": 71,
          "name": "B4",
          "ticks": 151680,
          "time": 189.599684,
          "velocity": 0.6299212598425197
        },
        {
          "duration": 0.8537485770833086,
          "durationTicks": 683,
          "midi": 69,
          "name": "A4",
          "ticks": 152640,
          "time": 190.799682,
          "velocity": 0.6299212598425197
        },
        {
          "duration": 0.2837495270833301,
          "durationTicks": 227,
          "midi": 73,
          "name": "C#5",
          "ticks": 153360,
          "time": 191.69968049999997,
          "velocity": 0.6299212598425197
        },
        {
          "duration": 0.8537485770833371,
          "durationTicks": 683,
          "midi": 74,
          "name": "D5",
          "ticks": 153600,
          "time": 191.99967999999998,
          "velocity": 0.6299212598425197
        },
        {
          "duration": 0.8537485770833371,
          "durationTicks": 683,
          "midi": 78,
          "name": "F#5",
          "ticks": 153600,
          "time": 191.99967999999998,
          "velocity": 0.6299212598425197
        },
        {
          "duration": 0.8537485770833371,
          "durationTicks": 683,
          "midi": 81,
          "name": "A5",
          "ticks": 153600,
          "time": 191.99967999999998,
          "velocity": 0.6299212598425197
        },
        {
          "duration": 0.2837495270833301,
          "durationTicks": 227,
          "midi": 78,
          "name": "F#5",
          "ticks": 154320,
          "time": 192.8996785,
          "velocity": 0.6299212598425197
        },
        {
          "duration": 0.2837495270833301,
          "durationTicks": 227,
          "midi": 81,
          "name": "A5",
          "ticks": 154320,
          "time": 192.8996785,
          "velocity": 0.6299212598425197
        },
        {
          "duration": 0.2837495270833301,
          "durationTicks": 227,
          "midi": 78,
          "name": "F#5",
          "ticks": 154560,
          "time": 193.19967799999998,
          "velocity": 0.6299212598425197
        },
        {
          "duration": 0.2837495270833301,
          "durationTicks": 227,
          "midi": 81,
          "name": "A5",
          "ticks": 154560,
          "time": 193.19967799999998,
          "velocity": 0.6299212598425197
        },
        {
          "duration": 0.2837495270833301,
          "durationTicks": 227,
          "midi": 79,
          "name": "G5",
          "ticks": 154800,
          "time": 193.4996775,
          "velocity": 0.6299212598425197
        },
        {
          "duration": 0.2837495270833301,
          "durationTicks": 227,
          "midi": 83,
          "name": "B5",
          "ticks": 154800,
          "time": 193.4996775,
          "velocity": 0.6299212598425197
        },
        {
          "duration": 0.2837495270833301,
          "durationTicks": 227,
          "midi": 78,
          "name": "F#5",
          "ticks": 155040,
          "time": 193.79967699999997,
          "velocity": 0.6299212598425197
        },
        {
          "duration": 0.2837495270833301,
          "durationTicks": 227,
          "midi": 81,
          "name": "A5",
          "ticks": 155040,
          "time": 193.79967699999997,
          "velocity": 0.6299212598425197
        },
        {
          "duration": 0.2837495270833301,
          "durationTicks": 227,
          "midi": 76,
          "name": "E5",
          "ticks": 155280,
          "time": 194.0996765,
          "velocity": 0.6299212598425197
        },
        {
          "duration": 0.2837495270833301,
          "durationTicks": 227,
          "midi": 79,
          "name": "G5",
          "ticks": 155280,
          "time": 194.0996765,
          "velocity": 0.6299212598425197
        },
        {
          "duration": 0.8537485770833371,
          "durationTicks": 683,
          "midi": 74,
          "name": "D5",
          "ticks": 155520,
          "time": 194.39967599999997,
          "velocity": 0.6299212598425197
        },
        {
          "duration": 0.8537485770833371,
          "durationTicks": 683,
          "midi": 78,
          "name": "F#5",
          "ticks": 155520,
          "time": 194.39967599999997,
          "velocity": 0.6299212598425197
        },
        {
          "duration": 0.2837495270833301,
          "durationTicks": 227,
          "midi": 74,
          "name": "D5",
          "ticks": 156240,
          "time": 195.29967449999998,
          "velocity": 0.6299212598425197
        },
        {
          "duration": 0.2837495270833301,
          "durationTicks": 227,
          "midi": 78,
          "name": "F#5",
          "ticks": 156240,
          "time": 195.29967449999998,
          "velocity": 0.6299212598425197
        },
        {
          "duration": 0.2837495270833301,
          "durationTicks": 227,
          "midi": 74,
          "name": "D5",
          "ticks": 156480,
          "time": 195.599674,
          "velocity": 0.6299212598425197
        },
        {
          "duration": 0.2837495270833301,
          "durationTicks": 227,
          "midi": 78,
          "name": "F#5",
          "ticks": 156480,
          "time": 195.599674,
          "velocity": 0.6299212598425197
        },
        {
          "duration": 0.2837495270833301,
          "durationTicks": 227,
          "midi": 76,
          "name": "E5",
          "ticks": 156720,
          "time": 195.89967349999998,
          "velocity": 0.6299212598425197
        },
        {
          "duration": 0.2837495270833301,
          "durationTicks": 227,
          "midi": 79,
          "name": "G5",
          "ticks": 156720,
          "time": 195.89967349999998,
          "velocity": 0.6299212598425197
        },
        {
          "duration": 0.2837495270833301,
          "durationTicks": 227,
          "midi": 74,
          "name": "D5",
          "ticks": 156960,
          "time": 196.199673,
          "velocity": 0.6299212598425197
        },
        {
          "duration": 0.2837495270833301,
          "durationTicks": 227,
          "midi": 78,
          "name": "F#5",
          "ticks": 156960,
          "time": 196.199673,
          "velocity": 0.6299212598425197
        },
        {
          "duration": 0.2837495270833301,
          "durationTicks": 227,
          "midi": 73,
          "name": "C#5",
          "ticks": 157200,
          "time": 196.49967249999997,
          "velocity": 0.6299212598425197
        },
        {
          "duration": 0.2837495270833301,
          "durationTicks": 227,
          "midi": 76,
          "name": "E5",
          "ticks": 157200,
          "time": 196.49967249999997,
          "velocity": 0.6299212598425197
        },
        {
          "duration": 0.2837495270833301,
          "durationTicks": 227,
          "midi": 71,
          "name": "B4",
          "ticks": 157440,
          "time": 196.799672,
          "velocity": 0.6299212598425197
        },
        {
          "duration": 0.2837495270833301,
          "durationTicks": 227,
          "midi": 74,
          "name": "D5",
          "ticks": 157440,
          "time": 196.799672,
          "velocity": 0.6299212598425197
        },
        {
          "duration": 0.2837495270833301,
          "durationTicks": 227,
          "midi": 72,
          "name": "C5",
          "ticks": 157680,
          "time": 197.09967149999997,
          "velocity": 0.6299212598425197
        },
        {
          "duration": 0.2837495270833301,
          "durationTicks": 227,
          "midi": 71,
          "name": "B4",
          "ticks": 157920,
          "time": 197.39967099999998,
          "velocity": 0.6299212598425197
        },
        {
          "duration": 0.2837495270833301,
          "durationTicks": 227,
          "midi": 72,
          "name": "C5",
          "ticks": 158160,
          "time": 197.6996705,
          "velocity": 0.6299212598425197
        },
        {
          "duration": 0.5687490520833478,
          "durationTicks": 455,
          "midi": 74,
          "name": "D5",
          "ticks": 158400,
          "time": 197.99966999999998,
          "velocity": 0.6299212598425197
        },
        {
          "duration": 0.4262492895833532,
          "durationTicks": 341,
          "midi": 69,
          "name": "A4",
          "ticks": 158880,
          "time": 198.59966899999998,
          "velocity": 0.6299212598425197
        },
        {
          "duration": 0.14124976458330707,
          "durationTicks": 113,
          "midi": 66,
          "name": "F#4",
          "ticks": 159240,
          "time": 199.04966825,
          "velocity": 0.6299212598425197
        },
        {
          "duration": 0.2837495270833301,
          "durationTicks": 227,
          "midi": 74,
          "name": "D5",
          "ticks": 159360,
          "time": 199.19966799999997,
          "velocity": 0.6299212598425197
        },
        {
          "duration": 0.2837495270833301,
          "durationTicks": 227,
          "midi": 72,
          "name": "C5",
          "ticks": 159600,
          "time": 199.4996675,
          "velocity": 0.6299212598425197
        },
        {
          "duration": 0.2837495270833301,
          "durationTicks": 227,
          "midi": 71,
          "name": "B4",
          "ticks": 159840,
          "time": 199.79966699999997,
          "velocity": 0.6299212598425197
        },
        {
          "duration": 0.2837495270833301,
          "durationTicks": 227,
          "midi": 72,
          "name": "C5",
          "ticks": 160080,
          "time": 200.09966649999998,
          "velocity": 0.6299212598425197
        },
        {
          "duration": 0.8537485770833086,
          "durationTicks": 683,
          "midi": 69,
          "name": "A4",
          "ticks": 160320,
          "time": 200.399666,
          "velocity": 0.6299212598425197
        },
        {
          "duration": 0.8537485770833086,
          "durationTicks": 683,
          "midi": 73,
          "name": "C#5",
          "ticks": 160320,
          "time": 200.399666,
          "velocity": 0.6299212598425197
        },
        {
          "duration": 0.2837495270833301,
          "durationTicks": 227,
          "midi": 73,
          "name": "C#5",
          "ticks": 161040,
          "time": 201.29966449999998,
          "velocity": 0.6299212598425197
        },
        {
          "duration": 0.8537485770833086,
          "durationTicks": 683,
          "midi": 66,
          "name": "F#4",
          "ticks": 161280,
          "time": 201.599664,
          "velocity": 0.6299212598425197
        },
        {
          "duration": 0.8537485770833086,
          "durationTicks": 683,
          "midi": 69,
          "name": "A4",
          "ticks": 161280,
          "time": 201.599664,
          "velocity": 0.6299212598425197
        },
        {
          "duration": 0.8537485770833086,
          "durationTicks": 683,
          "midi": 74,
          "name": "D5",
          "ticks": 161280,
          "time": 201.599664,
          "velocity": 0.6299212598425197
        },
        {
          "duration": 0.2837495270833301,
          "durationTicks": 227,
          "midi": 69,
          "name": "A4",
          "ticks": 162000,
          "time": 202.49966249999997,
          "velocity": 0.6299212598425197
        },
        {
          "duration": 0.2837495270833301,
          "durationTicks": 227,
          "midi": 69,
          "name": "A4",
          "ticks": 162240,
          "time": 202.79966199999998,
          "velocity": 0.6299212598425197
        },
        {
          "duration": 0.2837495270833301,
          "durationTicks": 227,
          "midi": 71,
          "name": "B4",
          "ticks": 162480,
          "time": 203.0996615,
          "velocity": 0.6299212598425197
        },
        {
          "duration": 0.2837495270833301,
          "durationTicks": 227,
          "midi": 69,
          "name": "A4",
          "ticks": 162720,
          "time": 203.39966099999998,
          "velocity": 0.6299212598425197
        },
        {
          "duration": 0.2837495270833301,
          "durationTicks": 227,
          "midi": 67,
          "name": "G4",
          "ticks": 162960,
          "time": 203.6996605,
          "velocity": 0.6299212598425197
        },
        {
          "duration": 0.8537485770833371,
          "durationTicks": 683,
          "midi": 66,
          "name": "F#4",
          "ticks": 163200,
          "time": 203.99965999999998,
          "velocity": 0.6299212598425197
        },
        {
          "duration": 0.2837495270833301,
          "durationTicks": 227,
          "midi": 66,
          "name": "F#4",
          "ticks": 163920,
          "time": 204.8996585,
          "velocity": 0.6299212598425197
        },
        {
          "duration": 0.2837495270833301,
          "durationTicks": 227,
          "midi": 66,
          "name": "F#4",
          "ticks": 164160,
          "time": 205.19965799999997,
          "velocity": 0.6299212598425197
        },
        {
          "duration": 0.2837495270833301,
          "durationTicks": 227,
          "midi": 67,
          "name": "G4",
          "ticks": 164400,
          "time": 205.49965749999998,
          "velocity": 0.6299212598425197
        },
        {
          "duration": 0.2837495270833301,
          "durationTicks": 227,
          "midi": 66,
          "name": "F#4",
          "ticks": 164640,
          "time": 205.799657,
          "velocity": 0.6299212598425197
        },
        {
          "duration": 0.2837495270833301,
          "durationTicks": 227,
          "midi": 64,
          "name": "E4",
          "ticks": 164880,
          "time": 206.09965649999998,
          "velocity": 0.6299212598425197
        },
        {
          "duration": 0.2837495270833301,
          "durationTicks": 227,
          "midi": 74,
          "name": "D5",
          "ticks": 165120,
          "time": 206.399656,
          "velocity": 0.6299212598425197
        },
        {
          "duration": 0.2837495270833301,
          "durationTicks": 227,
          "midi": 72,
          "name": "C5",
          "ticks": 165360,
          "time": 206.69965549999998,
          "velocity": 0.6299212598425197
        },
        {
          "duration": 0.2837495270833301,
          "durationTicks": 227,
          "midi": 71,
          "name": "B4",
          "ticks": 165600,
          "time": 206.999655,
          "velocity": 0.6299212598425197
        },
        {
          "duration": 0.2837495270833301,
          "durationTicks": 227,
          "midi": 72,
          "name": "C5",
          "ticks": 165840,
          "time": 207.29965449999997,
          "velocity": 0.6299212598425197
        },
        {
          "duration": 0.5687490520833478,
          "durationTicks": 455,
          "midi": 74,
          "name": "D5",
          "ticks": 166080,
          "time": 207.599654,
          "velocity": 0.6299212598425197
        },
        {
          "duration": 0.42624928958332475,
          "durationTicks": 341,
          "midi": 69,
          "name": "A4",
          "ticks": 166560,
          "time": 208.19965299999998,
          "velocity": 0.6299212598425197
        },
        {
          "duration": 0.1412497645833355,
          "durationTicks": 113,
          "midi": 69,
          "name": "A4",
          "ticks": 166920,
          "time": 208.64965224999997,
          "velocity": 0.6299212598425197
        },
        {
          "duration": 0.2837495270833301,
          "durationTicks": 227,
          "midi": 74,
          "name": "D5",
          "ticks": 167040,
          "time": 208.79965199999998,
          "velocity": 0.6299212598425197
        },
        {
          "duration": 0.2837495270833301,
          "durationTicks": 227,
          "midi": 72,
          "name": "C5",
          "ticks": 167280,
          "time": 209.0996515,
          "velocity": 0.6299212598425197
        },
        {
          "duration": 0.2837495270833301,
          "durationTicks": 227,
          "midi": 71,
          "name": "B4",
          "ticks": 167520,
          "time": 209.39965099999998,
          "velocity": 0.6299212598425197
        },
        {
          "duration": 0.2837495270833301,
          "durationTicks": 227,
          "midi": 72,
          "name": "C5",
          "ticks": 167760,
          "time": 209.6996505,
          "velocity": 0.6299212598425197
        },
        {
          "duration": 0.5687490520833478,
          "durationTicks": 455,
          "midi": 74,
          "name": "D5",
          "ticks": 168000,
          "time": 209.99964999999997,
          "velocity": 0.6299212598425197
        },
        {
          "duration": 0.5687490520833478,
          "durationTicks": 455,
          "midi": 73,
          "name": "C#5",
          "ticks": 168480,
          "time": 210.59964899999997,
          "velocity": 0.6299212598425197
        },
        {
          "duration": 0.8537485770833371,
          "durationTicks": 683,
          "midi": 69,
          "name": "A4",
          "ticks": 168960,
          "time": 211.19964799999997,
          "velocity": 0.7559055118110236
        },
        {
          "duration": 0.2837495270833301,
          "durationTicks": 227,
          "midi": 69,
          "name": "A4",
          "ticks": 169680,
          "time": 212.09964649999998,
          "velocity": 0.6299212598425197
        },
        {
          "duration": 0.2837495270833301,
          "durationTicks": 227,
          "midi": 69,
          "name": "A4",
          "ticks": 169920,
          "time": 212.399646,
          "velocity": 0.6299212598425197
        },
        {
          "duration": 0.2837495270833301,
          "durationTicks": 227,
          "midi": 71,
          "name": "B4",
          "ticks": 170160,
          "time": 212.69964549999997,
          "velocity": 0.6299212598425197
        },
        {
          "duration": 0.2837495270833301,
          "durationTicks": 227,
          "midi": 69,
          "name": "A4",
          "ticks": 170400,
          "time": 212.999645,
          "velocity": 0.6299212598425197
        },
        {
          "duration": 0.2837495270833301,
          "durationTicks": 227,
          "midi": 67,
          "name": "G4",
          "ticks": 170640,
          "time": 213.29964449999997,
          "velocity": 0.6299212598425197
        },
        {
          "duration": 0.5687490520833478,
          "durationTicks": 455,
          "midi": 73,
          "name": "C#5",
          "ticks": 170880,
          "time": 213.59964399999998,
          "velocity": 0.6299212598425197
        },
        {
          "duration": 0.5687490520833478,
          "durationTicks": 455,
          "midi": 74,
          "name": "D5",
          "ticks": 170880,
          "time": 213.59964399999998,
          "velocity": 0.6299212598425197
        },
        {
          "duration": 1.1387481020833263,
          "durationTicks": 911,
          "midi": 71,
          "name": "B4",
          "ticks": 171360,
          "time": 214.19964299999998,
          "velocity": 0.6299212598425197
        },
        {
          "duration": 1.1387481020833263,
          "durationTicks": 911,
          "midi": 74,
          "name": "D5",
          "ticks": 171360,
          "time": 214.19964299999998,
          "velocity": 0.6299212598425197
        },
        {
          "duration": 0.5687490520833478,
          "durationTicks": 455,
          "midi": 69,
          "name": "A4",
          "ticks": 172320,
          "time": 215.39964099999997,
          "velocity": 0.6299212598425197
        },
        {
          "duration": 0.5687490520833478,
          "durationTicks": 455,
          "midi": 72,
          "name": "C5",
          "ticks": 172320,
          "time": 215.39964099999997,
          "velocity": 0.6299212598425197
        },
        {
          "duration": 0.5687490520833478,
          "durationTicks": 455,
          "midi": 69,
          "name": "A4",
          "ticks": 172800,
          "time": 215.99963999999997,
          "velocity": 0.6299212598425197
        },
        {
          "duration": 0.5687490520833478,
          "durationTicks": 455,
          "midi": 71,
          "name": "B4",
          "ticks": 172800,
          "time": 215.99963999999997,
          "velocity": 0.6299212598425197
        },
        {
          "duration": 0.5687490520833478,
          "durationTicks": 455,
          "midi": 67,
          "name": "G4",
          "ticks": 173280,
          "time": 216.59963899999997,
          "velocity": 0.6299212598425197
        },
        {
          "duration": 0.5687490520833194,
          "durationTicks": 455,
          "midi": 69,
          "name": "A4",
          "ticks": 173760,
          "time": 217.199638,
          "velocity": 0.6299212598425197
        },
        {
          "duration": 0.5687490520833194,
          "durationTicks": 455,
          "midi": 74,
          "name": "D5",
          "ticks": 173760,
          "time": 217.199638,
          "velocity": 0.6299212598425197
        },
        {
          "duration": 0.5687490520833478,
          "durationTicks": 455,
          "midi": 69,
          "name": "A4",
          "ticks": 174240,
          "time": 217.799637,
          "velocity": 0.6299212598425197
        },
        {
          "duration": 1.1387481020833263,
          "durationTicks": 911,
          "midi": 67,
          "name": "G4",
          "ticks": 174720,
          "time": 218.399636,
          "velocity": 0.6299212598425197
        },
        {
          "duration": 1.1387481020833263,
          "durationTicks": 911,
          "midi": 71,
          "name": "B4",
          "ticks": 174720,
          "time": 218.399636,
          "velocity": 0.6299212598425197
        },
        {
          "duration": 1.1387481020833263,
          "durationTicks": 911,
          "midi": 64,
          "name": "E4",
          "ticks": 175680,
          "time": 219.59963399999998,
          "velocity": 0.6299212598425197
        },
        {
          "duration": 1.1387481020833263,
          "durationTicks": 911,
          "midi": 69,
          "name": "A4",
          "ticks": 175680,
          "time": 219.59963399999998,
          "velocity": 0.6299212598425197
        },
        {
          "duration": 0.5687490520833478,
          "durationTicks": 455,
          "midi": 69,
          "name": "A4",
          "ticks": 176640,
          "time": 220.79963199999997,
          "velocity": 0.6299212598425197
        },
        {
          "duration": 1.1387481020833548,
          "durationTicks": 911,
          "midi": 69,
          "name": "A4",
          "ticks": 177120,
          "time": 221.39963099999997,
          "velocity": 0.6299212598425197
        },
        {
          "duration": 1.1387481020833548,
          "durationTicks": 911,
          "midi": 74,
          "name": "D5",
          "ticks": 177120,
          "time": 221.39963099999997,
          "velocity": 0.6299212598425197
        },
        {
          "duration": 1.1387481020833548,
          "durationTicks": 911,
          "midi": 78,
          "name": "F#5",
          "ticks": 177120,
          "time": 221.39963099999997,
          "velocity": 0.6299212598425197
        },
        {
          "duration": 0.5687490520833194,
          "durationTicks": 455,
          "midi": 76,
          "name": "E5",
          "ticks": 178080,
          "time": 222.599629,
          "velocity": 0.6299212598425197
        },
        {
          "duration": 0.5687490520833478,
          "durationTicks": 455,
          "midi": 66,
          "name": "F#4",
          "ticks": 178560,
          "time": 223.199628,
          "velocity": 0.6299212598425197
        },
        {
          "duration": 0.5687490520833478,
          "durationTicks": 455,
          "midi": 73,
          "name": "C#5",
          "ticks": 178560,
          "time": 223.199628,
          "velocity": 0.6299212598425197
        },
        {
          "duration": 0.5687490520833478,
          "durationTicks": 455,
          "midi": 74,
          "name": "D5",
          "ticks": 178560,
          "time": 223.199628,
          "velocity": 0.6299212598425197
        },
        {
          "duration": 1.1387481020833263,
          "durationTicks": 911,
          "midi": 74,
          "name": "D5",
          "ticks": 179040,
          "time": 223.799627,
          "velocity": 0.6299212598425197
        },
        {
          "duration": 1.1387481020833263,
          "durationTicks": 911,
          "midi": 83,
          "name": "B5",
          "ticks": 179040,
          "time": 223.799627,
          "velocity": 0.6299212598425197
        },
        {
          "duration": 1.1387481020833263,
          "durationTicks": 911,
          "midi": 86,
          "name": "D6",
          "ticks": 179040,
          "time": 223.799627,
          "velocity": 0.6299212598425197
        },
        {
          "duration": 0.5687490520833478,
          "durationTicks": 455,
          "midi": 76,
          "name": "E5",
          "ticks": 180000,
          "time": 224.99962499999998,
          "velocity": 0.6299212598425197
        },
        {
          "duration": 0.5687490520833478,
          "durationTicks": 455,
          "midi": 81,
          "name": "A5",
          "ticks": 180000,
          "time": 224.99962499999998,
          "velocity": 0.6299212598425197
        },
        {
          "duration": 0.5687490520833478,
          "durationTicks": 455,
          "midi": 84,
          "name": "C6",
          "ticks": 180000,
          "time": 224.99962499999998,
          "velocity": 0.6299212598425197
        },
        {
          "duration": 0.5687490520833478,
          "durationTicks": 455,
          "midi": 74,
          "name": "D5",
          "ticks": 180480,
          "time": 225.59962399999998,
          "velocity": 0.6299212598425197
        },
        {
          "duration": 0.5687490520833478,
          "durationTicks": 455,
          "midi": 81,
          "name": "A5",
          "ticks": 180480,
          "time": 225.59962399999998,
          "velocity": 0.6299212598425197
        },
        {
          "duration": 0.5687490520833478,
          "durationTicks": 455,
          "midi": 83,
          "name": "B5",
          "ticks": 180480,
          "time": 225.59962399999998,
          "velocity": 0.6299212598425197
        },
        {
          "duration": 0.5687490520833478,
          "durationTicks": 455,
          "midi": 79,
          "name": "G5",
          "ticks": 180960,
          "time": 226.19962299999997,
          "velocity": 0.6299212598425197
        },
        {
          "duration": 0.5687490520833478,
          "durationTicks": 455,
          "midi": 78,
          "name": "F#5",
          "ticks": 181440,
          "time": 226.79962199999997,
          "velocity": 0.6299212598425197
        },
        {
          "duration": 0.5687490520833478,
          "durationTicks": 455,
          "midi": 81,
          "name": "A5",
          "ticks": 181440,
          "time": 226.79962199999997,
          "velocity": 0.6299212598425197
        },
        {
          "duration": 0.5687490520833478,
          "durationTicks": 455,
          "midi": 86,
          "name": "D6",
          "ticks": 181440,
          "time": 226.79962199999997,
          "velocity": 0.6299212598425197
        },
        {
          "duration": 0.5687490520833478,
          "durationTicks": 455,
          "midi": 74,
          "name": "D5",
          "ticks": 181920,
          "time": 227.39962099999997,
          "velocity": 0.6299212598425197
        },
        {
          "duration": 0.5687490520833478,
          "durationTicks": 455,
          "midi": 78,
          "name": "F#5",
          "ticks": 181920,
          "time": 227.39962099999997,
          "velocity": 0.6299212598425197
        },
        {
          "duration": 0.5687490520833478,
          "durationTicks": 455,
          "midi": 81,
          "name": "A5",
          "ticks": 181920,
          "time": 227.39962099999997,
          "velocity": 0.6299212598425197
        },
        {
          "duration": 0.8537485770833086,
          "durationTicks": 683,
          "midi": 74,
          "name": "D5",
          "ticks": 182400,
          "time": 227.99962,
          "velocity": 0.6299212598425197
        },
        {
          "duration": 0.8537485770833086,
          "durationTicks": 683,
          "midi": 79,
          "name": "G5",
          "ticks": 182400,
          "time": 227.99962,
          "velocity": 0.6299212598425197
        },
        {
          "duration": 0.8537485770833086,
          "durationTicks": 683,
          "midi": 83,
          "name": "B5",
          "ticks": 182400,
          "time": 227.99962,
          "velocity": 0.6299212598425197
        },
        {
          "duration": 0.2837495270833301,
          "durationTicks": 227,
          "midi": 76,
          "name": "E5",
          "ticks": 183120,
          "time": 228.89961849999997,
          "velocity": 0.6299212598425197
        },
        {
          "duration": 0.5687490520833478,
          "durationTicks": 455,
          "midi": 73,
          "name": "C#5",
          "ticks": 183360,
          "time": 229.199618,
          "velocity": 0.6299212598425197
        },
        {
          "duration": 0.5687490520833478,
          "durationTicks": 455,
          "midi": 76,
          "name": "E5",
          "ticks": 183360,
          "time": 229.199618,
          "velocity": 0.6299212598425197
        },
        {
          "duration": 0.5687490520833478,
          "durationTicks": 455,
          "midi": 81,
          "name": "A5",
          "ticks": 183360,
          "time": 229.199618,
          "velocity": 0.6299212598425197
        },
        {
          "duration": 0.5687490520833478,
          "durationTicks": 455,
          "midi": 79,
          "name": "G5",
          "ticks": 183840,
          "time": 229.79961699999998,
          "velocity": 0.6299212598425197
        },
        {
          "duration": 1.1387481020833263,
          "durationTicks": 911,
          "midi": 69,
          "name": "A4",
          "ticks": 184320,
          "time": 230.39961599999998,
          "velocity": 0.6299212598425197
        },
        {
          "duration": 1.1387481020833263,
          "durationTicks": 911,
          "midi": 78,
          "name": "F#5",
          "ticks": 184320,
          "time": 230.39961599999998,
          "velocity": 0.6299212598425197
        },
        {
          "duration": 1.1387481020833263,
          "durationTicks": 911,
          "midi": 81,
          "name": "A5",
          "ticks": 184320,
          "time": 230.39961599999998,
          "velocity": 0.6299212598425197
        },
        {
          "duration": 0.8537485770833371,
          "durationTicks": 683,
          "midi": 69,
          "name": "A4",
          "ticks": 185280,
          "time": 231.59961399999997,
          "velocity": 0.6299212598425197
        },
        {
          "duration": 0.2837495270833301,
          "durationTicks": 227,
          "midi": 67,
          "name": "G4",
          "ticks": 186000,
          "time": 232.49961249999998,
          "velocity": 0.6299212598425197
        },
        {
          "duration": 1.1387481020833548,
          "durationTicks": 911,
          "midi": 66,
          "name": "F#4",
          "ticks": 186240,
          "time": 232.79961199999997,
          "velocity": 0.6299212598425197
        },
        {
          "duration": 1.1387481020833548,
          "durationTicks": 911,
          "midi": 78,
          "name": "F#5",
          "ticks": 186240,
          "time": 232.79961199999997,
          "velocity": 0.6299212598425197
        },
        {
          "duration": 0.8537485770833086,
          "durationTicks": 683,
          "midi": 78,
          "name": "F#5",
          "ticks": 187200,
          "time": 233.99961,
          "velocity": 0.6299212598425197
        },
        {
          "duration": 0.2837495270833301,
          "durationTicks": 227,
          "midi": 76,
          "name": "E5",
          "ticks": 187920,
          "time": 234.89960849999997,
          "velocity": 0.6299212598425197
        },
        {
          "duration": 1.1387481020833263,
          "durationTicks": 911,
          "midi": 74,
          "name": "D5",
          "ticks": 188160,
          "time": 235.19960799999998,
          "velocity": 0.6299212598425197
        },
        {
          "duration": 1.1387481020833263,
          "durationTicks": 911,
          "midi": 79,
          "name": "G5",
          "ticks": 188160,
          "time": 235.19960799999998,
          "velocity": 0.6299212598425197
        },
        {
          "duration": 0.5687490520833478,
          "durationTicks": 455,
          "midi": 78,
          "name": "F#5",
          "ticks": 189120,
          "time": 236.39960599999998,
          "velocity": 0.6299212598425197
        },
        {
          "duration": 0.5687490520833478,
          "durationTicks": 455,
          "midi": 81,
          "name": "A5",
          "ticks": 189120,
          "time": 236.39960599999998,
          "velocity": 0.6299212598425197
        },
        {
          "duration": 0.5687490520833478,
          "durationTicks": 455,
          "midi": 62,
          "name": "D4",
          "ticks": 189600,
          "time": 236.99960499999997,
          "velocity": 0.6299212598425197
        },
        {
          "duration": 0.5687490520833478,
          "durationTicks": 455,
          "midi": 74,
          "name": "D5",
          "ticks": 189600,
          "time": 236.99960499999997,
          "velocity": 0.6299212598425197
        },
        {
          "duration": 0.8537485770833371,
          "durationTicks": 683,
          "midi": 71,
          "name": "B4",
          "ticks": 190080,
          "time": 237.59960399999997,
          "velocity": 0.6299212598425197
        },
        {
          "duration": 0.8537485770833371,
          "durationTicks": 683,
          "midi": 74,
          "name": "D5",
          "ticks": 190080,
          "time": 237.59960399999997,
          "velocity": 0.6299212598425197
        },
        {
          "duration": 0.2837495270833301,
          "durationTicks": 227,
          "midi": 76,
          "name": "E5",
          "ticks": 190800,
          "time": 238.49960249999998,
          "velocity": 0.6299212598425197
        },
        {
          "duration": 0.8537485770833086,
          "durationTicks": 683,
          "midi": 64,
          "name": "E4",
          "ticks": 191040,
          "time": 238.799602,
          "velocity": 0.6299212598425197
        },
        {
          "duration": 0.8537485770833086,
          "durationTicks": 683,
          "midi": 76,
          "name": "E5",
          "ticks": 191040,
          "time": 238.799602,
          "velocity": 0.6299212598425197
        },
        {
          "duration": 1.4237476270833156,
          "durationTicks": 1139,
          "midi": 69,
          "name": "A4",
          "ticks": 191760,
          "time": 239.69960049999997,
          "velocity": 0.6299212598425197
        },
        {
          "duration": 1.4237476270833156,
          "durationTicks": 1139,
          "midi": 73,
          "name": "C#5",
          "ticks": 191760,
          "time": 239.69960049999997,
          "velocity": 0.6299212598425197
        },
        {
          "duration": 3.478744202083334,
          "durationTicks": 2783,
          "midi": 62,
          "name": "D4",
          "ticks": 192960,
          "time": 241.19959799999998,
          "velocity": 0.3858267716535433
        },
        {
          "duration": 3.4562442395833557,
          "durationTicks": 2765,
          "midi": 66,
          "name": "F#4",
          "ticks": 192977,
          "time": 241.2208479645833,
          "velocity": 0.3858267716535433
        },
        {
          "duration": 3.434994275000008,
          "durationTicks": 2748,
          "midi": 69,
          "name": "A4",
          "ticks": 192994,
          "time": 241.24209792916665,
          "velocity": 0.3858267716535433
        },
        {
          "duration": 3.4124943125000016,
          "durationTicks": 2730,
          "midi": 74,
          "name": "D5",
          "ticks": 193012,
          "time": 241.26459789166665,
          "velocity": 0.3858267716535433
        }
      ],
      "endOfTrackTicks": 195744
    },
    {
      "channel": 0,
      "controlChanges": {},
      "pitchBends": [],
      "instrument": {
        "family": "piano",
        "name": "acoustic grand piano",
        "number": 0
      },
      "name": "Piano\u0000",
      "notes": [
        {
          "duration": 0.2837495270833333,
          "durationTicks": 227,
          "midi": 50,
          "name": "D3",
          "ticks": 0,
          "time": 0,
          "velocity": 0.3858267716535433
        },
        {
          "duration": 0.28374952708333334,
          "durationTicks": 227,
          "midi": 57,
          "name": "A3",
          "ticks": 240,
          "time": 0.2999995,
          "velocity": 0.3858267716535433
        },
        {
          "duration": 0.28374952708333334,
          "durationTicks": 227,
          "midi": 62,
          "name": "D4",
          "ticks": 480,
          "time": 0.599999,
          "velocity": 0.3858267716535433
        },
        {
          "duration": 0.28374952708333323,
          "durationTicks": 227,
          "midi": 66,
          "name": "F#4",
          "ticks": 720,
          "time": 0.8999984999999999,
          "velocity": 0.3858267716535433
        },
        {
          "duration": 0.28374952708333345,
          "durationTicks": 227,
          "midi": 45,
          "name": "A2",
          "ticks": 960,
          "time": 1.199998,
          "velocity": 0.3858267716535433
        },
        {
          "duration": 0.28374952708333345,
          "durationTicks": 227,
          "midi": 52,
          "name": "E3",
          "ticks": 1200,
          "time": 1.4999974999999999,
          "velocity": 0.3858267716535433
        },
        {
          "duration": 0.28374952708333323,
          "durationTicks": 227,
          "midi": 57,
          "name": "A3",
          "ticks": 1440,
          "time": 1.7999969999999998,
          "velocity": 0.3858267716535433
        },
        {
          "duration": 0.2837495270833337,
          "durationTicks": 227,
          "midi": 61,
          "name": "C#4",
          "ticks": 1680,
          "time": 2.0999964999999996,
          "velocity": 0.3858267716535433
        },
        {
          "duration": 0.28374952708333323,
          "durationTicks": 227,
          "midi": 47,
          "name": "B2",
          "ticks": 1920,
          "time": 2.399996,
          "velocity": 0.3858267716535433
        },
        {
          "duration": 0.2837495270833328,
          "durationTicks": 227,
          "midi": 54,
          "name": "F#3",
          "ticks": 2160,
          "time": 2.6999955,
          "velocity": 0.3858267716535433
        },
        {
          "duration": 0.28374952708333323,
          "durationTicks": 227,
          "midi": 59,
          "name": "B3",
          "ticks": 2400,
          "time": 2.9999949999999997,
          "velocity": 0.3858267716535433
        },
        {
          "duration": 0.28374952708333323,
          "durationTicks": 227,
          "midi": 62,
          "name": "D4",
          "ticks": 2640,
          "time": 3.2999944999999995,
          "velocity": 0.3858267716535433
        },
        {
          "duration": 0.28374952708333323,
          "durationTicks": 227,
          "midi": 42,
          "name": "F#2",
          "ticks": 2880,
          "time": 3.5999939999999997,
          "velocity": 0.3858267716535433
        },
        {
          "duration": 0.2837495270833328,
          "durationTicks": 227,
          "midi": 49,
          "name": "C#3",
          "ticks": 3120,
          "time": 3.8999935,
          "velocity": 0.3858267716535433
        },
        {
          "duration": 0.2837495270833337,
          "durationTicks": 227,
          "midi": 54,
          "name": "F#3",
          "ticks": 3360,
          "time": 4.199992999999999,
          "velocity": 0.3858267716535433
        },
        {
          "duration": 0.2837495270833337,
          "durationTicks": 227,
          "midi": 57,
          "name": "A3",
          "ticks": 3600,
          "time": 4.499992499999999,
          "velocity": 0.3858267716535433
        },
        {
          "duration": 0.2837495270833328,
          "durationTicks": 227,
          "midi": 43,
          "name": "G2",
          "ticks": 3840,
          "time": 4.799992,
          "velocity": 0.3858267716535433
        },
        {
          "duration": 0.2837495270833328,
          "durationTicks": 227,
          "midi": 50,
          "name": "D3",
          "ticks": 4080,
          "time": 5.0999915,
          "velocity": 0.3858267716535433
        },
        {
          "duration": 0.2837495270833328,
          "durationTicks": 227,
          "midi": 55,
          "name": "G3",
          "ticks": 4320,
          "time": 5.399991,
          "velocity": 0.3858267716535433
        },
        {
          "duration": 0.2837495270833337,
          "durationTicks": 227,
          "midi": 59,
          "name": "B3",
          "ticks": 4560,
          "time": 5.699990499999999,
          "velocity": 0.3858267716535433
        },
        {
          "duration": 0.2837495270833328,
          "durationTicks": 227,
          "midi": 38,
          "name": "D2",
          "ticks": 4800,
          "time": 5.9999899999999995,
          "velocity": 0.3858267716535433
        },
        {
          "duration": 0.2837495270833328,
          "durationTicks": 227,
          "midi": 45,
          "name": "A2",
          "ticks": 5040,
          "time": 6.2999895,
          "velocity": 0.3858267716535433
        },
        {
          "duration": 0.2837495270833337,
          "durationTicks": 227,
          "midi": 50,
          "name": "D3",
          "ticks": 5280,
          "time": 6.599988999999999,
          "velocity": 0.3858267716535433
        },
        {
          "duration": 0.2837495270833337,
          "durationTicks": 227,
          "midi": 54,
          "name": "F#3",
          "ticks": 5520,
          "time": 6.899988499999999,
          "velocity": 0.3858267716535433
        },
        {
          "duration": 0.2837495270833328,
          "durationTicks": 227,
          "midi": 43,
          "name": "G2",
          "ticks": 5760,
          "time": 7.199987999999999,
          "velocity": 0.3858267716535433
        },
        {
          "duration": 0.2837495270833328,
          "durationTicks": 227,
          "midi": 50,
          "name": "D3",
          "ticks": 6000,
          "time": 7.4999875,
          "velocity": 0.4251968503937008
        },
        {
          "duration": 0.2837495270833319,
          "durationTicks": 227,
          "midi": 55,
          "name": "G3",
          "ticks": 6240,
          "time": 7.799987,
          "velocity": 0.47244094488188976
        },
        {
          "duration": 0.2837495270833319,
          "durationTicks": 227,
          "midi": 59,
          "name": "B3",
          "ticks": 6480,
          "time": 8.0999865,
          "velocity": 0.5196850393700787
        },
        {
          "duration": 0.2837495270833337,
          "durationTicks": 227,
          "midi": 45,
          "name": "A2",
          "ticks": 6720,
          "time": 8.399985999999998,
          "velocity": 0.5669291338582677
        },
        {
          "duration": 0.2837495270833337,
          "durationTicks": 227,
          "midi": 52,
          "name": "E3",
          "ticks": 6960,
          "time": 8.699985499999999,
          "velocity": 0.6141732283464567
        },
        {
          "duration": 0.2837495270833337,
          "durationTicks": 227,
          "midi": 57,
          "name": "A3",
          "ticks": 7200,
          "time": 8.999984999999999,
          "velocity": 0.6614173228346457
        },
        {
          "duration": 0.2837495270833337,
          "durationTicks": 227,
          "midi": 61,
          "name": "C#4",
          "ticks": 7440,
          "time": 9.299984499999999,
          "velocity": 0.7086614173228346
        },
        {
          "duration": 0.2837495270833337,
          "durationTicks": 227,
          "midi": 50,
          "name": "D3",
          "ticks": 7680,
          "time": 9.599984,
          "velocity": 0.7559055118110236
        },
        {
          "duration": 0.2837495270833337,
          "durationTicks": 227,
          "midi": 57,
          "name": "A3",
          "ticks": 7920,
          "time": 9.8999835,
          "velocity": 0.6614173228346457
        },
        {
          "duration": 0.2837495270833319,
          "durationTicks": 227,
          "midi": 62,
          "name": "D4",
          "ticks": 8160,
          "time": 10.199983,
          "velocity": 0.6299212598425197
        },
        {
          "duration": 0.2837495270833319,
          "durationTicks": 227,
          "midi": 66,
          "name": "F#4",
          "ticks": 8400,
          "time": 10.4999825,
          "velocity": 0.6299212598425197
        },
        {
          "duration": 0.2837495270833319,
          "durationTicks": 227,
          "midi": 45,
          "name": "A2",
          "ticks": 8640,
          "time": 10.799982,
          "velocity": 0.6299212598425197
        },
        {
          "duration": 0.2837495270833337,
          "durationTicks": 227,
          "midi": 52,
          "name": "E3",
          "ticks": 8880,
          "time": 11.099981499999998,
          "velocity": 0.6299212598425197
        },
        {
          "duration": 0.2837495270833337,
          "durationTicks": 227,
          "midi": 57,
          "name": "A3",
          "ticks": 9120,
          "time": 11.399980999999999,
          "velocity": 0.6299212598425197
        },
        {
          "duration": 0.2837495270833337,
          "durationTicks": 227,
          "midi": 61,
          "name": "C#4",
          "ticks": 9360,
          "time": 11.699980499999999,
          "velocity": 0.6299212598425197
        },
        {
          "duration": 0.2837495270833337,
          "durationTicks": 227,
          "midi": 47,
          "name": "B2",
          "ticks": 9600,
          "time": 11.999979999999999,
          "velocity": 0.6299212598425197
        },
        {
          "duration": 0.2837495270833337,
          "durationTicks": 227,
          "midi": 54,
          "name": "F#3",
          "ticks": 9840,
          "time": 12.2999795,
          "velocity": 0.6299212598425197
        },
        {
          "duration": 0.2837495270833319,
          "durationTicks": 227,
          "midi": 59,
          "name": "B3",
          "ticks": 10080,
          "time": 12.599979,
          "velocity": 0.6299212598425197
        },
        {
          "duration": 0.2837495270833319,
          "durationTicks": 227,
          "midi": 62,
          "name": "D4",
          "ticks": 10320,
          "time": 12.8999785,
          "velocity": 0.6299212598425197
        },
        {
          "duration": 0.2837495270833337,
          "durationTicks": 227,
          "midi": 42,
          "name": "F#2",
          "ticks": 10560,
          "time": 13.199977999999998,
          "velocity": 0.6299212598425197
        },
        {
          "duration": 0.2837495270833337,
          "durationTicks": 227,
          "midi": 49,
          "name": "C#3",
          "ticks": 10800,
          "time": 13.499977499999998,
          "velocity": 0.6299212598425197
        },
        {
          "duration": 0.2837495270833337,
          "durationTicks": 227,
          "midi": 54,
          "name": "F#3",
          "ticks": 11040,
          "time": 13.799976999999998,
          "velocity": 0.6299212598425197
        },
        {
          "duration": 0.2837495270833337,
          "durationTicks": 227,
          "midi": 57,
          "name": "A3",
          "ticks": 11280,
          "time": 14.099976499999999,
          "velocity": 0.6299212598425197
        },
        {
          "duration": 0.2837495270833337,
          "durationTicks": 227,
          "midi": 43,
          "name": "G2",
          "ticks": 11520,
          "time": 14.399975999999999,
          "velocity": 0.6299212598425197
        },
        {
          "duration": 0.2837495270833337,
          "durationTicks": 227,
          "midi": 50,
          "name": "D3",
          "ticks": 11760,
          "time": 14.699975499999999,
          "velocity": 0.6299212598425197
        },
        {
          "duration": 0.2837495270833319,
          "durationTicks": 227,
          "midi": 55,
          "name": "G3",
          "ticks": 12000,
          "time": 14.999975,
          "velocity": 0.6299212598425197
        },
        {
          "duration": 0.2837495270833319,
          "durationTicks": 227,
          "midi": 59,
          "name": "B3",
          "ticks": 12240,
          "time": 15.2999745,
          "velocity": 0.6299212598425197
        },
        {
          "duration": 0.2837495270833319,
          "durationTicks": 227,
          "midi": 38,
          "name": "D2",
          "ticks": 12480,
          "time": 15.599974,
          "velocity": 0.6299212598425197
        },
        {
          "duration": 0.2837495270833337,
          "durationTicks": 227,
          "midi": 45,
          "name": "A2",
          "ticks": 12720,
          "time": 15.899973499999998,
          "velocity": 0.6299212598425197
        },
        {
          "duration": 0.2837495270833301,
          "durationTicks": 227,
          "midi": 50,
          "name": "D3",
          "ticks": 12960,
          "time": 16.199973,
          "velocity": 0.6299212598425197
        },
        {
          "duration": 0.2837495270833337,
          "durationTicks": 227,
          "midi": 54,
          "name": "F#3",
          "ticks": 13200,
          "time": 16.4999725,
          "velocity": 0.6299212598425197
        },
        {
          "duration": 0.2837495270833337,
          "durationTicks": 227,
          "midi": 43,
          "name": "G2",
          "ticks": 13440,
          "time": 16.799971999999997,
          "velocity": 0.6299212598425197
        },
        {
          "duration": 0.2837495270833337,
          "durationTicks": 227,
          "midi": 50,
          "name": "D3",
          "ticks": 13680,
          "time": 17.0999715,
          "velocity": 0.6299212598425197
        },
        {
          "duration": 0.2837495270833337,
          "durationTicks": 227,
          "midi": 55,
          "name": "G3",
          "ticks": 13920,
          "time": 17.399970999999997,
          "velocity": 0.6299212598425197
        },
        {
          "duration": 0.2837495270833337,
          "durationTicks": 227,
          "midi": 59,
          "name": "B3",
          "ticks": 14160,
          "time": 17.6999705,
          "velocity": 0.6299212598425197
        },
        {
          "duration": 0.2837495270833337,
          "durationTicks": 227,
          "midi": 45,
          "name": "A2",
          "ticks": 14400,
          "time": 17.999969999999998,
          "velocity": 0.6299212598425197
        },
        {
          "duration": 0.2837495270833337,
          "durationTicks": 227,
          "midi": 52,
          "name": "E3",
          "ticks": 14640,
          "time": 18.2999695,
          "velocity": 0.6299212598425197
        },
        {
          "duration": 0.2837495270833337,
          "durationTicks": 227,
          "midi": 57,
          "name": "A3",
          "ticks": 14880,
          "time": 18.599968999999998,
          "velocity": 0.6299212598425197
        },
        {
          "duration": 0.2837495270833301,
          "durationTicks": 227,
          "midi": 61,
          "name": "C#4",
          "ticks": 15120,
          "time": 18.8999685,
          "velocity": 0.6299212598425197
        },
        {
          "duration": 0.2837495270833337,
          "durationTicks": 227,
          "midi": 50,
          "name": "D3",
          "ticks": 15360,
          "time": 19.199968,
          "velocity": 0.6299212598425197
        },
        {
          "duration": 0.2837495270833372,
          "durationTicks": 227,
          "midi": 57,
          "name": "A3",
          "ticks": 15600,
          "time": 19.499967499999997,
          "velocity": 0.6299212598425197
        },
        {
          "duration": 0.2837495270833337,
          "durationTicks": 227,
          "midi": 62,
          "name": "D4",
          "ticks": 15840,
          "time": 19.799967,
          "velocity": 0.6299212598425197
        },
        {
          "duration": 0.2837495270833372,
          "durationTicks": 227,
          "midi": 66,
          "name": "F#4",
          "ticks": 16080,
          "time": 20.099966499999997,
          "velocity": 0.6299212598425197
        },
        {
          "duration": 0.2837495270833337,
          "durationTicks": 227,
          "midi": 45,
          "name": "A2",
          "ticks": 16320,
          "time": 20.399966,
          "velocity": 0.6299212598425197
        },
        {
          "duration": 0.2837495270833372,
          "durationTicks": 227,
          "midi": 52,
          "name": "E3",
          "ticks": 16560,
          "time": 20.699965499999998,
          "velocity": 0.6299212598425197
        },
        {
          "duration": 0.2837495270833337,
          "durationTicks": 227,
          "midi": 57,
          "name": "A3",
          "ticks": 16800,
          "time": 20.999965,
          "velocity": 0.6299212598425197
        },
        {
          "duration": 0.2837495270833372,
          "durationTicks": 227,
          "midi": 61,
          "name": "C#4",
          "ticks": 17040,
          "time": 21.299964499999998,
          "velocity": 0.6299212598425197
        },
        {
          "duration": 0.2837495270833337,
          "durationTicks": 227,
          "midi": 47,
          "name": "B2",
          "ticks": 17280,
          "time": 21.599964,
          "velocity": 0.6299212598425197
        },
        {
          "duration": 0.2837495270833337,
          "durationTicks": 227,
          "midi": 54,
          "name": "F#3",
          "ticks": 17520,
          "time": 21.8999635,
          "velocity": 0.6299212598425197
        },
        {
          "duration": 0.2837495270833372,
          "durationTicks": 227,
          "midi": 59,
          "name": "B3",
          "ticks": 17760,
          "time": 22.199962999999997,
          "velocity": 0.6299212598425197
        },
        {
          "duration": 0.2837495270833337,
          "durationTicks": 227,
          "midi": 62,
          "name": "D4",
          "ticks": 18000,
          "time": 22.4999625,
          "velocity": 0.6299212598425197
        },
        {
          "duration": 0.2837495270833372,
          "durationTicks": 227,
          "midi": 42,
          "name": "F#2",
          "ticks": 18240,
          "time": 22.799961999999997,
          "velocity": 0.6299212598425197
        },
        {
          "duration": 0.2837495270833337,
          "durationTicks": 227,
          "midi": 49,
          "name": "C#3",
          "ticks": 18480,
          "time": 23.0999615,
          "velocity": 0.6299212598425197
        },
        {
          "duration": 0.2837495270833372,
          "durationTicks": 227,
          "midi": 54,
          "name": "F#3",
          "ticks": 18720,
          "time": 23.399960999999998,
          "velocity": 0.6299212598425197
        },
        {
          "duration": 0.2837495270833337,
          "durationTicks": 227,
          "midi": 57,
          "name": "A3",
          "ticks": 18960,
          "time": 23.6999605,
          "velocity": 0.6299212598425197
        },
        {
          "duration": 0.2837495270833337,
          "durationTicks": 227,
          "midi": 43,
          "name": "G2",
          "ticks": 19200,
          "time": 23.999959999999998,
          "velocity": 0.6299212598425197
        },
        {
          "duration": 0.2837495270833372,
          "durationTicks": 227,
          "midi": 50,
          "name": "D3",
          "ticks": 19440,
          "time": 24.299959499999996,
          "velocity": 0.6299212598425197
        },
        {
          "duration": 0.2837495270833337,
          "durationTicks": 227,
          "midi": 55,
          "name": "G3",
          "ticks": 19680,
          "time": 24.599959,
          "velocity": 0.6299212598425197
        },
        {
          "duration": 0.2837495270833372,
          "durationTicks": 227,
          "midi": 59,
          "name": "B3",
          "ticks": 19920,
          "time": 24.899958499999997,
          "velocity": 0.6299212598425197
        },
        {
          "duration": 0.2837495270833337,
          "durationTicks": 227,
          "midi": 38,
          "name": "D2",
          "ticks": 20160,
          "time": 25.199958,
          "velocity": 0.6299212598425197
        },
        {
          "duration": 0.2837495270833372,
          "durationTicks": 227,
          "midi": 45,
          "name": "A2",
          "ticks": 20400,
          "time": 25.499957499999997,
          "velocity": 0.6299212598425197
        },
        {
          "duration": 0.2837495270833337,
          "durationTicks": 227,
          "midi": 50,
          "name": "D3",
          "ticks": 20640,
          "time": 25.799957,
          "velocity": 0.6299212598425197
        },
        {
          "duration": 0.2837495270833372,
          "durationTicks": 227,
          "midi": 54,
          "name": "F#3",
          "ticks": 20880,
          "time": 26.099956499999998,
          "velocity": 0.6299212598425197
        },
        {
          "duration": 0.2837495270833372,
          "durationTicks": 227,
          "midi": 43,
          "name": "G2",
          "ticks": 21120,
          "time": 26.399955999999996,
          "velocity": 0.6299212598425197
        },
        {
          "duration": 0.2837495270833337,
          "durationTicks": 227,
          "midi": 50,
          "name": "D3",
          "ticks": 21360,
          "time": 26.699955499999998,
          "velocity": 0.6299212598425197
        },
        {
          "duration": 0.2837495270833372,
          "durationTicks": 227,
          "midi": 55,
          "name": "G3",
          "ticks": 21600,
          "time": 26.999954999999996,
          "velocity": 0.6299212598425197
        },
        {
          "duration": 0.2837495270833337,
          "durationTicks": 227,
          "midi": 59,
          "name": "B3",
          "ticks": 21840,
          "time": 27.2999545,
          "velocity": 0.6299212598425197
        },
        {
          "duration": 0.2837495270833372,
          "durationTicks": 227,
          "midi": 45,
          "name": "A2",
          "ticks": 22080,
          "time": 27.599953999999997,
          "velocity": 0.6299212598425197
        },
        {
          "duration": 0.2837495270833337,
          "durationTicks": 227,
          "midi": 52,
          "name": "E3",
          "ticks": 22320,
          "time": 27.8999535,
          "velocity": 0.6299212598425197
        },
        {
          "duration": 0.2837495270833372,
          "durationTicks": 227,
          "midi": 57,
          "name": "A3",
          "ticks": 22560,
          "time": 28.199952999999997,
          "velocity": 0.6299212598425197
        },
        {
          "duration": 0.2837495270833337,
          "durationTicks": 227,
          "midi": 61,
          "name": "C#4",
          "ticks": 22800,
          "time": 28.4999525,
          "velocity": 0.6299212598425197
        },
        {
          "duration": 0.2837495270833337,
          "durationTicks": 227,
          "midi": 50,
          "name": "D3",
          "ticks": 23040,
          "time": 28.799951999999998,
          "velocity": 0.6299212598425197
        },
        {
          "duration": 0.2837495270833372,
          "durationTicks": 227,
          "midi": 57,
          "name": "A3",
          "ticks": 23280,
          "time": 29.099951499999996,
          "velocity": 0.6299212598425197
        },
        {
          "duration": 0.2837495270833337,
          "durationTicks": 227,
          "midi": 62,
          "name": "D4",
          "ticks": 23520,
          "time": 29.399950999999998,
          "velocity": 0.6299212598425197
        },
        {
          "duration": 0.2837495270833372,
          "durationTicks": 227,
          "midi": 66,
          "name": "F#4",
          "ticks": 23760,
          "time": 29.699950499999996,
          "velocity": 0.6299212598425197
        },
        {
          "duration": 0.2837495270833337,
          "durationTicks": 227,
          "midi": 45,
          "name": "A2",
          "ticks": 24000,
          "time": 29.99995,
          "velocity": 0.6299212598425197
        },
        {
          "duration": 0.2837495270833372,
          "durationTicks": 227,
          "midi": 52,
          "name": "E3",
          "ticks": 24240,
          "time": 30.299949499999997,
          "velocity": 0.6299212598425197
        },
        {
          "duration": 0.2837495270833337,
          "durationTicks": 227,
          "midi": 57,
          "name": "A3",
          "ticks": 24480,
          "time": 30.599949,
          "velocity": 0.6299212598425197
        },
        {
          "duration": 0.2837495270833372,
          "durationTicks": 227,
          "midi": 61,
          "name": "C#4",
          "ticks": 24720,
          "time": 30.899948499999997,
          "velocity": 0.6299212598425197
        },
        {
          "duration": 0.2837495270833337,
          "durationTicks": 227,
          "midi": 47,
          "name": "B2",
          "ticks": 24960,
          "time": 31.199948,
          "velocity": 0.6299212598425197
        },
        {
          "duration": 0.2837495270833337,
          "durationTicks": 227,
          "midi": 54,
          "name": "F#3",
          "ticks": 25200,
          "time": 31.499947499999998,
          "velocity": 0.6299212598425197
        },
        {
          "duration": 0.2837495270833372,
          "durationTicks": 227,
          "midi": 59,
          "name": "B3",
          "ticks": 25440,
          "time": 31.799946999999996,
          "velocity": 0.6299212598425197
        },
        {
          "duration": 0.2837495270833372,
          "durationTicks": 227,
          "midi": 62,
          "name": "D4",
          "ticks": 25680,
          "time": 32.099946499999994,
          "velocity": 0.6299212598425197
        },
        {
          "duration": 0.2837495270833301,
          "durationTicks": 227,
          "midi": 42,
          "name": "F#2",
          "ticks": 25920,
          "time": 32.399946,
          "velocity": 0.6299212598425197
        },
        {
          "duration": 0.2837495270833372,
          "durationTicks": 227,
          "midi": 49,
          "name": "C#3",
          "ticks": 26160,
          "time": 32.6999455,
          "velocity": 0.6299212598425197
        },
        {
          "duration": 0.2837495270833372,
          "durationTicks": 227,
          "midi": 54,
          "name": "F#3",
          "ticks": 26400,
          "time": 32.999945,
          "velocity": 0.6299212598425197
        },
        {
          "duration": 0.2837495270833372,
          "durationTicks": 227,
          "midi": 57,
          "name": "A3",
          "ticks": 26640,
          "time": 33.299944499999995,
          "velocity": 0.6299212598425197
        },
        {
          "duration": 0.2837495270833372,
          "durationTicks": 227,
          "midi": 43,
          "name": "G2",
          "ticks": 26880,
          "time": 33.599943999999994,
          "velocity": 0.6299212598425197
        },
        {
          "duration": 0.2837495270833301,
          "durationTicks": 227,
          "midi": 50,
          "name": "D3",
          "ticks": 27120,
          "time": 33.8999435,
          "velocity": 0.6299212598425197
        },
        {
          "duration": 0.2837495270833372,
          "durationTicks": 227,
          "midi": 55,
          "name": "G3",
          "ticks": 27360,
          "time": 34.199943,
          "velocity": 0.6299212598425197
        },
        {
          "duration": 0.2837495270833372,
          "durationTicks": 227,
          "midi": 59,
          "name": "B3",
          "ticks": 27600,
          "time": 34.499942499999996,
          "velocity": 0.6299212598425197
        },
        {
          "duration": 0.2837495270833372,
          "durationTicks": 227,
          "midi": 38,
          "name": "D2",
          "ticks": 27840,
          "time": 34.799941999999994,
          "velocity": 0.6299212598425197
        },
        {
          "duration": 0.2837495270833301,
          "durationTicks": 227,
          "midi": 45,
          "name": "A2",
          "ticks": 28080,
          "time": 35.0999415,
          "velocity": 0.6299212598425197
        },
        {
          "duration": 0.2837495270833372,
          "durationTicks": 227,
          "midi": 50,
          "name": "D3",
          "ticks": 28320,
          "time": 35.399941,
          "velocity": 0.6299212598425197
        },
        {
          "duration": 0.2837495270833372,
          "durationTicks": 227,
          "midi": 54,
          "name": "F#3",
          "ticks": 28560,
          "time": 35.6999405,
          "velocity": 0.6299212598425197
        },
        {
          "duration": 0.2837495270833372,
          "durationTicks": 227,
          "midi": 43,
          "name": "G2",
          "ticks": 28800,
          "time": 35.999939999999995,
          "velocity": 0.6299212598425197
        },
        {
          "duration": 0.2837495270833372,
          "durationTicks": 227,
          "midi": 50,
          "name": "D3",
          "ticks": 29040,
          "time": 36.299939499999994,
          "velocity": 0.6299212598425197
        },
        {
          "duration": 0.2837495270833301,
          "durationTicks": 227,
          "midi": 55,
          "name": "G3",
          "ticks": 29280,
          "time": 36.599939,
          "velocity": 0.6299212598425197
        },
        {
          "duration": 0.2837495270833372,
          "durationTicks": 227,
          "midi": 59,
          "name": "B3",
          "ticks": 29520,
          "time": 36.8999385,
          "velocity": 0.6299212598425197
        },
        {
          "duration": 0.2837495270833372,
          "durationTicks": 227,
          "midi": 45,
          "name": "A2",
          "ticks": 29760,
          "time": 37.199937999999996,
          "velocity": 0.6299212598425197
        },
        {
          "duration": 0.2837495270833372,
          "durationTicks": 227,
          "midi": 52,
          "name": "E3",
          "ticks": 30000,
          "time": 37.499937499999994,
          "velocity": 0.6299212598425197
        },
        {
          "duration": 0.2837495270833301,
          "durationTicks": 227,
          "midi": 57,
          "name": "A3",
          "ticks": 30240,
          "time": 37.799937,
          "velocity": 0.6299212598425197
        },
        {
          "duration": 0.2837495270833372,
          "durationTicks": 227,
          "midi": 61,
          "name": "C#4",
          "ticks": 30480,
          "time": 38.0999365,
          "velocity": 0.6299212598425197
        },
        {
          "duration": 0.2837495270833301,
          "durationTicks": 227,
          "midi": 50,
          "name": "D3",
          "ticks": 30720,
          "time": 38.399936,
          "velocity": 0.6299212598425197
        },
        {
          "duration": 0.2837495270833301,
          "durationTicks": 227,
          "midi": 57,
          "name": "A3",
          "ticks": 30960,
          "time": 38.699935499999995,
          "velocity": 0.6299212598425197
        },
        {
          "duration": 0.2837495270833372,
          "durationTicks": 227,
          "midi": 62,
          "name": "D4",
          "ticks": 31200,
          "time": 38.999934999999994,
          "velocity": 0.6299212598425197
        },
        {
          "duration": 0.2837495270833301,
          "durationTicks": 227,
          "midi": 66,
          "name": "F#4",
          "ticks": 31440,
          "time": 39.2999345,
          "velocity": 0.6299212598425197
        },
        {
          "duration": 0.2837495270833301,
          "durationTicks": 227,
          "midi": 45,
          "name": "A2",
          "ticks": 31680,
          "time": 39.599934,
          "velocity": 0.6299212598425197
        },
        {
          "duration": 0.2837495270833301,
          "durationTicks": 227,
          "midi": 52,
          "name": "E3",
          "ticks": 31920,
          "time": 39.899933499999996,
          "velocity": 0.6299212598425197
        },
        {
          "duration": 0.2837495270833301,
          "durationTicks": 227,
          "midi": 57,
          "name": "A3",
          "ticks": 32160,
          "time": 40.199932999999994,
          "velocity": 0.6299212598425197
        },
        {
          "duration": 0.2837495270833301,
          "durationTicks": 227,
          "midi": 61,
          "name": "C#4",
          "ticks": 32400,
          "time": 40.4999325,
          "velocity": 0.6299212598425197
        },
        {
          "duration": 0.2837495270833301,
          "durationTicks": 227,
          "midi": 47,
          "name": "B2",
          "ticks": 32640,
          "time": 40.799932,
          "velocity": 0.6299212598425197
        },
        {
          "duration": 0.2837495270833301,
          "durationTicks": 227,
          "midi": 54,
          "name": "F#3",
          "ticks": 32880,
          "time": 41.0999315,
          "velocity": 0.6299212598425197
        },
        {
          "duration": 0.2837495270833301,
          "durationTicks": 227,
          "midi": 59,
          "name": "B3",
          "ticks": 33120,
          "time": 41.399930999999995,
          "velocity": 0.6299212598425197
        },
        {
          "duration": 0.2837495270833372,
          "durationTicks": 227,
          "midi": 62,
          "name": "D4",
          "ticks": 33360,
          "time": 41.699930499999994,
          "velocity": 0.6299212598425197
        },
        {
          "duration": 0.2837495270833301,
          "durationTicks": 227,
          "midi": 42,
          "name": "F#2",
          "ticks": 33600,
          "time": 41.99993,
          "velocity": 0.6299212598425197
        },
        {
          "duration": 0.2837495270833301,
          "durationTicks": 227,
          "midi": 49,
          "name": "C#3",
          "ticks": 33840,
          "time": 42.2999295,
          "velocity": 0.6299212598425197
        },
        {
          "duration": 0.2837495270833301,
          "durationTicks": 227,
          "midi": 54,
          "name": "F#3",
          "ticks": 34080,
          "time": 42.599928999999996,
          "velocity": 0.6299212598425197
        },
        {
          "duration": 0.2837495270833301,
          "durationTicks": 227,
          "midi": 57,
          "name": "A3",
          "ticks": 34320,
          "time": 42.899928499999994,
          "velocity": 0.6299212598425197
        },
        {
          "duration": 0.2837495270833301,
          "durationTicks": 227,
          "midi": 43,
          "name": "G2",
          "ticks": 34560,
          "time": 43.199928,
          "velocity": 0.6299212598425197
        },
        {
          "duration": 0.2837495270833301,
          "durationTicks": 227,
          "midi": 50,
          "name": "D3",
          "ticks": 34800,
          "time": 43.4999275,
          "velocity": 0.6299212598425197
        },
        {
          "duration": 0.2837495270833301,
          "durationTicks": 227,
          "midi": 55,
          "name": "G3",
          "ticks": 35040,
          "time": 43.799927,
          "velocity": 0.6299212598425197
        },
        {
          "duration": 0.2837495270833301,
          "durationTicks": 227,
          "midi": 59,
          "name": "B3",
          "ticks": 35280,
          "time": 44.099926499999995,
          "velocity": 0.6299212598425197
        },
        {
          "duration": 0.2837495270833372,
          "durationTicks": 227,
          "midi": 38,
          "name": "D2",
          "ticks": 35520,
          "time": 44.399925999999994,
          "velocity": 0.6299212598425197
        },
        {
          "duration": 0.2837495270833301,
          "durationTicks": 227,
          "midi": 45,
          "name": "A2",
          "ticks": 35760,
          "time": 44.6999255,
          "velocity": 0.6299212598425197
        },
        {
          "duration": 0.2837495270833301,
          "durationTicks": 227,
          "midi": 50,
          "name": "D3",
          "ticks": 36000,
          "time": 44.999925,
          "velocity": 0.6299212598425197
        },
        {
          "duration": 0.2837495270833301,
          "durationTicks": 227,
          "midi": 54,
          "name": "F#3",
          "ticks": 36240,
          "time": 45.299924499999996,
          "velocity": 0.6299212598425197
        },
        {
          "duration": 0.2837495270833301,
          "durationTicks": 227,
          "midi": 43,
          "name": "G2",
          "ticks": 36480,
          "time": 45.599923999999994,
          "velocity": 0.6299212598425197
        },
        {
          "duration": 0.2837495270833372,
          "durationTicks": 227,
          "midi": 50,
          "name": "D3",
          "ticks": 36720,
          "time": 45.89992349999999,
          "velocity": 0.6299212598425197
        },
        {
          "duration": 0.2837495270833301,
          "durationTicks": 227,
          "midi": 55,
          "name": "G3",
          "ticks": 36960,
          "time": 46.199923,
          "velocity": 0.6299212598425197
        },
        {
          "duration": 0.2837495270833301,
          "durationTicks": 227,
          "midi": 59,
          "name": "B3",
          "ticks": 37200,
          "time": 46.4999225,
          "velocity": 0.6299212598425197
        },
        {
          "duration": 0.2837495270833301,
          "durationTicks": 227,
          "midi": 45,
          "name": "A2",
          "ticks": 37440,
          "time": 46.799921999999995,
          "velocity": 0.6299212598425197
        },
        {
          "duration": 0.2837495270833301,
          "durationTicks": 227,
          "midi": 52,
          "name": "E3",
          "ticks": 37680,
          "time": 47.099921499999994,
          "velocity": 0.6299212598425197
        },
        {
          "duration": 0.2837495270833301,
          "durationTicks": 227,
          "midi": 57,
          "name": "A3",
          "ticks": 37920,
          "time": 47.399921,
          "velocity": 0.6299212598425197
        },
        {
          "duration": 0.2837495270833301,
          "durationTicks": 227,
          "midi": 61,
          "name": "C#4",
          "ticks": 38160,
          "time": 47.6999205,
          "velocity": 0.6299212598425197
        },
        {
          "duration": 0.2837495270833301,
          "durationTicks": 227,
          "midi": 50,
          "name": "D3",
          "ticks": 38400,
          "time": 47.999919999999996,
          "velocity": 0.6299212598425197
        },
        {
          "duration": 0.2837495270833301,
          "durationTicks": 227,
          "midi": 57,
          "name": "A3",
          "ticks": 38640,
          "time": 48.299919499999994,
          "velocity": 0.6299212598425197
        },
        {
          "duration": 0.2837495270833372,
          "durationTicks": 227,
          "midi": 62,
          "name": "D4",
          "ticks": 38880,
          "time": 48.59991899999999,
          "velocity": 0.6299212598425197
        },
        {
          "duration": 0.2837495270833301,
          "durationTicks": 227,
          "midi": 66,
          "name": "F#4",
          "ticks": 39120,
          "time": 48.8999185,
          "velocity": 0.6299212598425197
        },
        {
          "duration": 0.2837495270833301,
          "durationTicks": 227,
          "midi": 45,
          "name": "A2",
          "ticks": 39360,
          "time": 49.199918,
          "velocity": 0.6299212598425197
        },
        {
          "duration": 0.2837495270833301,
          "durationTicks": 227,
          "midi": 52,
          "name": "E3",
          "ticks": 39600,
          "time": 49.499917499999995,
          "velocity": 0.6299212598425197
        },
        {
          "duration": 0.2837495270833301,
          "durationTicks": 227,
          "midi": 57,
          "name": "A3",
          "ticks": 39840,
          "time": 49.79991699999999,
          "velocity": 0.6299212598425197
        },
        {
          "duration": 0.2837495270833301,
          "durationTicks": 227,
          "midi": 61,
          "name": "C#4",
          "ticks": 40080,
          "time": 50.0999165,
          "velocity": 0.6299212598425197
        },
        {
          "duration": 0.2837495270833301,
          "durationTicks": 227,
          "midi": 47,
          "name": "B2",
          "ticks": 40320,
          "time": 50.399916,
          "velocity": 0.6299212598425197
        },
        {
          "duration": 0.2837495270833301,
          "durationTicks": 227,
          "midi": 54,
          "name": "F#3",
          "ticks": 40560,
          "time": 50.699915499999996,
          "velocity": 0.6299212598425197
        },
        {
          "duration": 0.2837495270833301,
          "durationTicks": 227,
          "midi": 59,
          "name": "B3",
          "ticks": 40800,
          "time": 50.999914999999994,
          "velocity": 0.6299212598425197
        },
        {
          "duration": 0.2837495270833372,
          "durationTicks": 227,
          "midi": 62,
          "name": "D4",
          "ticks": 41040,
          "time": 51.29991449999999,
          "velocity": 0.6299212598425197
        },
        {
          "duration": 0.2837495270833301,
          "durationTicks": 227,
          "midi": 42,
          "name": "F#2",
          "ticks": 41280,
          "time": 51.599914,
          "velocity": 0.6299212598425197
        },
        {
          "duration": 0.2837495270833301,
          "durationTicks": 227,
          "midi": 49,
          "name": "C#3",
          "ticks": 41520,
          "time": 51.8999135,
          "velocity": 0.6299212598425197
        },
        {
          "duration": 0.2837495270833301,
          "durationTicks": 227,
          "midi": 54,
          "name": "F#3",
          "ticks": 41760,
          "time": 52.199912999999995,
          "velocity": 0.6299212598425197
        },
        {
          "duration": 0.2837495270833301,
          "durationTicks": 227,
          "midi": 57,
          "name": "A3",
          "ticks": 42000,
          "time": 52.49991249999999,
          "velocity": 0.6299212598425197
        },
        {
          "duration": 0.2837495270833372,
          "durationTicks": 227,
          "midi": 43,
          "name": "G2",
          "ticks": 42240,
          "time": 52.79991199999999,
          "velocity": 0.6299212598425197
        },
        {
          "duration": 0.2837495270833301,
          "durationTicks": 227,
          "midi": 50,
          "name": "D3",
          "ticks": 42480,
          "time": 53.0999115,
          "velocity": 0.6299212598425197
        },
        {
          "duration": 0.2837495270833301,
          "durationTicks": 227,
          "midi": 55,
          "name": "G3",
          "ticks": 42720,
          "time": 53.399910999999996,
          "velocity": 0.6299212598425197
        },
        {
          "duration": 0.2837495270833301,
          "durationTicks": 227,
          "midi": 59,
          "name": "B3",
          "ticks": 42960,
          "time": 53.699910499999994,
          "velocity": 0.6299212598425197
        },
        {
          "duration": 0.2837495270833372,
          "durationTicks": 227,
          "midi": 38,
          "name": "D2",
          "ticks": 43200,
          "time": 53.99990999999999,
          "velocity": 0.6299212598425197
        },
        {
          "duration": 0.2837495270833301,
          "durationTicks": 227,
          "midi": 45,
          "name": "A2",
          "ticks": 43440,
          "time": 54.2999095,
          "velocity": 0.6299212598425197
        },
        {
          "duration": 0.2837495270833301,
          "durationTicks": 227,
          "midi": 50,
          "name": "D3",
          "ticks": 43680,
          "time": 54.599909,
          "velocity": 0.6299212598425197
        },
        {
          "duration": 0.2837495270833301,
          "durationTicks": 227,
          "midi": 54,
          "name": "F#3",
          "ticks": 43920,
          "time": 54.899908499999995,
          "velocity": 0.6299212598425197
        },
        {
          "duration": 0.2837495270833301,
          "durationTicks": 227,
          "midi": 43,
          "name": "G2",
          "ticks": 44160,
          "time": 55.19990799999999,
          "velocity": 0.6299212598425197
        },
        {
          "duration": 0.2837495270833372,
          "durationTicks": 227,
          "midi": 50,
          "name": "D3",
          "ticks": 44400,
          "time": 55.49990749999999,
          "velocity": 0.6299212598425197
        },
        {
          "duration": 0.2837495270833301,
          "durationTicks": 227,
          "midi": 55,
          "name": "G3",
          "ticks": 44640,
          "time": 55.799907,
          "velocity": 0.6299212598425197
        },
        {
          "duration": 0.2837495270833301,
          "durationTicks": 227,
          "midi": 59,
          "name": "B3",
          "ticks": 44880,
          "time": 56.099906499999996,
          "velocity": 0.6299212598425197
        },
        {
          "duration": 0.2837495270833301,
          "durationTicks": 227,
          "midi": 45,
          "name": "A2",
          "ticks": 45120,
          "time": 56.399905999999994,
          "velocity": 0.6299212598425197
        },
        {
          "duration": 0.2837495270833301,
          "durationTicks": 227,
          "midi": 52,
          "name": "E3",
          "ticks": 45360,
          "time": 56.69990549999999,
          "velocity": 0.6299212598425197
        },
        {
          "duration": 0.2837495270833301,
          "durationTicks": 227,
          "midi": 57,
          "name": "A3",
          "ticks": 45600,
          "time": 56.999905,
          "velocity": 0.6299212598425197
        },
        {
          "duration": 0.2837495270833301,
          "durationTicks": 227,
          "midi": 61,
          "name": "C#4",
          "ticks": 45840,
          "time": 57.2999045,
          "velocity": 0.6299212598425197
        },
        {
          "duration": 0.2837495270833301,
          "durationTicks": 227,
          "midi": 50,
          "name": "D3",
          "ticks": 46080,
          "time": 57.599903999999995,
          "velocity": 0.6299212598425197
        },
        {
          "duration": 0.2837495270833301,
          "durationTicks": 227,
          "midi": 57,
          "name": "A3",
          "ticks": 46320,
          "time": 57.89990349999999,
          "velocity": 0.6299212598425197
        },
        {
          "duration": 0.2837495270833372,
          "durationTicks": 227,
          "midi": 62,
          "name": "D4",
          "ticks": 46560,
          "time": 58.19990299999999,
          "velocity": 0.6299212598425197
        },
        {
          "duration": 0.2837495270833301,
          "durationTicks": 227,
          "midi": 66,
          "name": "F#4",
          "ticks": 46800,
          "time": 58.4999025,
          "velocity": 0.6299212598425197
        },
        {
          "duration": 0.2837495270833301,
          "durationTicks": 227,
          "midi": 45,
          "name": "A2",
          "ticks": 47040,
          "time": 58.799901999999996,
          "velocity": 0.6299212598425197
        },
        {
          "duration": 0.2837495270833301,
          "durationTicks": 227,
          "midi": 52,
          "name": "E3",
          "ticks": 47280,
          "time": 59.099901499999994,
          "velocity": 0.6299212598425197
        },
        {
          "duration": 0.2837495270833301,
          "durationTicks": 227,
          "midi": 57,
          "name": "A3",
          "ticks": 47520,
          "time": 59.39990099999999,
          "velocity": 0.6299212598425197
        },
        {
          "duration": 0.2837495270833301,
          "durationTicks": 227,
          "midi": 61,
          "name": "C#4",
          "ticks": 47760,
          "time": 59.6999005,
          "velocity": 0.6299212598425197
        },
        {
          "duration": 0.2837495270833301,
          "durationTicks": 227,
          "midi": 47,
          "name": "B2",
          "ticks": 48000,
          "time": 59.9999,
          "velocity": 0.6299212598425197
        },
        {
          "duration": 0.2837495270833301,
          "durationTicks": 227,
          "midi": 54,
          "name": "F#3",
          "ticks": 48240,
          "time": 60.299899499999995,
          "velocity": 0.6299212598425197
        },
        {
          "duration": 0.2837495270833301,
          "durationTicks": 227,
          "midi": 59,
          "name": "B3",
          "ticks": 48480,
          "time": 60.59989899999999,
          "velocity": 0.6299212598425197
        },
        {
          "duration": 0.2837495270833372,
          "durationTicks": 227,
          "midi": 62,
          "name": "D4",
          "ticks": 48720,
          "time": 60.89989849999999,
          "velocity": 0.6299212598425197
        },
        {
          "duration": 0.2837495270833301,
          "durationTicks": 227,
          "midi": 42,
          "name": "F#2",
          "ticks": 48960,
          "time": 61.199898,
          "velocity": 0.6299212598425197
        },
        {
          "duration": 0.2837495270833301,
          "durationTicks": 227,
          "midi": 49,
          "name": "C#3",
          "ticks": 49200,
          "time": 61.499897499999996,
          "velocity": 0.6299212598425197
        },
        {
          "duration": 0.2837495270833301,
          "durationTicks": 227,
          "midi": 54,
          "name": "F#3",
          "ticks": 49440,
          "time": 61.799896999999994,
          "velocity": 0.6299212598425197
        },
        {
          "duration": 0.2837495270833301,
          "durationTicks": 227,
          "midi": 57,
          "name": "A3",
          "ticks": 49680,
          "time": 62.09989649999999,
          "velocity": 0.6299212598425197
        },
        {
          "duration": 0.2837495270833301,
          "durationTicks": 227,
          "midi": 43,
          "name": "G2",
          "ticks": 49920,
          "time": 62.399896,
          "velocity": 0.6299212598425197
        },
        {
          "duration": 0.2837495270833301,
          "durationTicks": 227,
          "midi": 50,
          "name": "D3",
          "ticks": 50160,
          "time": 62.6998955,
          "velocity": 0.6299212598425197
        },
        {
          "duration": 0.2837495270833301,
          "durationTicks": 227,
          "midi": 55,
          "name": "G3",
          "ticks": 50400,
          "time": 62.999894999999995,
          "velocity": 0.6299212598425197
        },
        {
          "duration": 0.2837495270833301,
          "durationTicks": 227,
          "midi": 59,
          "name": "B3",
          "ticks": 50640,
          "time": 63.29989449999999,
          "velocity": 0.6299212598425197
        },
        {
          "duration": 0.2837495270833372,
          "durationTicks": 227,
          "midi": 38,
          "name": "D2",
          "ticks": 50880,
          "time": 63.59989399999999,
          "velocity": 0.6299212598425197
        },
        {
          "duration": 0.283749527083323,
          "durationTicks": 227,
          "midi": 45,
          "name": "A2",
          "ticks": 51120,
          "time": 63.8998935,
          "velocity": 0.6299212598425197
        },
        {
          "duration": 0.2837495270833301,
          "durationTicks": 227,
          "midi": 50,
          "name": "D3",
          "ticks": 51360,
          "time": 64.19989299999999,
          "velocity": 0.6299212598425197
        },
        {
          "duration": 0.2837495270833301,
          "durationTicks": 227,
          "midi": 54,
          "name": "F#3",
          "ticks": 51600,
          "time": 64.4998925,
          "velocity": 0.6299212598425197
        },
        {
          "duration": 0.2837495270833301,
          "durationTicks": 227,
          "midi": 43,
          "name": "G2",
          "ticks": 51840,
          "time": 64.799892,
          "velocity": 0.6299212598425197
        },
        {
          "duration": 0.2837495270833301,
          "durationTicks": 227,
          "midi": 50,
          "name": "D3",
          "ticks": 52080,
          "time": 65.0998915,
          "velocity": 0.6299212598425197
        },
        {
          "duration": 0.2837495270833301,
          "durationTicks": 227,
          "midi": 55,
          "name": "G3",
          "ticks": 52320,
          "time": 65.399891,
          "velocity": 0.6299212598425197
        },
        {
          "duration": 0.2837495270833301,
          "durationTicks": 227,
          "midi": 59,
          "name": "B3",
          "ticks": 52560,
          "time": 65.6998905,
          "velocity": 0.6299212598425197
        },
        {
          "duration": 0.2837495270833301,
          "durationTicks": 227,
          "midi": 45,
          "name": "A2",
          "ticks": 52800,
          "time": 65.99989,
          "velocity": 0.6299212598425197
        },
        {
          "duration": 0.2837495270833301,
          "durationTicks": 227,
          "midi": 52,
          "name": "E3",
          "ticks": 53040,
          "time": 66.29988949999999,
          "velocity": 0.6299212598425197
        },
        {
          "duration": 0.2837495270833301,
          "durationTicks": 227,
          "midi": 57,
          "name": "A3",
          "ticks": 53280,
          "time": 66.59988899999999,
          "velocity": 0.6299212598425197
        },
        {
          "duration": 0.2837495270833301,
          "durationTicks": 227,
          "midi": 61,
          "name": "C#4",
          "ticks": 53520,
          "time": 66.89988849999999,
          "velocity": 0.6299212598425197
        },
        {
          "duration": 0.28374952708334433,
          "durationTicks": 227,
          "midi": 50,
          "name": "D3",
          "ticks": 53760,
          "time": 67.19988799999999,
          "velocity": 0.6299212598425197
        },
        {
          "duration": 0.2837495270833301,
          "durationTicks": 227,
          "midi": 57,
          "name": "A3",
          "ticks": 54000,
          "time": 67.4998875,
          "velocity": 0.6299212598425197
        },
        {
          "duration": 0.2837495270833301,
          "durationTicks": 227,
          "midi": 62,
          "name": "D4",
          "ticks": 54240,
          "time": 67.799887,
          "velocity": 0.6299212598425197
        },
        {
          "duration": 0.2837495270833301,
          "durationTicks": 227,
          "midi": 66,
          "name": "F#4",
          "ticks": 54480,
          "time": 68.0998865,
          "velocity": 0.6299212598425197
        },
        {
          "duration": 0.2837495270833301,
          "durationTicks": 227,
          "midi": 45,
          "name": "A2",
          "ticks": 54720,
          "time": 68.399886,
          "velocity": 0.6299212598425197
        },
        {
          "duration": 0.2837495270833301,
          "durationTicks": 227,
          "midi": 52,
          "name": "E3",
          "ticks": 54960,
          "time": 68.6998855,
          "velocity": 0.6299212598425197
        },
        {
          "duration": 0.2837495270833301,
          "durationTicks": 227,
          "midi": 57,
          "name": "A3",
          "ticks": 55200,
          "time": 68.99988499999999,
          "velocity": 0.6299212598425197
        },
        {
          "duration": 0.2837495270833301,
          "durationTicks": 227,
          "midi": 61,
          "name": "C#4",
          "ticks": 55440,
          "time": 69.29988449999999,
          "velocity": 0.6299212598425197
        },
        {
          "duration": 0.2837495270833301,
          "durationTicks": 227,
          "midi": 47,
          "name": "B2",
          "ticks": 55680,
          "time": 69.59988399999999,
          "velocity": 0.6299212598425197
        },
        {
          "duration": 0.28374952708334433,
          "durationTicks": 227,
          "midi": 54,
          "name": "F#3",
          "ticks": 55920,
          "time": 69.89988349999999,
          "velocity": 0.6299212598425197
        },
        {
          "duration": 0.2837495270833301,
          "durationTicks": 227,
          "midi": 59,
          "name": "B3",
          "ticks": 56160,
          "time": 70.199883,
          "velocity": 0.6299212598425197
        },
        {
          "duration": 0.2837495270833301,
          "durationTicks": 227,
          "midi": 62,
          "name": "D4",
          "ticks": 56400,
          "time": 70.4998825,
          "velocity": 0.6299212598425197
        },
        {
          "duration": 0.2837495270833301,
          "durationTicks": 227,
          "midi": 42,
          "name": "F#2",
          "ticks": 56640,
          "time": 70.799882,
          "velocity": 0.6299212598425197
        },
        {
          "duration": 0.2837495270833301,
          "durationTicks": 227,
          "midi": 49,
          "name": "C#3",
          "ticks": 56880,
          "time": 71.0998815,
          "velocity": 0.6299212598425197
        },
        {
          "duration": 0.2837495270833301,
          "durationTicks": 227,
          "midi": 54,
          "name": "F#3",
          "ticks": 57120,
          "time": 71.399881,
          "velocity": 0.6299212598425197
        },
        {
          "duration": 0.2837495270833301,
          "durationTicks": 227,
          "midi": 57,
          "name": "A3",
          "ticks": 57360,
          "time": 71.69988049999999,
          "velocity": 0.6299212598425197
        },
        {
          "duration": 0.2837495270833301,
          "durationTicks": 227,
          "midi": 43,
          "name": "G2",
          "ticks": 57600,
          "time": 71.99987999999999,
          "velocity": 0.6299212598425197
        },
        {
          "duration": 0.2837495270833301,
          "durationTicks": 227,
          "midi": 50,
          "name": "D3",
          "ticks": 57840,
          "time": 72.29987949999999,
          "velocity": 0.6299212598425197
        },
        {
          "duration": 0.28374952708334433,
          "durationTicks": 227,
          "midi": 55,
          "name": "G3",
          "ticks": 58080,
          "time": 72.59987899999999,
          "velocity": 0.6299212598425197
        },
        {
          "duration": 0.2837495270833301,
          "durationTicks": 227,
          "midi": 59,
          "name": "B3",
          "ticks": 58320,
          "time": 72.8998785,
          "velocity": 0.6299212598425197
        },
        {
          "duration": 0.2837495270833301,
          "durationTicks": 227,
          "midi": 38,
          "name": "D2",
          "ticks": 58560,
          "time": 73.199878,
          "velocity": 0.6299212598425197
        },
        {
          "duration": 0.2837495270833301,
          "durationTicks": 227,
          "midi": 45,
          "name": "A2",
          "ticks": 58800,
          "time": 73.4998775,
          "velocity": 0.6299212598425197
        },
        {
          "duration": 0.2837495270833301,
          "durationTicks": 227,
          "midi": 50,
          "name": "D3",
          "ticks": 59040,
          "time": 73.799877,
          "velocity": 0.6299212598425197
        },
        {
          "duration": 0.2837495270833301,
          "durationTicks": 227,
          "midi": 54,
          "name": "F#3",
          "ticks": 59280,
          "time": 74.0998765,
          "velocity": 0.6299212598425197
        },
        {
          "duration": 0.2837495270833301,
          "durationTicks": 227,
          "midi": 43,
          "name": "G2",
          "ticks": 59520,
          "time": 74.39987599999999,
          "velocity": 0.6299212598425197
        },
        {
          "duration": 0.2837495270833301,
          "durationTicks": 227,
          "midi": 50,
          "name": "D3",
          "ticks": 59760,
          "time": 74.69987549999999,
          "velocity": 0.6299212598425197
        },
        {
          "duration": 0.2837495270833301,
          "durationTicks": 227,
          "midi": 55,
          "name": "G3",
          "ticks": 60000,
          "time": 74.99987499999999,
          "velocity": 0.6299212598425197
        },
        {
          "duration": 0.28374952708334433,
          "durationTicks": 227,
          "midi": 59,
          "name": "B3",
          "ticks": 60240,
          "time": 75.29987449999999,
          "velocity": 0.6299212598425197
        },
        {
          "duration": 0.2837495270833301,
          "durationTicks": 227,
          "midi": 45,
          "name": "A2",
          "ticks": 60480,
          "time": 75.599874,
          "velocity": 0.6299212598425197
        },
        {
          "duration": 0.2837495270833301,
          "durationTicks": 227,
          "midi": 52,
          "name": "E3",
          "ticks": 60720,
          "time": 75.8998735,
          "velocity": 0.6299212598425197
        },
        {
          "duration": 0.2837495270833301,
          "durationTicks": 227,
          "midi": 57,
          "name": "A3",
          "ticks": 60960,
          "time": 76.199873,
          "velocity": 0.6299212598425197
        },
        {
          "duration": 0.2837495270833301,
          "durationTicks": 227,
          "midi": 61,
          "name": "C#4",
          "ticks": 61200,
          "time": 76.4998725,
          "velocity": 0.6299212598425197
        },
        {
          "duration": 0.2837495270833301,
          "durationTicks": 227,
          "midi": 50,
          "name": "D3",
          "ticks": 61440,
          "time": 76.799872,
          "velocity": 0.6299212598425197
        },
        {
          "duration": 0.2837495270833301,
          "durationTicks": 227,
          "midi": 57,
          "name": "A3",
          "ticks": 61680,
          "time": 77.09987149999999,
          "velocity": 0.6299212598425197
        },
        {
          "duration": 0.2837495270833301,
          "durationTicks": 227,
          "midi": 62,
          "name": "D4",
          "ticks": 61920,
          "time": 77.39987099999999,
          "velocity": 0.6299212598425197
        },
        {
          "duration": 0.2837495270833301,
          "durationTicks": 227,
          "midi": 66,
          "name": "F#4",
          "ticks": 62160,
          "time": 77.69987049999999,
          "velocity": 0.6299212598425197
        },
        {
          "duration": 0.28374952708334433,
          "durationTicks": 227,
          "midi": 45,
          "name": "A2",
          "ticks": 62400,
          "time": 77.99986999999999,
          "velocity": 0.6299212598425197
        },
        {
          "duration": 0.2837495270833301,
          "durationTicks": 227,
          "midi": 52,
          "name": "E3",
          "ticks": 62640,
          "time": 78.2998695,
          "velocity": 0.6299212598425197
        },
        {
          "duration": 0.2837495270833301,
          "durationTicks": 227,
          "midi": 57,
          "name": "A3",
          "ticks": 62880,
          "time": 78.599869,
          "velocity": 0.6299212598425197
        },
        {
          "duration": 0.2837495270833301,
          "durationTicks": 227,
          "midi": 61,
          "name": "C#4",
          "ticks": 63120,
          "time": 78.8998685,
          "velocity": 0.6299212598425197
        },
        {
          "duration": 0.2837495270833301,
          "durationTicks": 227,
          "midi": 47,
          "name": "B2",
          "ticks": 63360,
          "time": 79.199868,
          "velocity": 0.6299212598425197
        },
        {
          "duration": 0.2837495270833301,
          "durationTicks": 227,
          "midi": 54,
          "name": "F#3",
          "ticks": 63600,
          "time": 79.4998675,
          "velocity": 0.6299212598425197
        },
        {
          "duration": 0.2837495270833301,
          "durationTicks": 227,
          "midi": 59,
          "name": "B3",
          "ticks": 63840,
          "time": 79.79986699999999,
          "velocity": 0.6299212598425197
        },
        {
          "duration": 0.2837495270833301,
          "durationTicks": 227,
          "midi": 62,
          "name": "D4",
          "ticks": 64080,
          "time": 80.09986649999999,
          "velocity": 0.6299212598425197
        },
        {
          "duration": 0.2837495270833301,
          "durationTicks": 227,
          "midi": 42,
          "name": "F#2",
          "ticks": 64320,
          "time": 80.39986599999999,
          "velocity": 0.6299212598425197
        },
        {
          "duration": 0.2837495270833301,
          "durationTicks": 227,
          "midi": 49,
          "name": "C#3",
          "ticks": 64560,
          "time": 80.69986549999999,
          "velocity": 0.6299212598425197
        },
        {
          "duration": 0.2837495270833301,
          "durationTicks": 227,
          "midi": 54,
          "name": "F#3",
          "ticks": 64800,
          "time": 80.999865,
          "velocity": 0.6299212598425197
        },
        {
          "duration": 0.2837495270833301,
          "durationTicks": 227,
          "midi": 57,
          "name": "A3",
          "ticks": 65040,
          "time": 81.2998645,
          "velocity": 0.6299212598425197
        },
        {
          "duration": 0.2837495270833301,
          "durationTicks": 227,
          "midi": 43,
          "name": "G2",
          "ticks": 65280,
          "time": 81.599864,
          "velocity": 0.6299212598425197
        },
        {
          "duration": 0.2837495270833301,
          "durationTicks": 227,
          "midi": 50,
          "name": "D3",
          "ticks": 65520,
          "time": 81.8998635,
          "velocity": 0.6299212598425197
        },
        {
          "duration": 0.2837495270833301,
          "durationTicks": 227,
          "midi": 55,
          "name": "G3",
          "ticks": 65760,
          "time": 82.199863,
          "velocity": 0.6299212598425197
        },
        {
          "duration": 0.2837495270833301,
          "durationTicks": 227,
          "midi": 59,
          "name": "B3",
          "ticks": 66000,
          "time": 82.49986249999999,
          "velocity": 0.6299212598425197
        },
        {
          "duration": 0.2837495270833301,
          "durationTicks": 227,
          "midi": 38,
          "name": "D2",
          "ticks": 66240,
          "time": 82.79986199999999,
          "velocity": 0.6299212598425197
        },
        {
          "duration": 0.2837495270833301,
          "durationTicks": 227,
          "midi": 45,
          "name": "A2",
          "ticks": 66480,
          "time": 83.09986149999999,
          "velocity": 0.6299212598425197
        },
        {
          "duration": 0.2837495270833301,
          "durationTicks": 227,
          "midi": 50,
          "name": "D3",
          "ticks": 66720,
          "time": 83.39986099999999,
          "velocity": 0.6299212598425197
        },
        {
          "duration": 0.2837495270833301,
          "durationTicks": 227,
          "midi": 54,
          "name": "F#3",
          "ticks": 66960,
          "time": 83.6998605,
          "velocity": 0.6299212598425197
        },
        {
          "duration": 0.2837495270833301,
          "durationTicks": 227,
          "midi": 43,
          "name": "G2",
          "ticks": 67200,
          "time": 83.99986,
          "velocity": 0.6299212598425197
        },
        {
          "duration": 0.2837495270833301,
          "durationTicks": 227,
          "midi": 50,
          "name": "D3",
          "ticks": 67440,
          "time": 84.2998595,
          "velocity": 0.6299212598425197
        },
        {
          "duration": 0.2837495270833301,
          "durationTicks": 227,
          "midi": 55,
          "name": "G3",
          "ticks": 67680,
          "time": 84.599859,
          "velocity": 0.6299212598425197
        },
        {
          "duration": 0.2837495270833301,
          "durationTicks": 227,
          "midi": 59,
          "name": "B3",
          "ticks": 67920,
          "time": 84.8998585,
          "velocity": 0.6299212598425197
        },
        {
          "duration": 0.2837495270833301,
          "durationTicks": 227,
          "midi": 45,
          "name": "A2",
          "ticks": 68160,
          "time": 85.19985799999999,
          "velocity": 0.6299212598425197
        },
        {
          "duration": 0.2837495270833301,
          "durationTicks": 227,
          "midi": 52,
          "name": "E3",
          "ticks": 68400,
          "time": 85.49985749999999,
          "velocity": 0.6299212598425197
        },
        {
          "duration": 0.2837495270833301,
          "durationTicks": 227,
          "midi": 57,
          "name": "A3",
          "ticks": 68640,
          "time": 85.79985699999999,
          "velocity": 0.6299212598425197
        },
        {
          "duration": 0.2837495270833301,
          "durationTicks": 227,
          "midi": 61,
          "name": "C#4",
          "ticks": 68880,
          "time": 86.09985649999999,
          "velocity": 0.6299212598425197
        },
        {
          "duration": 0.2837495270833301,
          "durationTicks": 227,
          "midi": 50,
          "name": "D3",
          "ticks": 69120,
          "time": 86.399856,
          "velocity": 0.7559055118110236
        },
        {
          "duration": 0.2837495270833301,
          "durationTicks": 227,
          "midi": 57,
          "name": "A3",
          "ticks": 69360,
          "time": 86.6998555,
          "velocity": 0.7559055118110236
        },
        {
          "duration": 0.2837495270833301,
          "durationTicks": 227,
          "midi": 62,
          "name": "D4",
          "ticks": 69600,
          "time": 86.999855,
          "velocity": 0.7559055118110236
        },
        {
          "duration": 0.2837495270833301,
          "durationTicks": 227,
          "midi": 66,
          "name": "F#4",
          "ticks": 69840,
          "time": 87.2998545,
          "velocity": 0.7559055118110236
        },
        {
          "duration": 0.2837495270833301,
          "durationTicks": 227,
          "midi": 45,
          "name": "A2",
          "ticks": 70080,
          "time": 87.599854,
          "velocity": 0.7559055118110236
        },
        {
          "duration": 0.2837495270833301,
          "durationTicks": 227,
          "midi": 52,
          "name": "E3",
          "ticks": 70320,
          "time": 87.89985349999999,
          "velocity": 0.7559055118110236
        },
        {
          "duration": 0.2837495270833301,
          "durationTicks": 227,
          "midi": 57,
          "name": "A3",
          "ticks": 70560,
          "time": 88.19985299999999,
          "velocity": 0.7559055118110236
        },
        {
          "duration": 0.2837495270833301,
          "durationTicks": 227,
          "midi": 61,
          "name": "C#4",
          "ticks": 70800,
          "time": 88.49985249999999,
          "velocity": 0.7559055118110236
        },
        {
          "duration": 0.2837495270833301,
          "durationTicks": 227,
          "midi": 47,
          "name": "B2",
          "ticks": 71040,
          "time": 88.79985199999999,
          "velocity": 0.7559055118110236
        },
        {
          "duration": 0.28374952708334433,
          "durationTicks": 227,
          "midi": 54,
          "name": "F#3",
          "ticks": 71280,
          "time": 89.09985149999999,
          "velocity": 0.7559055118110236
        },
        {
          "duration": 0.2837495270833301,
          "durationTicks": 227,
          "midi": 59,
          "name": "B3",
          "ticks": 71520,
          "time": 89.399851,
          "velocity": 0.7559055118110236
        },
        {
          "duration": 0.2837495270833301,
          "durationTicks": 227,
          "midi": 62,
          "name": "D4",
          "ticks": 71760,
          "time": 89.6998505,
          "velocity": 0.7559055118110236
        },
        {
          "duration": 0.2837495270833301,
          "durationTicks": 227,
          "midi": 42,
          "name": "F#2",
          "ticks": 72000,
          "time": 89.99985,
          "velocity": 0.7559055118110236
        },
        {
          "duration": 0.2837495270833301,
          "durationTicks": 227,
          "midi": 49,
          "name": "C#3",
          "ticks": 72240,
          "time": 90.2998495,
          "velocity": 0.7559055118110236
        },
        {
          "duration": 0.2837495270833301,
          "durationTicks": 227,
          "midi": 54,
          "name": "F#3",
          "ticks": 72480,
          "time": 90.59984899999999,
          "velocity": 0.7559055118110236
        },
        {
          "duration": 0.2837495270833301,
          "durationTicks": 227,
          "midi": 57,
          "name": "A3",
          "ticks": 72720,
          "time": 90.89984849999999,
          "velocity": 0.7559055118110236
        },
        {
          "duration": 0.2837495270833301,
          "durationTicks": 227,
          "midi": 43,
          "name": "G2",
          "ticks": 72960,
          "time": 91.19984799999999,
          "velocity": 0.7559055118110236
        },
        {
          "duration": 0.2837495270833301,
          "durationTicks": 227,
          "midi": 50,
          "name": "D3",
          "ticks": 73200,
          "time": 91.49984749999999,
          "velocity": 0.7559055118110236
        },
        {
          "duration": 0.28374952708334433,
          "durationTicks": 227,
          "midi": 55,
          "name": "G3",
          "ticks": 73440,
          "time": 91.79984699999999,
          "velocity": 0.7559055118110236
        },
        {
          "duration": 0.2837495270833301,
          "durationTicks": 227,
          "midi": 59,
          "name": "B3",
          "ticks": 73680,
          "time": 92.0998465,
          "velocity": 0.7559055118110236
        },
        {
          "duration": 0.2837495270833301,
          "durationTicks": 227,
          "midi": 38,
          "name": "D2",
          "ticks": 73920,
          "time": 92.399846,
          "velocity": 0.7559055118110236
        },
        {
          "duration": 0.2837495270833301,
          "durationTicks": 227,
          "midi": 45,
          "name": "A2",
          "ticks": 74160,
          "time": 92.6998455,
          "velocity": 0.7559055118110236
        },
        {
          "duration": 0.2837495270833301,
          "durationTicks": 227,
          "midi": 50,
          "name": "D3",
          "ticks": 74400,
          "time": 92.999845,
          "velocity": 0.7559055118110236
        },
        {
          "duration": 0.2837495270833301,
          "durationTicks": 227,
          "midi": 54,
          "name": "F#3",
          "ticks": 74640,
          "time": 93.29984449999999,
          "velocity": 0.7559055118110236
        },
        {
          "duration": 0.2837495270833301,
          "durationTicks": 227,
          "midi": 43,
          "name": "G2",
          "ticks": 74880,
          "time": 93.59984399999999,
          "velocity": 0.7559055118110236
        },
        {
          "duration": 0.2837495270833301,
          "durationTicks": 227,
          "midi": 50,
          "name": "D3",
          "ticks": 75120,
          "time": 93.89984349999999,
          "velocity": 0.7559055118110236
        },
        {
          "duration": 0.2837495270833301,
          "durationTicks": 227,
          "midi": 55,
          "name": "G3",
          "ticks": 75360,
          "time": 94.19984299999999,
          "velocity": 0.7559055118110236
        },
        {
          "duration": 0.28374952708334433,
          "durationTicks": 227,
          "midi": 59,
          "name": "B3",
          "ticks": 75600,
          "time": 94.49984249999999,
          "velocity": 0.7559055118110236
        },
        {
          "duration": 0.2837495270833301,
          "durationTicks": 227,
          "midi": 45,
          "name": "A2",
          "ticks": 75840,
          "time": 94.799842,
          "velocity": 0.7559055118110236
        },
        {
          "duration": 0.2837495270833301,
          "durationTicks": 227,
          "midi": 52,
          "name": "E3",
          "ticks": 76080,
          "time": 95.0998415,
          "velocity": 0.7559055118110236
        },
        {
          "duration": 0.2837495270833301,
          "durationTicks": 227,
          "midi": 57,
          "name": "A3",
          "ticks": 76320,
          "time": 95.399841,
          "velocity": 0.7559055118110236
        },
        {
          "duration": 0.2837495270833301,
          "durationTicks": 227,
          "midi": 61,
          "name": "C#4",
          "ticks": 76560,
          "time": 95.6998405,
          "velocity": 0.7559055118110236
        },
        {
          "duration": 0.2837495270833301,
          "durationTicks": 227,
          "midi": 50,
          "name": "D3",
          "ticks": 76800,
          "time": 95.99983999999999,
          "velocity": 0.7559055118110236
        },
        {
          "duration": 0.2837495270833301,
          "durationTicks": 227,
          "midi": 57,
          "name": "A3",
          "ticks": 77040,
          "time": 96.29983949999999,
          "velocity": 0.7559055118110236
        },
        {
          "duration": 0.2837495270833301,
          "durationTicks": 227,
          "midi": 62,
          "name": "D4",
          "ticks": 77280,
          "time": 96.59983899999999,
          "velocity": 0.7559055118110236
        },
        {
          "duration": 0.2837495270833301,
          "durationTicks": 227,
          "midi": 66,
          "name": "F#4",
          "ticks": 77520,
          "time": 96.89983849999999,
          "velocity": 0.7559055118110236
        },
        {
          "duration": 0.28374952708334433,
          "durationTicks": 227,
          "midi": 45,
          "name": "A2",
          "ticks": 77760,
          "time": 97.19983799999999,
          "velocity": 0.7559055118110236
        },
        {
          "duration": 0.2837495270833301,
          "durationTicks": 227,
          "midi": 52,
          "name": "E3",
          "ticks": 78000,
          "time": 97.4998375,
          "velocity": 0.7559055118110236
        },
        {
          "duration": 0.2837495270833301,
          "durationTicks": 227,
          "midi": 57,
          "name": "A3",
          "ticks": 78240,
          "time": 97.799837,
          "velocity": 0.7559055118110236
        },
        {
          "duration": 0.2837495270833301,
          "durationTicks": 227,
          "midi": 61,
          "name": "C#4",
          "ticks": 78480,
          "time": 98.0998365,
          "velocity": 0.7559055118110236
        },
        {
          "duration": 0.2837495270833301,
          "durationTicks": 227,
          "midi": 47,
          "name": "B2",
          "ticks": 78720,
          "time": 98.399836,
          "velocity": 0.7559055118110236
        },
        {
          "duration": 0.2837495270833301,
          "durationTicks": 227,
          "midi": 54,
          "name": "F#3",
          "ticks": 78960,
          "time": 98.69983549999999,
          "velocity": 0.7559055118110236
        },
        {
          "duration": 0.2837495270833301,
          "durationTicks": 227,
          "midi": 59,
          "name": "B3",
          "ticks": 79200,
          "time": 98.99983499999999,
          "velocity": 0.7559055118110236
        },
        {
          "duration": 0.2837495270833301,
          "durationTicks": 227,
          "midi": 62,
          "name": "D4",
          "ticks": 79440,
          "time": 99.29983449999999,
          "velocity": 0.7559055118110236
        },
        {
          "duration": 0.2837495270833301,
          "durationTicks": 227,
          "midi": 42,
          "name": "F#2",
          "ticks": 79680,
          "time": 99.59983399999999,
          "velocity": 0.7559055118110236
        },
        {
          "duration": 0.2837495270833301,
          "durationTicks": 227,
          "midi": 49,
          "name": "C#3",
          "ticks": 79920,
          "time": 99.89983349999999,
          "velocity": 0.7559055118110236
        },
        {
          "duration": 0.2837495270833301,
          "durationTicks": 227,
          "midi": 54,
          "name": "F#3",
          "ticks": 80160,
          "time": 100.199833,
          "velocity": 0.7559055118110236
        },
        {
          "duration": 0.2837495270833301,
          "durationTicks": 227,
          "midi": 57,
          "name": "A3",
          "ticks": 80400,
          "time": 100.4998325,
          "velocity": 0.7559055118110236
        },
        {
          "duration": 0.2837495270833301,
          "durationTicks": 227,
          "midi": 43,
          "name": "G2",
          "ticks": 80640,
          "time": 100.799832,
          "velocity": 0.7559055118110236
        },
        {
          "duration": 0.2837495270833301,
          "durationTicks": 227,
          "midi": 50,
          "name": "D3",
          "ticks": 80880,
          "time": 101.0998315,
          "velocity": 0.7559055118110236
        },
        {
          "duration": 0.2837495270833301,
          "durationTicks": 227,
          "midi": 55,
          "name": "G3",
          "ticks": 81120,
          "time": 101.39983099999999,
          "velocity": 0.7559055118110236
        },
        {
          "duration": 0.2837495270833301,
          "durationTicks": 227,
          "midi": 59,
          "name": "B3",
          "ticks": 81360,
          "time": 101.69983049999999,
          "velocity": 0.7559055118110236
        },
        {
          "duration": 0.2837495270833301,
          "durationTicks": 227,
          "midi": 38,
          "name": "D2",
          "ticks": 81600,
          "time": 101.99982999999999,
          "velocity": 0.7559055118110236
        },
        {
          "duration": 0.2837495270833301,
          "durationTicks": 227,
          "midi": 45,
          "name": "A2",
          "ticks": 81840,
          "time": 102.29982949999999,
          "velocity": 0.7559055118110236
        },
        {
          "duration": 0.2837495270833301,
          "durationTicks": 227,
          "midi": 50,
          "name": "D3",
          "ticks": 82080,
          "time": 102.59982899999999,
          "velocity": 0.7559055118110236
        },
        {
          "duration": 0.2837495270833301,
          "durationTicks": 227,
          "midi": 54,
          "name": "F#3",
          "ticks": 82320,
          "time": 102.8998285,
          "velocity": 0.7559055118110236
        },
        {
          "duration": 0.2837495270833301,
          "durationTicks": 227,
          "midi": 43,
          "name": "G2",
          "ticks": 82560,
          "time": 103.199828,
          "velocity": 0.7559055118110236
        },
        {
          "duration": 0.2837495270833301,
          "durationTicks": 227,
          "midi": 50,
          "name": "D3",
          "ticks": 82800,
          "time": 103.4998275,
          "velocity": 0.7559055118110236
        },
        {
          "duration": 0.2837495270833301,
          "durationTicks": 227,
          "midi": 55,
          "name": "G3",
          "ticks": 83040,
          "time": 103.799827,
          "velocity": 0.7559055118110236
        },
        {
          "duration": 0.2837495270833301,
          "durationTicks": 227,
          "midi": 59,
          "name": "B3",
          "ticks": 83280,
          "time": 104.09982649999999,
          "velocity": 0.7559055118110236
        },
        {
          "duration": 0.2837495270833301,
          "durationTicks": 227,
          "midi": 45,
          "name": "A2",
          "ticks": 83520,
          "time": 104.39982599999999,
          "velocity": 0.7559055118110236
        },
        {
          "duration": 0.2837495270833301,
          "durationTicks": 227,
          "midi": 52,
          "name": "E3",
          "ticks": 83760,
          "time": 104.69982549999999,
          "velocity": 0.7559055118110236
        },
        {
          "duration": 0.2837495270833301,
          "durationTicks": 227,
          "midi": 57,
          "name": "A3",
          "ticks": 84000,
          "time": 104.99982499999999,
          "velocity": 0.7559055118110236
        },
        {
          "duration": 0.2837495270833301,
          "durationTicks": 227,
          "midi": 61,
          "name": "C#4",
          "ticks": 84240,
          "time": 105.29982449999999,
          "velocity": 0.7559055118110236
        },
        {
          "duration": 0.28374952708334433,
          "durationTicks": 227,
          "midi": 50,
          "name": "D3",
          "ticks": 84480,
          "time": 105.59982399999998,
          "velocity": 0.7559055118110236
        },
        {
          "duration": 0.2837495270833301,
          "durationTicks": 227,
          "midi": 57,
          "name": "A3",
          "ticks": 84720,
          "time": 105.8998235,
          "velocity": 0.7559055118110236
        },
        {
          "duration": 0.2837495270833301,
          "durationTicks": 227,
          "midi": 62,
          "name": "D4",
          "ticks": 84960,
          "time": 106.199823,
          "velocity": 0.7559055118110236
        },
        {
          "duration": 0.2837495270833301,
          "durationTicks": 227,
          "midi": 66,
          "name": "F#4",
          "ticks": 85200,
          "time": 106.4998225,
          "velocity": 0.7559055118110236
        },
        {
          "duration": 0.2837495270833301,
          "durationTicks": 227,
          "midi": 45,
          "name": "A2",
          "ticks": 85440,
          "time": 106.79982199999999,
          "velocity": 0.7559055118110236
        },
        {
          "duration": 0.2837495270833301,
          "durationTicks": 227,
          "midi": 52,
          "name": "E3",
          "ticks": 85680,
          "time": 107.09982149999999,
          "velocity": 0.7559055118110236
        },
        {
          "duration": 0.2837495270833301,
          "durationTicks": 227,
          "midi": 57,
          "name": "A3",
          "ticks": 85920,
          "time": 107.39982099999999,
          "velocity": 0.7559055118110236
        },
        {
          "duration": 0.2837495270833301,
          "durationTicks": 227,
          "midi": 61,
          "name": "C#4",
          "ticks": 86160,
          "time": 107.69982049999999,
          "velocity": 0.7559055118110236
        },
        {
          "duration": 0.2837495270833301,
          "durationTicks": 227,
          "midi": 47,
          "name": "B2",
          "ticks": 86400,
          "time": 107.99981999999999,
          "velocity": 0.7559055118110236
        },
        {
          "duration": 0.28374952708334433,
          "durationTicks": 227,
          "midi": 54,
          "name": "F#3",
          "ticks": 86640,
          "time": 108.29981949999998,
          "velocity": 0.7559055118110236
        },
        {
          "duration": 0.2837495270833301,
          "durationTicks": 227,
          "midi": 59,
          "name": "B3",
          "ticks": 86880,
          "time": 108.599819,
          "velocity": 0.7559055118110236
        },
        {
          "duration": 0.2837495270833301,
          "durationTicks": 227,
          "midi": 62,
          "name": "D4",
          "ticks": 87120,
          "time": 108.8998185,
          "velocity": 0.7559055118110236
        },
        {
          "duration": 0.2837495270833301,
          "durationTicks": 227,
          "midi": 42,
          "name": "F#2",
          "ticks": 87360,
          "time": 109.199818,
          "velocity": 0.7559055118110236
        },
        {
          "duration": 0.2837495270833301,
          "durationTicks": 227,
          "midi": 49,
          "name": "C#3",
          "ticks": 87600,
          "time": 109.49981749999999,
          "velocity": 0.7559055118110236
        },
        {
          "duration": 0.2837495270833301,
          "durationTicks": 227,
          "midi": 54,
          "name": "F#3",
          "ticks": 87840,
          "time": 109.79981699999999,
          "velocity": 0.7559055118110236
        },
        {
          "duration": 0.2837495270833301,
          "durationTicks": 227,
          "midi": 57,
          "name": "A3",
          "ticks": 88080,
          "time": 110.09981649999999,
          "velocity": 0.7559055118110236
        },
        {
          "duration": 0.2837495270833301,
          "durationTicks": 227,
          "midi": 43,
          "name": "G2",
          "ticks": 88320,
          "time": 110.39981599999999,
          "velocity": 0.7559055118110236
        },
        {
          "duration": 0.2837495270833301,
          "durationTicks": 227,
          "midi": 50,
          "name": "D3",
          "ticks": 88560,
          "time": 110.69981549999999,
          "velocity": 0.7559055118110236
        },
        {
          "duration": 0.28374952708334433,
          "durationTicks": 227,
          "midi": 55,
          "name": "G3",
          "ticks": 88800,
          "time": 110.99981499999998,
          "velocity": 0.7559055118110236
        },
        {
          "duration": 0.2837495270833301,
          "durationTicks": 227,
          "midi": 59,
          "name": "B3",
          "ticks": 89040,
          "time": 111.2998145,
          "velocity": 0.7559055118110236
        },
        {
          "duration": 0.2837495270833301,
          "durationTicks": 227,
          "midi": 38,
          "name": "D2",
          "ticks": 89280,
          "time": 111.599814,
          "velocity": 0.7559055118110236
        },
        {
          "duration": 0.2837495270833301,
          "durationTicks": 227,
          "midi": 45,
          "name": "A2",
          "ticks": 89520,
          "time": 111.8998135,
          "velocity": 0.7559055118110236
        },
        {
          "duration": 0.2837495270833301,
          "durationTicks": 227,
          "midi": 50,
          "name": "D3",
          "ticks": 89760,
          "time": 112.19981299999999,
          "velocity": 0.7559055118110236
        },
        {
          "duration": 0.2837495270833301,
          "durationTicks": 227,
          "midi": 54,
          "name": "F#3",
          "ticks": 90000,
          "time": 112.49981249999999,
          "velocity": 0.7559055118110236
        },
        {
          "duration": 0.2837495270833301,
          "durationTicks": 227,
          "midi": 43,
          "name": "G2",
          "ticks": 90240,
          "time": 112.79981199999999,
          "velocity": 0.7559055118110236
        },
        {
          "duration": 0.2837495270833301,
          "durationTicks": 227,
          "midi": 50,
          "name": "D3",
          "ticks": 90480,
          "time": 113.09981149999999,
          "velocity": 0.7559055118110236
        },
        {
          "duration": 0.2837495270833301,
          "durationTicks": 227,
          "midi": 55,
          "name": "G3",
          "ticks": 90720,
          "time": 113.39981099999999,
          "velocity": 0.7559055118110236
        },
        {
          "duration": 0.28374952708334433,
          "durationTicks": 227,
          "midi": 59,
          "name": "B3",
          "ticks": 90960,
          "time": 113.69981049999998,
          "velocity": 0.7559055118110236
        },
        {
          "duration": 0.2837495270833301,
          "durationTicks": 227,
          "midi": 45,
          "name": "A2",
          "ticks": 91200,
          "time": 113.99981,
          "velocity": 0.7559055118110236
        },
        {
          "duration": 0.2837495270833301,
          "durationTicks": 227,
          "midi": 52,
          "name": "E3",
          "ticks": 91440,
          "time": 114.2998095,
          "velocity": 0.7559055118110236
        },
        {
          "duration": 0.2837495270833301,
          "durationTicks": 227,
          "midi": 57,
          "name": "A3",
          "ticks": 91680,
          "time": 114.599809,
          "velocity": 0.7559055118110236
        },
        {
          "duration": 0.2837495270833301,
          "durationTicks": 227,
          "midi": 61,
          "name": "C#4",
          "ticks": 91920,
          "time": 114.89980849999999,
          "velocity": 0.7559055118110236
        },
        {
          "duration": 0.2837495270833301,
          "durationTicks": 227,
          "midi": 50,
          "name": "D3",
          "ticks": 92160,
          "time": 115.19980799999999,
          "velocity": 0.7559055118110236
        },
        {
          "duration": 0.2837495270833301,
          "durationTicks": 227,
          "midi": 57,
          "name": "A3",
          "ticks": 92400,
          "time": 115.49980749999999,
          "velocity": 0.7559055118110236
        },
        {
          "duration": 0.2837495270833301,
          "durationTicks": 227,
          "midi": 62,
          "name": "D4",
          "ticks": 92640,
          "time": 115.79980699999999,
          "velocity": 0.7559055118110236
        },
        {
          "duration": 0.2837495270833301,
          "durationTicks": 227,
          "midi": 66,
          "name": "F#4",
          "ticks": 92880,
          "time": 116.09980649999999,
          "velocity": 0.7559055118110236
        },
        {
          "duration": 0.28374952708334433,
          "durationTicks": 227,
          "midi": 45,
          "name": "A2",
          "ticks": 93120,
          "time": 116.39980599999998,
          "velocity": 0.7559055118110236
        },
        {
          "duration": 0.2837495270833301,
          "durationTicks": 227,
          "midi": 52,
          "name": "E3",
          "ticks": 93360,
          "time": 116.6998055,
          "velocity": 0.7559055118110236
        },
        {
          "duration": 0.2837495270833301,
          "durationTicks": 227,
          "midi": 57,
          "name": "A3",
          "ticks": 93600,
          "time": 116.999805,
          "velocity": 0.7559055118110236
        },
        {
          "duration": 0.2837495270833301,
          "durationTicks": 227,
          "midi": 61,
          "name": "C#4",
          "ticks": 93840,
          "time": 117.2998045,
          "velocity": 0.7559055118110236
        },
        {
          "duration": 0.2837495270833301,
          "durationTicks": 227,
          "midi": 47,
          "name": "B2",
          "ticks": 94080,
          "time": 117.59980399999999,
          "velocity": 0.7559055118110236
        },
        {
          "duration": 0.2837495270833301,
          "durationTicks": 227,
          "midi": 54,
          "name": "F#3",
          "ticks": 94320,
          "time": 117.89980349999999,
          "velocity": 0.7559055118110236
        },
        {
          "duration": 0.2837495270833301,
          "durationTicks": 227,
          "midi": 59,
          "name": "B3",
          "ticks": 94560,
          "time": 118.19980299999999,
          "velocity": 0.7559055118110236
        },
        {
          "duration": 0.2837495270833301,
          "durationTicks": 227,
          "midi": 62,
          "name": "D4",
          "ticks": 94800,
          "time": 118.49980249999999,
          "velocity": 0.7559055118110236
        },
        {
          "duration": 0.2837495270833301,
          "durationTicks": 227,
          "midi": 42,
          "name": "F#2",
          "ticks": 95040,
          "time": 118.79980199999999,
          "velocity": 0.7559055118110236
        },
        {
          "duration": 0.2837495270833301,
          "durationTicks": 227,
          "midi": 49,
          "name": "C#3",
          "ticks": 95280,
          "time": 119.09980149999998,
          "velocity": 0.7559055118110236
        },
        {
          "duration": 0.2837495270833301,
          "durationTicks": 227,
          "midi": 54,
          "name": "F#3",
          "ticks": 95520,
          "time": 119.399801,
          "velocity": 0.7559055118110236
        },
        {
          "duration": 0.2837495270833301,
          "durationTicks": 227,
          "midi": 57,
          "name": "A3",
          "ticks": 95760,
          "time": 119.6998005,
          "velocity": 0.7559055118110236
        },
        {
          "duration": 0.2837495270833301,
          "durationTicks": 227,
          "midi": 43,
          "name": "G2",
          "ticks": 96000,
          "time": 119.9998,
          "velocity": 0.7559055118110236
        },
        {
          "duration": 0.2837495270833301,
          "durationTicks": 227,
          "midi": 50,
          "name": "D3",
          "ticks": 96240,
          "time": 120.29979949999999,
          "velocity": 0.7559055118110236
        },
        {
          "duration": 0.2837495270833301,
          "durationTicks": 227,
          "midi": 55,
          "name": "G3",
          "ticks": 96480,
          "time": 120.59979899999999,
          "velocity": 0.7559055118110236
        },
        {
          "duration": 0.2837495270833301,
          "durationTicks": 227,
          "midi": 59,
          "name": "B3",
          "ticks": 96720,
          "time": 120.89979849999999,
          "velocity": 0.7559055118110236
        },
        {
          "duration": 0.2837495270833301,
          "durationTicks": 227,
          "midi": 38,
          "name": "D2",
          "ticks": 96960,
          "time": 121.19979799999999,
          "velocity": 0.7559055118110236
        },
        {
          "duration": 0.2837495270833301,
          "durationTicks": 227,
          "midi": 45,
          "name": "A2",
          "ticks": 97200,
          "time": 121.49979749999999,
          "velocity": 0.7559055118110236
        },
        {
          "duration": 0.2837495270833301,
          "durationTicks": 227,
          "midi": 50,
          "name": "D3",
          "ticks": 97440,
          "time": 121.79979699999998,
          "velocity": 0.7559055118110236
        },
        {
          "duration": 0.2837495270833301,
          "durationTicks": 227,
          "midi": 54,
          "name": "F#3",
          "ticks": 97680,
          "time": 122.0997965,
          "velocity": 0.7559055118110236
        },
        {
          "duration": 0.2837495270833301,
          "durationTicks": 227,
          "midi": 43,
          "name": "G2",
          "ticks": 97920,
          "time": 122.399796,
          "velocity": 0.7559055118110236
        },
        {
          "duration": 0.2837495270833301,
          "durationTicks": 227,
          "midi": 50,
          "name": "D3",
          "ticks": 98160,
          "time": 122.6997955,
          "velocity": 0.7559055118110236
        },
        {
          "duration": 0.2837495270833301,
          "durationTicks": 227,
          "midi": 55,
          "name": "G3",
          "ticks": 98400,
          "time": 122.99979499999999,
          "velocity": 0.7559055118110236
        },
        {
          "duration": 0.2837495270833301,
          "durationTicks": 227,
          "midi": 59,
          "name": "B3",
          "ticks": 98640,
          "time": 123.29979449999999,
          "velocity": 0.7559055118110236
        },
        {
          "duration": 0.2837495270833301,
          "durationTicks": 227,
          "midi": 45,
          "name": "A2",
          "ticks": 98880,
          "time": 123.59979399999999,
          "velocity": 0.7559055118110236
        },
        {
          "duration": 0.2837495270833301,
          "durationTicks": 227,
          "midi": 52,
          "name": "E3",
          "ticks": 99120,
          "time": 123.89979349999999,
          "velocity": 0.7559055118110236
        },
        {
          "duration": 0.2837495270833301,
          "durationTicks": 227,
          "midi": 57,
          "name": "A3",
          "ticks": 99360,
          "time": 124.19979299999999,
          "velocity": 0.7559055118110236
        },
        {
          "duration": 0.2837495270833301,
          "durationTicks": 227,
          "midi": 61,
          "name": "C#4",
          "ticks": 99600,
          "time": 124.49979249999998,
          "velocity": 0.7559055118110236
        },
        {
          "duration": 0.2837495270833301,
          "durationTicks": 227,
          "midi": 50,
          "name": "D3",
          "ticks": 99840,
          "time": 124.799792,
          "velocity": 0.6299212598425197
        },
        {
          "duration": 0.2837495270833301,
          "durationTicks": 227,
          "midi": 57,
          "name": "A3",
          "ticks": 100080,
          "time": 125.0997915,
          "velocity": 0.6299212598425197
        },
        {
          "duration": 0.2837495270833301,
          "durationTicks": 227,
          "midi": 62,
          "name": "D4",
          "ticks": 100320,
          "time": 125.399791,
          "velocity": 0.6299212598425197
        },
        {
          "duration": 0.2837495270833301,
          "durationTicks": 227,
          "midi": 66,
          "name": "F#4",
          "ticks": 100560,
          "time": 125.69979049999999,
          "velocity": 0.6299212598425197
        },
        {
          "duration": 0.2837495270833301,
          "durationTicks": 227,
          "midi": 45,
          "name": "A2",
          "ticks": 100800,
          "time": 125.99978999999999,
          "velocity": 0.6299212598425197
        },
        {
          "duration": 0.2837495270833301,
          "durationTicks": 227,
          "midi": 52,
          "name": "E3",
          "ticks": 101040,
          "time": 126.29978949999999,
          "velocity": 0.6299212598425197
        },
        {
          "duration": 0.2837495270833301,
          "durationTicks": 227,
          "midi": 57,
          "name": "A3",
          "ticks": 101280,
          "time": 126.59978899999999,
          "velocity": 0.6299212598425197
        },
        {
          "duration": 0.2837495270833301,
          "durationTicks": 227,
          "midi": 61,
          "name": "C#4",
          "ticks": 101520,
          "time": 126.89978849999999,
          "velocity": 0.6299212598425197
        },
        {
          "duration": 0.2837495270833301,
          "durationTicks": 227,
          "midi": 47,
          "name": "B2",
          "ticks": 101760,
          "time": 127.19978799999998,
          "velocity": 0.6299212598425197
        },
        {
          "duration": 0.28374952708334433,
          "durationTicks": 227,
          "midi": 54,
          "name": "F#3",
          "ticks": 102000,
          "time": 127.49978749999998,
          "velocity": 0.6299212598425197
        },
        {
          "duration": 0.2837495270833159,
          "durationTicks": 227,
          "midi": 59,
          "name": "B3",
          "ticks": 102240,
          "time": 127.799787,
          "velocity": 0.6299212598425197
        },
        {
          "duration": 0.2837495270833301,
          "durationTicks": 227,
          "midi": 62,
          "name": "D4",
          "ticks": 102480,
          "time": 128.0997865,
          "velocity": 0.6299212598425197
        },
        {
          "duration": 0.2837495270833301,
          "durationTicks": 227,
          "midi": 42,
          "name": "F#2",
          "ticks": 102720,
          "time": 128.39978599999998,
          "velocity": 0.6299212598425197
        },
        {
          "duration": 0.2837495270833301,
          "durationTicks": 227,
          "midi": 49,
          "name": "C#3",
          "ticks": 102960,
          "time": 128.6997855,
          "velocity": 0.6299212598425197
        },
        {
          "duration": 0.2837495270833301,
          "durationTicks": 227,
          "midi": 54,
          "name": "F#3",
          "ticks": 103200,
          "time": 128.999785,
          "velocity": 0.6299212598425197
        },
        {
          "duration": 0.2837495270833301,
          "durationTicks": 227,
          "midi": 57,
          "name": "A3",
          "ticks": 103440,
          "time": 129.2997845,
          "velocity": 0.6299212598425197
        },
        {
          "duration": 0.2837495270833301,
          "durationTicks": 227,
          "midi": 43,
          "name": "G2",
          "ticks": 103680,
          "time": 129.599784,
          "velocity": 0.6299212598425197
        },
        {
          "duration": 0.2837495270833301,
          "durationTicks": 227,
          "midi": 50,
          "name": "D3",
          "ticks": 103920,
          "time": 129.89978349999998,
          "velocity": 0.6299212598425197
        },
        {
          "duration": 0.2837495270833301,
          "durationTicks": 227,
          "midi": 55,
          "name": "G3",
          "ticks": 104160,
          "time": 130.199783,
          "velocity": 0.6299212598425197
        },
        {
          "duration": 0.2837495270833301,
          "durationTicks": 227,
          "midi": 59,
          "name": "B3",
          "ticks": 104400,
          "time": 130.49978249999998,
          "velocity": 0.6299212598425197
        },
        {
          "duration": 0.2837495270833301,
          "durationTicks": 227,
          "midi": 38,
          "name": "D2",
          "ticks": 104640,
          "time": 130.799782,
          "velocity": 0.6299212598425197
        },
        {
          "duration": 0.2837495270833301,
          "durationTicks": 227,
          "midi": 45,
          "name": "A2",
          "ticks": 104880,
          "time": 131.09978149999998,
          "velocity": 0.6299212598425197
        },
        {
          "duration": 0.2837495270833301,
          "durationTicks": 227,
          "midi": 50,
          "name": "D3",
          "ticks": 105120,
          "time": 131.399781,
          "velocity": 0.6299212598425197
        },
        {
          "duration": 0.2837495270833301,
          "durationTicks": 227,
          "midi": 54,
          "name": "F#3",
          "ticks": 105360,
          "time": 131.6997805,
          "velocity": 0.6299212598425197
        },
        {
          "duration": 0.2837495270833301,
          "durationTicks": 227,
          "midi": 43,
          "name": "G2",
          "ticks": 105600,
          "time": 131.99978,
          "velocity": 0.6299212598425197
        },
        {
          "duration": 0.2837495270833301,
          "durationTicks": 227,
          "midi": 50,
          "name": "D3",
          "ticks": 105840,
          "time": 132.2997795,
          "velocity": 0.6299212598425197
        },
        {
          "duration": 0.2837495270833301,
          "durationTicks": 227,
          "midi": 55,
          "name": "G3",
          "ticks": 106080,
          "time": 132.59977899999998,
          "velocity": 0.6299212598425197
        },
        {
          "duration": 0.2837495270833301,
          "durationTicks": 227,
          "midi": 59,
          "name": "B3",
          "ticks": 106320,
          "time": 132.8997785,
          "velocity": 0.6299212598425197
        },
        {
          "duration": 0.2837495270833301,
          "durationTicks": 227,
          "midi": 45,
          "name": "A2",
          "ticks": 106560,
          "time": 133.19977799999998,
          "velocity": 0.6299212598425197
        },
        {
          "duration": 0.2837495270833301,
          "durationTicks": 227,
          "midi": 52,
          "name": "E3",
          "ticks": 106800,
          "time": 133.4997775,
          "velocity": 0.6299212598425197
        },
        {
          "duration": 0.2837495270833301,
          "durationTicks": 227,
          "midi": 57,
          "name": "A3",
          "ticks": 107040,
          "time": 133.79977699999998,
          "velocity": 0.6299212598425197
        },
        {
          "duration": 0.2837495270833301,
          "durationTicks": 227,
          "midi": 61,
          "name": "C#4",
          "ticks": 107280,
          "time": 134.0997765,
          "velocity": 0.6299212598425197
        },
        {
          "duration": 0.28374952708335854,
          "durationTicks": 227,
          "midi": 50,
          "name": "D3",
          "ticks": 107520,
          "time": 134.39977599999997,
          "velocity": 0.6299212598425197
        },
        {
          "duration": 0.2837495270833301,
          "durationTicks": 227,
          "midi": 57,
          "name": "A3",
          "ticks": 107760,
          "time": 134.6997755,
          "velocity": 0.6299212598425197
        },
        {
          "duration": 0.2837495270833301,
          "durationTicks": 227,
          "midi": 62,
          "name": "D4",
          "ticks": 108000,
          "time": 134.999775,
          "velocity": 0.6299212598425197
        },
        {
          "duration": 0.2837495270833301,
          "durationTicks": 227,
          "midi": 66,
          "name": "F#4",
          "ticks": 108240,
          "time": 135.29977449999998,
          "velocity": 0.6299212598425197
        },
        {
          "duration": 0.2837495270833301,
          "durationTicks": 227,
          "midi": 45,
          "name": "A2",
          "ticks": 108480,
          "time": 135.599774,
          "velocity": 0.6299212598425197
        },
        {
          "duration": 0.2837495270833301,
          "durationTicks": 227,
          "midi": 52,
          "name": "E3",
          "ticks": 108720,
          "time": 135.89977349999998,
          "velocity": 0.6299212598425197
        },
        {
          "duration": 0.2837495270833301,
          "durationTicks": 227,
          "midi": 57,
          "name": "A3",
          "ticks": 108960,
          "time": 136.199773,
          "velocity": 0.6299212598425197
        },
        {
          "duration": 0.2837495270833301,
          "durationTicks": 227,
          "midi": 61,
          "name": "C#4",
          "ticks": 109200,
          "time": 136.49977249999998,
          "velocity": 0.6299212598425197
        },
        {
          "duration": 0.2837495270833301,
          "durationTicks": 227,
          "midi": 47,
          "name": "B2",
          "ticks": 109440,
          "time": 136.799772,
          "velocity": 0.6299212598425197
        },
        {
          "duration": 0.28374952708335854,
          "durationTicks": 227,
          "midi": 54,
          "name": "F#3",
          "ticks": 109680,
          "time": 137.09977149999997,
          "velocity": 0.6299212598425197
        },
        {
          "duration": 0.2837495270833301,
          "durationTicks": 227,
          "midi": 59,
          "name": "B3",
          "ticks": 109920,
          "time": 137.399771,
          "velocity": 0.6299212598425197
        },
        {
          "duration": 0.2837495270833301,
          "durationTicks": 227,
          "midi": 62,
          "name": "D4",
          "ticks": 110160,
          "time": 137.6997705,
          "velocity": 0.6299212598425197
        },
        {
          "duration": 0.2837495270833301,
          "durationTicks": 227,
          "midi": 42,
          "name": "F#2",
          "ticks": 110400,
          "time": 137.99976999999998,
          "velocity": 0.6299212598425197
        },
        {
          "duration": 0.2837495270833301,
          "durationTicks": 227,
          "midi": 49,
          "name": "C#3",
          "ticks": 110640,
          "time": 138.2997695,
          "velocity": 0.6299212598425197
        },
        {
          "duration": 0.2837495270833301,
          "durationTicks": 227,
          "midi": 54,
          "name": "F#3",
          "ticks": 110880,
          "time": 138.59976899999998,
          "velocity": 0.6299212598425197
        },
        {
          "duration": 0.2837495270833301,
          "durationTicks": 227,
          "midi": 57,
          "name": "A3",
          "ticks": 111120,
          "time": 138.8997685,
          "velocity": 0.6299212598425197
        },
        {
          "duration": 0.2837495270833301,
          "durationTicks": 227,
          "midi": 43,
          "name": "G2",
          "ticks": 111360,
          "time": 139.19976799999998,
          "velocity": 0.6299212598425197
        },
        {
          "duration": 0.2837495270833301,
          "durationTicks": 227,
          "midi": 50,
          "name": "D3",
          "ticks": 111600,
          "time": 139.4997675,
          "velocity": 0.6299212598425197
        },
        {
          "duration": 0.28374952708335854,
          "durationTicks": 227,
          "midi": 55,
          "name": "G3",
          "ticks": 111840,
          "time": 139.79976699999997,
          "velocity": 0.6299212598425197
        },
        {
          "duration": 0.2837495270833301,
          "durationTicks": 227,
          "midi": 59,
          "name": "B3",
          "ticks": 112080,
          "time": 140.0997665,
          "velocity": 0.6299212598425197
        },
        {
          "duration": 0.2837495270833301,
          "durationTicks": 227,
          "midi": 38,
          "name": "D2",
          "ticks": 112320,
          "time": 140.399766,
          "velocity": 0.6299212598425197
        },
        {
          "duration": 0.2837495270833301,
          "durationTicks": 227,
          "midi": 45,
          "name": "A2",
          "ticks": 112560,
          "time": 140.69976549999998,
          "velocity": 0.6299212598425197
        },
        {
          "duration": 0.2837495270833301,
          "durationTicks": 227,
          "midi": 50,
          "name": "D3",
          "ticks": 112800,
          "time": 140.999765,
          "velocity": 0.6299212598425197
        },
        {
          "duration": 0.2837495270833301,
          "durationTicks": 227,
          "midi": 54,
          "name": "F#3",
          "ticks": 113040,
          "time": 141.29976449999998,
          "velocity": 0.6299212598425197
        },
        {
          "duration": 0.2837495270833301,
          "durationTicks": 227,
          "midi": 43,
          "name": "G2",
          "ticks": 113280,
          "time": 141.599764,
          "velocity": 0.6299212598425197
        },
        {
          "duration": 0.2837495270833301,
          "durationTicks": 227,
          "midi": 50,
          "name": "D3",
          "ticks": 113520,
          "time": 141.89976349999998,
          "velocity": 0.6299212598425197
        },
        {
          "duration": 0.2837495270833301,
          "durationTicks": 227,
          "midi": 55,
          "name": "G3",
          "ticks": 113760,
          "time": 142.199763,
          "velocity": 0.6299212598425197
        },
        {
          "duration": 0.28374952708335854,
          "durationTicks": 227,
          "midi": 59,
          "name": "B3",
          "ticks": 114000,
          "time": 142.49976249999997,
          "velocity": 0.6299212598425197
        },
        {
          "duration": 0.2837495270833301,
          "durationTicks": 227,
          "midi": 45,
          "name": "A2",
          "ticks": 114240,
          "time": 142.799762,
          "velocity": 0.6299212598425197
        },
        {
          "duration": 0.2837495270833301,
          "durationTicks": 227,
          "midi": 52,
          "name": "E3",
          "ticks": 114480,
          "time": 143.0997615,
          "velocity": 0.6299212598425197
        },
        {
          "duration": 0.2837495270833301,
          "durationTicks": 227,
          "midi": 57,
          "name": "A3",
          "ticks": 114720,
          "time": 143.39976099999998,
          "velocity": 0.6299212598425197
        },
        {
          "duration": 0.2837495270833301,
          "durationTicks": 227,
          "midi": 61,
          "name": "C#4",
          "ticks": 114960,
          "time": 143.6997605,
          "velocity": 0.6299212598425197
        },
        {
          "duration": 0.2837495270833301,
          "durationTicks": 227,
          "midi": 50,
          "name": "D3",
          "ticks": 115200,
          "time": 143.99975999999998,
          "velocity": 0.6299212598425197
        },
        {
          "duration": 0.2837495270833301,
          "durationTicks": 227,
          "midi": 57,
          "name": "A3",
          "ticks": 115440,
          "time": 144.2997595,
          "velocity": 0.6299212598425197
        },
        {
          "duration": 0.2837495270833301,
          "durationTicks": 227,
          "midi": 62,
          "name": "D4",
          "ticks": 115680,
          "time": 144.59975899999998,
          "velocity": 0.6299212598425197
        },
        {
          "duration": 0.2837495270833301,
          "durationTicks": 227,
          "midi": 66,
          "name": "F#4",
          "ticks": 115920,
          "time": 144.8997585,
          "velocity": 0.6299212598425197
        },
        {
          "duration": 0.28374952708335854,
          "durationTicks": 227,
          "midi": 45,
          "name": "A2",
          "ticks": 116160,
          "time": 145.19975799999997,
          "velocity": 0.6299212598425197
        },
        {
          "duration": 0.2837495270833301,
          "durationTicks": 227,
          "midi": 52,
          "name": "E3",
          "ticks": 116400,
          "time": 145.4997575,
          "velocity": 0.6299212598425197
        },
        {
          "duration": 0.2837495270833301,
          "durationTicks": 227,
          "midi": 57,
          "name": "A3",
          "ticks": 116640,
          "time": 145.799757,
          "velocity": 0.6299212598425197
        },
        {
          "duration": 0.2837495270833301,
          "durationTicks": 227,
          "midi": 61,
          "name": "C#4",
          "ticks": 116880,
          "time": 146.09975649999998,
          "velocity": 0.6299212598425197
        },
        {
          "duration": 0.2837495270833301,
          "durationTicks": 227,
          "midi": 47,
          "name": "B2",
          "ticks": 117120,
          "time": 146.399756,
          "velocity": 0.6299212598425197
        },
        {
          "duration": 0.2837495270833301,
          "durationTicks": 227,
          "midi": 54,
          "name": "F#3",
          "ticks": 117360,
          "time": 146.69975549999998,
          "velocity": 0.6299212598425197
        },
        {
          "duration": 0.2837495270833301,
          "durationTicks": 227,
          "midi": 59,
          "name": "B3",
          "ticks": 117600,
          "time": 146.999755,
          "velocity": 0.6299212598425197
        },
        {
          "duration": 0.2837495270833301,
          "durationTicks": 227,
          "midi": 62,
          "name": "D4",
          "ticks": 117840,
          "time": 147.29975449999998,
          "velocity": 0.6299212598425197
        },
        {
          "duration": 0.2837495270833301,
          "durationTicks": 227,
          "midi": 42,
          "name": "F#2",
          "ticks": 118080,
          "time": 147.599754,
          "velocity": 0.6299212598425197
        },
        {
          "duration": 0.2837495270833301,
          "durationTicks": 227,
          "midi": 49,
          "name": "C#3",
          "ticks": 118320,
          "time": 147.89975349999997,
          "velocity": 0.6299212598425197
        },
        {
          "duration": 0.2837495270833301,
          "durationTicks": 227,
          "midi": 54,
          "name": "F#3",
          "ticks": 118560,
          "time": 148.199753,
          "velocity": 0.6299212598425197
        },
        {
          "duration": 0.2837495270833301,
          "durationTicks": 227,
          "midi": 57,
          "name": "A3",
          "ticks": 118800,
          "time": 148.4997525,
          "velocity": 0.6299212598425197
        },
        {
          "duration": 0.2837495270833301,
          "durationTicks": 227,
          "midi": 43,
          "name": "G2",
          "ticks": 119040,
          "time": 148.79975199999998,
          "velocity": 0.6299212598425197
        },
        {
          "duration": 0.2837495270833301,
          "durationTicks": 227,
          "midi": 50,
          "name": "D3",
          "ticks": 119280,
          "time": 149.0997515,
          "velocity": 0.6299212598425197
        },
        {
          "duration": 0.2837495270833301,
          "durationTicks": 227,
          "midi": 55,
          "name": "G3",
          "ticks": 119520,
          "time": 149.39975099999998,
          "velocity": 0.6299212598425197
        },
        {
          "duration": 0.2837495270833301,
          "durationTicks": 227,
          "midi": 59,
          "name": "B3",
          "ticks": 119760,
          "time": 149.6997505,
          "velocity": 0.6299212598425197
        },
        {
          "duration": 0.2837495270833301,
          "durationTicks": 227,
          "midi": 38,
          "name": "D2",
          "ticks": 120000,
          "time": 149.99974999999998,
          "velocity": 0.6299212598425197
        },
        {
          "duration": 0.2837495270833301,
          "durationTicks": 227,
          "midi": 45,
          "name": "A2",
          "ticks": 120240,
          "time": 150.2997495,
          "velocity": 0.6299212598425197
        },
        {
          "duration": 0.2837495270833301,
          "durationTicks": 227,
          "midi": 50,
          "name": "D3",
          "ticks": 120480,
          "time": 150.59974899999997,
          "velocity": 0.6299212598425197
        },
        {
          "duration": 0.2837495270833301,
          "durationTicks": 227,
          "midi": 54,
          "name": "F#3",
          "ticks": 120720,
          "time": 150.8997485,
          "velocity": 0.6299212598425197
        },
        {
          "duration": 0.2837495270833301,
          "durationTicks": 227,
          "midi": 43,
          "name": "G2",
          "ticks": 120960,
          "time": 151.199748,
          "velocity": 0.6299212598425197
        },
        {
          "duration": 0.2837495270833301,
          "durationTicks": 227,
          "midi": 50,
          "name": "D3",
          "ticks": 121200,
          "time": 151.49974749999998,
          "velocity": 0.6299212598425197
        },
        {
          "duration": 0.2837495270833301,
          "durationTicks": 227,
          "midi": 55,
          "name": "G3",
          "ticks": 121440,
          "time": 151.799747,
          "velocity": 0.6299212598425197
        },
        {
          "duration": 0.2837495270833301,
          "durationTicks": 227,
          "midi": 59,
          "name": "B3",
          "ticks": 121680,
          "time": 152.09974649999998,
          "velocity": 0.6299212598425197
        },
        {
          "duration": 0.2837495270833301,
          "durationTicks": 227,
          "midi": 45,
          "name": "A2",
          "ticks": 121920,
          "time": 152.399746,
          "velocity": 0.6299212598425197
        },
        {
          "duration": 0.2837495270833301,
          "durationTicks": 227,
          "midi": 52,
          "name": "E3",
          "ticks": 122160,
          "time": 152.69974549999998,
          "velocity": 0.6299212598425197
        },
        {
          "duration": 0.2837495270833301,
          "durationTicks": 227,
          "midi": 57,
          "name": "A3",
          "ticks": 122400,
          "time": 152.999745,
          "velocity": 0.6299212598425197
        },
        {
          "duration": 0.2837495270833301,
          "durationTicks": 227,
          "midi": 61,
          "name": "C#4",
          "ticks": 122640,
          "time": 153.29974449999997,
          "velocity": 0.6299212598425197
        },
        {
          "duration": 0.2837495270833301,
          "durationTicks": 227,
          "midi": 50,
          "name": "D3",
          "ticks": 122880,
          "time": 153.599744,
          "velocity": 0.6299212598425197
        },
        {
          "duration": 0.2837495270833301,
          "durationTicks": 227,
          "midi": 57,
          "name": "A3",
          "ticks": 123120,
          "time": 153.8997435,
          "velocity": 0.6299212598425197
        },
        {
          "duration": 0.2837495270833301,
          "durationTicks": 227,
          "midi": 62,
          "name": "D4",
          "ticks": 123360,
          "time": 154.19974299999998,
          "velocity": 0.6299212598425197
        },
        {
          "duration": 0.2837495270833301,
          "durationTicks": 227,
          "midi": 66,
          "name": "F#4",
          "ticks": 123600,
          "time": 154.4997425,
          "velocity": 0.6299212598425197
        },
        {
          "duration": 0.2837495270833301,
          "durationTicks": 227,
          "midi": 45,
          "name": "A2",
          "ticks": 123840,
          "time": 154.79974199999998,
          "velocity": 0.6299212598425197
        },
        {
          "duration": 0.2837495270833301,
          "durationTicks": 227,
          "midi": 52,
          "name": "E3",
          "ticks": 124080,
          "time": 155.0997415,
          "velocity": 0.6299212598425197
        },
        {
          "duration": 0.2837495270833301,
          "durationTicks": 227,
          "midi": 57,
          "name": "A3",
          "ticks": 124320,
          "time": 155.39974099999998,
          "velocity": 0.6299212598425197
        },
        {
          "duration": 0.2837495270833301,
          "durationTicks": 227,
          "midi": 61,
          "name": "C#4",
          "ticks": 124560,
          "time": 155.6997405,
          "velocity": 0.6299212598425197
        },
        {
          "duration": 0.2837495270833301,
          "durationTicks": 227,
          "midi": 47,
          "name": "B2",
          "ticks": 124800,
          "time": 155.99973999999997,
          "velocity": 0.6299212598425197
        },
        {
          "duration": 0.2837495270833301,
          "durationTicks": 227,
          "midi": 54,
          "name": "F#3",
          "ticks": 125040,
          "time": 156.2997395,
          "velocity": 0.6299212598425197
        },
        {
          "duration": 0.2837495270833301,
          "durationTicks": 227,
          "midi": 59,
          "name": "B3",
          "ticks": 125280,
          "time": 156.599739,
          "velocity": 0.6299212598425197
        },
        {
          "duration": 0.2837495270833301,
          "durationTicks": 227,
          "midi": 62,
          "name": "D4",
          "ticks": 125520,
          "time": 156.89973849999998,
          "velocity": 0.6299212598425197
        },
        {
          "duration": 0.2837495270833301,
          "durationTicks": 227,
          "midi": 42,
          "name": "F#2",
          "ticks": 125760,
          "time": 157.199738,
          "velocity": 0.6299212598425197
        },
        {
          "duration": 0.2837495270833301,
          "durationTicks": 227,
          "midi": 49,
          "name": "C#3",
          "ticks": 126000,
          "time": 157.49973749999998,
          "velocity": 0.6299212598425197
        },
        {
          "duration": 0.2837495270833301,
          "durationTicks": 227,
          "midi": 54,
          "name": "F#3",
          "ticks": 126240,
          "time": 157.799737,
          "velocity": 0.6299212598425197
        },
        {
          "duration": 0.2837495270833301,
          "durationTicks": 227,
          "midi": 57,
          "name": "A3",
          "ticks": 126480,
          "time": 158.09973649999998,
          "velocity": 0.6299212598425197
        },
        {
          "duration": 0.2837495270833301,
          "durationTicks": 227,
          "midi": 43,
          "name": "G2",
          "ticks": 126720,
          "time": 158.399736,
          "velocity": 0.6299212598425197
        },
        {
          "duration": 0.2837495270833301,
          "durationTicks": 227,
          "midi": 50,
          "name": "D3",
          "ticks": 126960,
          "time": 158.69973549999997,
          "velocity": 0.6299212598425197
        },
        {
          "duration": 0.2837495270833301,
          "durationTicks": 227,
          "midi": 55,
          "name": "G3",
          "ticks": 127200,
          "time": 158.999735,
          "velocity": 0.6299212598425197
        },
        {
          "duration": 0.2837495270833301,
          "durationTicks": 227,
          "midi": 59,
          "name": "B3",
          "ticks": 127440,
          "time": 159.2997345,
          "velocity": 0.6299212598425197
        },
        {
          "duration": 0.2837495270833301,
          "durationTicks": 227,
          "midi": 38,
          "name": "D2",
          "ticks": 127680,
          "time": 159.59973399999998,
          "velocity": 0.6299212598425197
        },
        {
          "duration": 0.2837495270833301,
          "durationTicks": 227,
          "midi": 45,
          "name": "A2",
          "ticks": 127920,
          "time": 159.8997335,
          "velocity": 0.6299212598425197
        },
        {
          "duration": 0.2837495270833301,
          "durationTicks": 227,
          "midi": 50,
          "name": "D3",
          "ticks": 128160,
          "time": 160.19973299999998,
          "velocity": 0.6299212598425197
        },
        {
          "duration": 0.2837495270833301,
          "durationTicks": 227,
          "midi": 54,
          "name": "F#3",
          "ticks": 128400,
          "time": 160.4997325,
          "velocity": 0.6299212598425197
        },
        {
          "duration": 0.2837495270833301,
          "durationTicks": 227,
          "midi": 43,
          "name": "G2",
          "ticks": 128640,
          "time": 160.79973199999998,
          "velocity": 0.6299212598425197
        },
        {
          "duration": 0.2837495270833301,
          "durationTicks": 227,
          "midi": 50,
          "name": "D3",
          "ticks": 128880,
          "time": 161.0997315,
          "velocity": 0.6299212598425197
        },
        {
          "duration": 0.2837495270833301,
          "durationTicks": 227,
          "midi": 55,
          "name": "G3",
          "ticks": 129120,
          "time": 161.39973099999997,
          "velocity": 0.6299212598425197
        },
        {
          "duration": 0.2837495270833301,
          "durationTicks": 227,
          "midi": 59,
          "name": "B3",
          "ticks": 129360,
          "time": 161.6997305,
          "velocity": 0.6299212598425197
        },
        {
          "duration": 0.2837495270833301,
          "durationTicks": 227,
          "midi": 45,
          "name": "A2",
          "ticks": 129600,
          "time": 161.99973,
          "velocity": 0.6299212598425197
        },
        {
          "duration": 0.2837495270833301,
          "durationTicks": 227,
          "midi": 52,
          "name": "E3",
          "ticks": 129840,
          "time": 162.29972949999998,
          "velocity": 0.6299212598425197
        },
        {
          "duration": 0.2837495270833301,
          "durationTicks": 227,
          "midi": 57,
          "name": "A3",
          "ticks": 130080,
          "time": 162.599729,
          "velocity": 0.6299212598425197
        },
        {
          "duration": 0.2837495270833301,
          "durationTicks": 227,
          "midi": 61,
          "name": "C#4",
          "ticks": 130320,
          "time": 162.89972849999998,
          "velocity": 0.6299212598425197
        },
        {
          "duration": 0.2837495270833301,
          "durationTicks": 227,
          "midi": 50,
          "name": "D3",
          "ticks": 130560,
          "time": 163.199728,
          "velocity": 0.6299212598425197
        },
        {
          "duration": 0.2837495270833301,
          "durationTicks": 227,
          "midi": 57,
          "name": "A3",
          "ticks": 130800,
          "time": 163.49972749999998,
          "velocity": 0.6299212598425197
        },
        {
          "duration": 0.2837495270833301,
          "durationTicks": 227,
          "midi": 62,
          "name": "D4",
          "ticks": 131040,
          "time": 163.799727,
          "velocity": 0.6299212598425197
        },
        {
          "duration": 0.2837495270833301,
          "durationTicks": 227,
          "midi": 66,
          "name": "F#4",
          "ticks": 131280,
          "time": 164.09972649999997,
          "velocity": 0.6299212598425197
        },
        {
          "duration": 0.2837495270833301,
          "durationTicks": 227,
          "midi": 45,
          "name": "A2",
          "ticks": 131520,
          "time": 164.399726,
          "velocity": 0.6299212598425197
        },
        {
          "duration": 0.2837495270833301,
          "durationTicks": 227,
          "midi": 52,
          "name": "E3",
          "ticks": 131760,
          "time": 164.6997255,
          "velocity": 0.6299212598425197
        },
        {
          "duration": 0.2837495270833301,
          "durationTicks": 227,
          "midi": 57,
          "name": "A3",
          "ticks": 132000,
          "time": 164.99972499999998,
          "velocity": 0.6299212598425197
        },
        {
          "duration": 0.2837495270833301,
          "durationTicks": 227,
          "midi": 61,
          "name": "C#4",
          "ticks": 132240,
          "time": 165.2997245,
          "velocity": 0.6299212598425197
        },
        {
          "duration": 0.2837495270833301,
          "durationTicks": 227,
          "midi": 47,
          "name": "B2",
          "ticks": 132480,
          "time": 165.59972399999998,
          "velocity": 0.6299212598425197
        },
        {
          "duration": 0.2837495270833301,
          "durationTicks": 227,
          "midi": 54,
          "name": "F#3",
          "ticks": 132720,
          "time": 165.8997235,
          "velocity": 0.6299212598425197
        },
        {
          "duration": 0.2837495270833301,
          "durationTicks": 227,
          "midi": 59,
          "name": "B3",
          "ticks": 132960,
          "time": 166.19972299999998,
          "velocity": 0.6299212598425197
        },
        {
          "duration": 0.2837495270833301,
          "durationTicks": 227,
          "midi": 62,
          "name": "D4",
          "ticks": 133200,
          "time": 166.4997225,
          "velocity": 0.6299212598425197
        },
        {
          "duration": 0.2837495270833301,
          "durationTicks": 227,
          "midi": 42,
          "name": "F#2",
          "ticks": 133440,
          "time": 166.79972199999997,
          "velocity": 0.6299212598425197
        },
        {
          "duration": 0.2837495270833301,
          "durationTicks": 227,
          "midi": 49,
          "name": "C#3",
          "ticks": 133680,
          "time": 167.0997215,
          "velocity": 0.6299212598425197
        },
        {
          "duration": 0.2837495270833301,
          "durationTicks": 227,
          "midi": 54,
          "name": "F#3",
          "ticks": 133920,
          "time": 167.399721,
          "velocity": 0.6299212598425197
        },
        {
          "duration": 0.2837495270833301,
          "durationTicks": 227,
          "midi": 57,
          "name": "A3",
          "ticks": 134160,
          "time": 167.69972049999998,
          "velocity": 0.6299212598425197
        },
        {
          "duration": 0.2837495270833301,
          "durationTicks": 227,
          "midi": 43,
          "name": "G2",
          "ticks": 134400,
          "time": 167.99972,
          "velocity": 0.6299212598425197
        },
        {
          "duration": 0.2837495270833301,
          "durationTicks": 227,
          "midi": 50,
          "name": "D3",
          "ticks": 134640,
          "time": 168.29971949999998,
          "velocity": 0.6299212598425197
        },
        {
          "duration": 0.2837495270833301,
          "durationTicks": 227,
          "midi": 55,
          "name": "G3",
          "ticks": 134880,
          "time": 168.599719,
          "velocity": 0.6299212598425197
        },
        {
          "duration": 0.2837495270833301,
          "durationTicks": 227,
          "midi": 59,
          "name": "B3",
          "ticks": 135120,
          "time": 168.89971849999998,
          "velocity": 0.6299212598425197
        },
        {
          "duration": 0.2837495270833301,
          "durationTicks": 227,
          "midi": 38,
          "name": "D2",
          "ticks": 135360,
          "time": 169.199718,
          "velocity": 0.6299212598425197
        },
        {
          "duration": 0.2837495270833301,
          "durationTicks": 227,
          "midi": 45,
          "name": "A2",
          "ticks": 135600,
          "time": 169.49971749999997,
          "velocity": 0.6299212598425197
        },
        {
          "duration": 0.2837495270833301,
          "durationTicks": 227,
          "midi": 50,
          "name": "D3",
          "ticks": 135840,
          "time": 169.799717,
          "velocity": 0.6299212598425197
        },
        {
          "duration": 0.2837495270833301,
          "durationTicks": 227,
          "midi": 54,
          "name": "F#3",
          "ticks": 136080,
          "time": 170.0997165,
          "velocity": 0.6299212598425197
        },
        {
          "duration": 0.2837495270833301,
          "durationTicks": 227,
          "midi": 43,
          "name": "G2",
          "ticks": 136320,
          "time": 170.39971599999998,
          "velocity": 0.6299212598425197
        },
        {
          "duration": 0.2837495270833301,
          "durationTicks": 227,
          "midi": 50,
          "name": "D3",
          "ticks": 136560,
          "time": 170.6997155,
          "velocity": 0.6299212598425197
        },
        {
          "duration": 0.2837495270833301,
          "durationTicks": 227,
          "midi": 55,
          "name": "G3",
          "ticks": 136800,
          "time": 170.99971499999998,
          "velocity": 0.6299212598425197
        },
        {
          "duration": 0.2837495270833301,
          "durationTicks": 227,
          "midi": 59,
          "name": "B3",
          "ticks": 137040,
          "time": 171.2997145,
          "velocity": 0.6299212598425197
        },
        {
          "duration": 0.2837495270833301,
          "durationTicks": 227,
          "midi": 45,
          "name": "A2",
          "ticks": 137280,
          "time": 171.59971399999998,
          "velocity": 0.6299212598425197
        },
        {
          "duration": 0.2837495270833301,
          "durationTicks": 227,
          "midi": 52,
          "name": "E3",
          "ticks": 137520,
          "time": 171.8997135,
          "velocity": 0.6299212598425197
        },
        {
          "duration": 0.2837495270833301,
          "durationTicks": 227,
          "midi": 57,
          "name": "A3",
          "ticks": 137760,
          "time": 172.19971299999997,
          "velocity": 0.6299212598425197
        },
        {
          "duration": 0.2837495270833301,
          "durationTicks": 227,
          "midi": 61,
          "name": "C#4",
          "ticks": 138000,
          "time": 172.4997125,
          "velocity": 0.6299212598425197
        },
        {
          "duration": 0.2837495270833301,
          "durationTicks": 227,
          "midi": 50,
          "name": "D3",
          "ticks": 138240,
          "time": 172.799712,
          "velocity": 0.6299212598425197
        },
        {
          "duration": 0.2837495270833301,
          "durationTicks": 227,
          "midi": 57,
          "name": "A3",
          "ticks": 138480,
          "time": 173.09971149999998,
          "velocity": 0.6299212598425197
        },
        {
          "duration": 0.2837495270833301,
          "durationTicks": 227,
          "midi": 62,
          "name": "D4",
          "ticks": 138720,
          "time": 173.399711,
          "velocity": 0.6299212598425197
        },
        {
          "duration": 0.2837495270833301,
          "durationTicks": 227,
          "midi": 66,
          "name": "F#4",
          "ticks": 138960,
          "time": 173.69971049999998,
          "velocity": 0.6299212598425197
        },
        {
          "duration": 0.2837495270833301,
          "durationTicks": 227,
          "midi": 45,
          "name": "A2",
          "ticks": 139200,
          "time": 173.99971,
          "velocity": 0.6299212598425197
        },
        {
          "duration": 0.2837495270833301,
          "durationTicks": 227,
          "midi": 52,
          "name": "E3",
          "ticks": 139440,
          "time": 174.29970949999998,
          "velocity": 0.6299212598425197
        },
        {
          "duration": 0.2837495270833301,
          "durationTicks": 227,
          "midi": 57,
          "name": "A3",
          "ticks": 139680,
          "time": 174.599709,
          "velocity": 0.6299212598425197
        },
        {
          "duration": 0.2837495270833301,
          "durationTicks": 227,
          "midi": 61,
          "name": "C#4",
          "ticks": 139920,
          "time": 174.89970849999997,
          "velocity": 0.6299212598425197
        },
        {
          "duration": 0.2837495270833301,
          "durationTicks": 227,
          "midi": 47,
          "name": "B2",
          "ticks": 140160,
          "time": 175.199708,
          "velocity": 0.6299212598425197
        },
        {
          "duration": 0.28374952708335854,
          "durationTicks": 227,
          "midi": 54,
          "name": "F#3",
          "ticks": 140400,
          "time": 175.49970749999997,
          "velocity": 0.6299212598425197
        },
        {
          "duration": 0.2837495270833301,
          "durationTicks": 227,
          "midi": 59,
          "name": "B3",
          "ticks": 140640,
          "time": 175.79970699999998,
          "velocity": 0.6299212598425197
        },
        {
          "duration": 0.2837495270833301,
          "durationTicks": 227,
          "midi": 62,
          "name": "D4",
          "ticks": 140880,
          "time": 176.0997065,
          "velocity": 0.6299212598425197
        },
        {
          "duration": 0.2837495270833301,
          "durationTicks": 227,
          "midi": 42,
          "name": "F#2",
          "ticks": 141120,
          "time": 176.39970599999998,
          "velocity": 0.6299212598425197
        },
        {
          "duration": 0.2837495270833301,
          "durationTicks": 227,
          "midi": 49,
          "name": "C#3",
          "ticks": 141360,
          "time": 176.6997055,
          "velocity": 0.6299212598425197
        },
        {
          "duration": 0.2837495270833301,
          "durationTicks": 227,
          "midi": 54,
          "name": "F#3",
          "ticks": 141600,
          "time": 176.99970499999998,
          "velocity": 0.6299212598425197
        },
        {
          "duration": 0.2837495270833301,
          "durationTicks": 227,
          "midi": 57,
          "name": "A3",
          "ticks": 141840,
          "time": 177.2997045,
          "velocity": 0.6299212598425197
        },
        {
          "duration": 0.2837495270833301,
          "durationTicks": 227,
          "midi": 43,
          "name": "G2",
          "ticks": 142080,
          "time": 177.59970399999997,
          "velocity": 0.6299212598425197
        },
        {
          "duration": 0.2837495270833301,
          "durationTicks": 227,
          "midi": 50,
          "name": "D3",
          "ticks": 142320,
          "time": 177.8997035,
          "velocity": 0.6299212598425197
        },
        {
          "duration": 0.28374952708335854,
          "durationTicks": 227,
          "midi": 55,
          "name": "G3",
          "ticks": 142560,
          "time": 178.19970299999997,
          "velocity": 0.6299212598425197
        },
        {
          "duration": 0.2837495270833301,
          "durationTicks": 227,
          "midi": 59,
          "name": "B3",
          "ticks": 142800,
          "time": 178.49970249999998,
          "velocity": 0.6299212598425197
        },
        {
          "duration": 0.2837495270833301,
          "durationTicks": 227,
          "midi": 38,
          "name": "D2",
          "ticks": 143040,
          "time": 178.799702,
          "velocity": 0.6299212598425197
        },
        {
          "duration": 0.2837495270833301,
          "durationTicks": 227,
          "midi": 45,
          "name": "A2",
          "ticks": 143280,
          "time": 179.09970149999998,
          "velocity": 0.6299212598425197
        },
        {
          "duration": 0.2837495270833301,
          "durationTicks": 227,
          "midi": 50,
          "name": "D3",
          "ticks": 143520,
          "time": 179.399701,
          "velocity": 0.6299212598425197
        },
        {
          "duration": 0.2837495270833301,
          "durationTicks": 227,
          "midi": 54,
          "name": "F#3",
          "ticks": 143760,
          "time": 179.69970049999998,
          "velocity": 0.6299212598425197
        },
        {
          "duration": 0.2837495270833301,
          "durationTicks": 227,
          "midi": 43,
          "name": "G2",
          "ticks": 144000,
          "time": 179.9997,
          "velocity": 0.6299212598425197
        },
        {
          "duration": 0.2837495270833301,
          "durationTicks": 227,
          "midi": 50,
          "name": "D3",
          "ticks": 144240,
          "time": 180.29969949999997,
          "velocity": 0.6299212598425197
        },
        {
          "duration": 0.2837495270833301,
          "durationTicks": 227,
          "midi": 55,
          "name": "G3",
          "ticks": 144480,
          "time": 180.599699,
          "velocity": 0.6299212598425197
        },
        {
          "duration": 0.28374952708335854,
          "durationTicks": 227,
          "midi": 59,
          "name": "B3",
          "ticks": 144720,
          "time": 180.89969849999997,
          "velocity": 0.6299212598425197
        },
        {
          "duration": 0.2837495270833301,
          "durationTicks": 227,
          "midi": 45,
          "name": "A2",
          "ticks": 144960,
          "time": 181.19969799999998,
          "velocity": 0.6299212598425197
        },
        {
          "duration": 0.2837495270833301,
          "durationTicks": 227,
          "midi": 52,
          "name": "E3",
          "ticks": 145200,
          "time": 181.4996975,
          "velocity": 0.6299212598425197
        },
        {
          "duration": 0.2837495270833301,
          "durationTicks": 227,
          "midi": 57,
          "name": "A3",
          "ticks": 145440,
          "time": 181.79969699999998,
          "velocity": 0.6299212598425197
        },
        {
          "duration": 0.2837495270833301,
          "durationTicks": 227,
          "midi": 61,
          "name": "C#4",
          "ticks": 145680,
          "time": 182.0996965,
          "velocity": 0.6299212598425197
        },
        {
          "duration": 0.2837495270833301,
          "durationTicks": 227,
          "midi": 50,
          "name": "D3",
          "ticks": 145920,
          "time": 182.39969599999998,
          "velocity": 0.6299212598425197
        },
        {
          "duration": 0.2837495270833301,
          "durationTicks": 227,
          "midi": 57,
          "name": "A3",
          "ticks": 146160,
          "time": 182.6996955,
          "velocity": 0.6299212598425197
        },
        {
          "duration": 0.2837495270833301,
          "durationTicks": 227,
          "midi": 62,
          "name": "D4",
          "ticks": 146400,
          "time": 182.99969499999997,
          "velocity": 0.6299212598425197
        },
        {
          "duration": 0.2837495270833301,
          "durationTicks": 227,
          "midi": 66,
          "name": "F#4",
          "ticks": 146640,
          "time": 183.2996945,
          "velocity": 0.6299212598425197
        },
        {
          "duration": 0.28374952708335854,
          "durationTicks": 227,
          "midi": 45,
          "name": "A2",
          "ticks": 146880,
          "time": 183.59969399999997,
          "velocity": 0.6299212598425197
        },
        {
          "duration": 0.2837495270833301,
          "durationTicks": 227,
          "midi": 52,
          "name": "E3",
          "ticks": 147120,
          "time": 183.89969349999998,
          "velocity": 0.6299212598425197
        },
        {
          "duration": 0.2837495270833301,
          "durationTicks": 227,
          "midi": 57,
          "name": "A3",
          "ticks": 147360,
          "time": 184.199693,
          "velocity": 0.6299212598425197
        },
        {
          "duration": 0.2837495270833301,
          "durationTicks": 227,
          "midi": 61,
          "name": "C#4",
          "ticks": 147600,
          "time": 184.49969249999998,
          "velocity": 0.6299212598425197
        },
        {
          "duration": 0.2837495270833301,
          "durationTicks": 227,
          "midi": 47,
          "name": "B2",
          "ticks": 147840,
          "time": 184.799692,
          "velocity": 0.6299212598425197
        },
        {
          "duration": 0.2837495270833301,
          "durationTicks": 227,
          "midi": 54,
          "name": "F#3",
          "ticks": 148080,
          "time": 185.09969149999998,
          "velocity": 0.6299212598425197
        },
        {
          "duration": 0.2837495270833301,
          "durationTicks": 227,
          "midi": 59,
          "name": "B3",
          "ticks": 148320,
          "time": 185.399691,
          "velocity": 0.6299212598425197
        },
        {
          "duration": 0.2837495270833301,
          "durationTicks": 227,
          "midi": 62,
          "name": "D4",
          "ticks": 148560,
          "time": 185.69969049999997,
          "velocity": 0.6299212598425197
        },
        {
          "duration": 0.2837495270833301,
          "durationTicks": 227,
          "midi": 42,
          "name": "F#2",
          "ticks": 148800,
          "time": 185.99969,
          "velocity": 0.6299212598425197
        },
        {
          "duration": 0.2837495270833301,
          "durationTicks": 227,
          "midi": 49,
          "name": "C#3",
          "ticks": 149040,
          "time": 186.29968949999997,
          "velocity": 0.6299212598425197
        },
        {
          "duration": 0.2837495270833301,
          "durationTicks": 227,
          "midi": 54,
          "name": "F#3",
          "ticks": 149280,
          "time": 186.59968899999998,
          "velocity": 0.6299212598425197
        },
        {
          "duration": 0.2837495270833301,
          "durationTicks": 227,
          "midi": 57,
          "name": "A3",
          "ticks": 149520,
          "time": 186.8996885,
          "velocity": 0.6299212598425197
        },
        {
          "duration": 0.2837495270833301,
          "durationTicks": 227,
          "midi": 43,
          "name": "G2",
          "ticks": 149760,
          "time": 187.19968799999998,
          "velocity": 0.6299212598425197
        },
        {
          "duration": 0.2837495270833301,
          "durationTicks": 227,
          "midi": 50,
          "name": "D3",
          "ticks": 150000,
          "time": 187.4996875,
          "velocity": 0.6299212598425197
        },
        {
          "duration": 0.2837495270833301,
          "durationTicks": 227,
          "midi": 55,
          "name": "G3",
          "ticks": 150240,
          "time": 187.79968699999998,
          "velocity": 0.6299212598425197
        },
        {
          "duration": 0.2837495270833301,
          "durationTicks": 227,
          "midi": 59,
          "name": "B3",
          "ticks": 150480,
          "time": 188.0996865,
          "velocity": 0.6299212598425197
        },
        {
          "duration": 0.2837495270833301,
          "durationTicks": 227,
          "midi": 38,
          "name": "D2",
          "ticks": 150720,
          "time": 188.39968599999997,
          "velocity": 0.6299212598425197
        },
        {
          "duration": 0.2837495270833301,
          "durationTicks": 227,
          "midi": 45,
          "name": "A2",
          "ticks": 150960,
          "time": 188.6996855,
          "velocity": 0.6299212598425197
        },
        {
          "duration": 0.2837495270833301,
          "durationTicks": 227,
          "midi": 50,
          "name": "D3",
          "ticks": 151200,
          "time": 188.99968499999997,
          "velocity": 0.6299212598425197
        },
        {
          "duration": 0.2837495270833301,
          "durationTicks": 227,
          "midi": 54,
          "name": "F#3",
          "ticks": 151440,
          "time": 189.29968449999998,
          "velocity": 0.6299212598425197
        },
        {
          "duration": 0.2837495270833301,
          "durationTicks": 227,
          "midi": 43,
          "name": "G2",
          "ticks": 151680,
          "time": 189.599684,
          "velocity": 0.6299212598425197
        },
        {
          "duration": 0.2837495270833301,
          "durationTicks": 227,
          "midi": 50,
          "name": "D3",
          "ticks": 151920,
          "time": 189.89968349999998,
          "velocity": 0.6299212598425197
        },
        {
          "duration": 0.2837495270833301,
          "durationTicks": 227,
          "midi": 55,
          "name": "G3",
          "ticks": 152160,
          "time": 190.199683,
          "velocity": 0.6299212598425197
        },
        {
          "duration": 0.2837495270833301,
          "durationTicks": 227,
          "midi": 59,
          "name": "B3",
          "ticks": 152400,
          "time": 190.49968249999998,
          "velocity": 0.6299212598425197
        },
        {
          "duration": 0.2837495270833301,
          "durationTicks": 227,
          "midi": 45,
          "name": "A2",
          "ticks": 152640,
          "time": 190.799682,
          "velocity": 0.6299212598425197
        },
        {
          "duration": 0.2837495270833301,
          "durationTicks": 227,
          "midi": 52,
          "name": "E3",
          "ticks": 152880,
          "time": 191.09968149999997,
          "velocity": 0.6299212598425197
        },
        {
          "duration": 0.2837495270833301,
          "durationTicks": 227,
          "midi": 57,
          "name": "A3",
          "ticks": 153120,
          "time": 191.399681,
          "velocity": 0.6299212598425197
        },
        {
          "duration": 0.2837495270833301,
          "durationTicks": 227,
          "midi": 61,
          "name": "C#4",
          "ticks": 153360,
          "time": 191.69968049999997,
          "velocity": 0.6299212598425197
        },
        {
          "duration": 0.2837495270833301,
          "durationTicks": 227,
          "midi": 50,
          "name": "D3",
          "ticks": 153600,
          "time": 191.99967999999998,
          "velocity": 0.6299212598425197
        },
        {
          "duration": 0.2837495270833301,
          "durationTicks": 227,
          "midi": 57,
          "name": "A3",
          "ticks": 153840,
          "time": 192.2996795,
          "velocity": 0.6299212598425197
        },
        {
          "duration": 0.2837495270833301,
          "durationTicks": 227,
          "midi": 62,
          "name": "D4",
          "ticks": 154080,
          "time": 192.59967899999998,
          "velocity": 0.6299212598425197
        },
        {
          "duration": 0.2837495270833301,
          "durationTicks": 227,
          "midi": 66,
          "name": "F#4",
          "ticks": 154320,
          "time": 192.8996785,
          "velocity": 0.6299212598425197
        },
        {
          "duration": 0.2837495270833301,
          "durationTicks": 227,
          "midi": 45,
          "name": "A2",
          "ticks": 154560,
          "time": 193.19967799999998,
          "velocity": 0.6299212598425197
        },
        {
          "duration": 0.2837495270833301,
          "durationTicks": 227,
          "midi": 52,
          "name": "E3",
          "ticks": 154800,
          "time": 193.4996775,
          "velocity": 0.6299212598425197
        },
        {
          "duration": 0.2837495270833301,
          "durationTicks": 227,
          "midi": 57,
          "name": "A3",
          "ticks": 155040,
          "time": 193.79967699999997,
          "velocity": 0.6299212598425197
        },
        {
          "duration": 0.2837495270833301,
          "durationTicks": 227,
          "midi": 61,
          "name": "C#4",
          "ticks": 155280,
          "time": 194.0996765,
          "velocity": 0.6299212598425197
        },
        {
          "duration": 0.2837495270833301,
          "durationTicks": 227,
          "midi": 47,
          "name": "B2",
          "ticks": 155520,
          "time": 194.39967599999997,
          "velocity": 0.6299212598425197
        },
        {
          "duration": 0.2837495270833301,
          "durationTicks": 227,
          "midi": 54,
          "name": "F#3",
          "ticks": 155760,
          "time": 194.69967549999998,
          "velocity": 0.6299212598425197
        },
        {
          "duration": 0.2837495270833301,
          "durationTicks": 227,
          "midi": 59,
          "name": "B3",
          "ticks": 156000,
          "time": 194.999675,
          "velocity": 0.6299212598425197
        },
        {
          "duration": 0.2837495270833301,
          "durationTicks": 227,
          "midi": 62,
          "name": "D4",
          "ticks": 156240,
          "time": 195.29967449999998,
          "velocity": 0.6299212598425197
        },
        {
          "duration": 0.2837495270833301,
          "durationTicks": 227,
          "midi": 42,
          "name": "F#2",
          "ticks": 156480,
          "time": 195.599674,
          "velocity": 0.6299212598425197
        },
        {
          "duration": 0.2837495270833301,
          "durationTicks": 227,
          "midi": 49,
          "name": "C#3",
          "ticks": 156720,
          "time": 195.89967349999998,
          "velocity": 0.6299212598425197
        },
        {
          "duration": 0.2837495270833301,
          "durationTicks": 227,
          "midi": 54,
          "name": "F#3",
          "ticks": 156960,
          "time": 196.199673,
          "velocity": 0.6299212598425197
        },
        {
          "duration": 0.2837495270833301,
          "durationTicks": 227,
          "midi": 57,
          "name": "A3",
          "ticks": 157200,
          "time": 196.49967249999997,
          "velocity": 0.6299212598425197
        },
        {
          "duration": 0.2837495270833301,
          "durationTicks": 227,
          "midi": 43,
          "name": "G2",
          "ticks": 157440,
          "time": 196.799672,
          "velocity": 0.6299212598425197
        },
        {
          "duration": 0.2837495270833301,
          "durationTicks": 227,
          "midi": 50,
          "name": "D3",
          "ticks": 157680,
          "time": 197.09967149999997,
          "velocity": 0.6299212598425197
        },
        {
          "duration": 0.2837495270833301,
          "durationTicks": 227,
          "midi": 55,
          "name": "G3",
          "ticks": 157920,
          "time": 197.39967099999998,
          "velocity": 0.6299212598425197
        },
        {
          "duration": 0.2837495270833301,
          "durationTicks": 227,
          "midi": 59,
          "name": "B3",
          "ticks": 158160,
          "time": 197.6996705,
          "velocity": 0.6299212598425197
        },
        {
          "duration": 0.2837495270833301,
          "durationTicks": 227,
          "midi": 38,
          "name": "D2",
          "ticks": 158400,
          "time": 197.99966999999998,
          "velocity": 0.6299212598425197
        },
        {
          "duration": 0.2837495270833301,
          "durationTicks": 227,
          "midi": 45,
          "name": "A2",
          "ticks": 158640,
          "time": 198.2996695,
          "velocity": 0.6299212598425197
        },
        {
          "duration": 0.2837495270833301,
          "durationTicks": 227,
          "midi": 50,
          "name": "D3",
          "ticks": 158880,
          "time": 198.59966899999998,
          "velocity": 0.6299212598425197
        },
        {
          "duration": 0.2837495270833301,
          "durationTicks": 227,
          "midi": 54,
          "name": "F#3",
          "ticks": 159120,
          "time": 198.8996685,
          "velocity": 0.6299212598425197
        },
        {
          "duration": 0.2837495270833301,
          "durationTicks": 227,
          "midi": 43,
          "name": "G2",
          "ticks": 159360,
          "time": 199.19966799999997,
          "velocity": 0.6299212598425197
        },
        {
          "duration": 0.2837495270833301,
          "durationTicks": 227,
          "midi": 50,
          "name": "D3",
          "ticks": 159600,
          "time": 199.4996675,
          "velocity": 0.6299212598425197
        },
        {
          "duration": 0.2837495270833301,
          "durationTicks": 227,
          "midi": 55,
          "name": "G3",
          "ticks": 159840,
          "time": 199.79966699999997,
          "velocity": 0.6299212598425197
        },
        {
          "duration": 0.2837495270833301,
          "durationTicks": 227,
          "midi": 59,
          "name": "B3",
          "ticks": 160080,
          "time": 200.09966649999998,
          "velocity": 0.6299212598425197
        },
        {
          "duration": 0.2837495270833301,
          "durationTicks": 227,
          "midi": 45,
          "name": "A2",
          "ticks": 160320,
          "time": 200.399666,
          "velocity": 0.6299212598425197
        },
        {
          "duration": 0.2837495270833301,
          "durationTicks": 227,
          "midi": 52,
          "name": "E3",
          "ticks": 160560,
          "time": 200.69966549999998,
          "velocity": 0.6299212598425197
        },
        {
          "duration": 0.2837495270833301,
          "durationTicks": 227,
          "midi": 57,
          "name": "A3",
          "ticks": 160800,
          "time": 200.999665,
          "velocity": 0.6299212598425197
        },
        {
          "duration": 0.2837495270833301,
          "durationTicks": 227,
          "midi": 61,
          "name": "C#4",
          "ticks": 161040,
          "time": 201.29966449999998,
          "velocity": 0.6299212598425197
        },
        {
          "duration": 0.2837495270833301,
          "durationTicks": 227,
          "midi": 50,
          "name": "D3",
          "ticks": 161280,
          "time": 201.599664,
          "velocity": 0.6299212598425197
        },
        {
          "duration": 0.2837495270833301,
          "durationTicks": 227,
          "midi": 57,
          "name": "A3",
          "ticks": 161520,
          "time": 201.89966349999997,
          "velocity": 0.6299212598425197
        },
        {
          "duration": 0.2837495270833301,
          "durationTicks": 227,
          "midi": 62,
          "name": "D4",
          "ticks": 161760,
          "time": 202.199663,
          "velocity": 0.6299212598425197
        },
        {
          "duration": 0.2837495270833301,
          "durationTicks": 227,
          "midi": 66,
          "name": "F#4",
          "ticks": 162000,
          "time": 202.49966249999997,
          "velocity": 0.6299212598425197
        },
        {
          "duration": 0.2837495270833301,
          "durationTicks": 227,
          "midi": 45,
          "name": "A2",
          "ticks": 162240,
          "time": 202.79966199999998,
          "velocity": 0.6299212598425197
        },
        {
          "duration": 0.2837495270833301,
          "durationTicks": 227,
          "midi": 52,
          "name": "E3",
          "ticks": 162480,
          "time": 203.0996615,
          "velocity": 0.6299212598425197
        },
        {
          "duration": 0.2837495270833301,
          "durationTicks": 227,
          "midi": 57,
          "name": "A3",
          "ticks": 162720,
          "time": 203.39966099999998,
          "velocity": 0.6299212598425197
        },
        {
          "duration": 0.2837495270833301,
          "durationTicks": 227,
          "midi": 61,
          "name": "C#4",
          "ticks": 162960,
          "time": 203.6996605,
          "velocity": 0.6299212598425197
        },
        {
          "duration": 0.2837495270833301,
          "durationTicks": 227,
          "midi": 47,
          "name": "B2",
          "ticks": 163200,
          "time": 203.99965999999998,
          "velocity": 0.6299212598425197
        },
        {
          "duration": 0.2837495270833301,
          "durationTicks": 227,
          "midi": 54,
          "name": "F#3",
          "ticks": 163440,
          "time": 204.2996595,
          "velocity": 0.6299212598425197
        },
        {
          "duration": 0.2837495270833301,
          "durationTicks": 227,
          "midi": 59,
          "name": "B3",
          "ticks": 163680,
          "time": 204.59965899999997,
          "velocity": 0.6299212598425197
        },
        {
          "duration": 0.2837495270833301,
          "durationTicks": 227,
          "midi": 62,
          "name": "D4",
          "ticks": 163920,
          "time": 204.8996585,
          "velocity": 0.6299212598425197
        },
        {
          "duration": 0.2837495270833301,
          "durationTicks": 227,
          "midi": 42,
          "name": "F#2",
          "ticks": 164160,
          "time": 205.19965799999997,
          "velocity": 0.6299212598425197
        },
        {
          "duration": 0.2837495270833301,
          "durationTicks": 227,
          "midi": 49,
          "name": "C#3",
          "ticks": 164400,
          "time": 205.49965749999998,
          "velocity": 0.6299212598425197
        },
        {
          "duration": 0.2837495270833301,
          "durationTicks": 227,
          "midi": 54,
          "name": "F#3",
          "ticks": 164640,
          "time": 205.799657,
          "velocity": 0.6299212598425197
        },
        {
          "duration": 0.2837495270833301,
          "durationTicks": 227,
          "midi": 57,
          "name": "A3",
          "ticks": 164880,
          "time": 206.09965649999998,
          "velocity": 0.6299212598425197
        },
        {
          "duration": 0.2837495270833301,
          "durationTicks": 227,
          "midi": 43,
          "name": "G2",
          "ticks": 165120,
          "time": 206.399656,
          "velocity": 0.6299212598425197
        },
        {
          "duration": 0.2837495270833301,
          "durationTicks": 227,
          "midi": 50,
          "name": "D3",
          "ticks": 165360,
          "time": 206.69965549999998,
          "velocity": 0.6299212598425197
        },
        {
          "duration": 0.2837495270833301,
          "durationTicks": 227,
          "midi": 55,
          "name": "G3",
          "ticks": 165600,
          "time": 206.999655,
          "velocity": 0.6299212598425197
        },
        {
          "duration": 0.2837495270833301,
          "durationTicks": 227,
          "midi": 59,
          "name": "B3",
          "ticks": 165840,
          "time": 207.29965449999997,
          "velocity": 0.6299212598425197
        },
        {
          "duration": 0.2837495270833301,
          "durationTicks": 227,
          "midi": 38,
          "name": "D2",
          "ticks": 166080,
          "time": 207.599654,
          "velocity": 0.6299212598425197
        },
        {
          "duration": 0.2837495270833301,
          "durationTicks": 227,
          "midi": 45,
          "name": "A2",
          "ticks": 166320,
          "time": 207.89965349999997,
          "velocity": 0.6299212598425197
        },
        {
          "duration": 0.2837495270833301,
          "durationTicks": 227,
          "midi": 50,
          "name": "D3",
          "ticks": 166560,
          "time": 208.19965299999998,
          "velocity": 0.6299212598425197
        },
        {
          "duration": 0.2837495270833301,
          "durationTicks": 227,
          "midi": 54,
          "name": "F#3",
          "ticks": 166800,
          "time": 208.4996525,
          "velocity": 0.6299212598425197
        },
        {
          "duration": 0.2837495270833301,
          "durationTicks": 227,
          "midi": 43,
          "name": "G2",
          "ticks": 167040,
          "time": 208.79965199999998,
          "velocity": 0.6299212598425197
        },
        {
          "duration": 0.2837495270833301,
          "durationTicks": 227,
          "midi": 50,
          "name": "D3",
          "ticks": 167280,
          "time": 209.0996515,
          "velocity": 0.6299212598425197
        },
        {
          "duration": 0.2837495270833301,
          "durationTicks": 227,
          "midi": 55,
          "name": "G3",
          "ticks": 167520,
          "time": 209.39965099999998,
          "velocity": 0.6299212598425197
        },
        {
          "duration": 0.2837495270833301,
          "durationTicks": 227,
          "midi": 59,
          "name": "B3",
          "ticks": 167760,
          "time": 209.6996505,
          "velocity": 0.6299212598425197
        },
        {
          "duration": 0.2837495270833301,
          "durationTicks": 227,
          "midi": 45,
          "name": "A2",
          "ticks": 168000,
          "time": 209.99964999999997,
          "velocity": 0.6299212598425197
        },
        {
          "duration": 0.2837495270833301,
          "durationTicks": 227,
          "midi": 52,
          "name": "E3",
          "ticks": 168240,
          "time": 210.2996495,
          "velocity": 0.6299212598425197
        },
        {
          "duration": 0.2837495270833301,
          "durationTicks": 227,
          "midi": 57,
          "name": "A3",
          "ticks": 168480,
          "time": 210.59964899999997,
          "velocity": 0.6299212598425197
        },
        {
          "duration": 0.2837495270833301,
          "durationTicks": 227,
          "midi": 61,
          "name": "C#4",
          "ticks": 168720,
          "time": 210.89964849999998,
          "velocity": 0.6299212598425197
        },
        {
          "duration": 0.28374952708335854,
          "durationTicks": 227,
          "midi": 50,
          "name": "D3",
          "ticks": 168960,
          "time": 211.19964799999997,
          "velocity": 0.7559055118110236
        },
        {
          "duration": 0.2837495270833301,
          "durationTicks": 227,
          "midi": 57,
          "name": "A3",
          "ticks": 169200,
          "time": 211.49964749999998,
          "velocity": 0.6614173228346457
        },
        {
          "duration": 0.2837495270833301,
          "durationTicks": 227,
          "midi": 62,
          "name": "D4",
          "ticks": 169440,
          "time": 211.799647,
          "velocity": 0.6299212598425197
        },
        {
          "duration": 0.2837495270833301,
          "durationTicks": 227,
          "midi": 66,
          "name": "F#4",
          "ticks": 169680,
          "time": 212.09964649999998,
          "velocity": 0.6299212598425197
        },
        {
          "duration": 0.2837495270833301,
          "durationTicks": 227,
          "midi": 45,
          "name": "A2",
          "ticks": 169920,
          "time": 212.399646,
          "velocity": 0.6299212598425197
        },
        {
          "duration": 0.2837495270833301,
          "durationTicks": 227,
          "midi": 52,
          "name": "E3",
          "ticks": 170160,
          "time": 212.69964549999997,
          "velocity": 0.6299212598425197
        },
        {
          "duration": 0.2837495270833301,
          "durationTicks": 227,
          "midi": 57,
          "name": "A3",
          "ticks": 170400,
          "time": 212.999645,
          "velocity": 0.6299212598425197
        },
        {
          "duration": 0.2837495270833301,
          "durationTicks": 227,
          "midi": 61,
          "name": "C#4",
          "ticks": 170640,
          "time": 213.29964449999997,
          "velocity": 0.6299212598425197
        },
        {
          "duration": 0.2837495270833301,
          "durationTicks": 227,
          "midi": 47,
          "name": "B2",
          "ticks": 170880,
          "time": 213.59964399999998,
          "velocity": 0.6299212598425197
        },
        {
          "duration": 0.28374952708335854,
          "durationTicks": 227,
          "midi": 54,
          "name": "F#3",
          "ticks": 171120,
          "time": 213.89964349999997,
          "velocity": 0.6299212598425197
        },
        {
          "duration": 0.2837495270833301,
          "durationTicks": 227,
          "midi": 59,
          "name": "B3",
          "ticks": 171360,
          "time": 214.19964299999998,
          "velocity": 0.6299212598425197
        },
        {
          "duration": 0.2837495270833301,
          "durationTicks": 227,
          "midi": 62,
          "name": "D4",
          "ticks": 171600,
          "time": 214.4996425,
          "velocity": 0.6299212598425197
        },
        {
          "duration": 0.2837495270833301,
          "durationTicks": 227,
          "midi": 42,
          "name": "F#2",
          "ticks": 171840,
          "time": 214.79964199999998,
          "velocity": 0.6299212598425197
        },
        {
          "duration": 0.2837495270833301,
          "durationTicks": 227,
          "midi": 49,
          "name": "C#3",
          "ticks": 172080,
          "time": 215.0996415,
          "velocity": 0.6299212598425197
        },
        {
          "duration": 0.2837495270833301,
          "durationTicks": 227,
          "midi": 54,
          "name": "F#3",
          "ticks": 172320,
          "time": 215.39964099999997,
          "velocity": 0.6299212598425197
        },
        {
          "duration": 0.2837495270833301,
          "durationTicks": 227,
          "midi": 57,
          "name": "A3",
          "ticks": 172560,
          "time": 215.6996405,
          "velocity": 0.6299212598425197
        },
        {
          "duration": 0.2837495270833301,
          "durationTicks": 227,
          "midi": 43,
          "name": "G2",
          "ticks": 172800,
          "time": 215.99963999999997,
          "velocity": 0.6299212598425197
        },
        {
          "duration": 0.2837495270833301,
          "durationTicks": 227,
          "midi": 50,
          "name": "D3",
          "ticks": 173040,
          "time": 216.29963949999998,
          "velocity": 0.6299212598425197
        },
        {
          "duration": 0.28374952708335854,
          "durationTicks": 227,
          "midi": 55,
          "name": "G3",
          "ticks": 173280,
          "time": 216.59963899999997,
          "velocity": 0.6299212598425197
        },
        {
          "duration": 0.2837495270833301,
          "durationTicks": 227,
          "midi": 59,
          "name": "B3",
          "ticks": 173520,
          "time": 216.89963849999998,
          "velocity": 0.6299212598425197
        },
        {
          "duration": 0.2837495270833301,
          "durationTicks": 227,
          "midi": 38,
          "name": "D2",
          "ticks": 173760,
          "time": 217.199638,
          "velocity": 0.6299212598425197
        },
        {
          "duration": 0.2837495270833301,
          "durationTicks": 227,
          "midi": 45,
          "name": "A2",
          "ticks": 174000,
          "time": 217.49963749999998,
          "velocity": 0.6299212598425197
        },
        {
          "duration": 0.2837495270833301,
          "durationTicks": 227,
          "midi": 50,
          "name": "D3",
          "ticks": 174240,
          "time": 217.799637,
          "velocity": 0.6299212598425197
        },
        {
          "duration": 0.2837495270833301,
          "durationTicks": 227,
          "midi": 54,
          "name": "F#3",
          "ticks": 174480,
          "time": 218.09963649999997,
          "velocity": 0.6299212598425197
        },
        {
          "duration": 0.2837495270833301,
          "durationTicks": 227,
          "midi": 43,
          "name": "G2",
          "ticks": 174720,
          "time": 218.399636,
          "velocity": 0.6299212598425197
        },
        {
          "duration": 0.2837495270833301,
          "durationTicks": 227,
          "midi": 50,
          "name": "D3",
          "ticks": 174960,
          "time": 218.69963549999997,
          "velocity": 0.6299212598425197
        },
        {
          "duration": 0.2837495270833301,
          "durationTicks": 227,
          "midi": 55,
          "name": "G3",
          "ticks": 175200,
          "time": 218.99963499999998,
          "velocity": 0.6299212598425197
        },
        {
          "duration": 0.28374952708335854,
          "durationTicks": 227,
          "midi": 59,
          "name": "B3",
          "ticks": 175440,
          "time": 219.29963449999997,
          "velocity": 0.6299212598425197
        },
        {
          "duration": 0.2837495270833301,
          "durationTicks": 227,
          "midi": 45,
          "name": "A2",
          "ticks": 175680,
          "time": 219.59963399999998,
          "velocity": 0.6299212598425197
        },
        {
          "duration": 0.2837495270833301,
          "durationTicks": 227,
          "midi": 52,
          "name": "E3",
          "ticks": 175920,
          "time": 219.8996335,
          "velocity": 0.6299212598425197
        },
        {
          "duration": 0.2837495270833301,
          "durationTicks": 227,
          "midi": 57,
          "name": "A3",
          "ticks": 176160,
          "time": 220.19963299999998,
          "velocity": 0.6299212598425197
        },
        {
          "duration": 0.2837495270833301,
          "durationTicks": 227,
          "midi": 61,
          "name": "C#4",
          "ticks": 176400,
          "time": 220.4996325,
          "velocity": 0.6299212598425197
        },
        {
          "duration": 0.2837495270833301,
          "durationTicks": 227,
          "midi": 50,
          "name": "D3",
          "ticks": 176640,
          "time": 220.79963199999997,
          "velocity": 0.6299212598425197
        },
        {
          "duration": 0.2837495270833301,
          "durationTicks": 227,
          "midi": 57,
          "name": "A3",
          "ticks": 176880,
          "time": 221.0996315,
          "velocity": 0.6299212598425197
        },
        {
          "duration": 0.2837495270833301,
          "durationTicks": 227,
          "midi": 62,
          "name": "D4",
          "ticks": 177120,
          "time": 221.39963099999997,
          "velocity": 0.6299212598425197
        },
        {
          "duration": 0.2837495270833301,
          "durationTicks": 227,
          "midi": 66,
          "name": "F#4",
          "ticks": 177360,
          "time": 221.69963049999998,
          "velocity": 0.6299212598425197
        },
        {
          "duration": 0.28374952708335854,
          "durationTicks": 227,
          "midi": 45,
          "name": "A2",
          "ticks": 177600,
          "time": 221.99962999999997,
          "velocity": 0.6299212598425197
        },
        {
          "duration": 0.2837495270833301,
          "durationTicks": 227,
          "midi": 52,
          "name": "E3",
          "ticks": 177840,
          "time": 222.29962949999998,
          "velocity": 0.6299212598425197
        },
        {
          "duration": 0.2837495270833301,
          "durationTicks": 227,
          "midi": 57,
          "name": "A3",
          "ticks": 178080,
          "time": 222.599629,
          "velocity": 0.6299212598425197
        },
        {
          "duration": 0.2837495270833301,
          "durationTicks": 227,
          "midi": 61,
          "name": "C#4",
          "ticks": 178320,
          "time": 222.89962849999998,
          "velocity": 0.6299212598425197
        },
        {
          "duration": 0.2837495270833301,
          "durationTicks": 227,
          "midi": 47,
          "name": "B2",
          "ticks": 178560,
          "time": 223.199628,
          "velocity": 0.6299212598425197
        },
        {
          "duration": 0.2837495270833301,
          "durationTicks": 227,
          "midi": 54,
          "name": "F#3",
          "ticks": 178800,
          "time": 223.49962749999997,
          "velocity": 0.6299212598425197
        },
        {
          "duration": 0.2837495270833301,
          "durationTicks": 227,
          "midi": 59,
          "name": "B3",
          "ticks": 179040,
          "time": 223.799627,
          "velocity": 0.6299212598425197
        },
        {
          "duration": 0.2837495270833301,
          "durationTicks": 227,
          "midi": 62,
          "name": "D4",
          "ticks": 179280,
          "time": 224.09962649999997,
          "velocity": 0.6299212598425197
        },
        {
          "duration": 0.2837495270833301,
          "durationTicks": 227,
          "midi": 42,
          "name": "F#2",
          "ticks": 179520,
          "time": 224.39962599999998,
          "velocity": 0.6299212598425197
        },
        {
          "duration": 0.2837495270833301,
          "durationTicks": 227,
          "midi": 49,
          "name": "C#3",
          "ticks": 179760,
          "time": 224.69962549999997,
          "velocity": 0.6299212598425197
        },
        {
          "duration": 0.2837495270833301,
          "durationTicks": 227,
          "midi": 54,
          "name": "F#3",
          "ticks": 180000,
          "time": 224.99962499999998,
          "velocity": 0.6299212598425197
        },
        {
          "duration": 0.2837495270833301,
          "durationTicks": 227,
          "midi": 57,
          "name": "A3",
          "ticks": 180240,
          "time": 225.2996245,
          "velocity": 0.6299212598425197
        },
        {
          "duration": 0.2837495270833301,
          "durationTicks": 227,
          "midi": 43,
          "name": "G2",
          "ticks": 180480,
          "time": 225.59962399999998,
          "velocity": 0.6299212598425197
        },
        {
          "duration": 0.2837495270833301,
          "durationTicks": 227,
          "midi": 50,
          "name": "D3",
          "ticks": 180720,
          "time": 225.8996235,
          "velocity": 0.6299212598425197
        },
        {
          "duration": 0.2837495270833301,
          "durationTicks": 227,
          "midi": 55,
          "name": "G3",
          "ticks": 180960,
          "time": 226.19962299999997,
          "velocity": 0.6299212598425197
        },
        {
          "duration": 0.2837495270833301,
          "durationTicks": 227,
          "midi": 59,
          "name": "B3",
          "ticks": 181200,
          "time": 226.4996225,
          "velocity": 0.6299212598425197
        },
        {
          "duration": 0.2837495270833301,
          "durationTicks": 227,
          "midi": 38,
          "name": "D2",
          "ticks": 181440,
          "time": 226.79962199999997,
          "velocity": 0.6299212598425197
        },
        {
          "duration": 0.2837495270833301,
          "durationTicks": 227,
          "midi": 45,
          "name": "A2",
          "ticks": 181680,
          "time": 227.09962149999998,
          "velocity": 0.6299212598425197
        },
        {
          "duration": 0.2837495270833301,
          "durationTicks": 227,
          "midi": 50,
          "name": "D3",
          "ticks": 181920,
          "time": 227.39962099999997,
          "velocity": 0.6299212598425197
        },
        {
          "duration": 0.2837495270833301,
          "durationTicks": 227,
          "midi": 54,
          "name": "F#3",
          "ticks": 182160,
          "time": 227.69962049999998,
          "velocity": 0.6299212598425197
        },
        {
          "duration": 0.2837495270833301,
          "durationTicks": 227,
          "midi": 43,
          "name": "G2",
          "ticks": 182400,
          "time": 227.99962,
          "velocity": 0.6299212598425197
        },
        {
          "duration": 0.2837495270833301,
          "durationTicks": 227,
          "midi": 50,
          "name": "D3",
          "ticks": 182640,
          "time": 228.29961949999998,
          "velocity": 0.6299212598425197
        },
        {
          "duration": 0.2837495270833301,
          "durationTicks": 227,
          "midi": 55,
          "name": "G3",
          "ticks": 182880,
          "time": 228.599619,
          "velocity": 0.6299212598425197
        },
        {
          "duration": 0.2837495270833301,
          "durationTicks": 227,
          "midi": 59,
          "name": "B3",
          "ticks": 183120,
          "time": 228.89961849999997,
          "velocity": 0.6299212598425197
        },
        {
          "duration": 0.2837495270833301,
          "durationTicks": 227,
          "midi": 45,
          "name": "A2",
          "ticks": 183360,
          "time": 229.199618,
          "velocity": 0.6299212598425197
        },
        {
          "duration": 0.2837495270833301,
          "durationTicks": 227,
          "midi": 52,
          "name": "E3",
          "ticks": 183600,
          "time": 229.49961749999997,
          "velocity": 0.6299212598425197
        },
        {
          "duration": 0.2837495270833301,
          "durationTicks": 227,
          "midi": 57,
          "name": "A3",
          "ticks": 183840,
          "time": 229.79961699999998,
          "velocity": 0.6299212598425197
        },
        {
          "duration": 0.2837495270833301,
          "durationTicks": 227,
          "midi": 61,
          "name": "C#4",
          "ticks": 184080,
          "time": 230.09961649999997,
          "velocity": 0.6299212598425197
        },
        {
          "duration": 0.2837495270833301,
          "durationTicks": 227,
          "midi": 50,
          "name": "D3",
          "ticks": 184320,
          "time": 230.39961599999998,
          "velocity": 0.6299212598425197
        },
        {
          "duration": 0.2837495270833301,
          "durationTicks": 227,
          "midi": 57,
          "name": "A3",
          "ticks": 184560,
          "time": 230.6996155,
          "velocity": 0.6299212598425197
        },
        {
          "duration": 0.2837495270833301,
          "durationTicks": 227,
          "midi": 62,
          "name": "D4",
          "ticks": 184800,
          "time": 230.99961499999998,
          "velocity": 0.6299212598425197
        },
        {
          "duration": 0.2837495270833301,
          "durationTicks": 227,
          "midi": 66,
          "name": "F#4",
          "ticks": 185040,
          "time": 231.2996145,
          "velocity": 0.6299212598425197
        },
        {
          "duration": 0.2837495270833301,
          "durationTicks": 227,
          "midi": 45,
          "name": "A2",
          "ticks": 185280,
          "time": 231.59961399999997,
          "velocity": 0.6299212598425197
        },
        {
          "duration": 0.2837495270833301,
          "durationTicks": 227,
          "midi": 52,
          "name": "E3",
          "ticks": 185520,
          "time": 231.8996135,
          "velocity": 0.6299212598425197
        },
        {
          "duration": 0.2837495270833301,
          "durationTicks": 227,
          "midi": 57,
          "name": "A3",
          "ticks": 185760,
          "time": 232.19961299999997,
          "velocity": 0.6299212598425197
        },
        {
          "duration": 0.2837495270833301,
          "durationTicks": 227,
          "midi": 61,
          "name": "C#4",
          "ticks": 186000,
          "time": 232.49961249999998,
          "velocity": 0.6299212598425197
        },
        {
          "duration": 0.2837495270833301,
          "durationTicks": 227,
          "midi": 47,
          "name": "B2",
          "ticks": 186240,
          "time": 232.79961199999997,
          "velocity": 0.6299212598425197
        },
        {
          "duration": 0.2837495270833301,
          "durationTicks": 227,
          "midi": 54,
          "name": "F#3",
          "ticks": 186480,
          "time": 233.09961149999998,
          "velocity": 0.6299212598425197
        },
        {
          "duration": 0.2837495270833301,
          "durationTicks": 227,
          "midi": 59,
          "name": "B3",
          "ticks": 186720,
          "time": 233.399611,
          "velocity": 0.6299212598425197
        },
        {
          "duration": 0.2837495270833301,
          "durationTicks": 227,
          "midi": 62,
          "name": "D4",
          "ticks": 186960,
          "time": 233.69961049999998,
          "velocity": 0.6299212598425197
        },
        {
          "duration": 0.2837495270833301,
          "durationTicks": 227,
          "midi": 42,
          "name": "F#2",
          "ticks": 187200,
          "time": 233.99961,
          "velocity": 0.6299212598425197
        },
        {
          "duration": 0.2837495270833301,
          "durationTicks": 227,
          "midi": 49,
          "name": "C#3",
          "ticks": 187440,
          "time": 234.29960949999997,
          "velocity": 0.6299212598425197
        },
        {
          "duration": 0.2837495270833301,
          "durationTicks": 227,
          "midi": 54,
          "name": "F#3",
          "ticks": 187680,
          "time": 234.599609,
          "velocity": 0.6299212598425197
        },
        {
          "duration": 0.2837495270833301,
          "durationTicks": 227,
          "midi": 57,
          "name": "A3",
          "ticks": 187920,
          "time": 234.89960849999997,
          "velocity": 0.6299212598425197
        },
        {
          "duration": 0.2837495270833301,
          "durationTicks": 227,
          "midi": 43,
          "name": "G2",
          "ticks": 188160,
          "time": 235.19960799999998,
          "velocity": 0.6299212598425197
        },
        {
          "duration": 0.2837495270833301,
          "durationTicks": 227,
          "midi": 50,
          "name": "D3",
          "ticks": 188400,
          "time": 235.49960749999997,
          "velocity": 0.6299212598425197
        },
        {
          "duration": 0.2837495270833301,
          "durationTicks": 227,
          "midi": 55,
          "name": "G3",
          "ticks": 188640,
          "time": 235.79960699999998,
          "velocity": 0.6299212598425197
        },
        {
          "duration": 0.2837495270833301,
          "durationTicks": 227,
          "midi": 59,
          "name": "B3",
          "ticks": 188880,
          "time": 236.0996065,
          "velocity": 0.6299212598425197
        },
        {
          "duration": 0.2837495270833301,
          "durationTicks": 227,
          "midi": 38,
          "name": "D2",
          "ticks": 189120,
          "time": 236.39960599999998,
          "velocity": 0.6299212598425197
        },
        {
          "duration": 0.2837495270833301,
          "durationTicks": 227,
          "midi": 45,
          "name": "A2",
          "ticks": 189360,
          "time": 236.6996055,
          "velocity": 0.6299212598425197
        },
        {
          "duration": 0.2837495270833301,
          "durationTicks": 227,
          "midi": 50,
          "name": "D3",
          "ticks": 189600,
          "time": 236.99960499999997,
          "velocity": 0.6299212598425197
        },
        {
          "duration": 0.2837495270833301,
          "durationTicks": 227,
          "midi": 54,
          "name": "F#3",
          "ticks": 189840,
          "time": 237.2996045,
          "velocity": 0.6299212598425197
        },
        {
          "duration": 0.2837495270833301,
          "durationTicks": 227,
          "midi": 43,
          "name": "G2",
          "ticks": 190080,
          "time": 237.59960399999997,
          "velocity": 0.6299212598425197
        },
        {
          "duration": 0.2837495270833301,
          "durationTicks": 227,
          "midi": 50,
          "name": "D3",
          "ticks": 190320,
          "time": 237.89960349999998,
          "velocity": 0.6299212598425197
        },
        {
          "duration": 0.2837495270833301,
          "durationTicks": 227,
          "midi": 55,
          "name": "G3",
          "ticks": 190560,
          "time": 238.19960299999997,
          "velocity": 0.6299212598425197
        },
        {
          "duration": 0.2837495270833301,
          "durationTicks": 227,
          "midi": 59,
          "name": "B3",
          "ticks": 190800,
          "time": 238.49960249999998,
          "velocity": 0.6299212598425197
        },
        {
          "duration": 0.2837495270833301,
          "durationTicks": 227,
          "midi": 45,
          "name": "A2",
          "ticks": 191040,
          "time": 238.799602,
          "velocity": 0.6299212598425197
        },
        {
          "duration": 0.2837495270833301,
          "durationTicks": 227,
          "midi": 52,
          "name": "E3",
          "ticks": 191280,
          "time": 239.09960149999998,
          "velocity": 0.6299212598425197
        },
        {
          "duration": 0.2837495270833301,
          "durationTicks": 227,
          "midi": 57,
          "name": "A3",
          "ticks": 191520,
          "time": 239.399601,
          "velocity": 0.6299212598425197
        },
        {
          "duration": 1.4237476270833156,
          "durationTicks": 1139,
          "midi": 61,
          "name": "C#4",
          "ticks": 191760,
          "time": 239.69960049999997,
          "velocity": 0.6299212598425197
        },
        {
          "duration": 3.418744302083354,
          "durationTicks": 2735,
          "midi": 38,
          "name": "D2",
          "ticks": 192960,
          "time": 241.19959799999998,
          "velocity": 0.3858267716535433
        },
        {
          "duration": 3.418744302083354,
          "durationTicks": 2735,
          "midi": 45,
          "name": "A2",
          "ticks": 192960,
          "time": 241.19959799999998,
          "velocity": 0.3858267716535433
        },
        {
          "duration": 3.418744302083354,
          "durationTicks": 2735,
          "midi": 54,
          "name": "F#3",
          "ticks": 192960,
          "time": 241.19959799999998,
          "velocity": 0.3858267716535433
        }
      ],
      "endOfTrackTicks": 195696
    }
  ]
}
