{
  "header": {
    "keySignatures": [
      {
        "key": "C",
        "scale": "major",
        "ticks": 0
      },
      {
        "key": "C",
        "scale": "major",
        "ticks": 0
      }
    ],
    "meta": [],
    "name": "Piano\u0000",
    "ppq": 480,
    "tempos": [
      {
        "bpm": 180.00018000018,
        "ticks": 0
      }
    ],
    "timeSignatures": [
      {
        "ticks": 0,
        "timeSignature": [4, 4],
        "measures": 0
      }
    ]
  },
  "tracks": [
    {
      "channel": 1,
      "controlChanges": {
        "7": [
          {
            "number": 7,
            "ticks": 0,
            "time": 0,
            "value": 0.7874015748031497
          }
        ],
        "10": [
          {
            "number": 10,
            "ticks": 0,
            "time": 0,
            "value": 0.5039370078740157
          }
        ],
        "91": [
          {
            "number": 91,
            "ticks": 0,
            "time": 0,
            "value": 0
          }
        ],
        "93": [
          {
            "number": 93,
            "ticks": 0,
            "time": 0,
            "value": 0
          }
        ],
        "121": [
          {
            "number": 121,
            "ticks": 0,
            "time": 0,
            "value": 0
          }
        ]
      },
      "pitchBends": [],
      "instrument": {
        "family": "piano",
        "name": "acoustic grand piano",
        "number": 0
      },
      "name": "Piano\u0000",
      "notes": [
        {
          "duration": 0.15763873125,
          "durationTicks": 227,
          "midi": 66,
          "name": "F#4",
          "ticks": 0,
          "time": 0,
          "velocity": 0.6299212598425197
        },
        {
          "duration": 0.15763873125,
          "durationTicks": 227,
          "midi": 76,
          "name": "E5",
          "ticks": 0,
          "time": 0,
          "velocity": 0.6299212598425197
        },
        {
          "duration": 0.15763873125,
          "durationTicks": 227,
          "midi": 66,
          "name": "F#4",
          "ticks": 240,
          "time": 0.1666665,
          "velocity": 0.6299212598425197
        },
        {
          "duration": 0.15763873125,
          "durationTicks": 227,
          "midi": 76,
          "name": "E5",
          "ticks": 240,
          "time": 0.1666665,
          "velocity": 0.6299212598425197
        },
        {
          "duration": 0.15763873125,
          "durationTicks": 227,
          "midi": 66,
          "name": "F#4",
          "ticks": 720,
          "time": 0.4999995,
          "velocity": 0.6299212598425197
        },
        {
          "duration": 0.15763873125,
          "durationTicks": 227,
          "midi": 76,
          "name": "E5",
          "ticks": 720,
          "time": 0.4999995,
          "velocity": 0.6299212598425197
        },
        {
          "duration": 0.15763873125000005,
          "durationTicks": 227,
          "midi": 66,
          "name": "F#4",
          "ticks": 1200,
          "time": 0.8333325,
          "velocity": 0.6299212598425197
        },
        {
          "duration": 0.15763873125000005,
          "durationTicks": 227,
          "midi": 72,
          "name": "C5",
          "ticks": 1200,
          "time": 0.8333325,
          "velocity": 0.6299212598425197
        },
        {
          "duration": 0.31597190625000005,
          "durationTicks": 455,
          "midi": 66,
          "name": "F#4",
          "ticks": 1440,
          "time": 0.999999,
          "velocity": 0.6299212598425197
        },
        {
          "duration": 0.31597190625000005,
          "durationTicks": 455,
          "midi": 76,
          "name": "E5",
          "ticks": 1440,
          "time": 0.999999,
          "velocity": 0.6299212598425197
        },
        {
          "duration": 0.31597190625000016,
          "durationTicks": 455,
          "midi": 67,
          "name": "G4",
          "ticks": 1920,
          "time": 1.333332,
          "velocity": 0.6299212598425197
        },
        {
          "duration": 0.31597190625000016,
          "durationTicks": 455,
          "midi": 71,
          "name": "B4",
          "ticks": 1920,
          "time": 1.333332,
          "velocity": 0.6299212598425197
        },
        {
          "duration": 0.31597190625000016,
          "durationTicks": 455,
          "midi": 79,
          "name": "G5",
          "ticks": 1920,
          "time": 1.333332,
          "velocity": 0.6299212598425197
        },
        {
          "duration": 0.31597190624999993,
          "durationTicks": 455,
          "midi": 67,
          "name": "G4",
          "ticks": 2880,
          "time": 1.999998,
          "velocity": 0.6299212598425197
        },
        {
          "duration": 0.3159719062499997,
          "durationTicks": 455,
          "midi": 64,
          "name": "E4",
          "ticks": 3840,
          "time": 2.666664,
          "velocity": 0.6299212598425197
        },
        {
          "duration": 0.3159719062499997,
          "durationTicks": 455,
          "midi": 72,
          "name": "C5",
          "ticks": 3840,
          "time": 2.666664,
          "velocity": 0.6299212598425197
        },
        {
          "duration": 0.3159719062499997,
          "durationTicks": 455,
          "midi": 60,
          "name": "C4",
          "ticks": 4560,
          "time": 3.1666635,
          "velocity": 0.6299212598425197
        },
        {
          "duration": 0.3159719062499997,
          "durationTicks": 455,
          "midi": 67,
          "name": "G4",
          "ticks": 4560,
          "time": 3.1666635,
          "velocity": 0.6299212598425197
        },
        {
          "duration": 0.3159719062499997,
          "durationTicks": 455,
          "midi": 55,
          "name": "G3",
          "ticks": 5280,
          "time": 3.666663,
          "velocity": 0.6299212598425197
        },
        {
          "duration": 0.3159719062499997,
          "durationTicks": 455,
          "midi": 64,
          "name": "E4",
          "ticks": 5280,
          "time": 3.666663,
          "velocity": 0.6299212598425197
        },
        {
          "duration": 0.3159719062499997,
          "durationTicks": 455,
          "midi": 60,
          "name": "C4",
          "ticks": 6000,
          "time": 4.1666625,
          "velocity": 0.6299212598425197
        },
        {
          "duration": 0.3159719062499997,
          "durationTicks": 455,
          "midi": 69,
          "name": "A4",
          "ticks": 6000,
          "time": 4.1666625,
          "velocity": 0.6299212598425197
        },
        {
          "duration": 0.3159719062499997,
          "durationTicks": 455,
          "midi": 62,
          "name": "D4",
          "ticks": 6480,
          "time": 4.4999955,
          "velocity": 0.6299212598425197
        },
        {
          "duration": 0.3159719062499997,
          "durationTicks": 455,
          "midi": 71,
          "name": "B4",
          "ticks": 6480,
          "time": 4.4999955,
          "velocity": 0.6299212598425197
        },
        {
          "duration": 0.1576387312500005,
          "durationTicks": 227,
          "midi": 61,
          "name": "C#4",
          "ticks": 6960,
          "time": 4.8333284999999995,
          "velocity": 0.6299212598425197
        },
        {
          "duration": 0.1576387312500005,
          "durationTicks": 227,
          "midi": 70,
          "name": "A#4",
          "ticks": 6960,
          "time": 4.8333284999999995,
          "velocity": 0.6299212598425197
        },
        {
          "duration": 0.3159719062499997,
          "durationTicks": 455,
          "midi": 60,
          "name": "C4",
          "ticks": 7200,
          "time": 4.999995,
          "velocity": 0.6299212598425197
        },
        {
          "duration": 0.3159719062499997,
          "durationTicks": 455,
          "midi": 69,
          "name": "A4",
          "ticks": 7200,
          "time": 4.999995,
          "velocity": 0.6299212598425197
        },
        {
          "duration": 0.21041645625000083,
          "durationTicks": 303,
          "midi": 60,
          "name": "C4",
          "ticks": 7680,
          "time": 5.333328,
          "velocity": 0.6299212598425197
        },
        {
          "duration": 0.21041645625000083,
          "durationTicks": 303,
          "midi": 67,
          "name": "G4",
          "ticks": 7680,
          "time": 5.333328,
          "velocity": 0.6299212598425197
        },
        {
          "duration": 0.21041645624999905,
          "durationTicks": 303,
          "midi": 67,
          "name": "G4",
          "ticks": 8000,
          "time": 5.55555,
          "velocity": 0.6299212598425197
        },
        {
          "duration": 0.21041645624999905,
          "durationTicks": 303,
          "midi": 76,
          "name": "E5",
          "ticks": 8000,
          "time": 5.55555,
          "velocity": 0.6299212598425197
        },
        {
          "duration": 0.21041645624999994,
          "durationTicks": 303,
          "midi": 71,
          "name": "B4",
          "ticks": 8320,
          "time": 5.777772,
          "velocity": 0.6299212598425197
        },
        {
          "duration": 0.21041645624999994,
          "durationTicks": 303,
          "midi": 79,
          "name": "G5",
          "ticks": 8320,
          "time": 5.777772,
          "velocity": 0.6299212598425197
        },
        {
          "duration": 0.3159719062500006,
          "durationTicks": 455,
          "midi": 72,
          "name": "C5",
          "ticks": 8640,
          "time": 5.999994,
          "velocity": 0.6299212598425197
        },
        {
          "duration": 0.3159719062500006,
          "durationTicks": 455,
          "midi": 81,
          "name": "A5",
          "ticks": 8640,
          "time": 5.999994,
          "velocity": 0.6299212598425197
        },
        {
          "duration": 0.1576387312499996,
          "durationTicks": 227,
          "midi": 69,
          "name": "A4",
          "ticks": 9120,
          "time": 6.333327,
          "velocity": 0.6299212598425197
        },
        {
          "duration": 0.1576387312499996,
          "durationTicks": 227,
          "midi": 77,
          "name": "F5",
          "ticks": 9120,
          "time": 6.333327,
          "velocity": 0.6299212598425197
        },
        {
          "duration": 0.1576387312500005,
          "durationTicks": 227,
          "midi": 71,
          "name": "B4",
          "ticks": 9360,
          "time": 6.4999934999999995,
          "velocity": 0.6299212598425197
        },
        {
          "duration": 0.1576387312500005,
          "durationTicks": 227,
          "midi": 79,
          "name": "G5",
          "ticks": 9360,
          "time": 6.4999934999999995,
          "velocity": 0.6299212598425197
        },
        {
          "duration": 0.3159719062499997,
          "durationTicks": 455,
          "midi": 69,
          "name": "A4",
          "ticks": 9840,
          "time": 6.8333265,
          "velocity": 0.6299212598425197
        },
        {
          "duration": 0.3159719062499997,
          "durationTicks": 455,
          "midi": 76,
          "name": "E5",
          "ticks": 9840,
          "time": 6.8333265,
          "velocity": 0.6299212598425197
        },
        {
          "duration": 0.1576387312499996,
          "durationTicks": 227,
          "midi": 64,
          "name": "E4",
          "ticks": 10320,
          "time": 7.1666595,
          "velocity": 0.6299212598425197
        },
        {
          "duration": 0.1576387312499996,
          "durationTicks": 227,
          "midi": 72,
          "name": "C5",
          "ticks": 10320,
          "time": 7.1666595,
          "velocity": 0.6299212598425197
        },
        {
          "duration": 0.1576387312500005,
          "durationTicks": 227,
          "midi": 65,
          "name": "F4",
          "ticks": 10560,
          "time": 7.333326,
          "velocity": 0.6299212598425197
        },
        {
          "duration": 0.1576387312500005,
          "durationTicks": 227,
          "midi": 74,
          "name": "D5",
          "ticks": 10560,
          "time": 7.333326,
          "velocity": 0.6299212598425197
        },
        {
          "duration": 0.3159719062500006,
          "durationTicks": 455,
          "midi": 62,
          "name": "D4",
          "ticks": 10800,
          "time": 7.499992499999999,
          "velocity": 0.6299212598425197
        },
        {
          "duration": 0.3159719062500006,
          "durationTicks": 455,
          "midi": 71,
          "name": "B4",
          "ticks": 10800,
          "time": 7.499992499999999,
          "velocity": 0.6299212598425197
        },
        {
          "duration": 0.3159719062499997,
          "durationTicks": 455,
          "midi": 64,
          "name": "E4",
          "ticks": 11520,
          "time": 7.999992,
          "velocity": 0.6299212598425197
        },
        {
          "duration": 0.3159719062499997,
          "durationTicks": 455,
          "midi": 72,
          "name": "C5",
          "ticks": 11520,
          "time": 7.999992,
          "velocity": 0.6299212598425197
        },
        {
          "duration": 0.3159719062500006,
          "durationTicks": 455,
          "midi": 60,
          "name": "C4",
          "ticks": 12240,
          "time": 8.4999915,
          "velocity": 0.6299212598425197
        },
        {
          "duration": 0.3159719062500006,
          "durationTicks": 455,
          "midi": 67,
          "name": "G4",
          "ticks": 12240,
          "time": 8.4999915,
          "velocity": 0.6299212598425197
        },
        {
          "duration": 0.3159719062500006,
          "durationTicks": 455,
          "midi": 55,
          "name": "G3",
          "ticks": 12960,
          "time": 8.999991,
          "velocity": 0.6299212598425197
        },
        {
          "duration": 0.3159719062500006,
          "durationTicks": 455,
          "midi": 64,
          "name": "E4",
          "ticks": 12960,
          "time": 8.999991,
          "velocity": 0.6299212598425197
        },
        {
          "duration": 0.3159719062500006,
          "durationTicks": 455,
          "midi": 60,
          "name": "C4",
          "ticks": 13680,
          "time": 9.4999905,
          "velocity": 0.6299212598425197
        },
        {
          "duration": 0.3159719062500006,
          "durationTicks": 455,
          "midi": 69,
          "name": "A4",
          "ticks": 13680,
          "time": 9.4999905,
          "velocity": 0.6299212598425197
        },
        {
          "duration": 0.3159719062499988,
          "durationTicks": 455,
          "midi": 62,
          "name": "D4",
          "ticks": 14160,
          "time": 9.8333235,
          "velocity": 0.6299212598425197
        },
        {
          "duration": 0.3159719062499988,
          "durationTicks": 455,
          "midi": 71,
          "name": "B4",
          "ticks": 14160,
          "time": 9.8333235,
          "velocity": 0.6299212598425197
        },
        {
          "duration": 0.1576387312499996,
          "durationTicks": 227,
          "midi": 61,
          "name": "C#4",
          "ticks": 14640,
          "time": 10.1666565,
          "velocity": 0.6299212598425197
        },
        {
          "duration": 0.1576387312499996,
          "durationTicks": 227,
          "midi": 70,
          "name": "A#4",
          "ticks": 14640,
          "time": 10.1666565,
          "velocity": 0.6299212598425197
        },
        {
          "duration": 0.3159719062500006,
          "durationTicks": 455,
          "midi": 60,
          "name": "C4",
          "ticks": 14880,
          "time": 10.333323,
          "velocity": 0.6299212598425197
        },
        {
          "duration": 0.3159719062500006,
          "durationTicks": 455,
          "midi": 69,
          "name": "A4",
          "ticks": 14880,
          "time": 10.333323,
          "velocity": 0.6299212598425197
        },
        {
          "duration": 0.21041645624999994,
          "durationTicks": 303,
          "midi": 60,
          "name": "C4",
          "ticks": 15360,
          "time": 10.666656,
          "velocity": 0.6299212598425197
        },
        {
          "duration": 0.21041645624999994,
          "durationTicks": 303,
          "midi": 67,
          "name": "G4",
          "ticks": 15360,
          "time": 10.666656,
          "velocity": 0.6299212598425197
        },
        {
          "duration": 0.21041645625000172,
          "durationTicks": 303,
          "midi": 67,
          "name": "G4",
          "ticks": 15680,
          "time": 10.888877999999998,
          "velocity": 0.6299212598425197
        },
        {
          "duration": 0.21041645625000172,
          "durationTicks": 303,
          "midi": 76,
          "name": "E5",
          "ticks": 15680,
          "time": 10.888877999999998,
          "velocity": 0.6299212598425197
        },
        {
          "duration": 0.21041645624999816,
          "durationTicks": 303,
          "midi": 71,
          "name": "B4",
          "ticks": 16000,
          "time": 11.1111,
          "velocity": 0.6299212598425197
        },
        {
          "duration": 0.21041645624999816,
          "durationTicks": 303,
          "midi": 79,
          "name": "G5",
          "ticks": 16000,
          "time": 11.1111,
          "velocity": 0.6299212598425197
        },
        {
          "duration": 0.3159719062500006,
          "durationTicks": 455,
          "midi": 72,
          "name": "C5",
          "ticks": 16320,
          "time": 11.333321999999999,
          "velocity": 0.6299212598425197
        },
        {
          "duration": 0.3159719062500006,
          "durationTicks": 455,
          "midi": 81,
          "name": "A5",
          "ticks": 16320,
          "time": 11.333321999999999,
          "velocity": 0.6299212598425197
        },
        {
          "duration": 0.1576387312499996,
          "durationTicks": 227,
          "midi": 69,
          "name": "A4",
          "ticks": 16800,
          "time": 11.666655,
          "velocity": 0.6299212598425197
        },
        {
          "duration": 0.1576387312499996,
          "durationTicks": 227,
          "midi": 77,
          "name": "F5",
          "ticks": 16800,
          "time": 11.666655,
          "velocity": 0.6299212598425197
        },
        {
          "duration": 0.1576387312499996,
          "durationTicks": 227,
          "midi": 71,
          "name": "B4",
          "ticks": 17040,
          "time": 11.8333215,
          "velocity": 0.6299212598425197
        },
        {
          "duration": 0.1576387312499996,
          "durationTicks": 227,
          "midi": 79,
          "name": "G5",
          "ticks": 17040,
          "time": 11.8333215,
          "velocity": 0.6299212598425197
        },
        {
          "duration": 0.3159719062499988,
          "durationTicks": 455,
          "midi": 69,
          "name": "A4",
          "ticks": 17520,
          "time": 12.1666545,
          "velocity": 0.6299212598425197
        },
        {
          "duration": 0.3159719062499988,
          "durationTicks": 455,
          "midi": 76,
          "name": "E5",
          "ticks": 17520,
          "time": 12.1666545,
          "velocity": 0.6299212598425197
        },
        {
          "duration": 0.15763873125000138,
          "durationTicks": 227,
          "midi": 64,
          "name": "E4",
          "ticks": 18000,
          "time": 12.4999875,
          "velocity": 0.6299212598425197
        },
        {
          "duration": 0.15763873125000138,
          "durationTicks": 227,
          "midi": 72,
          "name": "C5",
          "ticks": 18000,
          "time": 12.4999875,
          "velocity": 0.6299212598425197
        },
        {
          "duration": 0.15763873125000138,
          "durationTicks": 227,
          "midi": 65,
          "name": "F4",
          "ticks": 18240,
          "time": 12.666654,
          "velocity": 0.6299212598425197
        },
        {
          "duration": 0.15763873125000138,
          "durationTicks": 227,
          "midi": 74,
          "name": "D5",
          "ticks": 18240,
          "time": 12.666654,
          "velocity": 0.6299212598425197
        },
        {
          "duration": 0.3159719062499988,
          "durationTicks": 455,
          "midi": 62,
          "name": "D4",
          "ticks": 18480,
          "time": 12.8333205,
          "velocity": 0.6299212598425197
        },
        {
          "duration": 0.3159719062499988,
          "durationTicks": 455,
          "midi": 71,
          "name": "B4",
          "ticks": 18480,
          "time": 12.8333205,
          "velocity": 0.6299212598425197
        },
        {
          "duration": 0.15763873125000138,
          "durationTicks": 227,
          "midi": 76,
          "name": "E5",
          "ticks": 19680,
          "time": 13.666653,
          "velocity": 0.6299212598425197
        },
        {
          "duration": 0.15763873125000138,
          "durationTicks": 227,
          "midi": 79,
          "name": "G5",
          "ticks": 19680,
          "time": 13.666653,
          "velocity": 0.6299212598425197
        },
        {
          "duration": 0.15763873125000138,
          "durationTicks": 227,
          "midi": 75,
          "name": "D#5",
          "ticks": 19920,
          "time": 13.8333195,
          "velocity": 0.6299212598425197
        },
        {
          "duration": 0.15763873125000138,
          "durationTicks": 227,
          "midi": 78,
          "name": "F#5",
          "ticks": 19920,
          "time": 13.8333195,
          "velocity": 0.6299212598425197
        },
        {
          "duration": 0.15763873125000138,
          "durationTicks": 227,
          "midi": 74,
          "name": "D5",
          "ticks": 20160,
          "time": 13.999986,
          "velocity": 0.6299212598425197
        },
        {
          "duration": 0.15763873125000138,
          "durationTicks": 227,
          "midi": 77,
          "name": "F5",
          "ticks": 20160,
          "time": 13.999986,
          "velocity": 0.6299212598425197
        },
        {
          "duration": 0.3159719062499988,
          "durationTicks": 455,
          "midi": 71,
          "name": "B4",
          "ticks": 20400,
          "time": 14.1666525,
          "velocity": 0.6299212598425197
        },
        {
          "duration": 0.3159719062499988,
          "durationTicks": 455,
          "midi": 75,
          "name": "D#5",
          "ticks": 20400,
          "time": 14.1666525,
          "velocity": 0.6299212598425197
        },
        {
          "duration": 0.15763873125000138,
          "durationTicks": 227,
          "midi": 72,
          "name": "C5",
          "ticks": 20880,
          "time": 14.4999855,
          "velocity": 0.6299212598425197
        },
        {
          "duration": 0.15763873125000138,
          "durationTicks": 227,
          "midi": 76,
          "name": "E5",
          "ticks": 20880,
          "time": 14.4999855,
          "velocity": 0.6299212598425197
        },
        {
          "duration": 0.15763873125000138,
          "durationTicks": 227,
          "midi": 64,
          "name": "E4",
          "ticks": 21360,
          "time": 14.833318499999999,
          "velocity": 0.6299212598425197
        },
        {
          "duration": 0.15763873125000138,
          "durationTicks": 227,
          "midi": 68,
          "name": "G#4",
          "ticks": 21360,
          "time": 14.833318499999999,
          "velocity": 0.6299212598425197
        },
        {
          "duration": 0.15763873125000138,
          "durationTicks": 227,
          "midi": 65,
          "name": "F4",
          "ticks": 21600,
          "time": 14.999984999999999,
          "velocity": 0.6299212598425197
        },
        {
          "duration": 0.15763873125000138,
          "durationTicks": 227,
          "midi": 69,
          "name": "A4",
          "ticks": 21600,
          "time": 14.999984999999999,
          "velocity": 0.6299212598425197
        },
        {
          "duration": 0.1576387312499996,
          "durationTicks": 227,
          "midi": 67,
          "name": "G4",
          "ticks": 21840,
          "time": 15.1666515,
          "velocity": 0.6299212598425197
        },
        {
          "duration": 0.1576387312499996,
          "durationTicks": 227,
          "midi": 72,
          "name": "C5",
          "ticks": 21840,
          "time": 15.1666515,
          "velocity": 0.6299212598425197
        },
        {
          "duration": 0.15763873125000138,
          "durationTicks": 227,
          "midi": 60,
          "name": "C4",
          "ticks": 22320,
          "time": 15.4999845,
          "velocity": 0.6299212598425197
        },
        {
          "duration": 0.15763873125000138,
          "durationTicks": 227,
          "midi": 69,
          "name": "A4",
          "ticks": 22320,
          "time": 15.4999845,
          "velocity": 0.6299212598425197
        },
        {
          "duration": 0.15763873125000138,
          "durationTicks": 227,
          "midi": 64,
          "name": "E4",
          "ticks": 22560,
          "time": 15.666651,
          "velocity": 0.6299212598425197
        },
        {
          "duration": 0.15763873125000138,
          "durationTicks": 227,
          "midi": 72,
          "name": "C5",
          "ticks": 22560,
          "time": 15.666651,
          "velocity": 0.6299212598425197
        },
        {
          "duration": 0.15763873125000138,
          "durationTicks": 227,
          "midi": 65,
          "name": "F4",
          "ticks": 22800,
          "time": 15.8333175,
          "velocity": 0.6299212598425197
        },
        {
          "duration": 0.15763873125000138,
          "durationTicks": 227,
          "midi": 74,
          "name": "D5",
          "ticks": 22800,
          "time": 15.8333175,
          "velocity": 0.6299212598425197
        },
        {
          "duration": 0.1576387312499996,
          "durationTicks": 227,
          "midi": 76,
          "name": "E5",
          "ticks": 23520,
          "time": 16.333317,
          "velocity": 0.6299212598425197
        },
        {
          "duration": 0.1576387312499996,
          "durationTicks": 227,
          "midi": 79,
          "name": "G5",
          "ticks": 23520,
          "time": 16.333317,
          "velocity": 0.6299212598425197
        },
        {
          "duration": 0.15763873125000316,
          "durationTicks": 227,
          "midi": 75,
          "name": "D#5",
          "ticks": 23760,
          "time": 16.4999835,
          "velocity": 0.6299212598425197
        },
        {
          "duration": 0.15763873125000316,
          "durationTicks": 227,
          "midi": 78,
          "name": "F#5",
          "ticks": 23760,
          "time": 16.4999835,
          "velocity": 0.6299212598425197
        },
        {
          "duration": 0.1576387312499996,
          "durationTicks": 227,
          "midi": 74,
          "name": "D5",
          "ticks": 24000,
          "time": 16.66665,
          "velocity": 0.6299212598425197
        },
        {
          "duration": 0.1576387312499996,
          "durationTicks": 227,
          "midi": 77,
          "name": "F5",
          "ticks": 24000,
          "time": 16.66665,
          "velocity": 0.6299212598425197
        },
        {
          "duration": 0.3159719062499988,
          "durationTicks": 455,
          "midi": 71,
          "name": "B4",
          "ticks": 24240,
          "time": 16.8333165,
          "velocity": 0.6299212598425197
        },
        {
          "duration": 0.3159719062499988,
          "durationTicks": 455,
          "midi": 75,
          "name": "D#5",
          "ticks": 24240,
          "time": 16.8333165,
          "velocity": 0.6299212598425197
        },
        {
          "duration": 0.15763873125000316,
          "durationTicks": 227,
          "midi": 72,
          "name": "C5",
          "ticks": 24720,
          "time": 17.1666495,
          "velocity": 0.6299212598425197
        },
        {
          "duration": 0.15763873125000316,
          "durationTicks": 227,
          "midi": 76,
          "name": "E5",
          "ticks": 24720,
          "time": 17.1666495,
          "velocity": 0.6299212598425197
        },
        {
          "duration": 0.3159719062500024,
          "durationTicks": 455,
          "midi": 77,
          "name": "F5",
          "ticks": 25200,
          "time": 17.499982499999998,
          "velocity": 0.6299212598425197
        },
        {
          "duration": 0.3159719062500024,
          "durationTicks": 455,
          "midi": 79,
          "name": "G5",
          "ticks": 25200,
          "time": 17.499982499999998,
          "velocity": 0.6299212598425197
        },
        {
          "duration": 0.3159719062500024,
          "durationTicks": 455,
          "midi": 84,
          "name": "C6",
          "ticks": 25200,
          "time": 17.499982499999998,
          "velocity": 0.6299212598425197
        },
        {
          "duration": 0.1576387312499996,
          "durationTicks": 227,
          "midi": 77,
          "name": "F5",
          "ticks": 25680,
          "time": 17.8333155,
          "velocity": 0.6299212598425197
        },
        {
          "duration": 0.1576387312499996,
          "durationTicks": 227,
          "midi": 79,
          "name": "G5",
          "ticks": 25680,
          "time": 17.8333155,
          "velocity": 0.6299212598425197
        },
        {
          "duration": 0.1576387312499996,
          "durationTicks": 227,
          "midi": 84,
          "name": "C6",
          "ticks": 25680,
          "time": 17.8333155,
          "velocity": 0.6299212598425197
        },
        {
          "duration": 0.3159719062499988,
          "durationTicks": 455,
          "midi": 77,
          "name": "F5",
          "ticks": 25920,
          "time": 17.999982,
          "velocity": 0.6299212598425197
        },
        {
          "duration": 0.3159719062499988,
          "durationTicks": 455,
          "midi": 79,
          "name": "G5",
          "ticks": 25920,
          "time": 17.999982,
          "velocity": 0.6299212598425197
        },
        {
          "duration": 0.3159719062499988,
          "durationTicks": 455,
          "midi": 84,
          "name": "C6",
          "ticks": 25920,
          "time": 17.999982,
          "velocity": 0.6299212598425197
        },
        {
          "duration": 0.15763873125000316,
          "durationTicks": 227,
          "midi": 76,
          "name": "E5",
          "ticks": 27360,
          "time": 18.999981,
          "velocity": 0.6299212598425197
        },
        {
          "duration": 0.15763873125000316,
          "durationTicks": 227,
          "midi": 79,
          "name": "G5",
          "ticks": 27360,
          "time": 18.999981,
          "velocity": 0.6299212598425197
        },
        {
          "duration": 0.1576387312499996,
          "durationTicks": 227,
          "midi": 75,
          "name": "D#5",
          "ticks": 27600,
          "time": 19.1666475,
          "velocity": 0.6299212598425197
        },
        {
          "duration": 0.1576387312499996,
          "durationTicks": 227,
          "midi": 78,
          "name": "F#5",
          "ticks": 27600,
          "time": 19.1666475,
          "velocity": 0.6299212598425197
        },
        {
          "duration": 0.15763873125000316,
          "durationTicks": 227,
          "midi": 74,
          "name": "D5",
          "ticks": 27840,
          "time": 19.333313999999998,
          "velocity": 0.6299212598425197
        },
        {
          "duration": 0.15763873125000316,
          "durationTicks": 227,
          "midi": 77,
          "name": "F5",
          "ticks": 27840,
          "time": 19.333313999999998,
          "velocity": 0.6299212598425197
        },
        {
          "duration": 0.3159719062499988,
          "durationTicks": 455,
          "midi": 71,
          "name": "B4",
          "ticks": 28080,
          "time": 19.4999805,
          "velocity": 0.6299212598425197
        },
        {
          "duration": 0.3159719062499988,
          "durationTicks": 455,
          "midi": 75,
          "name": "D#5",
          "ticks": 28080,
          "time": 19.4999805,
          "velocity": 0.6299212598425197
        },
        {
          "duration": 0.1576387312499996,
          "durationTicks": 227,
          "midi": 72,
          "name": "C5",
          "ticks": 28560,
          "time": 19.8333135,
          "velocity": 0.6299212598425197
        },
        {
          "duration": 0.1576387312499996,
          "durationTicks": 227,
          "midi": 76,
          "name": "E5",
          "ticks": 28560,
          "time": 19.8333135,
          "velocity": 0.6299212598425197
        },
        {
          "duration": 0.15763873125000316,
          "durationTicks": 227,
          "midi": 64,
          "name": "E4",
          "ticks": 29040,
          "time": 20.1666465,
          "velocity": 0.6299212598425197
        },
        {
          "duration": 0.15763873125000316,
          "durationTicks": 227,
          "midi": 68,
          "name": "G#4",
          "ticks": 29040,
          "time": 20.1666465,
          "velocity": 0.6299212598425197
        },
        {
          "duration": 0.1576387312499996,
          "durationTicks": 227,
          "midi": 65,
          "name": "F4",
          "ticks": 29280,
          "time": 20.333313,
          "velocity": 0.6299212598425197
        },
        {
          "duration": 0.1576387312499996,
          "durationTicks": 227,
          "midi": 69,
          "name": "A4",
          "ticks": 29280,
          "time": 20.333313,
          "velocity": 0.6299212598425197
        },
        {
          "duration": 0.15763873125000316,
          "durationTicks": 227,
          "midi": 67,
          "name": "G4",
          "ticks": 29520,
          "time": 20.4999795,
          "velocity": 0.6299212598425197
        },
        {
          "duration": 0.15763873125000316,
          "durationTicks": 227,
          "midi": 72,
          "name": "C5",
          "ticks": 29520,
          "time": 20.4999795,
          "velocity": 0.6299212598425197
        },
        {
          "duration": 0.15763873125000316,
          "durationTicks": 227,
          "midi": 60,
          "name": "C4",
          "ticks": 30000,
          "time": 20.833312499999998,
          "velocity": 0.6299212598425197
        },
        {
          "duration": 0.15763873125000316,
          "durationTicks": 227,
          "midi": 69,
          "name": "A4",
          "ticks": 30000,
          "time": 20.833312499999998,
          "velocity": 0.6299212598425197
        },
        {
          "duration": 0.1576387312499996,
          "durationTicks": 227,
          "midi": 64,
          "name": "E4",
          "ticks": 30240,
          "time": 20.999979,
          "velocity": 0.6299212598425197
        },
        {
          "duration": 0.1576387312499996,
          "durationTicks": 227,
          "midi": 72,
          "name": "C5",
          "ticks": 30240,
          "time": 20.999979,
          "velocity": 0.6299212598425197
        },
        {
          "duration": 0.15763873125000316,
          "durationTicks": 227,
          "midi": 65,
          "name": "F4",
          "ticks": 30480,
          "time": 21.166645499999998,
          "velocity": 0.6299212598425197
        },
        {
          "duration": 0.15763873125000316,
          "durationTicks": 227,
          "midi": 74,
          "name": "D5",
          "ticks": 30480,
          "time": 21.166645499999998,
          "velocity": 0.6299212598425197
        },
        {
          "duration": 0.3159719062500024,
          "durationTicks": 455,
          "midi": 68,
          "name": "G#4",
          "ticks": 31200,
          "time": 21.666645,
          "velocity": 0.6299212598425197
        },
        {
          "duration": 0.3159719062500024,
          "durationTicks": 455,
          "midi": 75,
          "name": "D#5",
          "ticks": 31200,
          "time": 21.666645,
          "velocity": 0.6299212598425197
        },
        {
          "duration": 0.3159719062500024,
          "durationTicks": 455,
          "midi": 65,
          "name": "F4",
          "ticks": 31920,
          "time": 22.1666445,
          "velocity": 0.6299212598425197
        },
        {
          "duration": 0.3159719062500024,
          "durationTicks": 455,
          "midi": 74,
          "name": "D5",
          "ticks": 31920,
          "time": 22.1666445,
          "velocity": 0.6299212598425197
        },
        {
          "duration": 0.3159719062500024,
          "durationTicks": 455,
          "midi": 64,
          "name": "E4",
          "ticks": 32640,
          "time": 22.666643999999998,
          "velocity": 0.6299212598425197
        },
        {
          "duration": 0.3159719062500024,
          "durationTicks": 455,
          "midi": 72,
          "name": "C5",
          "ticks": 32640,
          "time": 22.666643999999998,
          "velocity": 0.6299212598425197
        },
        {
          "duration": 0.1576387312499996,
          "durationTicks": 227,
          "midi": 76,
          "name": "E5",
          "ticks": 35040,
          "time": 24.333309,
          "velocity": 0.6299212598425197
        },
        {
          "duration": 0.1576387312499996,
          "durationTicks": 227,
          "midi": 79,
          "name": "G5",
          "ticks": 35040,
          "time": 24.333309,
          "velocity": 0.6299212598425197
        },
        {
          "duration": 0.1576387312499996,
          "durationTicks": 227,
          "midi": 75,
          "name": "D#5",
          "ticks": 35280,
          "time": 24.499975499999998,
          "velocity": 0.6299212598425197
        },
        {
          "duration": 0.1576387312499996,
          "durationTicks": 227,
          "midi": 78,
          "name": "F#5",
          "ticks": 35280,
          "time": 24.499975499999998,
          "velocity": 0.6299212598425197
        },
        {
          "duration": 0.1576387312499996,
          "durationTicks": 227,
          "midi": 74,
          "name": "D5",
          "ticks": 35520,
          "time": 24.666642,
          "velocity": 0.6299212598425197
        },
        {
          "duration": 0.1576387312499996,
          "durationTicks": 227,
          "midi": 77,
          "name": "F5",
          "ticks": 35520,
          "time": 24.666642,
          "velocity": 0.6299212598425197
        },
        {
          "duration": 0.3159719062500024,
          "durationTicks": 455,
          "midi": 71,
          "name": "B4",
          "ticks": 35760,
          "time": 24.833308499999998,
          "velocity": 0.6299212598425197
        },
        {
          "duration": 0.3159719062500024,
          "durationTicks": 455,
          "midi": 75,
          "name": "D#5",
          "ticks": 35760,
          "time": 24.833308499999998,
          "velocity": 0.6299212598425197
        },
        {
          "duration": 0.15763873124999606,
          "durationTicks": 227,
          "midi": 72,
          "name": "C5",
          "ticks": 36240,
          "time": 25.1666415,
          "velocity": 0.6299212598425197
        },
        {
          "duration": 0.15763873124999606,
          "durationTicks": 227,
          "midi": 76,
          "name": "E5",
          "ticks": 36240,
          "time": 25.1666415,
          "velocity": 0.6299212598425197
        },
        {
          "duration": 0.15763873124999606,
          "durationTicks": 227,
          "midi": 64,
          "name": "E4",
          "ticks": 36720,
          "time": 25.4999745,
          "velocity": 0.6299212598425197
        },
        {
          "duration": 0.15763873124999606,
          "durationTicks": 227,
          "midi": 68,
          "name": "G#4",
          "ticks": 36720,
          "time": 25.4999745,
          "velocity": 0.6299212598425197
        },
        {
          "duration": 0.1576387312499996,
          "durationTicks": 227,
          "midi": 65,
          "name": "F4",
          "ticks": 36960,
          "time": 25.666641,
          "velocity": 0.6299212598425197
        },
        {
          "duration": 0.1576387312499996,
          "durationTicks": 227,
          "midi": 69,
          "name": "A4",
          "ticks": 36960,
          "time": 25.666641,
          "velocity": 0.6299212598425197
        },
        {
          "duration": 0.1576387312499996,
          "durationTicks": 227,
          "midi": 67,
          "name": "G4",
          "ticks": 37200,
          "time": 25.8333075,
          "velocity": 0.6299212598425197
        },
        {
          "duration": 0.1576387312499996,
          "durationTicks": 227,
          "midi": 72,
          "name": "C5",
          "ticks": 37200,
          "time": 25.8333075,
          "velocity": 0.6299212598425197
        },
        {
          "duration": 0.1576387312499996,
          "durationTicks": 227,
          "midi": 60,
          "name": "C4",
          "ticks": 37680,
          "time": 26.1666405,
          "velocity": 0.6299212598425197
        },
        {
          "duration": 0.1576387312499996,
          "durationTicks": 227,
          "midi": 69,
          "name": "A4",
          "ticks": 37680,
          "time": 26.1666405,
          "velocity": 0.6299212598425197
        },
        {
          "duration": 0.1576387312499996,
          "durationTicks": 227,
          "midi": 64,
          "name": "E4",
          "ticks": 37920,
          "time": 26.333306999999998,
          "velocity": 0.6299212598425197
        },
        {
          "duration": 0.1576387312499996,
          "durationTicks": 227,
          "midi": 72,
          "name": "C5",
          "ticks": 37920,
          "time": 26.333306999999998,
          "velocity": 0.6299212598425197
        },
        {
          "duration": 0.1576387312499996,
          "durationTicks": 227,
          "midi": 65,
          "name": "F4",
          "ticks": 38160,
          "time": 26.4999735,
          "velocity": 0.6299212598425197
        },
        {
          "duration": 0.1576387312499996,
          "durationTicks": 227,
          "midi": 74,
          "name": "D5",
          "ticks": 38160,
          "time": 26.4999735,
          "velocity": 0.6299212598425197
        },
        {
          "duration": 0.15763873124999606,
          "durationTicks": 227,
          "midi": 76,
          "name": "E5",
          "ticks": 38880,
          "time": 26.999973,
          "velocity": 0.6299212598425197
        },
        {
          "duration": 0.15763873124999606,
          "durationTicks": 227,
          "midi": 79,
          "name": "G5",
          "ticks": 38880,
          "time": 26.999973,
          "velocity": 0.6299212598425197
        },
        {
          "duration": 0.1576387312499996,
          "durationTicks": 227,
          "midi": 75,
          "name": "D#5",
          "ticks": 39120,
          "time": 27.1666395,
          "velocity": 0.6299212598425197
        },
        {
          "duration": 0.1576387312499996,
          "durationTicks": 227,
          "midi": 78,
          "name": "F#5",
          "ticks": 39120,
          "time": 27.1666395,
          "velocity": 0.6299212598425197
        },
        {
          "duration": 0.15763873124999606,
          "durationTicks": 227,
          "midi": 74,
          "name": "D5",
          "ticks": 39360,
          "time": 27.333306,
          "velocity": 0.6299212598425197
        },
        {
          "duration": 0.15763873124999606,
          "durationTicks": 227,
          "midi": 77,
          "name": "F5",
          "ticks": 39360,
          "time": 27.333306,
          "velocity": 0.6299212598425197
        },
        {
          "duration": 0.3159719062500024,
          "durationTicks": 455,
          "midi": 71,
          "name": "B4",
          "ticks": 39600,
          "time": 27.4999725,
          "velocity": 0.6299212598425197
        },
        {
          "duration": 0.3159719062500024,
          "durationTicks": 455,
          "midi": 75,
          "name": "D#5",
          "ticks": 39600,
          "time": 27.4999725,
          "velocity": 0.6299212598425197
        },
        {
          "duration": 0.1576387312499996,
          "durationTicks": 227,
          "midi": 72,
          "name": "C5",
          "ticks": 40080,
          "time": 27.833305499999998,
          "velocity": 0.6299212598425197
        },
        {
          "duration": 0.1576387312499996,
          "durationTicks": 227,
          "midi": 76,
          "name": "E5",
          "ticks": 40080,
          "time": 27.833305499999998,
          "velocity": 0.6299212598425197
        },
        {
          "duration": 0.3159719062500024,
          "durationTicks": 455,
          "midi": 77,
          "name": "F5",
          "ticks": 40560,
          "time": 28.166638499999998,
          "velocity": 0.6299212598425197
        },
        {
          "duration": 0.3159719062500024,
          "durationTicks": 455,
          "midi": 79,
          "name": "G5",
          "ticks": 40560,
          "time": 28.166638499999998,
          "velocity": 0.6299212598425197
        },
        {
          "duration": 0.3159719062500024,
          "durationTicks": 455,
          "midi": 84,
          "name": "C6",
          "ticks": 40560,
          "time": 28.166638499999998,
          "velocity": 0.6299212598425197
        },
        {
          "duration": 0.15763873124999606,
          "durationTicks": 227,
          "midi": 77,
          "name": "F5",
          "ticks": 41040,
          "time": 28.4999715,
          "velocity": 0.6299212598425197
        },
        {
          "duration": 0.15763873124999606,
          "durationTicks": 227,
          "midi": 79,
          "name": "G5",
          "ticks": 41040,
          "time": 28.4999715,
          "velocity": 0.6299212598425197
        },
        {
          "duration": 0.15763873124999606,
          "durationTicks": 227,
          "midi": 84,
          "name": "C6",
          "ticks": 41040,
          "time": 28.4999715,
          "velocity": 0.6299212598425197
        },
        {
          "duration": 0.3159719062500024,
          "durationTicks": 455,
          "midi": 77,
          "name": "F5",
          "ticks": 41280,
          "time": 28.666638,
          "velocity": 0.6299212598425197
        },
        {
          "duration": 0.3159719062500024,
          "durationTicks": 455,
          "midi": 79,
          "name": "G5",
          "ticks": 41280,
          "time": 28.666638,
          "velocity": 0.6299212598425197
        },
        {
          "duration": 0.3159719062500024,
          "durationTicks": 455,
          "midi": 84,
          "name": "C6",
          "ticks": 41280,
          "time": 28.666638,
          "velocity": 0.6299212598425197
        },
        {
          "duration": 0.1576387312499996,
          "durationTicks": 227,
          "midi": 76,
          "name": "E5",
          "ticks": 42720,
          "time": 29.666636999999998,
          "velocity": 0.6299212598425197
        },
        {
          "duration": 0.1576387312499996,
          "durationTicks": 227,
          "midi": 79,
          "name": "G5",
          "ticks": 42720,
          "time": 29.666636999999998,
          "velocity": 0.6299212598425197
        },
        {
          "duration": 0.1576387312499996,
          "durationTicks": 227,
          "midi": 75,
          "name": "D#5",
          "ticks": 42960,
          "time": 29.8333035,
          "velocity": 0.6299212598425197
        },
        {
          "duration": 0.1576387312499996,
          "durationTicks": 227,
          "midi": 78,
          "name": "F#5",
          "ticks": 42960,
          "time": 29.8333035,
          "velocity": 0.6299212598425197
        },
        {
          "duration": 0.1576387312499996,
          "durationTicks": 227,
          "midi": 74,
          "name": "D5",
          "ticks": 43200,
          "time": 29.999969999999998,
          "velocity": 0.6299212598425197
        },
        {
          "duration": 0.1576387312499996,
          "durationTicks": 227,
          "midi": 77,
          "name": "F5",
          "ticks": 43200,
          "time": 29.999969999999998,
          "velocity": 0.6299212598425197
        },
        {
          "duration": 0.3159719062500024,
          "durationTicks": 455,
          "midi": 71,
          "name": "B4",
          "ticks": 43440,
          "time": 30.1666365,
          "velocity": 0.6299212598425197
        },
        {
          "duration": 0.3159719062500024,
          "durationTicks": 455,
          "midi": 75,
          "name": "D#5",
          "ticks": 43440,
          "time": 30.1666365,
          "velocity": 0.6299212598425197
        },
        {
          "duration": 0.1576387312499996,
          "durationTicks": 227,
          "midi": 72,
          "name": "C5",
          "ticks": 43920,
          "time": 30.4999695,
          "velocity": 0.6299212598425197
        },
        {
          "duration": 0.1576387312499996,
          "durationTicks": 227,
          "midi": 76,
          "name": "E5",
          "ticks": 43920,
          "time": 30.4999695,
          "velocity": 0.6299212598425197
        },
        {
          "duration": 0.1576387312499996,
          "durationTicks": 227,
          "midi": 64,
          "name": "E4",
          "ticks": 44400,
          "time": 30.8333025,
          "velocity": 0.6299212598425197
        },
        {
          "duration": 0.1576387312499996,
          "durationTicks": 227,
          "midi": 68,
          "name": "G#4",
          "ticks": 44400,
          "time": 30.8333025,
          "velocity": 0.6299212598425197
        },
        {
          "duration": 0.15763873124999606,
          "durationTicks": 227,
          "midi": 65,
          "name": "F4",
          "ticks": 44640,
          "time": 30.999969,
          "velocity": 0.6299212598425197
        },
        {
          "duration": 0.15763873124999606,
          "durationTicks": 227,
          "midi": 69,
          "name": "A4",
          "ticks": 44640,
          "time": 30.999969,
          "velocity": 0.6299212598425197
        },
        {
          "duration": 0.1576387312499996,
          "durationTicks": 227,
          "midi": 67,
          "name": "G4",
          "ticks": 44880,
          "time": 31.166635499999998,
          "velocity": 0.6299212598425197
        },
        {
          "duration": 0.1576387312499996,
          "durationTicks": 227,
          "midi": 72,
          "name": "C5",
          "ticks": 44880,
          "time": 31.166635499999998,
          "velocity": 0.6299212598425197
        },
        {
          "duration": 0.1576387312499996,
          "durationTicks": 227,
          "midi": 60,
          "name": "C4",
          "ticks": 45360,
          "time": 31.499968499999998,
          "velocity": 0.6299212598425197
        },
        {
          "duration": 0.1576387312499996,
          "durationTicks": 227,
          "midi": 69,
          "name": "A4",
          "ticks": 45360,
          "time": 31.499968499999998,
          "velocity": 0.6299212598425197
        },
        {
          "duration": 0.1576387312499996,
          "durationTicks": 227,
          "midi": 64,
          "name": "E4",
          "ticks": 45600,
          "time": 31.666635,
          "velocity": 0.6299212598425197
        },
        {
          "duration": 0.1576387312499996,
          "durationTicks": 227,
          "midi": 72,
          "name": "C5",
          "ticks": 45600,
          "time": 31.666635,
          "velocity": 0.6299212598425197
        },
        {
          "duration": 0.1576387312499996,
          "durationTicks": 227,
          "midi": 65,
          "name": "F4",
          "ticks": 45840,
          "time": 31.833301499999997,
          "velocity": 0.6299212598425197
        },
        {
          "duration": 0.1576387312499996,
          "durationTicks": 227,
          "midi": 74,
          "name": "D5",
          "ticks": 45840,
          "time": 31.833301499999997,
          "velocity": 0.6299212598425197
        },
        {
          "duration": 0.3159719062499988,
          "durationTicks": 455,
          "midi": 68,
          "name": "G#4",
          "ticks": 46560,
          "time": 32.333301,
          "velocity": 0.6299212598425197
        },
        {
          "duration": 0.3159719062499988,
          "durationTicks": 455,
          "midi": 75,
          "name": "D#5",
          "ticks": 46560,
          "time": 32.333301,
          "velocity": 0.6299212598425197
        },
        {
          "duration": 0.3159719062499988,
          "durationTicks": 455,
          "midi": 65,
          "name": "F4",
          "ticks": 47280,
          "time": 32.8333005,
          "velocity": 0.6299212598425197
        },
        {
          "duration": 0.3159719062499988,
          "durationTicks": 455,
          "midi": 74,
          "name": "D5",
          "ticks": 47280,
          "time": 32.8333005,
          "velocity": 0.6299212598425197
        },
        {
          "duration": 0.3159719062499988,
          "durationTicks": 455,
          "midi": 64,
          "name": "E4",
          "ticks": 48000,
          "time": 33.3333,
          "velocity": 0.6299212598425197
        },
        {
          "duration": 0.3159719062499988,
          "durationTicks": 455,
          "midi": 72,
          "name": "C5",
          "ticks": 48000,
          "time": 33.3333,
          "velocity": 0.6299212598425197
        },
        {
          "duration": 0.15763873124999606,
          "durationTicks": 227,
          "midi": 68,
          "name": "G#4",
          "ticks": 49920,
          "time": 34.666632,
          "velocity": 0.6299212598425197
        },
        {
          "duration": 0.15763873124999606,
          "durationTicks": 227,
          "midi": 72,
          "name": "C5",
          "ticks": 49920,
          "time": 34.666632,
          "velocity": 0.6299212598425197
        },
        {
          "duration": 0.15763873125000316,
          "durationTicks": 227,
          "midi": 68,
          "name": "G#4",
          "ticks": 50160,
          "time": 34.8332985,
          "velocity": 0.6299212598425197
        },
        {
          "duration": 0.15763873125000316,
          "durationTicks": 227,
          "midi": 72,
          "name": "C5",
          "ticks": 50160,
          "time": 34.8332985,
          "velocity": 0.6299212598425197
        },
        {
          "duration": 0.15763873124999606,
          "durationTicks": 227,
          "midi": 68,
          "name": "G#4",
          "ticks": 50640,
          "time": 35.1666315,
          "velocity": 0.6299212598425197
        },
        {
          "duration": 0.15763873124999606,
          "durationTicks": 227,
          "midi": 72,
          "name": "C5",
          "ticks": 50640,
          "time": 35.1666315,
          "velocity": 0.6299212598425197
        },
        {
          "duration": 0.15763873125000316,
          "durationTicks": 227,
          "midi": 68,
          "name": "G#4",
          "ticks": 51120,
          "time": 35.4999645,
          "velocity": 0.6299212598425197
        },
        {
          "duration": 0.15763873125000316,
          "durationTicks": 227,
          "midi": 72,
          "name": "C5",
          "ticks": 51120,
          "time": 35.4999645,
          "velocity": 0.6299212598425197
        },
        {
          "duration": 0.3159719062499988,
          "durationTicks": 455,
          "midi": 70,
          "name": "A#4",
          "ticks": 51360,
          "time": 35.666631,
          "velocity": 0.6299212598425197
        },
        {
          "duration": 0.3159719062499988,
          "durationTicks": 455,
          "midi": 74,
          "name": "D5",
          "ticks": 51360,
          "time": 35.666631,
          "velocity": 0.6299212598425197
        },
        {
          "duration": 0.15763873124999606,
          "durationTicks": 227,
          "midi": 67,
          "name": "G4",
          "ticks": 51840,
          "time": 35.999964,
          "velocity": 0.6299212598425197
        },
        {
          "duration": 0.15763873124999606,
          "durationTicks": 227,
          "midi": 76,
          "name": "E5",
          "ticks": 51840,
          "time": 35.999964,
          "velocity": 0.6299212598425197
        },
        {
          "duration": 0.15763873125000316,
          "durationTicks": 227,
          "midi": 64,
          "name": "E4",
          "ticks": 52080,
          "time": 36.1666305,
          "velocity": 0.6299212598425197
        },
        {
          "duration": 0.15763873125000316,
          "durationTicks": 227,
          "midi": 72,
          "name": "C5",
          "ticks": 52080,
          "time": 36.1666305,
          "velocity": 0.6299212598425197
        },
        {
          "duration": 0.15763873124999606,
          "durationTicks": 227,
          "midi": 64,
          "name": "E4",
          "ticks": 52560,
          "time": 36.4999635,
          "velocity": 0.6299212598425197
        },
        {
          "duration": 0.15763873124999606,
          "durationTicks": 227,
          "midi": 69,
          "name": "A4",
          "ticks": 52560,
          "time": 36.4999635,
          "velocity": 0.6299212598425197
        },
        {
          "duration": 0.6326382562499973,
          "durationTicks": 911,
          "midi": 60,
          "name": "C4",
          "ticks": 52800,
          "time": 36.66663,
          "velocity": 0.6299212598425197
        },
        {
          "duration": 0.6326382562499973,
          "durationTicks": 911,
          "midi": 67,
          "name": "G4",
          "ticks": 52800,
          "time": 36.66663,
          "velocity": 0.6299212598425197
        },
        {
          "duration": 0.15763873125000316,
          "durationTicks": 227,
          "midi": 68,
          "name": "G#4",
          "ticks": 53760,
          "time": 37.333296,
          "velocity": 0.6299212598425197
        },
        {
          "duration": 0.15763873125000316,
          "durationTicks": 227,
          "midi": 72,
          "name": "C5",
          "ticks": 53760,
          "time": 37.333296,
          "velocity": 0.6299212598425197
        },
        {
          "duration": 0.15763873124999606,
          "durationTicks": 227,
          "midi": 68,
          "name": "G#4",
          "ticks": 54000,
          "time": 37.4999625,
          "velocity": 0.6299212598425197
        },
        {
          "duration": 0.15763873124999606,
          "durationTicks": 227,
          "midi": 72,
          "name": "C5",
          "ticks": 54000,
          "time": 37.4999625,
          "velocity": 0.6299212598425197
        },
        {
          "duration": 0.15763873124999606,
          "durationTicks": 227,
          "midi": 68,
          "name": "G#4",
          "ticks": 54480,
          "time": 37.8332955,
          "velocity": 0.6299212598425197
        },
        {
          "duration": 0.15763873124999606,
          "durationTicks": 227,
          "midi": 72,
          "name": "C5",
          "ticks": 54480,
          "time": 37.8332955,
          "velocity": 0.6299212598425197
        },
        {
          "duration": 0.15763873124999606,
          "durationTicks": 227,
          "midi": 68,
          "name": "G#4",
          "ticks": 54960,
          "time": 38.1666285,
          "velocity": 0.6299212598425197
        },
        {
          "duration": 0.15763873124999606,
          "durationTicks": 227,
          "midi": 72,
          "name": "C5",
          "ticks": 54960,
          "time": 38.1666285,
          "velocity": 0.6299212598425197
        },
        {
          "duration": 0.15763873124999606,
          "durationTicks": 227,
          "midi": 70,
          "name": "A#4",
          "ticks": 55200,
          "time": 38.333295,
          "velocity": 0.6299212598425197
        },
        {
          "duration": 0.15763873124999606,
          "durationTicks": 227,
          "midi": 74,
          "name": "D5",
          "ticks": 55200,
          "time": 38.333295,
          "velocity": 0.6299212598425197
        },
        {
          "duration": 0.15763873125000316,
          "durationTicks": 227,
          "midi": 67,
          "name": "G4",
          "ticks": 55440,
          "time": 38.4999615,
          "velocity": 0.6299212598425197
        },
        {
          "duration": 0.15763873125000316,
          "durationTicks": 227,
          "midi": 76,
          "name": "E5",
          "ticks": 55440,
          "time": 38.4999615,
          "velocity": 0.6299212598425197
        },
        {
          "duration": 0.15763873124999606,
          "durationTicks": 227,
          "midi": 68,
          "name": "G#4",
          "ticks": 57600,
          "time": 39.99996,
          "velocity": 0.6299212598425197
        },
        {
          "duration": 0.15763873124999606,
          "durationTicks": 227,
          "midi": 72,
          "name": "C5",
          "ticks": 57600,
          "time": 39.99996,
          "velocity": 0.6299212598425197
        },
        {
          "duration": 0.15763873124999606,
          "durationTicks": 227,
          "midi": 68,
          "name": "G#4",
          "ticks": 57840,
          "time": 40.1666265,
          "velocity": 0.6299212598425197
        },
        {
          "duration": 0.15763873124999606,
          "durationTicks": 227,
          "midi": 72,
          "name": "C5",
          "ticks": 57840,
          "time": 40.1666265,
          "velocity": 0.6299212598425197
        },
        {
          "duration": 0.15763873125000316,
          "durationTicks": 227,
          "midi": 68,
          "name": "G#4",
          "ticks": 58320,
          "time": 40.499959499999996,
          "velocity": 0.6299212598425197
        },
        {
          "duration": 0.15763873125000316,
          "durationTicks": 227,
          "midi": 72,
          "name": "C5",
          "ticks": 58320,
          "time": 40.499959499999996,
          "velocity": 0.6299212598425197
        },
        {
          "duration": 0.15763873124999606,
          "durationTicks": 227,
          "midi": 68,
          "name": "G#4",
          "ticks": 58800,
          "time": 40.8332925,
          "velocity": 0.6299212598425197
        },
        {
          "duration": 0.15763873124999606,
          "durationTicks": 227,
          "midi": 72,
          "name": "C5",
          "ticks": 58800,
          "time": 40.8332925,
          "velocity": 0.6299212598425197
        },
        {
          "duration": 0.31597190625000593,
          "durationTicks": 455,
          "midi": 70,
          "name": "A#4",
          "ticks": 59040,
          "time": 40.999959,
          "velocity": 0.6299212598425197
        },
        {
          "duration": 0.31597190625000593,
          "durationTicks": 455,
          "midi": 74,
          "name": "D5",
          "ticks": 59040,
          "time": 40.999959,
          "velocity": 0.6299212598425197
        },
        {
          "duration": 0.15763873124999606,
          "durationTicks": 227,
          "midi": 67,
          "name": "G4",
          "ticks": 59520,
          "time": 41.333292,
          "velocity": 0.6299212598425197
        },
        {
          "duration": 0.15763873124999606,
          "durationTicks": 227,
          "midi": 76,
          "name": "E5",
          "ticks": 59520,
          "time": 41.333292,
          "velocity": 0.6299212598425197
        },
        {
          "duration": 0.15763873124999606,
          "durationTicks": 227,
          "midi": 64,
          "name": "E4",
          "ticks": 59760,
          "time": 41.4999585,
          "velocity": 0.6299212598425197
        },
        {
          "duration": 0.15763873124999606,
          "durationTicks": 227,
          "midi": 72,
          "name": "C5",
          "ticks": 59760,
          "time": 41.4999585,
          "velocity": 0.6299212598425197
        },
        {
          "duration": 0.15763873124999606,
          "durationTicks": 227,
          "midi": 64,
          "name": "E4",
          "ticks": 60240,
          "time": 41.8332915,
          "velocity": 0.6299212598425197
        },
        {
          "duration": 0.15763873124999606,
          "durationTicks": 227,
          "midi": 69,
          "name": "A4",
          "ticks": 60240,
          "time": 41.8332915,
          "velocity": 0.6299212598425197
        },
        {
          "duration": 0.6326382562499973,
          "durationTicks": 911,
          "midi": 60,
          "name": "C4",
          "ticks": 60480,
          "time": 41.999958,
          "velocity": 0.6299212598425197
        },
        {
          "duration": 0.6326382562499973,
          "durationTicks": 911,
          "midi": 67,
          "name": "G4",
          "ticks": 60480,
          "time": 41.999958,
          "velocity": 0.6299212598425197
        },
        {
          "duration": 0.15763873124999606,
          "durationTicks": 227,
          "midi": 66,
          "name": "F#4",
          "ticks": 61440,
          "time": 42.666624,
          "velocity": 0.6299212598425197
        },
        {
          "duration": 0.15763873124999606,
          "durationTicks": 227,
          "midi": 76,
          "name": "E5",
          "ticks": 61440,
          "time": 42.666624,
          "velocity": 0.6299212598425197
        },
        {
          "duration": 0.15763873125000316,
          "durationTicks": 227,
          "midi": 66,
          "name": "F#4",
          "ticks": 61680,
          "time": 42.8332905,
          "velocity": 0.6299212598425197
        },
        {
          "duration": 0.15763873125000316,
          "durationTicks": 227,
          "midi": 76,
          "name": "E5",
          "ticks": 61680,
          "time": 42.8332905,
          "velocity": 0.6299212598425197
        },
        {
          "duration": 0.15763873124999606,
          "durationTicks": 227,
          "midi": 66,
          "name": "F#4",
          "ticks": 62160,
          "time": 43.1666235,
          "velocity": 0.6299212598425197
        },
        {
          "duration": 0.15763873124999606,
          "durationTicks": 227,
          "midi": 76,
          "name": "E5",
          "ticks": 62160,
          "time": 43.1666235,
          "velocity": 0.6299212598425197
        },
        {
          "duration": 0.15763873125000316,
          "durationTicks": 227,
          "midi": 66,
          "name": "F#4",
          "ticks": 62640,
          "time": 43.499956499999996,
          "velocity": 0.6299212598425197
        },
        {
          "duration": 0.15763873125000316,
          "durationTicks": 227,
          "midi": 72,
          "name": "C5",
          "ticks": 62640,
          "time": 43.499956499999996,
          "velocity": 0.6299212598425197
        },
        {
          "duration": 0.3159719062499917,
          "durationTicks": 455,
          "midi": 66,
          "name": "F#4",
          "ticks": 62880,
          "time": 43.666623,
          "velocity": 0.6299212598425197
        },
        {
          "duration": 0.3159719062499917,
          "durationTicks": 455,
          "midi": 76,
          "name": "E5",
          "ticks": 62880,
          "time": 43.666623,
          "velocity": 0.6299212598425197
        },
        {
          "duration": 0.3159719062499988,
          "durationTicks": 455,
          "midi": 67,
          "name": "G4",
          "ticks": 63360,
          "time": 43.999956,
          "velocity": 0.6299212598425197
        },
        {
          "duration": 0.3159719062499988,
          "durationTicks": 455,
          "midi": 71,
          "name": "B4",
          "ticks": 63360,
          "time": 43.999956,
          "velocity": 0.6299212598425197
        },
        {
          "duration": 0.3159719062499988,
          "durationTicks": 455,
          "midi": 79,
          "name": "G5",
          "ticks": 63360,
          "time": 43.999956,
          "velocity": 0.6299212598425197
        },
        {
          "duration": 0.3159719062499988,
          "durationTicks": 455,
          "midi": 67,
          "name": "G4",
          "ticks": 64320,
          "time": 44.666622,
          "velocity": 0.6299212598425197
        },
        {
          "duration": 0.3159719062499988,
          "durationTicks": 455,
          "midi": 64,
          "name": "E4",
          "ticks": 65280,
          "time": 45.333287999999996,
          "velocity": 0.6299212598425197
        },
        {
          "duration": 0.3159719062499988,
          "durationTicks": 455,
          "midi": 72,
          "name": "C5",
          "ticks": 65280,
          "time": 45.333287999999996,
          "velocity": 0.6299212598425197
        },
        {
          "duration": 0.3159719062499988,
          "durationTicks": 455,
          "midi": 60,
          "name": "C4",
          "ticks": 66000,
          "time": 45.8332875,
          "velocity": 0.6299212598425197
        },
        {
          "duration": 0.3159719062499988,
          "durationTicks": 455,
          "midi": 67,
          "name": "G4",
          "ticks": 66000,
          "time": 45.8332875,
          "velocity": 0.6299212598425197
        },
        {
          "duration": 0.3159719062499988,
          "durationTicks": 455,
          "midi": 55,
          "name": "G3",
          "ticks": 66720,
          "time": 46.333287,
          "velocity": 0.6299212598425197
        },
        {
          "duration": 0.3159719062499988,
          "durationTicks": 455,
          "midi": 64,
          "name": "E4",
          "ticks": 66720,
          "time": 46.333287,
          "velocity": 0.6299212598425197
        },
        {
          "duration": 0.3159719062499988,
          "durationTicks": 455,
          "midi": 60,
          "name": "C4",
          "ticks": 67440,
          "time": 46.8332865,
          "velocity": 0.6299212598425197
        },
        {
          "duration": 0.3159719062499988,
          "durationTicks": 455,
          "midi": 69,
          "name": "A4",
          "ticks": 67440,
          "time": 46.8332865,
          "velocity": 0.6299212598425197
        },
        {
          "duration": 0.3159719062499988,
          "durationTicks": 455,
          "midi": 62,
          "name": "D4",
          "ticks": 67920,
          "time": 47.166619499999996,
          "velocity": 0.6299212598425197
        },
        {
          "duration": 0.3159719062499988,
          "durationTicks": 455,
          "midi": 71,
          "name": "B4",
          "ticks": 67920,
          "time": 47.166619499999996,
          "velocity": 0.6299212598425197
        },
        {
          "duration": 0.15763873124999606,
          "durationTicks": 227,
          "midi": 61,
          "name": "C#4",
          "ticks": 68400,
          "time": 47.4999525,
          "velocity": 0.6299212598425197
        },
        {
          "duration": 0.15763873124999606,
          "durationTicks": 227,
          "midi": 70,
          "name": "A#4",
          "ticks": 68400,
          "time": 47.4999525,
          "velocity": 0.6299212598425197
        },
        {
          "duration": 0.3159719062499988,
          "durationTicks": 455,
          "midi": 60,
          "name": "C4",
          "ticks": 68640,
          "time": 47.666619,
          "velocity": 0.6299212598425197
        },
        {
          "duration": 0.3159719062499988,
          "durationTicks": 455,
          "midi": 69,
          "name": "A4",
          "ticks": 68640,
          "time": 47.666619,
          "velocity": 0.6299212598425197
        },
        {
          "duration": 0.2104164562499946,
          "durationTicks": 303,
          "midi": 60,
          "name": "C4",
          "ticks": 69120,
          "time": 47.999952,
          "velocity": 0.6299212598425197
        },
        {
          "duration": 0.2104164562499946,
          "durationTicks": 303,
          "midi": 67,
          "name": "G4",
          "ticks": 69120,
          "time": 47.999952,
          "velocity": 0.6299212598425197
        },
        {
          "duration": 0.21041645625000882,
          "durationTicks": 303,
          "midi": 67,
          "name": "G4",
          "ticks": 69440,
          "time": 48.222173999999995,
          "velocity": 0.6299212598425197
        },
        {
          "duration": 0.21041645625000882,
          "durationTicks": 303,
          "midi": 76,
          "name": "E5",
          "ticks": 69440,
          "time": 48.222173999999995,
          "velocity": 0.6299212598425197
        },
        {
          "duration": 0.2104164562499946,
          "durationTicks": 303,
          "midi": 71,
          "name": "B4",
          "ticks": 69760,
          "time": 48.444396000000005,
          "velocity": 0.6299212598425197
        },
        {
          "duration": 0.2104164562499946,
          "durationTicks": 303,
          "midi": 79,
          "name": "G5",
          "ticks": 69760,
          "time": 48.444396000000005,
          "velocity": 0.6299212598425197
        },
        {
          "duration": 0.3159719062499988,
          "durationTicks": 455,
          "midi": 72,
          "name": "C5",
          "ticks": 70080,
          "time": 48.666618,
          "velocity": 0.6299212598425197
        },
        {
          "duration": 0.3159719062499988,
          "durationTicks": 455,
          "midi": 81,
          "name": "A5",
          "ticks": 70080,
          "time": 48.666618,
          "velocity": 0.6299212598425197
        },
        {
          "duration": 0.15763873125000316,
          "durationTicks": 227,
          "midi": 69,
          "name": "A4",
          "ticks": 70560,
          "time": 48.999950999999996,
          "velocity": 0.6299212598425197
        },
        {
          "duration": 0.15763873125000316,
          "durationTicks": 227,
          "midi": 77,
          "name": "F5",
          "ticks": 70560,
          "time": 48.999950999999996,
          "velocity": 0.6299212598425197
        },
        {
          "duration": 0.15763873124999606,
          "durationTicks": 227,
          "midi": 71,
          "name": "B4",
          "ticks": 70800,
          "time": 49.1666175,
          "velocity": 0.6299212598425197
        },
        {
          "duration": 0.15763873124999606,
          "durationTicks": 227,
          "midi": 79,
          "name": "G5",
          "ticks": 70800,
          "time": 49.1666175,
          "velocity": 0.6299212598425197
        },
        {
          "duration": 0.3159719062499988,
          "durationTicks": 455,
          "midi": 69,
          "name": "A4",
          "ticks": 71280,
          "time": 49.4999505,
          "velocity": 0.6299212598425197
        },
        {
          "duration": 0.3159719062499988,
          "durationTicks": 455,
          "midi": 76,
          "name": "E5",
          "ticks": 71280,
          "time": 49.4999505,
          "velocity": 0.6299212598425197
        },
        {
          "duration": 0.15763873124999606,
          "durationTicks": 227,
          "midi": 64,
          "name": "E4",
          "ticks": 71760,
          "time": 49.8332835,
          "velocity": 0.6299212598425197
        },
        {
          "duration": 0.15763873124999606,
          "durationTicks": 227,
          "midi": 72,
          "name": "C5",
          "ticks": 71760,
          "time": 49.8332835,
          "velocity": 0.6299212598425197
        },
        {
          "duration": 0.15763873124999606,
          "durationTicks": 227,
          "midi": 65,
          "name": "F4",
          "ticks": 72000,
          "time": 49.99995,
          "velocity": 0.6299212598425197
        },
        {
          "duration": 0.15763873124999606,
          "durationTicks": 227,
          "midi": 74,
          "name": "D5",
          "ticks": 72000,
          "time": 49.99995,
          "velocity": 0.6299212598425197
        },
        {
          "duration": 0.3159719062499988,
          "durationTicks": 455,
          "midi": 62,
          "name": "D4",
          "ticks": 72240,
          "time": 50.166616499999996,
          "velocity": 0.6299212598425197
        },
        {
          "duration": 0.3159719062499988,
          "durationTicks": 455,
          "midi": 71,
          "name": "B4",
          "ticks": 72240,
          "time": 50.166616499999996,
          "velocity": 0.6299212598425197
        },
        {
          "duration": 0.3159719062499988,
          "durationTicks": 455,
          "midi": 64,
          "name": "E4",
          "ticks": 72960,
          "time": 50.666616,
          "velocity": 0.6299212598425197
        },
        {
          "duration": 0.3159719062499988,
          "durationTicks": 455,
          "midi": 72,
          "name": "C5",
          "ticks": 72960,
          "time": 50.666616,
          "velocity": 0.6299212598425197
        },
        {
          "duration": 0.3159719062499988,
          "durationTicks": 455,
          "midi": 60,
          "name": "C4",
          "ticks": 73680,
          "time": 51.1666155,
          "velocity": 0.6299212598425197
        },
        {
          "duration": 0.3159719062499988,
          "durationTicks": 455,
          "midi": 67,
          "name": "G4",
          "ticks": 73680,
          "time": 51.1666155,
          "velocity": 0.6299212598425197
        },
        {
          "duration": 0.3159719062499917,
          "durationTicks": 455,
          "midi": 55,
          "name": "G3",
          "ticks": 74400,
          "time": 51.666615,
          "velocity": 0.6299212598425197
        },
        {
          "duration": 0.3159719062499917,
          "durationTicks": 455,
          "midi": 64,
          "name": "E4",
          "ticks": 74400,
          "time": 51.666615,
          "velocity": 0.6299212598425197
        },
        {
          "duration": 0.3159719062499917,
          "durationTicks": 455,
          "midi": 60,
          "name": "C4",
          "ticks": 75120,
          "time": 52.1666145,
          "velocity": 0.6299212598425197
        },
        {
          "duration": 0.3159719062499917,
          "durationTicks": 455,
          "midi": 69,
          "name": "A4",
          "ticks": 75120,
          "time": 52.1666145,
          "velocity": 0.6299212598425197
        },
        {
          "duration": 0.3159719062499988,
          "durationTicks": 455,
          "midi": 62,
          "name": "D4",
          "ticks": 75600,
          "time": 52.4999475,
          "velocity": 0.6299212598425197
        },
        {
          "duration": 0.3159719062499988,
          "durationTicks": 455,
          "midi": 71,
          "name": "B4",
          "ticks": 75600,
          "time": 52.4999475,
          "velocity": 0.6299212598425197
        },
        {
          "duration": 0.15763873124999606,
          "durationTicks": 227,
          "midi": 61,
          "name": "C#4",
          "ticks": 76080,
          "time": 52.8332805,
          "velocity": 0.6299212598425197
        },
        {
          "duration": 0.15763873124999606,
          "durationTicks": 227,
          "midi": 70,
          "name": "A#4",
          "ticks": 76080,
          "time": 52.8332805,
          "velocity": 0.6299212598425197
        },
        {
          "duration": 0.3159719062499988,
          "durationTicks": 455,
          "midi": 60,
          "name": "C4",
          "ticks": 76320,
          "time": 52.999947,
          "velocity": 0.6299212598425197
        },
        {
          "duration": 0.3159719062499988,
          "durationTicks": 455,
          "midi": 69,
          "name": "A4",
          "ticks": 76320,
          "time": 52.999947,
          "velocity": 0.6299212598425197
        },
        {
          "duration": 0.2104164562499946,
          "durationTicks": 303,
          "midi": 60,
          "name": "C4",
          "ticks": 76800,
          "time": 53.33328,
          "velocity": 0.6299212598425197
        },
        {
          "duration": 0.2104164562499946,
          "durationTicks": 303,
          "midi": 67,
          "name": "G4",
          "ticks": 76800,
          "time": 53.33328,
          "velocity": 0.6299212598425197
        },
        {
          "duration": 0.21041645625000882,
          "durationTicks": 303,
          "midi": 67,
          "name": "G4",
          "ticks": 77120,
          "time": 53.555502,
          "velocity": 0.6299212598425197
        },
        {
          "duration": 0.21041645625000882,
          "durationTicks": 303,
          "midi": 76,
          "name": "E5",
          "ticks": 77120,
          "time": 53.555502,
          "velocity": 0.6299212598425197
        },
        {
          "duration": 0.21041645625000172,
          "durationTicks": 303,
          "midi": 71,
          "name": "B4",
          "ticks": 77440,
          "time": 53.777724,
          "velocity": 0.6299212598425197
        },
        {
          "duration": 0.21041645625000172,
          "durationTicks": 303,
          "midi": 79,
          "name": "G5",
          "ticks": 77440,
          "time": 53.777724,
          "velocity": 0.6299212598425197
        },
        {
          "duration": 0.3159719062499917,
          "durationTicks": 455,
          "midi": 72,
          "name": "C5",
          "ticks": 77760,
          "time": 53.999946,
          "velocity": 0.6299212598425197
        },
        {
          "duration": 0.3159719062499917,
          "durationTicks": 455,
          "midi": 81,
          "name": "A5",
          "ticks": 77760,
          "time": 53.999946,
          "velocity": 0.6299212598425197
        },
        {
          "duration": 0.15763873125000316,
          "durationTicks": 227,
          "midi": 69,
          "name": "A4",
          "ticks": 78240,
          "time": 54.333279,
          "velocity": 0.6299212598425197
        },
        {
          "duration": 0.15763873125000316,
          "durationTicks": 227,
          "midi": 77,
          "name": "F5",
          "ticks": 78240,
          "time": 54.333279,
          "velocity": 0.6299212598425197
        },
        {
          "duration": 0.15763873125000316,
          "durationTicks": 227,
          "midi": 71,
          "name": "B4",
          "ticks": 78480,
          "time": 54.499945499999995,
          "velocity": 0.6299212598425197
        },
        {
          "duration": 0.15763873125000316,
          "durationTicks": 227,
          "midi": 79,
          "name": "G5",
          "ticks": 78480,
          "time": 54.499945499999995,
          "velocity": 0.6299212598425197
        },
        {
          "duration": 0.3159719062499988,
          "durationTicks": 455,
          "midi": 69,
          "name": "A4",
          "ticks": 78960,
          "time": 54.8332785,
          "velocity": 0.6299212598425197
        },
        {
          "duration": 0.3159719062499988,
          "durationTicks": 455,
          "midi": 76,
          "name": "E5",
          "ticks": 78960,
          "time": 54.8332785,
          "velocity": 0.6299212598425197
        },
        {
          "duration": 0.15763873124999606,
          "durationTicks": 227,
          "midi": 64,
          "name": "E4",
          "ticks": 79440,
          "time": 55.1666115,
          "velocity": 0.6299212598425197
        },
        {
          "duration": 0.15763873124999606,
          "durationTicks": 227,
          "midi": 72,
          "name": "C5",
          "ticks": 79440,
          "time": 55.1666115,
          "velocity": 0.6299212598425197
        },
        {
          "duration": 0.15763873124999606,
          "durationTicks": 227,
          "midi": 65,
          "name": "F4",
          "ticks": 79680,
          "time": 55.333278,
          "velocity": 0.6299212598425197
        },
        {
          "duration": 0.15763873124999606,
          "durationTicks": 227,
          "midi": 74,
          "name": "D5",
          "ticks": 79680,
          "time": 55.333278,
          "velocity": 0.6299212598425197
        },
        {
          "duration": 0.3159719062499988,
          "durationTicks": 455,
          "midi": 62,
          "name": "D4",
          "ticks": 79920,
          "time": 55.4999445,
          "velocity": 0.6299212598425197
        },
        {
          "duration": 0.3159719062499988,
          "durationTicks": 455,
          "midi": 71,
          "name": "B4",
          "ticks": 79920,
          "time": 55.4999445,
          "velocity": 0.6299212598425197
        },
        {
          "duration": 0.15763873124999606,
          "durationTicks": 227,
          "midi": 72,
          "name": "C5",
          "ticks": 80640,
          "time": 55.999944,
          "velocity": 0.6299212598425197
        },
        {
          "duration": 0.15763873124999606,
          "durationTicks": 227,
          "midi": 76,
          "name": "E5",
          "ticks": 80640,
          "time": 55.999944,
          "velocity": 0.6299212598425197
        },
        {
          "duration": 0.3159719062499988,
          "durationTicks": 455,
          "midi": 69,
          "name": "A4",
          "ticks": 80880,
          "time": 56.1666105,
          "velocity": 0.6299212598425197
        },
        {
          "duration": 0.3159719062499988,
          "durationTicks": 455,
          "midi": 72,
          "name": "C5",
          "ticks": 80880,
          "time": 56.1666105,
          "velocity": 0.6299212598425197
        },
        {
          "duration": 0.15763873124999606,
          "durationTicks": 227,
          "midi": 64,
          "name": "E4",
          "ticks": 81360,
          "time": 56.4999435,
          "velocity": 0.6299212598425197
        },
        {
          "duration": 0.15763873124999606,
          "durationTicks": 227,
          "midi": 67,
          "name": "G4",
          "ticks": 81360,
          "time": 56.4999435,
          "velocity": 0.6299212598425197
        },
        {
          "duration": 0.3159719062499917,
          "durationTicks": 455,
          "midi": 64,
          "name": "E4",
          "ticks": 82080,
          "time": 56.999943,
          "velocity": 0.6299212598425197
        },
        {
          "duration": 0.3159719062499917,
          "durationTicks": 455,
          "midi": 68,
          "name": "G#4",
          "ticks": 82080,
          "time": 56.999943,
          "velocity": 0.6299212598425197
        },
        {
          "duration": 0.15763873124999606,
          "durationTicks": 227,
          "midi": 65,
          "name": "F4",
          "ticks": 82560,
          "time": 57.333276,
          "velocity": 0.6299212598425197
        },
        {
          "duration": 0.15763873124999606,
          "durationTicks": 227,
          "midi": 69,
          "name": "A4",
          "ticks": 82560,
          "time": 57.333276,
          "velocity": 0.6299212598425197
        },
        {
          "duration": 0.3159719062499988,
          "durationTicks": 455,
          "midi": 72,
          "name": "C5",
          "ticks": 82800,
          "time": 57.499942499999996,
          "velocity": 0.6299212598425197
        },
        {
          "duration": 0.3159719062499988,
          "durationTicks": 455,
          "midi": 77,
          "name": "F5",
          "ticks": 82800,
          "time": 57.499942499999996,
          "velocity": 0.6299212598425197
        },
        {
          "duration": 0.15763873124999606,
          "durationTicks": 227,
          "midi": 72,
          "name": "C5",
          "ticks": 83280,
          "time": 57.8332755,
          "velocity": 0.6299212598425197
        },
        {
          "duration": 0.15763873124999606,
          "durationTicks": 227,
          "midi": 77,
          "name": "F5",
          "ticks": 83280,
          "time": 57.8332755,
          "velocity": 0.6299212598425197
        },
        {
          "duration": 0.3159719062499988,
          "durationTicks": 455,
          "midi": 65,
          "name": "F4",
          "ticks": 83520,
          "time": 57.999942,
          "velocity": 0.6299212598425197
        },
        {
          "duration": 0.3159719062499988,
          "durationTicks": 455,
          "midi": 69,
          "name": "A4",
          "ticks": 83520,
          "time": 57.999942,
          "velocity": 0.6299212598425197
        },
        {
          "duration": 0.21041645625000172,
          "durationTicks": 303,
          "midi": 67,
          "name": "G4",
          "ticks": 84480,
          "time": 58.666608,
          "velocity": 0.6299212598425197
        },
        {
          "duration": 0.21041645625000172,
          "durationTicks": 303,
          "midi": 71,
          "name": "B4",
          "ticks": 84480,
          "time": 58.666608,
          "velocity": 0.6299212598425197
        },
        {
          "duration": 0.21041645625000172,
          "durationTicks": 303,
          "midi": 77,
          "name": "F5",
          "ticks": 84800,
          "time": 58.88883,
          "velocity": 0.6299212598425197
        },
        {
          "duration": 0.21041645625000172,
          "durationTicks": 303,
          "midi": 81,
          "name": "A5",
          "ticks": 84800,
          "time": 58.88883,
          "velocity": 0.6299212598425197
        },
        {
          "duration": 0.21041645625000172,
          "durationTicks": 303,
          "midi": 77,
          "name": "F5",
          "ticks": 85120,
          "time": 59.111052,
          "velocity": 0.6299212598425197
        },
        {
          "duration": 0.21041645625000172,
          "durationTicks": 303,
          "midi": 81,
          "name": "A5",
          "ticks": 85120,
          "time": 59.111052,
          "velocity": 0.6299212598425197
        },
        {
          "duration": 0.21041645625000172,
          "durationTicks": 303,
          "midi": 77,
          "name": "F5",
          "ticks": 85440,
          "time": 59.333273999999996,
          "velocity": 0.6299212598425197
        },
        {
          "duration": 0.21041645625000172,
          "durationTicks": 303,
          "midi": 81,
          "name": "A5",
          "ticks": 85440,
          "time": 59.333273999999996,
          "velocity": 0.6299212598425197
        },
        {
          "duration": 0.21041645625000172,
          "durationTicks": 303,
          "midi": 76,
          "name": "E5",
          "ticks": 85760,
          "time": 59.555496,
          "velocity": 0.6299212598425197
        },
        {
          "duration": 0.21041645625000172,
          "durationTicks": 303,
          "midi": 79,
          "name": "G5",
          "ticks": 85760,
          "time": 59.555496,
          "velocity": 0.6299212598425197
        },
        {
          "duration": 0.21041645625000172,
          "durationTicks": 303,
          "midi": 74,
          "name": "D5",
          "ticks": 86080,
          "time": 59.777718,
          "velocity": 0.6299212598425197
        },
        {
          "duration": 0.21041645625000172,
          "durationTicks": 303,
          "midi": 77,
          "name": "F5",
          "ticks": 86080,
          "time": 59.777718,
          "velocity": 0.6299212598425197
        },
        {
          "duration": 0.15763873125000316,
          "durationTicks": 227,
          "midi": 72,
          "name": "C5",
          "ticks": 86400,
          "time": 59.999939999999995,
          "velocity": 0.6299212598425197
        },
        {
          "duration": 0.15763873125000316,
          "durationTicks": 227,
          "midi": 76,
          "name": "E5",
          "ticks": 86400,
          "time": 59.999939999999995,
          "velocity": 0.6299212598425197
        },
        {
          "duration": 0.3159719062499917,
          "durationTicks": 455,
          "midi": 69,
          "name": "A4",
          "ticks": 86640,
          "time": 60.1666065,
          "velocity": 0.6299212598425197
        },
        {
          "duration": 0.3159719062499917,
          "durationTicks": 455,
          "midi": 72,
          "name": "C5",
          "ticks": 86640,
          "time": 60.1666065,
          "velocity": 0.6299212598425197
        },
        {
          "duration": 0.15763873125000316,
          "durationTicks": 227,
          "midi": 65,
          "name": "F4",
          "ticks": 87120,
          "time": 60.499939499999996,
          "velocity": 0.6299212598425197
        },
        {
          "duration": 0.15763873125000316,
          "durationTicks": 227,
          "midi": 69,
          "name": "A4",
          "ticks": 87120,
          "time": 60.499939499999996,
          "velocity": 0.6299212598425197
        },
        {
          "duration": 0.3159719062499917,
          "durationTicks": 455,
          "midi": 64,
          "name": "E4",
          "ticks": 87360,
          "time": 60.666606,
          "velocity": 0.6299212598425197
        },
        {
          "duration": 0.3159719062499917,
          "durationTicks": 455,
          "midi": 67,
          "name": "G4",
          "ticks": 87360,
          "time": 60.666606,
          "velocity": 0.6299212598425197
        },
        {
          "duration": 0.15763873124999606,
          "durationTicks": 227,
          "midi": 72,
          "name": "C5",
          "ticks": 88320,
          "time": 61.333272,
          "velocity": 0.6299212598425197
        },
        {
          "duration": 0.15763873124999606,
          "durationTicks": 227,
          "midi": 76,
          "name": "E5",
          "ticks": 88320,
          "time": 61.333272,
          "velocity": 0.6299212598425197
        },
        {
          "duration": 0.3159719062499988,
          "durationTicks": 455,
          "midi": 69,
          "name": "A4",
          "ticks": 88560,
          "time": 61.4999385,
          "velocity": 0.6299212598425197
        },
        {
          "duration": 0.3159719062499988,
          "durationTicks": 455,
          "midi": 72,
          "name": "C5",
          "ticks": 88560,
          "time": 61.4999385,
          "velocity": 0.6299212598425197
        },
        {
          "duration": 0.15763873125000316,
          "durationTicks": 227,
          "midi": 64,
          "name": "E4",
          "ticks": 89040,
          "time": 61.833271499999995,
          "velocity": 0.6299212598425197
        },
        {
          "duration": 0.15763873125000316,
          "durationTicks": 227,
          "midi": 67,
          "name": "G4",
          "ticks": 89040,
          "time": 61.833271499999995,
          "velocity": 0.6299212598425197
        },
        {
          "duration": 0.3159719062499988,
          "durationTicks": 455,
          "midi": 64,
          "name": "E4",
          "ticks": 89760,
          "time": 62.333270999999996,
          "velocity": 0.6299212598425197
        },
        {
          "duration": 0.3159719062499988,
          "durationTicks": 455,
          "midi": 68,
          "name": "G#4",
          "ticks": 89760,
          "time": 62.333270999999996,
          "velocity": 0.6299212598425197
        },
        {
          "duration": 0.15763873124999606,
          "durationTicks": 227,
          "midi": 65,
          "name": "F4",
          "ticks": 90240,
          "time": 62.666604,
          "velocity": 0.6299212598425197
        },
        {
          "duration": 0.15763873124999606,
          "durationTicks": 227,
          "midi": 69,
          "name": "A4",
          "ticks": 90240,
          "time": 62.666604,
          "velocity": 0.6299212598425197
        },
        {
          "duration": 0.3159719062499988,
          "durationTicks": 455,
          "midi": 72,
          "name": "C5",
          "ticks": 90480,
          "time": 62.8332705,
          "velocity": 0.6299212598425197
        },
        {
          "duration": 0.3159719062499988,
          "durationTicks": 455,
          "midi": 77,
          "name": "F5",
          "ticks": 90480,
          "time": 62.8332705,
          "velocity": 0.6299212598425197
        },
        {
          "duration": 0.15763873124999606,
          "durationTicks": 227,
          "midi": 72,
          "name": "C5",
          "ticks": 90960,
          "time": 63.1666035,
          "velocity": 0.6299212598425197
        },
        {
          "duration": 0.15763873124999606,
          "durationTicks": 227,
          "midi": 77,
          "name": "F5",
          "ticks": 90960,
          "time": 63.1666035,
          "velocity": 0.6299212598425197
        },
        {
          "duration": 0.3159719062499988,
          "durationTicks": 455,
          "midi": 65,
          "name": "F4",
          "ticks": 91200,
          "time": 63.33327,
          "velocity": 0.6299212598425197
        },
        {
          "duration": 0.3159719062499988,
          "durationTicks": 455,
          "midi": 69,
          "name": "A4",
          "ticks": 91200,
          "time": 63.33327,
          "velocity": 0.6299212598425197
        },
        {
          "duration": 0.15763873124999606,
          "durationTicks": 227,
          "midi": 67,
          "name": "G4",
          "ticks": 92160,
          "time": 63.999936,
          "velocity": 0.6299212598425197
        },
        {
          "duration": 0.15763873124999606,
          "durationTicks": 227,
          "midi": 71,
          "name": "B4",
          "ticks": 92160,
          "time": 63.999936,
          "velocity": 0.6299212598425197
        },
        {
          "duration": 0.3159719062499988,
          "durationTicks": 455,
          "midi": 74,
          "name": "D5",
          "ticks": 92400,
          "time": 64.1666025,
          "velocity": 0.6299212598425197
        },
        {
          "duration": 0.3159719062499988,
          "durationTicks": 455,
          "midi": 77,
          "name": "F5",
          "ticks": 92400,
          "time": 64.1666025,
          "velocity": 0.6299212598425197
        },
        {
          "duration": 0.15763873125000316,
          "durationTicks": 227,
          "midi": 74,
          "name": "D5",
          "ticks": 92880,
          "time": 64.49993549999999,
          "velocity": 0.6299212598425197
        },
        {
          "duration": 0.15763873125000316,
          "durationTicks": 227,
          "midi": 77,
          "name": "F5",
          "ticks": 92880,
          "time": 64.49993549999999,
          "velocity": 0.6299212598425197
        },
        {
          "duration": 0.21041645625000172,
          "durationTicks": 303,
          "midi": 74,
          "name": "D5",
          "ticks": 93120,
          "time": 64.666602,
          "velocity": 0.6299212598425197
        },
        {
          "duration": 0.21041645625000172,
          "durationTicks": 303,
          "midi": 77,
          "name": "F5",
          "ticks": 93120,
          "time": 64.666602,
          "velocity": 0.6299212598425197
        },
        {
          "duration": 0.21041645625000172,
          "durationTicks": 303,
          "midi": 72,
          "name": "C5",
          "ticks": 93440,
          "time": 64.888824,
          "velocity": 0.6299212598425197
        },
        {
          "duration": 0.21041645625000172,
          "durationTicks": 303,
          "midi": 76,
          "name": "E5",
          "ticks": 93440,
          "time": 64.888824,
          "velocity": 0.6299212598425197
        },
        {
          "duration": 0.21041645625000172,
          "durationTicks": 303,
          "midi": 71,
          "name": "B4",
          "ticks": 93760,
          "time": 65.111046,
          "velocity": 0.6299212598425197
        },
        {
          "duration": 0.21041645625000172,
          "durationTicks": 303,
          "midi": 74,
          "name": "D5",
          "ticks": 93760,
          "time": 65.111046,
          "velocity": 0.6299212598425197
        },
        {
          "duration": 0.6326382562499901,
          "durationTicks": 911,
          "midi": 72,
          "name": "C5",
          "ticks": 94080,
          "time": 65.333268,
          "velocity": 0.6299212598425197
        },
        {
          "duration": 0.15763873124998895,
          "durationTicks": 227,
          "midi": 67,
          "name": "G4",
          "ticks": 94080,
          "time": 65.333268,
          "velocity": 0.6299212598425197
        },
        {
          "duration": 0.3159719062499988,
          "durationTicks": 455,
          "midi": 64,
          "name": "E4",
          "ticks": 94320,
          "time": 65.4999345,
          "velocity": 0.6299212598425197
        },
        {
          "duration": 0.15763873124998895,
          "durationTicks": 227,
          "midi": 64,
          "name": "E4",
          "ticks": 94800,
          "time": 65.8332675,
          "velocity": 0.6299212598425197
        },
        {
          "duration": 0.3159719062499988,
          "durationTicks": 455,
          "midi": 60,
          "name": "C4",
          "ticks": 95040,
          "time": 65.999934,
          "velocity": 0.6299212598425197
        },
        {
          "duration": 0.15763873124998895,
          "durationTicks": 227,
          "midi": 72,
          "name": "C5",
          "ticks": 96000,
          "time": 66.6666,
          "velocity": 0.6299212598425197
        },
        {
          "duration": 0.15763873124998895,
          "durationTicks": 227,
          "midi": 76,
          "name": "E5",
          "ticks": 96000,
          "time": 66.6666,
          "velocity": 0.6299212598425197
        },
        {
          "duration": 0.3159719062499988,
          "durationTicks": 455,
          "midi": 69,
          "name": "A4",
          "ticks": 96240,
          "time": 66.8332665,
          "velocity": 0.6299212598425197
        },
        {
          "duration": 0.3159719062499988,
          "durationTicks": 455,
          "midi": 72,
          "name": "C5",
          "ticks": 96240,
          "time": 66.8332665,
          "velocity": 0.6299212598425197
        },
        {
          "duration": 0.15763873124998895,
          "durationTicks": 227,
          "midi": 64,
          "name": "E4",
          "ticks": 96720,
          "time": 67.1665995,
          "velocity": 0.6299212598425197
        },
        {
          "duration": 0.15763873124998895,
          "durationTicks": 227,
          "midi": 67,
          "name": "G4",
          "ticks": 96720,
          "time": 67.1665995,
          "velocity": 0.6299212598425197
        },
        {
          "duration": 0.3159719062499846,
          "durationTicks": 455,
          "midi": 64,
          "name": "E4",
          "ticks": 97440,
          "time": 67.666599,
          "velocity": 0.6299212598425197
        },
        {
          "duration": 0.3159719062499846,
          "durationTicks": 455,
          "midi": 68,
          "name": "G#4",
          "ticks": 97440,
          "time": 67.666599,
          "velocity": 0.6299212598425197
        },
        {
          "duration": 0.15763873124998895,
          "durationTicks": 227,
          "midi": 65,
          "name": "F4",
          "ticks": 97920,
          "time": 67.999932,
          "velocity": 0.6299212598425197
        },
        {
          "duration": 0.15763873124998895,
          "durationTicks": 227,
          "midi": 69,
          "name": "A4",
          "ticks": 97920,
          "time": 67.999932,
          "velocity": 0.6299212598425197
        },
        {
          "duration": 0.3159719062499988,
          "durationTicks": 455,
          "midi": 72,
          "name": "C5",
          "ticks": 98160,
          "time": 68.16659849999999,
          "velocity": 0.6299212598425197
        },
        {
          "duration": 0.3159719062499988,
          "durationTicks": 455,
          "midi": 77,
          "name": "F5",
          "ticks": 98160,
          "time": 68.16659849999999,
          "velocity": 0.6299212598425197
        },
        {
          "duration": 0.15763873124998895,
          "durationTicks": 227,
          "midi": 72,
          "name": "C5",
          "ticks": 98640,
          "time": 68.4999315,
          "velocity": 0.6299212598425197
        },
        {
          "duration": 0.15763873124998895,
          "durationTicks": 227,
          "midi": 77,
          "name": "F5",
          "ticks": 98640,
          "time": 68.4999315,
          "velocity": 0.6299212598425197
        },
        {
          "duration": 0.3159719062499988,
          "durationTicks": 455,
          "midi": 65,
          "name": "F4",
          "ticks": 98880,
          "time": 68.666598,
          "velocity": 0.6299212598425197
        },
        {
          "duration": 0.3159719062499988,
          "durationTicks": 455,
          "midi": 69,
          "name": "A4",
          "ticks": 98880,
          "time": 68.666598,
          "velocity": 0.6299212598425197
        },
        {
          "duration": 0.21041645625000172,
          "durationTicks": 303,
          "midi": 67,
          "name": "G4",
          "ticks": 99840,
          "time": 69.333264,
          "velocity": 0.6299212598425197
        },
        {
          "duration": 0.21041645625000172,
          "durationTicks": 303,
          "midi": 71,
          "name": "B4",
          "ticks": 99840,
          "time": 69.333264,
          "velocity": 0.6299212598425197
        },
        {
          "duration": 0.21041645625000172,
          "durationTicks": 303,
          "midi": 77,
          "name": "F5",
          "ticks": 100160,
          "time": 69.555486,
          "velocity": 0.6299212598425197
        },
        {
          "duration": 0.21041645625000172,
          "durationTicks": 303,
          "midi": 81,
          "name": "A5",
          "ticks": 100160,
          "time": 69.555486,
          "velocity": 0.6299212598425197
        },
        {
          "duration": 0.21041645625000172,
          "durationTicks": 303,
          "midi": 77,
          "name": "F5",
          "ticks": 100480,
          "time": 69.777708,
          "velocity": 0.6299212598425197
        },
        {
          "duration": 0.21041645625000172,
          "durationTicks": 303,
          "midi": 81,
          "name": "A5",
          "ticks": 100480,
          "time": 69.777708,
          "velocity": 0.6299212598425197
        },
        {
          "duration": 0.21041645625000172,
          "durationTicks": 303,
          "midi": 77,
          "name": "F5",
          "ticks": 100800,
          "time": 69.99992999999999,
          "velocity": 0.6299212598425197
        },
        {
          "duration": 0.21041645625000172,
          "durationTicks": 303,
          "midi": 81,
          "name": "A5",
          "ticks": 100800,
          "time": 69.99992999999999,
          "velocity": 0.6299212598425197
        },
        {
          "duration": 0.21041645625000172,
          "durationTicks": 303,
          "midi": 76,
          "name": "E5",
          "ticks": 101120,
          "time": 70.222152,
          "velocity": 0.6299212598425197
        },
        {
          "duration": 0.21041645625000172,
          "durationTicks": 303,
          "midi": 79,
          "name": "G5",
          "ticks": 101120,
          "time": 70.222152,
          "velocity": 0.6299212598425197
        },
        {
          "duration": 0.21041645625000172,
          "durationTicks": 303,
          "midi": 74,
          "name": "D5",
          "ticks": 101440,
          "time": 70.444374,
          "velocity": 0.6299212598425197
        },
        {
          "duration": 0.21041645625000172,
          "durationTicks": 303,
          "midi": 77,
          "name": "F5",
          "ticks": 101440,
          "time": 70.444374,
          "velocity": 0.6299212598425197
        },
        {
          "duration": 0.15763873125000316,
          "durationTicks": 227,
          "midi": 72,
          "name": "C5",
          "ticks": 101760,
          "time": 70.666596,
          "velocity": 0.6299212598425197
        },
        {
          "duration": 0.15763873125000316,
          "durationTicks": 227,
          "midi": 76,
          "name": "E5",
          "ticks": 101760,
          "time": 70.666596,
          "velocity": 0.6299212598425197
        },
        {
          "duration": 0.3159719062499846,
          "durationTicks": 455,
          "midi": 69,
          "name": "A4",
          "ticks": 102000,
          "time": 70.8332625,
          "velocity": 0.6299212598425197
        },
        {
          "duration": 0.3159719062499846,
          "durationTicks": 455,
          "midi": 72,
          "name": "C5",
          "ticks": 102000,
          "time": 70.8332625,
          "velocity": 0.6299212598425197
        },
        {
          "duration": 0.15763873125000316,
          "durationTicks": 227,
          "midi": 65,
          "name": "F4",
          "ticks": 102480,
          "time": 71.1665955,
          "velocity": 0.6299212598425197
        },
        {
          "duration": 0.15763873125000316,
          "durationTicks": 227,
          "midi": 69,
          "name": "A4",
          "ticks": 102480,
          "time": 71.1665955,
          "velocity": 0.6299212598425197
        },
        {
          "duration": 0.3159719062499846,
          "durationTicks": 455,
          "midi": 64,
          "name": "E4",
          "ticks": 102720,
          "time": 71.333262,
          "velocity": 0.6299212598425197
        },
        {
          "duration": 0.3159719062499846,
          "durationTicks": 455,
          "midi": 67,
          "name": "G4",
          "ticks": 102720,
          "time": 71.333262,
          "velocity": 0.6299212598425197
        },
        {
          "duration": 0.15763873125000316,
          "durationTicks": 227,
          "midi": 72,
          "name": "C5",
          "ticks": 103680,
          "time": 71.999928,
          "velocity": 0.6299212598425197
        },
        {
          "duration": 0.15763873125000316,
          "durationTicks": 227,
          "midi": 76,
          "name": "E5",
          "ticks": 103680,
          "time": 71.999928,
          "velocity": 0.6299212598425197
        },
        {
          "duration": 0.3159719062499988,
          "durationTicks": 455,
          "midi": 69,
          "name": "A4",
          "ticks": 103920,
          "time": 72.1665945,
          "velocity": 0.6299212598425197
        },
        {
          "duration": 0.3159719062499988,
          "durationTicks": 455,
          "midi": 72,
          "name": "C5",
          "ticks": 103920,
          "time": 72.1665945,
          "velocity": 0.6299212598425197
        },
        {
          "duration": 0.15763873125000316,
          "durationTicks": 227,
          "midi": 64,
          "name": "E4",
          "ticks": 104400,
          "time": 72.4999275,
          "velocity": 0.6299212598425197
        },
        {
          "duration": 0.15763873125000316,
          "durationTicks": 227,
          "midi": 67,
          "name": "G4",
          "ticks": 104400,
          "time": 72.4999275,
          "velocity": 0.6299212598425197
        },
        {
          "duration": 0.3159719062499988,
          "durationTicks": 455,
          "midi": 64,
          "name": "E4",
          "ticks": 105120,
          "time": 72.999927,
          "velocity": 0.6299212598425197
        },
        {
          "duration": 0.3159719062499988,
          "durationTicks": 455,
          "midi": 68,
          "name": "G#4",
          "ticks": 105120,
          "time": 72.999927,
          "velocity": 0.6299212598425197
        },
        {
          "duration": 0.15763873125000316,
          "durationTicks": 227,
          "midi": 65,
          "name": "F4",
          "ticks": 105600,
          "time": 73.33326,
          "velocity": 0.6299212598425197
        },
        {
          "duration": 0.15763873125000316,
          "durationTicks": 227,
          "midi": 69,
          "name": "A4",
          "ticks": 105600,
          "time": 73.33326,
          "velocity": 0.6299212598425197
        },
        {
          "duration": 0.3159719062499988,
          "durationTicks": 455,
          "midi": 72,
          "name": "C5",
          "ticks": 105840,
          "time": 73.4999265,
          "velocity": 0.6299212598425197
        },
        {
          "duration": 0.3159719062499988,
          "durationTicks": 455,
          "midi": 77,
          "name": "F5",
          "ticks": 105840,
          "time": 73.4999265,
          "velocity": 0.6299212598425197
        },
        {
          "duration": 0.15763873125000316,
          "durationTicks": 227,
          "midi": 72,
          "name": "C5",
          "ticks": 106320,
          "time": 73.8332595,
          "velocity": 0.6299212598425197
        },
        {
          "duration": 0.15763873125000316,
          "durationTicks": 227,
          "midi": 77,
          "name": "F5",
          "ticks": 106320,
          "time": 73.8332595,
          "velocity": 0.6299212598425197
        },
        {
          "duration": 0.3159719062499988,
          "durationTicks": 455,
          "midi": 65,
          "name": "F4",
          "ticks": 106560,
          "time": 73.999926,
          "velocity": 0.6299212598425197
        },
        {
          "duration": 0.3159719062499988,
          "durationTicks": 455,
          "midi": 69,
          "name": "A4",
          "ticks": 106560,
          "time": 73.999926,
          "velocity": 0.6299212598425197
        },
        {
          "duration": 0.15763873125000316,
          "durationTicks": 227,
          "midi": 67,
          "name": "G4",
          "ticks": 107520,
          "time": 74.666592,
          "velocity": 0.6299212598425197
        },
        {
          "duration": 0.15763873125000316,
          "durationTicks": 227,
          "midi": 71,
          "name": "B4",
          "ticks": 107520,
          "time": 74.666592,
          "velocity": 0.6299212598425197
        },
        {
          "duration": 0.3159719062499988,
          "durationTicks": 455,
          "midi": 74,
          "name": "D5",
          "ticks": 107760,
          "time": 74.8332585,
          "velocity": 0.6299212598425197
        },
        {
          "duration": 0.3159719062499988,
          "durationTicks": 455,
          "midi": 77,
          "name": "F5",
          "ticks": 107760,
          "time": 74.8332585,
          "velocity": 0.6299212598425197
        },
        {
          "duration": 0.15763873125000316,
          "durationTicks": 227,
          "midi": 74,
          "name": "D5",
          "ticks": 108240,
          "time": 75.1665915,
          "velocity": 0.6299212598425197
        },
        {
          "duration": 0.15763873125000316,
          "durationTicks": 227,
          "midi": 77,
          "name": "F5",
          "ticks": 108240,
          "time": 75.1665915,
          "velocity": 0.6299212598425197
        },
        {
          "duration": 0.21041645625000172,
          "durationTicks": 303,
          "midi": 74,
          "name": "D5",
          "ticks": 108480,
          "time": 75.333258,
          "velocity": 0.6299212598425197
        },
        {
          "duration": 0.21041645625000172,
          "durationTicks": 303,
          "midi": 77,
          "name": "F5",
          "ticks": 108480,
          "time": 75.333258,
          "velocity": 0.6299212598425197
        },
        {
          "duration": 0.21041645625001593,
          "durationTicks": 303,
          "midi": 72,
          "name": "C5",
          "ticks": 108800,
          "time": 75.55547999999999,
          "velocity": 0.6299212598425197
        },
        {
          "duration": 0.21041645625001593,
          "durationTicks": 303,
          "midi": 76,
          "name": "E5",
          "ticks": 108800,
          "time": 75.55547999999999,
          "velocity": 0.6299212598425197
        },
        {
          "duration": 0.2104164562499875,
          "durationTicks": 303,
          "midi": 71,
          "name": "B4",
          "ticks": 109120,
          "time": 75.777702,
          "velocity": 0.6299212598425197
        },
        {
          "duration": 0.2104164562499875,
          "durationTicks": 303,
          "midi": 74,
          "name": "D5",
          "ticks": 109120,
          "time": 75.777702,
          "velocity": 0.6299212598425197
        },
        {
          "duration": 0.6326382562500044,
          "durationTicks": 911,
          "midi": 72,
          "name": "C5",
          "ticks": 109440,
          "time": 75.999924,
          "velocity": 0.6299212598425197
        },
        {
          "duration": 0.15763873125000316,
          "durationTicks": 227,
          "midi": 67,
          "name": "G4",
          "ticks": 109440,
          "time": 75.999924,
          "velocity": 0.6299212598425197
        },
        {
          "duration": 0.3159719062499988,
          "durationTicks": 455,
          "midi": 64,
          "name": "E4",
          "ticks": 109680,
          "time": 76.1665905,
          "velocity": 0.6299212598425197
        },
        {
          "duration": 0.15763873125000316,
          "durationTicks": 227,
          "midi": 64,
          "name": "E4",
          "ticks": 110160,
          "time": 76.4999235,
          "velocity": 0.6299212598425197
        },
        {
          "duration": 0.3159719062499988,
          "durationTicks": 455,
          "midi": 60,
          "name": "C4",
          "ticks": 110400,
          "time": 76.66659,
          "velocity": 0.6299212598425197
        },
        {
          "duration": 0.15763873125000316,
          "durationTicks": 227,
          "midi": 68,
          "name": "G#4",
          "ticks": 111360,
          "time": 77.33325599999999,
          "velocity": 0.6299212598425197
        },
        {
          "duration": 0.15763873125000316,
          "durationTicks": 227,
          "midi": 72,
          "name": "C5",
          "ticks": 111360,
          "time": 77.33325599999999,
          "velocity": 0.6299212598425197
        },
        {
          "duration": 0.15763873125000316,
          "durationTicks": 227,
          "midi": 68,
          "name": "G#4",
          "ticks": 111600,
          "time": 77.4999225,
          "velocity": 0.6299212598425197
        },
        {
          "duration": 0.15763873125000316,
          "durationTicks": 227,
          "midi": 72,
          "name": "C5",
          "ticks": 111600,
          "time": 77.4999225,
          "velocity": 0.6299212598425197
        },
        {
          "duration": 0.15763873125000316,
          "durationTicks": 227,
          "midi": 68,
          "name": "G#4",
          "ticks": 112080,
          "time": 77.83325549999999,
          "velocity": 0.6299212598425197
        },
        {
          "duration": 0.15763873125000316,
          "durationTicks": 227,
          "midi": 72,
          "name": "C5",
          "ticks": 112080,
          "time": 77.83325549999999,
          "velocity": 0.6299212598425197
        },
        {
          "duration": 0.15763873124998895,
          "durationTicks": 227,
          "midi": 68,
          "name": "G#4",
          "ticks": 112560,
          "time": 78.1665885,
          "velocity": 0.6299212598425197
        },
        {
          "duration": 0.15763873124998895,
          "durationTicks": 227,
          "midi": 72,
          "name": "C5",
          "ticks": 112560,
          "time": 78.1665885,
          "velocity": 0.6299212598425197
        },
        {
          "duration": 0.3159719062499988,
          "durationTicks": 455,
          "midi": 70,
          "name": "A#4",
          "ticks": 112800,
          "time": 78.333255,
          "velocity": 0.6299212598425197
        },
        {
          "duration": 0.3159719062499988,
          "durationTicks": 455,
          "midi": 74,
          "name": "D5",
          "ticks": 112800,
          "time": 78.333255,
          "velocity": 0.6299212598425197
        },
        {
          "duration": 0.15763873124998895,
          "durationTicks": 227,
          "midi": 67,
          "name": "G4",
          "ticks": 113280,
          "time": 78.666588,
          "velocity": 0.6299212598425197
        },
        {
          "duration": 0.15763873124998895,
          "durationTicks": 227,
          "midi": 76,
          "name": "E5",
          "ticks": 113280,
          "time": 78.666588,
          "velocity": 0.6299212598425197
        },
        {
          "duration": 0.15763873125000316,
          "durationTicks": 227,
          "midi": 64,
          "name": "E4",
          "ticks": 113520,
          "time": 78.8332545,
          "velocity": 0.6299212598425197
        },
        {
          "duration": 0.15763873125000316,
          "durationTicks": 227,
          "midi": 72,
          "name": "C5",
          "ticks": 113520,
          "time": 78.8332545,
          "velocity": 0.6299212598425197
        },
        {
          "duration": 0.15763873125000316,
          "durationTicks": 227,
          "midi": 64,
          "name": "E4",
          "ticks": 114000,
          "time": 79.16658749999999,
          "velocity": 0.6299212598425197
        },
        {
          "duration": 0.15763873125000316,
          "durationTicks": 227,
          "midi": 69,
          "name": "A4",
          "ticks": 114000,
          "time": 79.16658749999999,
          "velocity": 0.6299212598425197
        },
        {
          "duration": 0.6326382562500044,
          "durationTicks": 911,
          "midi": 60,
          "name": "C4",
          "ticks": 114240,
          "time": 79.333254,
          "velocity": 0.6299212598425197
        },
        {
          "duration": 0.6326382562500044,
          "durationTicks": 911,
          "midi": 67,
          "name": "G4",
          "ticks": 114240,
          "time": 79.333254,
          "velocity": 0.6299212598425197
        },
        {
          "duration": 0.15763873124998895,
          "durationTicks": 227,
          "midi": 68,
          "name": "G#4",
          "ticks": 115200,
          "time": 79.99992,
          "velocity": 0.6299212598425197
        },
        {
          "duration": 0.15763873124998895,
          "durationTicks": 227,
          "midi": 72,
          "name": "C5",
          "ticks": 115200,
          "time": 79.99992,
          "velocity": 0.6299212598425197
        },
        {
          "duration": 0.15763873125000316,
          "durationTicks": 227,
          "midi": 68,
          "name": "G#4",
          "ticks": 115440,
          "time": 80.1665865,
          "velocity": 0.6299212598425197
        },
        {
          "duration": 0.15763873125000316,
          "durationTicks": 227,
          "midi": 72,
          "name": "C5",
          "ticks": 115440,
          "time": 80.1665865,
          "velocity": 0.6299212598425197
        },
        {
          "duration": 0.15763873124998895,
          "durationTicks": 227,
          "midi": 68,
          "name": "G#4",
          "ticks": 115920,
          "time": 80.4999195,
          "velocity": 0.6299212598425197
        },
        {
          "duration": 0.15763873124998895,
          "durationTicks": 227,
          "midi": 72,
          "name": "C5",
          "ticks": 115920,
          "time": 80.4999195,
          "velocity": 0.6299212598425197
        },
        {
          "duration": 0.15763873124998895,
          "durationTicks": 227,
          "midi": 68,
          "name": "G#4",
          "ticks": 116400,
          "time": 80.8332525,
          "velocity": 0.6299212598425197
        },
        {
          "duration": 0.15763873124998895,
          "durationTicks": 227,
          "midi": 72,
          "name": "C5",
          "ticks": 116400,
          "time": 80.8332525,
          "velocity": 0.6299212598425197
        },
        {
          "duration": 0.15763873125000316,
          "durationTicks": 227,
          "midi": 70,
          "name": "A#4",
          "ticks": 116640,
          "time": 80.99991899999999,
          "velocity": 0.6299212598425197
        },
        {
          "duration": 0.15763873125000316,
          "durationTicks": 227,
          "midi": 74,
          "name": "D5",
          "ticks": 116640,
          "time": 80.99991899999999,
          "velocity": 0.6299212598425197
        },
        {
          "duration": 0.15763873125000316,
          "durationTicks": 227,
          "midi": 67,
          "name": "G4",
          "ticks": 116880,
          "time": 81.1665855,
          "velocity": 0.6299212598425197
        },
        {
          "duration": 0.15763873125000316,
          "durationTicks": 227,
          "midi": 76,
          "name": "E5",
          "ticks": 116880,
          "time": 81.1665855,
          "velocity": 0.6299212598425197
        },
        {
          "duration": 0.15763873125000316,
          "durationTicks": 227,
          "midi": 88,
          "name": "E6",
          "ticks": 117600,
          "time": 81.666585,
          "velocity": 0.6299212598425197
        },
        {
          "duration": 0.15763873124998895,
          "durationTicks": 227,
          "midi": 91,
          "name": "G6",
          "ticks": 117840,
          "time": 81.8332515,
          "velocity": 0.6299212598425197
        },
        {
          "duration": 0.15763873125000316,
          "durationTicks": 227,
          "midi": 100,
          "name": "E7",
          "ticks": 118080,
          "time": 81.999918,
          "velocity": 0.6299212598425197
        },
        {
          "duration": 0.15763873125000316,
          "durationTicks": 227,
          "midi": 96,
          "name": "C7",
          "ticks": 118320,
          "time": 82.1665845,
          "velocity": 0.6299212598425197
        },
        {
          "duration": 0.15763873124998895,
          "durationTicks": 227,
          "midi": 98,
          "name": "D7",
          "ticks": 118560,
          "time": 82.333251,
          "velocity": 0.6299212598425197
        },
        {
          "duration": 0.15763873125000316,
          "durationTicks": 227,
          "midi": 103,
          "name": "G7",
          "ticks": 118800,
          "time": 82.4999175,
          "velocity": 0.6299212598425197
        },
        {
          "duration": 0.15763873125000316,
          "durationTicks": 227,
          "midi": 68,
          "name": "G#4",
          "ticks": 119040,
          "time": 82.666584,
          "velocity": 0.6299212598425197
        },
        {
          "duration": 0.15763873125000316,
          "durationTicks": 227,
          "midi": 72,
          "name": "C5",
          "ticks": 119040,
          "time": 82.666584,
          "velocity": 0.6299212598425197
        },
        {
          "duration": 0.15763873125000316,
          "durationTicks": 227,
          "midi": 68,
          "name": "G#4",
          "ticks": 119280,
          "time": 82.83325049999999,
          "velocity": 0.6299212598425197
        },
        {
          "duration": 0.15763873125000316,
          "durationTicks": 227,
          "midi": 72,
          "name": "C5",
          "ticks": 119280,
          "time": 82.83325049999999,
          "velocity": 0.6299212598425197
        },
        {
          "duration": 0.15763873124998895,
          "durationTicks": 227,
          "midi": 68,
          "name": "G#4",
          "ticks": 119760,
          "time": 83.1665835,
          "velocity": 0.6299212598425197
        },
        {
          "duration": 0.15763873124998895,
          "durationTicks": 227,
          "midi": 72,
          "name": "C5",
          "ticks": 119760,
          "time": 83.1665835,
          "velocity": 0.6299212598425197
        },
        {
          "duration": 0.15763873125000316,
          "durationTicks": 227,
          "midi": 68,
          "name": "G#4",
          "ticks": 120240,
          "time": 83.4999165,
          "velocity": 0.6299212598425197
        },
        {
          "duration": 0.15763873125000316,
          "durationTicks": 227,
          "midi": 72,
          "name": "C5",
          "ticks": 120240,
          "time": 83.4999165,
          "velocity": 0.6299212598425197
        },
        {
          "duration": 0.3159719062499846,
          "durationTicks": 455,
          "midi": 70,
          "name": "A#4",
          "ticks": 120480,
          "time": 83.666583,
          "velocity": 0.6299212598425197
        },
        {
          "duration": 0.3159719062499846,
          "durationTicks": 455,
          "midi": 74,
          "name": "D5",
          "ticks": 120480,
          "time": 83.666583,
          "velocity": 0.6299212598425197
        },
        {
          "duration": 0.15763873125000316,
          "durationTicks": 227,
          "midi": 67,
          "name": "G4",
          "ticks": 120960,
          "time": 83.999916,
          "velocity": 0.6299212598425197
        },
        {
          "duration": 0.15763873125000316,
          "durationTicks": 227,
          "midi": 76,
          "name": "E5",
          "ticks": 120960,
          "time": 83.999916,
          "velocity": 0.6299212598425197
        },
        {
          "duration": 0.15763873124998895,
          "durationTicks": 227,
          "midi": 64,
          "name": "E4",
          "ticks": 121200,
          "time": 84.1665825,
          "velocity": 0.6299212598425197
        },
        {
          "duration": 0.15763873124998895,
          "durationTicks": 227,
          "midi": 72,
          "name": "C5",
          "ticks": 121200,
          "time": 84.1665825,
          "velocity": 0.6299212598425197
        },
        {
          "duration": 0.15763873125000316,
          "durationTicks": 227,
          "midi": 64,
          "name": "E4",
          "ticks": 121680,
          "time": 84.4999155,
          "velocity": 0.6299212598425197
        },
        {
          "duration": 0.15763873125000316,
          "durationTicks": 227,
          "midi": 69,
          "name": "A4",
          "ticks": 121680,
          "time": 84.4999155,
          "velocity": 0.6299212598425197
        },
        {
          "duration": 0.6326382562500044,
          "durationTicks": 911,
          "midi": 60,
          "name": "C4",
          "ticks": 121920,
          "time": 84.66658199999999,
          "velocity": 0.6299212598425197
        },
        {
          "duration": 0.6326382562500044,
          "durationTicks": 911,
          "midi": 67,
          "name": "G4",
          "ticks": 121920,
          "time": 84.66658199999999,
          "velocity": 0.6299212598425197
        },
        {
          "duration": 0.15763873125000316,
          "durationTicks": 227,
          "midi": 66,
          "name": "F#4",
          "ticks": 122880,
          "time": 85.333248,
          "velocity": 0.6299212598425197
        },
        {
          "duration": 0.15763873125000316,
          "durationTicks": 227,
          "midi": 76,
          "name": "E5",
          "ticks": 122880,
          "time": 85.333248,
          "velocity": 0.6299212598425197
        },
        {
          "duration": 0.15763873124998895,
          "durationTicks": 227,
          "midi": 66,
          "name": "F#4",
          "ticks": 123120,
          "time": 85.4999145,
          "velocity": 0.6299212598425197
        },
        {
          "duration": 0.15763873124998895,
          "durationTicks": 227,
          "midi": 76,
          "name": "E5",
          "ticks": 123120,
          "time": 85.4999145,
          "velocity": 0.6299212598425197
        },
        {
          "duration": 0.15763873125000316,
          "durationTicks": 227,
          "midi": 66,
          "name": "F#4",
          "ticks": 123600,
          "time": 85.8332475,
          "velocity": 0.6299212598425197
        },
        {
          "duration": 0.15763873125000316,
          "durationTicks": 227,
          "midi": 76,
          "name": "E5",
          "ticks": 123600,
          "time": 85.8332475,
          "velocity": 0.6299212598425197
        },
        {
          "duration": 0.15763873125000316,
          "durationTicks": 227,
          "midi": 66,
          "name": "F#4",
          "ticks": 124080,
          "time": 86.1665805,
          "velocity": 0.6299212598425197
        },
        {
          "duration": 0.15763873125000316,
          "durationTicks": 227,
          "midi": 72,
          "name": "C5",
          "ticks": 124080,
          "time": 86.1665805,
          "velocity": 0.6299212598425197
        },
        {
          "duration": 0.3159719062499988,
          "durationTicks": 455,
          "midi": 66,
          "name": "F#4",
          "ticks": 124320,
          "time": 86.333247,
          "velocity": 0.6299212598425197
        },
        {
          "duration": 0.3159719062499988,
          "durationTicks": 455,
          "midi": 76,
          "name": "E5",
          "ticks": 124320,
          "time": 86.333247,
          "velocity": 0.6299212598425197
        },
        {
          "duration": 0.31597190625001303,
          "durationTicks": 455,
          "midi": 67,
          "name": "G4",
          "ticks": 124800,
          "time": 86.66658,
          "velocity": 0.6299212598425197
        },
        {
          "duration": 0.31597190625001303,
          "durationTicks": 455,
          "midi": 71,
          "name": "B4",
          "ticks": 124800,
          "time": 86.66658,
          "velocity": 0.6299212598425197
        },
        {
          "duration": 0.31597190625001303,
          "durationTicks": 455,
          "midi": 79,
          "name": "G5",
          "ticks": 124800,
          "time": 86.66658,
          "velocity": 0.6299212598425197
        },
        {
          "duration": 0.3159719062499988,
          "durationTicks": 455,
          "midi": 67,
          "name": "G4",
          "ticks": 125760,
          "time": 87.333246,
          "velocity": 0.6299212598425197
        },
        {
          "duration": 0.15763873125000316,
          "durationTicks": 227,
          "midi": 72,
          "name": "C5",
          "ticks": 126720,
          "time": 87.999912,
          "velocity": 0.6299212598425197
        },
        {
          "duration": 0.15763873125000316,
          "durationTicks": 227,
          "midi": 76,
          "name": "E5",
          "ticks": 126720,
          "time": 87.999912,
          "velocity": 0.6299212598425197
        },
        {
          "duration": 0.3159719062499988,
          "durationTicks": 455,
          "midi": 69,
          "name": "A4",
          "ticks": 126960,
          "time": 88.1665785,
          "velocity": 0.6299212598425197
        },
        {
          "duration": 0.3159719062499988,
          "durationTicks": 455,
          "midi": 72,
          "name": "C5",
          "ticks": 126960,
          "time": 88.1665785,
          "velocity": 0.6299212598425197
        },
        {
          "duration": 0.15763873125000316,
          "durationTicks": 227,
          "midi": 64,
          "name": "E4",
          "ticks": 127440,
          "time": 88.4999115,
          "velocity": 0.6299212598425197
        },
        {
          "duration": 0.15763873125000316,
          "durationTicks": 227,
          "midi": 67,
          "name": "G4",
          "ticks": 127440,
          "time": 88.4999115,
          "velocity": 0.6299212598425197
        },
        {
          "duration": 0.31597190625001303,
          "durationTicks": 455,
          "midi": 64,
          "name": "E4",
          "ticks": 128160,
          "time": 88.999911,
          "velocity": 0.6299212598425197
        },
        {
          "duration": 0.31597190625001303,
          "durationTicks": 455,
          "midi": 68,
          "name": "G#4",
          "ticks": 128160,
          "time": 88.999911,
          "velocity": 0.6299212598425197
        },
        {
          "duration": 0.15763873125000316,
          "durationTicks": 227,
          "midi": 65,
          "name": "F4",
          "ticks": 128640,
          "time": 89.333244,
          "velocity": 0.6299212598425197
        },
        {
          "duration": 0.15763873125000316,
          "durationTicks": 227,
          "midi": 69,
          "name": "A4",
          "ticks": 128640,
          "time": 89.333244,
          "velocity": 0.6299212598425197
        },
        {
          "duration": 0.3159719062499988,
          "durationTicks": 455,
          "midi": 72,
          "name": "C5",
          "ticks": 128880,
          "time": 89.4999105,
          "velocity": 0.6299212598425197
        },
        {
          "duration": 0.3159719062499988,
          "durationTicks": 455,
          "midi": 77,
          "name": "F5",
          "ticks": 128880,
          "time": 89.4999105,
          "velocity": 0.6299212598425197
        },
        {
          "duration": 0.15763873125000316,
          "durationTicks": 227,
          "midi": 72,
          "name": "C5",
          "ticks": 129360,
          "time": 89.8332435,
          "velocity": 0.6299212598425197
        },
        {
          "duration": 0.15763873125000316,
          "durationTicks": 227,
          "midi": 77,
          "name": "F5",
          "ticks": 129360,
          "time": 89.8332435,
          "velocity": 0.6299212598425197
        },
        {
          "duration": 0.3159719062499988,
          "durationTicks": 455,
          "midi": 65,
          "name": "F4",
          "ticks": 129600,
          "time": 89.99991,
          "velocity": 0.6299212598425197
        },
        {
          "duration": 0.3159719062499988,
          "durationTicks": 455,
          "midi": 69,
          "name": "A4",
          "ticks": 129600,
          "time": 89.99991,
          "velocity": 0.6299212598425197
        },
        {
          "duration": 0.21041645625001593,
          "durationTicks": 303,
          "midi": 67,
          "name": "G4",
          "ticks": 130560,
          "time": 90.66657599999999,
          "velocity": 0.6299212598425197
        },
        {
          "duration": 0.21041645625001593,
          "durationTicks": 303,
          "midi": 71,
          "name": "B4",
          "ticks": 130560,
          "time": 90.66657599999999,
          "velocity": 0.6299212598425197
        },
        {
          "duration": 0.2104164562499875,
          "durationTicks": 303,
          "midi": 77,
          "name": "F5",
          "ticks": 130880,
          "time": 90.88879800000001,
          "velocity": 0.6299212598425197
        },
        {
          "duration": 0.2104164562499875,
          "durationTicks": 303,
          "midi": 81,
          "name": "A5",
          "ticks": 130880,
          "time": 90.88879800000001,
          "velocity": 0.6299212598425197
        },
        {
          "duration": 0.21041645625000172,
          "durationTicks": 303,
          "midi": 77,
          "name": "F5",
          "ticks": 131200,
          "time": 91.11102,
          "velocity": 0.6299212598425197
        },
        {
          "duration": 0.21041645625000172,
          "durationTicks": 303,
          "midi": 81,
          "name": "A5",
          "ticks": 131200,
          "time": 91.11102,
          "velocity": 0.6299212598425197
        },
        {
          "duration": 0.21041645625000172,
          "durationTicks": 303,
          "midi": 77,
          "name": "F5",
          "ticks": 131520,
          "time": 91.333242,
          "velocity": 0.6299212598425197
        },
        {
          "duration": 0.21041645625000172,
          "durationTicks": 303,
          "midi": 81,
          "name": "A5",
          "ticks": 131520,
          "time": 91.333242,
          "velocity": 0.6299212598425197
        },
        {
          "duration": 0.2104164562499875,
          "durationTicks": 303,
          "midi": 76,
          "name": "E5",
          "ticks": 131840,
          "time": 91.555464,
          "velocity": 0.6299212598425197
        },
        {
          "duration": 0.2104164562499875,
          "durationTicks": 303,
          "midi": 79,
          "name": "G5",
          "ticks": 131840,
          "time": 91.555464,
          "velocity": 0.6299212598425197
        },
        {
          "duration": 0.21041645625001593,
          "durationTicks": 303,
          "midi": 74,
          "name": "D5",
          "ticks": 132160,
          "time": 91.77768599999999,
          "velocity": 0.6299212598425197
        },
        {
          "duration": 0.21041645625001593,
          "durationTicks": 303,
          "midi": 77,
          "name": "F5",
          "ticks": 132160,
          "time": 91.77768599999999,
          "velocity": 0.6299212598425197
        },
        {
          "duration": 0.15763873125000316,
          "durationTicks": 227,
          "midi": 72,
          "name": "C5",
          "ticks": 132480,
          "time": 91.99990799999999,
          "velocity": 0.6299212598425197
        },
        {
          "duration": 0.15763873125000316,
          "durationTicks": 227,
          "midi": 76,
          "name": "E5",
          "ticks": 132480,
          "time": 91.99990799999999,
          "velocity": 0.6299212598425197
        },
        {
          "duration": 0.31597190625001303,
          "durationTicks": 455,
          "midi": 69,
          "name": "A4",
          "ticks": 132720,
          "time": 92.1665745,
          "velocity": 0.6299212598425197
        },
        {
          "duration": 0.31597190625001303,
          "durationTicks": 455,
          "midi": 72,
          "name": "C5",
          "ticks": 132720,
          "time": 92.1665745,
          "velocity": 0.6299212598425197
        },
        {
          "duration": 0.15763873125000316,
          "durationTicks": 227,
          "midi": 65,
          "name": "F4",
          "ticks": 133200,
          "time": 92.49990749999999,
          "velocity": 0.6299212598425197
        },
        {
          "duration": 0.15763873125000316,
          "durationTicks": 227,
          "midi": 69,
          "name": "A4",
          "ticks": 133200,
          "time": 92.49990749999999,
          "velocity": 0.6299212598425197
        },
        {
          "duration": 0.31597190625001303,
          "durationTicks": 455,
          "midi": 64,
          "name": "E4",
          "ticks": 133440,
          "time": 92.666574,
          "velocity": 0.6299212598425197
        },
        {
          "duration": 0.31597190625001303,
          "durationTicks": 455,
          "midi": 67,
          "name": "G4",
          "ticks": 133440,
          "time": 92.666574,
          "velocity": 0.6299212598425197
        },
        {
          "duration": 0.15763873124998895,
          "durationTicks": 227,
          "midi": 72,
          "name": "C5",
          "ticks": 134400,
          "time": 93.33324,
          "velocity": 0.6299212598425197
        },
        {
          "duration": 0.15763873124998895,
          "durationTicks": 227,
          "midi": 76,
          "name": "E5",
          "ticks": 134400,
          "time": 93.33324,
          "velocity": 0.6299212598425197
        },
        {
          "duration": 0.31597190625001303,
          "durationTicks": 455,
          "midi": 69,
          "name": "A4",
          "ticks": 134640,
          "time": 93.4999065,
          "velocity": 0.6299212598425197
        },
        {
          "duration": 0.31597190625001303,
          "durationTicks": 455,
          "midi": 72,
          "name": "C5",
          "ticks": 134640,
          "time": 93.4999065,
          "velocity": 0.6299212598425197
        },
        {
          "duration": 0.15763873125000316,
          "durationTicks": 227,
          "midi": 64,
          "name": "E4",
          "ticks": 135120,
          "time": 93.83323949999999,
          "velocity": 0.6299212598425197
        },
        {
          "duration": 0.15763873125000316,
          "durationTicks": 227,
          "midi": 67,
          "name": "G4",
          "ticks": 135120,
          "time": 93.83323949999999,
          "velocity": 0.6299212598425197
        },
        {
          "duration": 0.31597190625001303,
          "durationTicks": 455,
          "midi": 64,
          "name": "E4",
          "ticks": 135840,
          "time": 94.33323899999999,
          "velocity": 0.6299212598425197
        },
        {
          "duration": 0.31597190625001303,
          "durationTicks": 455,
          "midi": 68,
          "name": "G#4",
          "ticks": 135840,
          "time": 94.33323899999999,
          "velocity": 0.6299212598425197
        },
        {
          "duration": 0.15763873124998895,
          "durationTicks": 227,
          "midi": 65,
          "name": "F4",
          "ticks": 136320,
          "time": 94.666572,
          "velocity": 0.6299212598425197
        },
        {
          "duration": 0.15763873124998895,
          "durationTicks": 227,
          "midi": 69,
          "name": "A4",
          "ticks": 136320,
          "time": 94.666572,
          "velocity": 0.6299212598425197
        },
        {
          "duration": 0.31597190625001303,
          "durationTicks": 455,
          "midi": 72,
          "name": "C5",
          "ticks": 136560,
          "time": 94.8332385,
          "velocity": 0.6299212598425197
        },
        {
          "duration": 0.31597190625001303,
          "durationTicks": 455,
          "midi": 77,
          "name": "F5",
          "ticks": 136560,
          "time": 94.8332385,
          "velocity": 0.6299212598425197
        },
        {
          "duration": 0.15763873124998895,
          "durationTicks": 227,
          "midi": 72,
          "name": "C5",
          "ticks": 137040,
          "time": 95.1665715,
          "velocity": 0.6299212598425197
        },
        {
          "duration": 0.15763873124998895,
          "durationTicks": 227,
          "midi": 77,
          "name": "F5",
          "ticks": 137040,
          "time": 95.1665715,
          "velocity": 0.6299212598425197
        },
        {
          "duration": 0.31597190625001303,
          "durationTicks": 455,
          "midi": 65,
          "name": "F4",
          "ticks": 137280,
          "time": 95.333238,
          "velocity": 0.6299212598425197
        },
        {
          "duration": 0.31597190625001303,
          "durationTicks": 455,
          "midi": 69,
          "name": "A4",
          "ticks": 137280,
          "time": 95.333238,
          "velocity": 0.6299212598425197
        },
        {
          "duration": 0.15763873124998895,
          "durationTicks": 227,
          "midi": 67,
          "name": "G4",
          "ticks": 138240,
          "time": 95.999904,
          "velocity": 0.6299212598425197
        },
        {
          "duration": 0.15763873124998895,
          "durationTicks": 227,
          "midi": 71,
          "name": "B4",
          "ticks": 138240,
          "time": 95.999904,
          "velocity": 0.6299212598425197
        },
        {
          "duration": 0.31597190625001303,
          "durationTicks": 455,
          "midi": 74,
          "name": "D5",
          "ticks": 138480,
          "time": 96.16657049999999,
          "velocity": 0.6299212598425197
        },
        {
          "duration": 0.31597190625001303,
          "durationTicks": 455,
          "midi": 77,
          "name": "F5",
          "ticks": 138480,
          "time": 96.16657049999999,
          "velocity": 0.6299212598425197
        },
        {
          "duration": 0.15763873124998895,
          "durationTicks": 227,
          "midi": 74,
          "name": "D5",
          "ticks": 138960,
          "time": 96.4999035,
          "velocity": 0.6299212598425197
        },
        {
          "duration": 0.15763873124998895,
          "durationTicks": 227,
          "midi": 77,
          "name": "F5",
          "ticks": 138960,
          "time": 96.4999035,
          "velocity": 0.6299212598425197
        },
        {
          "duration": 0.21041645625001593,
          "durationTicks": 303,
          "midi": 74,
          "name": "D5",
          "ticks": 139200,
          "time": 96.66657,
          "velocity": 0.6299212598425197
        },
        {
          "duration": 0.21041645625001593,
          "durationTicks": 303,
          "midi": 77,
          "name": "F5",
          "ticks": 139200,
          "time": 96.66657,
          "velocity": 0.6299212598425197
        },
        {
          "duration": 0.2104164562499875,
          "durationTicks": 303,
          "midi": 72,
          "name": "C5",
          "ticks": 139520,
          "time": 96.88879200000001,
          "velocity": 0.6299212598425197
        },
        {
          "duration": 0.2104164562499875,
          "durationTicks": 303,
          "midi": 76,
          "name": "E5",
          "ticks": 139520,
          "time": 96.88879200000001,
          "velocity": 0.6299212598425197
        },
        {
          "duration": 0.21041645625000172,
          "durationTicks": 303,
          "midi": 71,
          "name": "B4",
          "ticks": 139840,
          "time": 97.111014,
          "velocity": 0.6299212598425197
        },
        {
          "duration": 0.21041645625000172,
          "durationTicks": 303,
          "midi": 74,
          "name": "D5",
          "ticks": 139840,
          "time": 97.111014,
          "velocity": 0.6299212598425197
        },
        {
          "duration": 0.6326382562500044,
          "durationTicks": 911,
          "midi": 72,
          "name": "C5",
          "ticks": 140160,
          "time": 97.333236,
          "velocity": 0.6299212598425197
        },
        {
          "duration": 0.15763873125000316,
          "durationTicks": 227,
          "midi": 67,
          "name": "G4",
          "ticks": 140160,
          "time": 97.333236,
          "velocity": 0.6299212598425197
        },
        {
          "duration": 0.31597190625001303,
          "durationTicks": 455,
          "midi": 64,
          "name": "E4",
          "ticks": 140400,
          "time": 97.49990249999999,
          "velocity": 0.6299212598425197
        },
        {
          "duration": 0.15763873124998895,
          "durationTicks": 227,
          "midi": 64,
          "name": "E4",
          "ticks": 140880,
          "time": 97.8332355,
          "velocity": 0.6299212598425197
        },
        {
          "duration": 0.31597190625001303,
          "durationTicks": 455,
          "midi": 60,
          "name": "C4",
          "ticks": 141120,
          "time": 97.99990199999999,
          "velocity": 0.6299212598425197
        },
        {
          "duration": 0.15763873125000316,
          "durationTicks": 227,
          "midi": 72,
          "name": "C5",
          "ticks": 142080,
          "time": 98.666568,
          "velocity": 0.6299212598425197
        },
        {
          "duration": 0.15763873125000316,
          "durationTicks": 227,
          "midi": 76,
          "name": "E5",
          "ticks": 142080,
          "time": 98.666568,
          "velocity": 0.6299212598425197
        },
        {
          "duration": 0.3159719062499988,
          "durationTicks": 455,
          "midi": 69,
          "name": "A4",
          "ticks": 142320,
          "time": 98.8332345,
          "velocity": 0.6299212598425197
        },
        {
          "duration": 0.3159719062499988,
          "durationTicks": 455,
          "midi": 72,
          "name": "C5",
          "ticks": 142320,
          "time": 98.8332345,
          "velocity": 0.6299212598425197
        },
        {
          "duration": 0.15763873125000316,
          "durationTicks": 227,
          "midi": 64,
          "name": "E4",
          "ticks": 142800,
          "time": 99.1665675,
          "velocity": 0.6299212598425197
        },
        {
          "duration": 0.15763873125000316,
          "durationTicks": 227,
          "midi": 67,
          "name": "G4",
          "ticks": 142800,
          "time": 99.1665675,
          "velocity": 0.6299212598425197
        },
        {
          "duration": 0.3159719062499988,
          "durationTicks": 455,
          "midi": 64,
          "name": "E4",
          "ticks": 143520,
          "time": 99.666567,
          "velocity": 0.6299212598425197
        },
        {
          "duration": 0.3159719062499988,
          "durationTicks": 455,
          "midi": 68,
          "name": "G#4",
          "ticks": 143520,
          "time": 99.666567,
          "velocity": 0.6299212598425197
        },
        {
          "duration": 0.15763873125000316,
          "durationTicks": 227,
          "midi": 65,
          "name": "F4",
          "ticks": 144000,
          "time": 99.9999,
          "velocity": 0.6299212598425197
        },
        {
          "duration": 0.15763873125000316,
          "durationTicks": 227,
          "midi": 69,
          "name": "A4",
          "ticks": 144000,
          "time": 99.9999,
          "velocity": 0.6299212598425197
        },
        {
          "duration": 0.3159719062499988,
          "durationTicks": 455,
          "midi": 72,
          "name": "C5",
          "ticks": 144240,
          "time": 100.1665665,
          "velocity": 0.6299212598425197
        },
        {
          "duration": 0.3159719062499988,
          "durationTicks": 455,
          "midi": 77,
          "name": "F5",
          "ticks": 144240,
          "time": 100.1665665,
          "velocity": 0.6299212598425197
        },
        {
          "duration": 0.15763873125000316,
          "durationTicks": 227,
          "midi": 72,
          "name": "C5",
          "ticks": 144720,
          "time": 100.4998995,
          "velocity": 0.6299212598425197
        },
        {
          "duration": 0.15763873125000316,
          "durationTicks": 227,
          "midi": 77,
          "name": "F5",
          "ticks": 144720,
          "time": 100.4998995,
          "velocity": 0.6299212598425197
        },
        {
          "duration": 0.3159719062499988,
          "durationTicks": 455,
          "midi": 65,
          "name": "F4",
          "ticks": 144960,
          "time": 100.666566,
          "velocity": 0.6299212598425197
        },
        {
          "duration": 0.3159719062499988,
          "durationTicks": 455,
          "midi": 69,
          "name": "A4",
          "ticks": 144960,
          "time": 100.666566,
          "velocity": 0.6299212598425197
        },
        {
          "duration": 0.21041645625001593,
          "durationTicks": 303,
          "midi": 67,
          "name": "G4",
          "ticks": 145920,
          "time": 101.333232,
          "velocity": 0.6299212598425197
        },
        {
          "duration": 0.21041645625001593,
          "durationTicks": 303,
          "midi": 71,
          "name": "B4",
          "ticks": 145920,
          "time": 101.333232,
          "velocity": 0.6299212598425197
        },
        {
          "duration": 0.2104164562499875,
          "durationTicks": 303,
          "midi": 77,
          "name": "F5",
          "ticks": 146240,
          "time": 101.555454,
          "velocity": 0.6299212598425197
        },
        {
          "duration": 0.2104164562499875,
          "durationTicks": 303,
          "midi": 81,
          "name": "A5",
          "ticks": 146240,
          "time": 101.555454,
          "velocity": 0.6299212598425197
        },
        {
          "duration": 0.21041645625001593,
          "durationTicks": 303,
          "midi": 77,
          "name": "F5",
          "ticks": 146560,
          "time": 101.77767599999999,
          "velocity": 0.6299212598425197
        },
        {
          "duration": 0.21041645625001593,
          "durationTicks": 303,
          "midi": 81,
          "name": "A5",
          "ticks": 146560,
          "time": 101.77767599999999,
          "velocity": 0.6299212598425197
        },
        {
          "duration": 0.21041645625000172,
          "durationTicks": 303,
          "midi": 77,
          "name": "F5",
          "ticks": 146880,
          "time": 101.999898,
          "velocity": 0.6299212598425197
        },
        {
          "duration": 0.21041645625000172,
          "durationTicks": 303,
          "midi": 81,
          "name": "A5",
          "ticks": 146880,
          "time": 101.999898,
          "velocity": 0.6299212598425197
        },
        {
          "duration": 0.2104164562499875,
          "durationTicks": 303,
          "midi": 76,
          "name": "E5",
          "ticks": 147200,
          "time": 102.22212,
          "velocity": 0.6299212598425197
        },
        {
          "duration": 0.2104164562499875,
          "durationTicks": 303,
          "midi": 79,
          "name": "G5",
          "ticks": 147200,
          "time": 102.22212,
          "velocity": 0.6299212598425197
        },
        {
          "duration": 0.21041645625000172,
          "durationTicks": 303,
          "midi": 74,
          "name": "D5",
          "ticks": 147520,
          "time": 102.44434199999999,
          "velocity": 0.6299212598425197
        },
        {
          "duration": 0.21041645625000172,
          "durationTicks": 303,
          "midi": 77,
          "name": "F5",
          "ticks": 147520,
          "time": 102.44434199999999,
          "velocity": 0.6299212598425197
        },
        {
          "duration": 0.15763873125000316,
          "durationTicks": 227,
          "midi": 72,
          "name": "C5",
          "ticks": 147840,
          "time": 102.666564,
          "velocity": 0.6299212598425197
        },
        {
          "duration": 0.15763873125000316,
          "durationTicks": 227,
          "midi": 76,
          "name": "E5",
          "ticks": 147840,
          "time": 102.666564,
          "velocity": 0.6299212598425197
        },
        {
          "duration": 0.3159719062499988,
          "durationTicks": 455,
          "midi": 69,
          "name": "A4",
          "ticks": 148080,
          "time": 102.8332305,
          "velocity": 0.6299212598425197
        },
        {
          "duration": 0.3159719062499988,
          "durationTicks": 455,
          "midi": 72,
          "name": "C5",
          "ticks": 148080,
          "time": 102.8332305,
          "velocity": 0.6299212598425197
        },
        {
          "duration": 0.15763873125000316,
          "durationTicks": 227,
          "midi": 65,
          "name": "F4",
          "ticks": 148560,
          "time": 103.1665635,
          "velocity": 0.6299212598425197
        },
        {
          "duration": 0.15763873125000316,
          "durationTicks": 227,
          "midi": 69,
          "name": "A4",
          "ticks": 148560,
          "time": 103.1665635,
          "velocity": 0.6299212598425197
        },
        {
          "duration": 0.3159719062499988,
          "durationTicks": 455,
          "midi": 64,
          "name": "E4",
          "ticks": 148800,
          "time": 103.33323,
          "velocity": 0.6299212598425197
        },
        {
          "duration": 0.3159719062499988,
          "durationTicks": 455,
          "midi": 67,
          "name": "G4",
          "ticks": 148800,
          "time": 103.33323,
          "velocity": 0.6299212598425197
        },
        {
          "duration": 0.15763873125000316,
          "durationTicks": 227,
          "midi": 72,
          "name": "C5",
          "ticks": 149760,
          "time": 103.99989599999999,
          "velocity": 0.6299212598425197
        },
        {
          "duration": 0.15763873125000316,
          "durationTicks": 227,
          "midi": 76,
          "name": "E5",
          "ticks": 149760,
          "time": 103.99989599999999,
          "velocity": 0.6299212598425197
        },
        {
          "duration": 0.3159719062499988,
          "durationTicks": 455,
          "midi": 69,
          "name": "A4",
          "ticks": 150000,
          "time": 104.1665625,
          "velocity": 0.6299212598425197
        },
        {
          "duration": 0.3159719062499988,
          "durationTicks": 455,
          "midi": 72,
          "name": "C5",
          "ticks": 150000,
          "time": 104.1665625,
          "velocity": 0.6299212598425197
        },
        {
          "duration": 0.15763873125000316,
          "durationTicks": 227,
          "midi": 64,
          "name": "E4",
          "ticks": 150480,
          "time": 104.4998955,
          "velocity": 0.6299212598425197
        },
        {
          "duration": 0.15763873125000316,
          "durationTicks": 227,
          "midi": 67,
          "name": "G4",
          "ticks": 150480,
          "time": 104.4998955,
          "velocity": 0.6299212598425197
        },
        {
          "duration": 0.31597190625001303,
          "durationTicks": 455,
          "midi": 64,
          "name": "E4",
          "ticks": 151200,
          "time": 104.999895,
          "velocity": 0.6299212598425197
        },
        {
          "duration": 0.31597190625001303,
          "durationTicks": 455,
          "midi": 68,
          "name": "G#4",
          "ticks": 151200,
          "time": 104.999895,
          "velocity": 0.6299212598425197
        },
        {
          "duration": 0.15763873125000316,
          "durationTicks": 227,
          "midi": 65,
          "name": "F4",
          "ticks": 151680,
          "time": 105.33322799999999,
          "velocity": 0.6299212598425197
        },
        {
          "duration": 0.15763873125000316,
          "durationTicks": 227,
          "midi": 69,
          "name": "A4",
          "ticks": 151680,
          "time": 105.33322799999999,
          "velocity": 0.6299212598425197
        },
        {
          "duration": 0.31597190625001303,
          "durationTicks": 455,
          "midi": 72,
          "name": "C5",
          "ticks": 151920,
          "time": 105.4998945,
          "velocity": 0.6299212598425197
        },
        {
          "duration": 0.31597190625001303,
          "durationTicks": 455,
          "midi": 77,
          "name": "F5",
          "ticks": 151920,
          "time": 105.4998945,
          "velocity": 0.6299212598425197
        },
        {
          "duration": 0.15763873125000316,
          "durationTicks": 227,
          "midi": 72,
          "name": "C5",
          "ticks": 152400,
          "time": 105.83322749999999,
          "velocity": 0.6299212598425197
        },
        {
          "duration": 0.15763873125000316,
          "durationTicks": 227,
          "midi": 77,
          "name": "F5",
          "ticks": 152400,
          "time": 105.83322749999999,
          "velocity": 0.6299212598425197
        },
        {
          "duration": 0.3159719062499988,
          "durationTicks": 455,
          "midi": 65,
          "name": "F4",
          "ticks": 152640,
          "time": 105.999894,
          "velocity": 0.6299212598425197
        },
        {
          "duration": 0.3159719062499988,
          "durationTicks": 455,
          "midi": 69,
          "name": "A4",
          "ticks": 152640,
          "time": 105.999894,
          "velocity": 0.6299212598425197
        },
        {
          "duration": 0.15763873124998895,
          "durationTicks": 227,
          "midi": 67,
          "name": "G4",
          "ticks": 153600,
          "time": 106.66656,
          "velocity": 0.6299212598425197
        },
        {
          "duration": 0.15763873124998895,
          "durationTicks": 227,
          "midi": 71,
          "name": "B4",
          "ticks": 153600,
          "time": 106.66656,
          "velocity": 0.6299212598425197
        },
        {
          "duration": 0.31597190625001303,
          "durationTicks": 455,
          "midi": 74,
          "name": "D5",
          "ticks": 153840,
          "time": 106.8332265,
          "velocity": 0.6299212598425197
        },
        {
          "duration": 0.31597190625001303,
          "durationTicks": 455,
          "midi": 77,
          "name": "F5",
          "ticks": 153840,
          "time": 106.8332265,
          "velocity": 0.6299212598425197
        },
        {
          "duration": 0.15763873125000316,
          "durationTicks": 227,
          "midi": 74,
          "name": "D5",
          "ticks": 154320,
          "time": 107.16655949999999,
          "velocity": 0.6299212598425197
        },
        {
          "duration": 0.15763873125000316,
          "durationTicks": 227,
          "midi": 77,
          "name": "F5",
          "ticks": 154320,
          "time": 107.16655949999999,
          "velocity": 0.6299212598425197
        },
        {
          "duration": 0.21041645625000172,
          "durationTicks": 303,
          "midi": 74,
          "name": "D5",
          "ticks": 154560,
          "time": 107.333226,
          "velocity": 0.6299212598425197
        },
        {
          "duration": 0.21041645625000172,
          "durationTicks": 303,
          "midi": 77,
          "name": "F5",
          "ticks": 154560,
          "time": 107.333226,
          "velocity": 0.6299212598425197
        },
        {
          "duration": 0.2104164562499875,
          "durationTicks": 303,
          "midi": 72,
          "name": "C5",
          "ticks": 154880,
          "time": 107.555448,
          "velocity": 0.6299212598425197
        },
        {
          "duration": 0.2104164562499875,
          "durationTicks": 303,
          "midi": 76,
          "name": "E5",
          "ticks": 154880,
          "time": 107.555448,
          "velocity": 0.6299212598425197
        },
        {
          "duration": 0.21041645625001593,
          "durationTicks": 303,
          "midi": 71,
          "name": "B4",
          "ticks": 155200,
          "time": 107.77766999999999,
          "velocity": 0.6299212598425197
        },
        {
          "duration": 0.21041645625001593,
          "durationTicks": 303,
          "midi": 74,
          "name": "D5",
          "ticks": 155200,
          "time": 107.77766999999999,
          "velocity": 0.6299212598425197
        },
        {
          "duration": 0.6326382562499901,
          "durationTicks": 911,
          "midi": 72,
          "name": "C5",
          "ticks": 155520,
          "time": 107.999892,
          "velocity": 0.6299212598425197
        },
        {
          "duration": 0.15763873124998895,
          "durationTicks": 227,
          "midi": 67,
          "name": "G4",
          "ticks": 155520,
          "time": 107.999892,
          "velocity": 0.6299212598425197
        },
        {
          "duration": 0.31597190625001303,
          "durationTicks": 455,
          "midi": 64,
          "name": "E4",
          "ticks": 155760,
          "time": 108.1665585,
          "velocity": 0.6299212598425197
        },
        {
          "duration": 0.15763873124998895,
          "durationTicks": 227,
          "midi": 64,
          "name": "E4",
          "ticks": 156240,
          "time": 108.4998915,
          "velocity": 0.6299212598425197
        },
        {
          "duration": 0.31597190625001303,
          "durationTicks": 455,
          "midi": 60,
          "name": "C4",
          "ticks": 156480,
          "time": 108.666558,
          "velocity": 0.6299212598425197
        },
        {
          "duration": 0.3159719062499988,
          "durationTicks": 455,
          "midi": 64,
          "name": "E4",
          "ticks": 157440,
          "time": 109.333224,
          "velocity": 0.6299212598425197
        },
        {
          "duration": 0.3159719062499988,
          "durationTicks": 455,
          "midi": 72,
          "name": "C5",
          "ticks": 157440,
          "time": 109.333224,
          "velocity": 0.6299212598425197
        },
        {
          "duration": 0.3159719062499988,
          "durationTicks": 455,
          "midi": 60,
          "name": "C4",
          "ticks": 158160,
          "time": 109.8332235,
          "velocity": 0.6299212598425197
        },
        {
          "duration": 0.3159719062499988,
          "durationTicks": 455,
          "midi": 67,
          "name": "G4",
          "ticks": 158160,
          "time": 109.8332235,
          "velocity": 0.6299212598425197
        },
        {
          "duration": 0.3159719062499988,
          "durationTicks": 455,
          "midi": 55,
          "name": "G3",
          "ticks": 158880,
          "time": 110.333223,
          "velocity": 0.6299212598425197
        },
        {
          "duration": 0.3159719062499988,
          "durationTicks": 455,
          "midi": 64,
          "name": "E4",
          "ticks": 158880,
          "time": 110.333223,
          "velocity": 0.6299212598425197
        },
        {
          "duration": 0.21041645625000172,
          "durationTicks": 303,
          "midi": 69,
          "name": "A4",
          "ticks": 159360,
          "time": 110.666556,
          "velocity": 0.6299212598425197
        },
        {
          "duration": 0.6326382562500044,
          "durationTicks": 911,
          "midi": 65,
          "name": "F4",
          "ticks": 159360,
          "time": 110.666556,
          "velocity": 0.6299212598425197
        },
        {
          "duration": 0.2104164562499875,
          "durationTicks": 303,
          "midi": 71,
          "name": "B4",
          "ticks": 159680,
          "time": 110.888778,
          "velocity": 0.6299212598425197
        },
        {
          "duration": 0.21041645625000172,
          "durationTicks": 303,
          "midi": 69,
          "name": "A4",
          "ticks": 160000,
          "time": 111.11099999999999,
          "velocity": 0.6299212598425197
        },
        {
          "duration": 0.21041645625001593,
          "durationTicks": 303,
          "midi": 68,
          "name": "G#4",
          "ticks": 160320,
          "time": 111.33322199999999,
          "velocity": 0.6299212598425197
        },
        {
          "duration": 0.6326382562500044,
          "durationTicks": 911,
          "midi": 65,
          "name": "F4",
          "ticks": 160320,
          "time": 111.33322199999999,
          "velocity": 0.6299212598425197
        },
        {
          "duration": 0.2104164562499875,
          "durationTicks": 303,
          "midi": 70,
          "name": "A#4",
          "ticks": 160640,
          "time": 111.55544400000001,
          "velocity": 0.6299212598425197
        },
        {
          "duration": 0.21041645625000172,
          "durationTicks": 303,
          "midi": 68,
          "name": "G#4",
          "ticks": 160960,
          "time": 111.777666,
          "velocity": 0.6299212598425197
        },
        {
          "duration": 1.265970956249987,
          "durationTicks": 1823,
          "midi": 67,
          "name": "G4",
          "ticks": 161280,
          "time": 111.999888,
          "velocity": 0.6299212598425197
        },
        {
          "duration": 0.15763873125000316,
          "durationTicks": 227,
          "midi": 64,
          "name": "E4",
          "ticks": 161280,
          "time": 111.999888,
          "velocity": 0.6299212598425197
        },
        {
          "duration": 0.15763873124998895,
          "durationTicks": 227,
          "midi": 62,
          "name": "D4",
          "ticks": 161520,
          "time": 112.1665545,
          "velocity": 0.6299212598425197
        },
        {
          "duration": 0.9493046062499957,
          "durationTicks": 1367,
          "midi": 64,
          "name": "E4",
          "ticks": 161760,
          "time": 112.333221,
          "velocity": 0.6299212598425197
        }
      ],
      "endOfTrackTicks": 163128
    },
    {
      "channel": 1,
      "controlChanges": {},
      "pitchBends": [],
      "instrument": {
        "family": "piano",
        "name": "acoustic grand piano",
        "number": 0
      },
      "name": "Piano\u0000",
      "notes": [
        {
          "duration": 0.15763873125,
          "durationTicks": 227,
          "midi": 50,
          "name": "D3",
          "ticks": 0,
          "time": 0,
          "velocity": 0.6299212598425197
        },
        {
          "duration": 0.15763873125,
          "durationTicks": 227,
          "midi": 50,
          "name": "D3",
          "ticks": 240,
          "time": 0.1666665,
          "velocity": 0.6299212598425197
        },
        {
          "duration": 0.15763873125,
          "durationTicks": 227,
          "midi": 50,
          "name": "D3",
          "ticks": 720,
          "time": 0.4999995,
          "velocity": 0.6299212598425197
        },
        {
          "duration": 0.15763873125000005,
          "durationTicks": 227,
          "midi": 50,
          "name": "D3",
          "ticks": 1200,
          "time": 0.8333325,
          "velocity": 0.6299212598425197
        },
        {
          "duration": 0.31597190625000005,
          "durationTicks": 455,
          "midi": 50,
          "name": "D3",
          "ticks": 1440,
          "time": 0.999999,
          "velocity": 0.6299212598425197
        },
        {
          "duration": 0.31597190625000016,
          "durationTicks": 455,
          "midi": 55,
          "name": "G3",
          "ticks": 1920,
          "time": 1.333332,
          "velocity": 0.6299212598425197
        },
        {
          "duration": 0.31597190624999993,
          "durationTicks": 455,
          "midi": 43,
          "name": "G2",
          "ticks": 2880,
          "time": 1.999998,
          "velocity": 0.6299212598425197
        },
        {
          "duration": 0.3159719062499997,
          "durationTicks": 455,
          "midi": 55,
          "name": "G3",
          "ticks": 3840,
          "time": 2.666664,
          "velocity": 0.6299212598425197
        },
        {
          "duration": 0.3159719062499997,
          "durationTicks": 455,
          "midi": 52,
          "name": "E3",
          "ticks": 4560,
          "time": 3.1666635,
          "velocity": 0.6299212598425197
        },
        {
          "duration": 0.3159719062499997,
          "durationTicks": 455,
          "midi": 48,
          "name": "C3",
          "ticks": 5280,
          "time": 3.666663,
          "velocity": 0.6299212598425197
        },
        {
          "duration": 0.3159719062499997,
          "durationTicks": 455,
          "midi": 53,
          "name": "F3",
          "ticks": 6000,
          "time": 4.1666625,
          "velocity": 0.6299212598425197
        },
        {
          "duration": 0.3159719062499997,
          "durationTicks": 455,
          "midi": 55,
          "name": "G3",
          "ticks": 6480,
          "time": 4.4999955,
          "velocity": 0.6299212598425197
        },
        {
          "duration": 0.1576387312500005,
          "durationTicks": 227,
          "midi": 54,
          "name": "F#3",
          "ticks": 6960,
          "time": 4.8333284999999995,
          "velocity": 0.6299212598425197
        },
        {
          "duration": 0.3159719062499997,
          "durationTicks": 455,
          "midi": 53,
          "name": "F3",
          "ticks": 7200,
          "time": 4.999995,
          "velocity": 0.6299212598425197
        },
        {
          "duration": 0.21041645625000083,
          "durationTicks": 303,
          "midi": 52,
          "name": "E3",
          "ticks": 7680,
          "time": 5.333328,
          "velocity": 0.6299212598425197
        },
        {
          "duration": 0.21041645624999905,
          "durationTicks": 303,
          "midi": 60,
          "name": "C4",
          "ticks": 8000,
          "time": 5.55555,
          "velocity": 0.6299212598425197
        },
        {
          "duration": 0.21041645624999994,
          "durationTicks": 303,
          "midi": 64,
          "name": "E4",
          "ticks": 8320,
          "time": 5.777772,
          "velocity": 0.6299212598425197
        },
        {
          "duration": 0.3159719062500006,
          "durationTicks": 455,
          "midi": 65,
          "name": "F4",
          "ticks": 8640,
          "time": 5.999994,
          "velocity": 0.6299212598425197
        },
        {
          "duration": 0.1576387312499996,
          "durationTicks": 227,
          "midi": 62,
          "name": "D4",
          "ticks": 9120,
          "time": 6.333327,
          "velocity": 0.6299212598425197
        },
        {
          "duration": 0.1576387312500005,
          "durationTicks": 227,
          "midi": 64,
          "name": "E4",
          "ticks": 9360,
          "time": 6.4999934999999995,
          "velocity": 0.6299212598425197
        },
        {
          "duration": 0.3159719062499997,
          "durationTicks": 455,
          "midi": 60,
          "name": "C4",
          "ticks": 9840,
          "time": 6.8333265,
          "velocity": 0.6299212598425197
        },
        {
          "duration": 0.1576387312499996,
          "durationTicks": 227,
          "midi": 57,
          "name": "A3",
          "ticks": 10320,
          "time": 7.1666595,
          "velocity": 0.6299212598425197
        },
        {
          "duration": 0.1576387312500005,
          "durationTicks": 227,
          "midi": 59,
          "name": "B3",
          "ticks": 10560,
          "time": 7.333326,
          "velocity": 0.6299212598425197
        },
        {
          "duration": 0.3159719062500006,
          "durationTicks": 455,
          "midi": 55,
          "name": "G3",
          "ticks": 10800,
          "time": 7.499992499999999,
          "velocity": 0.6299212598425197
        },
        {
          "duration": 0.3159719062499997,
          "durationTicks": 455,
          "midi": 55,
          "name": "G3",
          "ticks": 11520,
          "time": 7.999992,
          "velocity": 0.6299212598425197
        },
        {
          "duration": 0.3159719062500006,
          "durationTicks": 455,
          "midi": 52,
          "name": "E3",
          "ticks": 12240,
          "time": 8.4999915,
          "velocity": 0.6299212598425197
        },
        {
          "duration": 0.3159719062500006,
          "durationTicks": 455,
          "midi": 48,
          "name": "C3",
          "ticks": 12960,
          "time": 8.999991,
          "velocity": 0.6299212598425197
        },
        {
          "duration": 0.3159719062500006,
          "durationTicks": 455,
          "midi": 53,
          "name": "F3",
          "ticks": 13680,
          "time": 9.4999905,
          "velocity": 0.6299212598425197
        },
        {
          "duration": 0.3159719062499988,
          "durationTicks": 455,
          "midi": 55,
          "name": "G3",
          "ticks": 14160,
          "time": 9.8333235,
          "velocity": 0.6299212598425197
        },
        {
          "duration": 0.1576387312499996,
          "durationTicks": 227,
          "midi": 54,
          "name": "F#3",
          "ticks": 14640,
          "time": 10.1666565,
          "velocity": 0.6299212598425197
        },
        {
          "duration": 0.3159719062500006,
          "durationTicks": 455,
          "midi": 53,
          "name": "F3",
          "ticks": 14880,
          "time": 10.333323,
          "velocity": 0.6299212598425197
        },
        {
          "duration": 0.21041645624999994,
          "durationTicks": 303,
          "midi": 52,
          "name": "E3",
          "ticks": 15360,
          "time": 10.666656,
          "velocity": 0.6299212598425197
        },
        {
          "duration": 0.21041645625000172,
          "durationTicks": 303,
          "midi": 60,
          "name": "C4",
          "ticks": 15680,
          "time": 10.888877999999998,
          "velocity": 0.6299212598425197
        },
        {
          "duration": 0.21041645624999816,
          "durationTicks": 303,
          "midi": 64,
          "name": "E4",
          "ticks": 16000,
          "time": 11.1111,
          "velocity": 0.6299212598425197
        },
        {
          "duration": 0.3159719062500006,
          "durationTicks": 455,
          "midi": 65,
          "name": "F4",
          "ticks": 16320,
          "time": 11.333321999999999,
          "velocity": 0.6299212598425197
        },
        {
          "duration": 0.1576387312499996,
          "durationTicks": 227,
          "midi": 62,
          "name": "D4",
          "ticks": 16800,
          "time": 11.666655,
          "velocity": 0.6299212598425197
        },
        {
          "duration": 0.1576387312499996,
          "durationTicks": 227,
          "midi": 64,
          "name": "E4",
          "ticks": 17040,
          "time": 11.8333215,
          "velocity": 0.6299212598425197
        },
        {
          "duration": 0.3159719062499988,
          "durationTicks": 455,
          "midi": 60,
          "name": "C4",
          "ticks": 17520,
          "time": 12.1666545,
          "velocity": 0.6299212598425197
        },
        {
          "duration": 0.15763873125000138,
          "durationTicks": 227,
          "midi": 57,
          "name": "A3",
          "ticks": 18000,
          "time": 12.4999875,
          "velocity": 0.6299212598425197
        },
        {
          "duration": 0.15763873125000138,
          "durationTicks": 227,
          "midi": 59,
          "name": "B3",
          "ticks": 18240,
          "time": 12.666654,
          "velocity": 0.6299212598425197
        },
        {
          "duration": 0.3159719062499988,
          "durationTicks": 455,
          "midi": 55,
          "name": "G3",
          "ticks": 18480,
          "time": 12.8333205,
          "velocity": 0.6299212598425197
        },
        {
          "duration": 0.3159719062499988,
          "durationTicks": 455,
          "midi": 48,
          "name": "C3",
          "ticks": 19200,
          "time": 13.33332,
          "velocity": 0.6299212598425197
        },
        {
          "duration": 0.15763873125000138,
          "durationTicks": 227,
          "midi": 55,
          "name": "G3",
          "ticks": 19920,
          "time": 13.8333195,
          "velocity": 0.6299212598425197
        },
        {
          "duration": 0.3159719062499988,
          "durationTicks": 455,
          "midi": 60,
          "name": "C4",
          "ticks": 20640,
          "time": 14.333319,
          "velocity": 0.6299212598425197
        },
        {
          "duration": 0.3159719062499988,
          "durationTicks": 455,
          "midi": 53,
          "name": "F3",
          "ticks": 21120,
          "time": 14.666652,
          "velocity": 0.6299212598425197
        },
        {
          "duration": 0.1576387312499996,
          "durationTicks": 227,
          "midi": 60,
          "name": "C4",
          "ticks": 21840,
          "time": 15.1666515,
          "velocity": 0.6299212598425197
        },
        {
          "duration": 0.16666649999999983,
          "durationTicks": 240,
          "midi": 60,
          "name": "C4",
          "ticks": 22080,
          "time": 15.333318,
          "velocity": 0.6299212598425197
        },
        {
          "duration": 0.3159719062499988,
          "durationTicks": 455,
          "midi": 53,
          "name": "F3",
          "ticks": 22560,
          "time": 15.666651,
          "velocity": 0.6299212598425197
        },
        {
          "duration": 0.3159719062500006,
          "durationTicks": 455,
          "midi": 48,
          "name": "C3",
          "ticks": 23040,
          "time": 15.999984,
          "velocity": 0.6299212598425197
        },
        {
          "duration": 0.15763873125000316,
          "durationTicks": 227,
          "midi": 55,
          "name": "G3",
          "ticks": 23760,
          "time": 16.4999835,
          "velocity": 0.6299212598425197
        },
        {
          "duration": 0.1576387312499996,
          "durationTicks": 227,
          "midi": 55,
          "name": "G3",
          "ticks": 24480,
          "time": 16.999983,
          "velocity": 0.6299212598425197
        },
        {
          "duration": 0.15763873125000316,
          "durationTicks": 227,
          "midi": 60,
          "name": "C4",
          "ticks": 24720,
          "time": 17.1666495,
          "velocity": 0.6299212598425197
        },
        {
          "duration": 0.3159719062499988,
          "durationTicks": 455,
          "midi": 55,
          "name": "G3",
          "ticks": 26400,
          "time": 18.333315,
          "velocity": 0.6299212598425197
        },
        {
          "duration": 0.3159719062499988,
          "durationTicks": 455,
          "midi": 48,
          "name": "C3",
          "ticks": 26880,
          "time": 18.666648,
          "velocity": 0.6299212598425197
        },
        {
          "duration": 0.1576387312499996,
          "durationTicks": 227,
          "midi": 55,
          "name": "G3",
          "ticks": 27600,
          "time": 19.1666475,
          "velocity": 0.6299212598425197
        },
        {
          "duration": 0.3159719062499988,
          "durationTicks": 455,
          "midi": 60,
          "name": "C4",
          "ticks": 28320,
          "time": 19.666647,
          "velocity": 0.6299212598425197
        },
        {
          "duration": 0.3159719062499988,
          "durationTicks": 455,
          "midi": 53,
          "name": "F3",
          "ticks": 28800,
          "time": 19.99998,
          "velocity": 0.6299212598425197
        },
        {
          "duration": 0.15763873125000316,
          "durationTicks": 227,
          "midi": 60,
          "name": "C4",
          "ticks": 29520,
          "time": 20.4999795,
          "velocity": 0.6299212598425197
        },
        {
          "duration": 0.16666649999999805,
          "durationTicks": 240,
          "midi": 60,
          "name": "C4",
          "ticks": 29760,
          "time": 20.666646,
          "velocity": 0.6299212598425197
        },
        {
          "duration": 0.3159719062499988,
          "durationTicks": 455,
          "midi": 53,
          "name": "F3",
          "ticks": 30240,
          "time": 20.999979,
          "velocity": 0.6299212598425197
        },
        {
          "duration": 0.3159719062500024,
          "durationTicks": 455,
          "midi": 48,
          "name": "C3",
          "ticks": 30720,
          "time": 21.333312,
          "velocity": 0.6299212598425197
        },
        {
          "duration": 0.3159719062500024,
          "durationTicks": 455,
          "midi": 56,
          "name": "G#3",
          "ticks": 31200,
          "time": 21.666645,
          "velocity": 0.6299212598425197
        },
        {
          "duration": 0.3159719062500024,
          "durationTicks": 455,
          "midi": 58,
          "name": "A#3",
          "ticks": 31920,
          "time": 22.1666445,
          "velocity": 0.6299212598425197
        },
        {
          "duration": 0.3159719062500024,
          "durationTicks": 455,
          "midi": 60,
          "name": "C4",
          "ticks": 32640,
          "time": 22.666643999999998,
          "velocity": 0.6299212598425197
        },
        {
          "duration": 0.1576387312499996,
          "durationTicks": 227,
          "midi": 55,
          "name": "G3",
          "ticks": 33360,
          "time": 23.1666435,
          "velocity": 0.6299212598425197
        },
        {
          "duration": 0.3159719062499988,
          "durationTicks": 455,
          "midi": 55,
          "name": "G3",
          "ticks": 33600,
          "time": 23.33331,
          "velocity": 0.6299212598425197
        },
        {
          "duration": 0.3159719062499988,
          "durationTicks": 455,
          "midi": 48,
          "name": "C3",
          "ticks": 34080,
          "time": 23.666643,
          "velocity": 0.6299212598425197
        },
        {
          "duration": 0.3159719062500024,
          "durationTicks": 455,
          "midi": 48,
          "name": "C3",
          "ticks": 34560,
          "time": 23.999976,
          "velocity": 0.6299212598425197
        },
        {
          "duration": 0.1576387312499996,
          "durationTicks": 227,
          "midi": 55,
          "name": "G3",
          "ticks": 35280,
          "time": 24.499975499999998,
          "velocity": 0.6299212598425197
        },
        {
          "duration": 0.3159719062500024,
          "durationTicks": 455,
          "midi": 60,
          "name": "C4",
          "ticks": 36000,
          "time": 24.999975,
          "velocity": 0.6299212598425197
        },
        {
          "duration": 0.3159719062500024,
          "durationTicks": 455,
          "midi": 53,
          "name": "F3",
          "ticks": 36480,
          "time": 25.333308,
          "velocity": 0.6299212598425197
        },
        {
          "duration": 0.1576387312499996,
          "durationTicks": 227,
          "midi": 60,
          "name": "C4",
          "ticks": 37200,
          "time": 25.8333075,
          "velocity": 0.6299212598425197
        },
        {
          "duration": 0.1666665000000016,
          "durationTicks": 240,
          "midi": 60,
          "name": "C4",
          "ticks": 37440,
          "time": 25.999973999999998,
          "velocity": 0.6299212598425197
        },
        {
          "duration": 0.3159719062500024,
          "durationTicks": 455,
          "midi": 53,
          "name": "F3",
          "ticks": 37920,
          "time": 26.333306999999998,
          "velocity": 0.6299212598425197
        },
        {
          "duration": 0.3159719062499988,
          "durationTicks": 455,
          "midi": 48,
          "name": "C3",
          "ticks": 38400,
          "time": 26.66664,
          "velocity": 0.6299212598425197
        },
        {
          "duration": 0.1576387312499996,
          "durationTicks": 227,
          "midi": 55,
          "name": "G3",
          "ticks": 39120,
          "time": 27.1666395,
          "velocity": 0.6299212598425197
        },
        {
          "duration": 0.1576387312499996,
          "durationTicks": 227,
          "midi": 55,
          "name": "G3",
          "ticks": 39840,
          "time": 27.666639,
          "velocity": 0.6299212598425197
        },
        {
          "duration": 0.1576387312499996,
          "durationTicks": 227,
          "midi": 60,
          "name": "C4",
          "ticks": 40080,
          "time": 27.833305499999998,
          "velocity": 0.6299212598425197
        },
        {
          "duration": 0.3159719062500024,
          "durationTicks": 455,
          "midi": 55,
          "name": "G3",
          "ticks": 41760,
          "time": 28.999971,
          "velocity": 0.6299212598425197
        },
        {
          "duration": 0.3159719062500024,
          "durationTicks": 455,
          "midi": 48,
          "name": "C3",
          "ticks": 42240,
          "time": 29.333304,
          "velocity": 0.6299212598425197
        },
        {
          "duration": 0.1576387312499996,
          "durationTicks": 227,
          "midi": 55,
          "name": "G3",
          "ticks": 42960,
          "time": 29.8333035,
          "velocity": 0.6299212598425197
        },
        {
          "duration": 0.3159719062499988,
          "durationTicks": 455,
          "midi": 60,
          "name": "C4",
          "ticks": 43680,
          "time": 30.333303,
          "velocity": 0.6299212598425197
        },
        {
          "duration": 0.3159719062499988,
          "durationTicks": 455,
          "midi": 53,
          "name": "F3",
          "ticks": 44160,
          "time": 30.666636,
          "velocity": 0.6299212598425197
        },
        {
          "duration": 0.1576387312499996,
          "durationTicks": 227,
          "midi": 60,
          "name": "C4",
          "ticks": 44880,
          "time": 31.166635499999998,
          "velocity": 0.6299212598425197
        },
        {
          "duration": 0.16666649999999805,
          "durationTicks": 240,
          "midi": 60,
          "name": "C4",
          "ticks": 45120,
          "time": 31.333302,
          "velocity": 0.6299212598425197
        },
        {
          "duration": 0.3159719062500024,
          "durationTicks": 455,
          "midi": 53,
          "name": "F3",
          "ticks": 45600,
          "time": 31.666635,
          "velocity": 0.6299212598425197
        },
        {
          "duration": 0.3159719062500024,
          "durationTicks": 455,
          "midi": 48,
          "name": "C3",
          "ticks": 46080,
          "time": 31.999968,
          "velocity": 0.6299212598425197
        },
        {
          "duration": 0.3159719062499988,
          "durationTicks": 455,
          "midi": 56,
          "name": "G#3",
          "ticks": 46560,
          "time": 32.333301,
          "velocity": 0.6299212598425197
        },
        {
          "duration": 0.3159719062499988,
          "durationTicks": 455,
          "midi": 58,
          "name": "A#3",
          "ticks": 47280,
          "time": 32.8333005,
          "velocity": 0.6299212598425197
        },
        {
          "duration": 0.3159719062499988,
          "durationTicks": 455,
          "midi": 60,
          "name": "C4",
          "ticks": 48000,
          "time": 33.3333,
          "velocity": 0.6299212598425197
        },
        {
          "duration": 0.15763873124999606,
          "durationTicks": 227,
          "midi": 55,
          "name": "G3",
          "ticks": 48720,
          "time": 33.8332995,
          "velocity": 0.6299212598425197
        },
        {
          "duration": 0.3159719062499988,
          "durationTicks": 455,
          "midi": 55,
          "name": "G3",
          "ticks": 48960,
          "time": 33.999966,
          "velocity": 0.6299212598425197
        },
        {
          "duration": 0.31597190625000593,
          "durationTicks": 455,
          "midi": 48,
          "name": "C3",
          "ticks": 49440,
          "time": 34.333299,
          "velocity": 0.6299212598425197
        },
        {
          "duration": 0.3159719062499988,
          "durationTicks": 455,
          "midi": 44,
          "name": "G#2",
          "ticks": 49920,
          "time": 34.666632,
          "velocity": 0.6299212598425197
        },
        {
          "duration": 0.15763873124999606,
          "durationTicks": 227,
          "midi": 51,
          "name": "D#3",
          "ticks": 50640,
          "time": 35.1666315,
          "velocity": 0.6299212598425197
        },
        {
          "duration": 0.3159719062499988,
          "durationTicks": 455,
          "midi": 56,
          "name": "G#3",
          "ticks": 51360,
          "time": 35.666631,
          "velocity": 0.6299212598425197
        },
        {
          "duration": 0.3159719062499988,
          "durationTicks": 455,
          "midi": 55,
          "name": "G3",
          "ticks": 51840,
          "time": 35.999964,
          "velocity": 0.6299212598425197
        },
        {
          "duration": 0.15763873124999606,
          "durationTicks": 227,
          "midi": 48,
          "name": "C3",
          "ticks": 52560,
          "time": 36.4999635,
          "velocity": 0.6299212598425197
        },
        {
          "duration": 0.3159719062499988,
          "durationTicks": 455,
          "midi": 43,
          "name": "G2",
          "ticks": 53280,
          "time": 36.999963,
          "velocity": 0.6299212598425197
        },
        {
          "duration": 0.31597190625000593,
          "durationTicks": 455,
          "midi": 44,
          "name": "G#2",
          "ticks": 53760,
          "time": 37.333296,
          "velocity": 0.6299212598425197
        },
        {
          "duration": 0.15763873124999606,
          "durationTicks": 227,
          "midi": 51,
          "name": "D#3",
          "ticks": 54480,
          "time": 37.8332955,
          "velocity": 0.6299212598425197
        },
        {
          "duration": 0.3159719062499988,
          "durationTicks": 455,
          "midi": 56,
          "name": "G#3",
          "ticks": 55200,
          "time": 38.333295,
          "velocity": 0.6299212598425197
        },
        {
          "duration": 0.31597190625000593,
          "durationTicks": 455,
          "midi": 55,
          "name": "G3",
          "ticks": 55680,
          "time": 38.666627999999996,
          "velocity": 0.6299212598425197
        },
        {
          "duration": 0.15763873125000316,
          "durationTicks": 227,
          "midi": 48,
          "name": "C3",
          "ticks": 56400,
          "time": 39.1666275,
          "velocity": 0.6299212598425197
        },
        {
          "duration": 0.3159719062499988,
          "durationTicks": 455,
          "midi": 43,
          "name": "G2",
          "ticks": 57120,
          "time": 39.666627,
          "velocity": 0.6299212598425197
        },
        {
          "duration": 0.3159719062499988,
          "durationTicks": 455,
          "midi": 44,
          "name": "G#2",
          "ticks": 57600,
          "time": 39.99996,
          "velocity": 0.6299212598425197
        },
        {
          "duration": 0.15763873125000316,
          "durationTicks": 227,
          "midi": 51,
          "name": "D#3",
          "ticks": 58320,
          "time": 40.499959499999996,
          "velocity": 0.6299212598425197
        },
        {
          "duration": 0.31597190625000593,
          "durationTicks": 455,
          "midi": 56,
          "name": "G#3",
          "ticks": 59040,
          "time": 40.999959,
          "velocity": 0.6299212598425197
        },
        {
          "duration": 0.3159719062499988,
          "durationTicks": 455,
          "midi": 55,
          "name": "G3",
          "ticks": 59520,
          "time": 41.333292,
          "velocity": 0.6299212598425197
        },
        {
          "duration": 0.15763873124999606,
          "durationTicks": 227,
          "midi": 48,
          "name": "C3",
          "ticks": 60240,
          "time": 41.8332915,
          "velocity": 0.6299212598425197
        },
        {
          "duration": 0.31597190625000593,
          "durationTicks": 455,
          "midi": 43,
          "name": "G2",
          "ticks": 60960,
          "time": 42.333290999999996,
          "velocity": 0.6299212598425197
        },
        {
          "duration": 0.15763873124999606,
          "durationTicks": 227,
          "midi": 50,
          "name": "D3",
          "ticks": 61440,
          "time": 42.666624,
          "velocity": 0.6299212598425197
        },
        {
          "duration": 0.15763873125000316,
          "durationTicks": 227,
          "midi": 50,
          "name": "D3",
          "ticks": 61680,
          "time": 42.8332905,
          "velocity": 0.6299212598425197
        },
        {
          "duration": 0.15763873124999606,
          "durationTicks": 227,
          "midi": 50,
          "name": "D3",
          "ticks": 62160,
          "time": 43.1666235,
          "velocity": 0.6299212598425197
        },
        {
          "duration": 0.15763873125000316,
          "durationTicks": 227,
          "midi": 50,
          "name": "D3",
          "ticks": 62640,
          "time": 43.499956499999996,
          "velocity": 0.6299212598425197
        },
        {
          "duration": 0.3159719062499917,
          "durationTicks": 455,
          "midi": 50,
          "name": "D3",
          "ticks": 62880,
          "time": 43.666623,
          "velocity": 0.6299212598425197
        },
        {
          "duration": 0.3159719062499988,
          "durationTicks": 455,
          "midi": 55,
          "name": "G3",
          "ticks": 63360,
          "time": 43.999956,
          "velocity": 0.6299212598425197
        },
        {
          "duration": 0.3159719062499988,
          "durationTicks": 455,
          "midi": 43,
          "name": "G2",
          "ticks": 64320,
          "time": 44.666622,
          "velocity": 0.6299212598425197
        },
        {
          "duration": 0.3159719062499988,
          "durationTicks": 455,
          "midi": 55,
          "name": "G3",
          "ticks": 65280,
          "time": 45.333287999999996,
          "velocity": 0.6299212598425197
        },
        {
          "duration": 0.3159719062499988,
          "durationTicks": 455,
          "midi": 52,
          "name": "E3",
          "ticks": 66000,
          "time": 45.8332875,
          "velocity": 0.6299212598425197
        },
        {
          "duration": 0.3159719062499988,
          "durationTicks": 455,
          "midi": 48,
          "name": "C3",
          "ticks": 66720,
          "time": 46.333287,
          "velocity": 0.6299212598425197
        },
        {
          "duration": 0.3159719062499988,
          "durationTicks": 455,
          "midi": 53,
          "name": "F3",
          "ticks": 67440,
          "time": 46.8332865,
          "velocity": 0.6299212598425197
        },
        {
          "duration": 0.3159719062499988,
          "durationTicks": 455,
          "midi": 55,
          "name": "G3",
          "ticks": 67920,
          "time": 47.166619499999996,
          "velocity": 0.6299212598425197
        },
        {
          "duration": 0.15763873124999606,
          "durationTicks": 227,
          "midi": 54,
          "name": "F#3",
          "ticks": 68400,
          "time": 47.4999525,
          "velocity": 0.6299212598425197
        },
        {
          "duration": 0.3159719062499988,
          "durationTicks": 455,
          "midi": 53,
          "name": "F3",
          "ticks": 68640,
          "time": 47.666619,
          "velocity": 0.6299212598425197
        },
        {
          "duration": 0.2104164562499946,
          "durationTicks": 303,
          "midi": 52,
          "name": "E3",
          "ticks": 69120,
          "time": 47.999952,
          "velocity": 0.6299212598425197
        },
        {
          "duration": 0.21041645625000882,
          "durationTicks": 303,
          "midi": 60,
          "name": "C4",
          "ticks": 69440,
          "time": 48.222173999999995,
          "velocity": 0.6299212598425197
        },
        {
          "duration": 0.2104164562499946,
          "durationTicks": 303,
          "midi": 64,
          "name": "E4",
          "ticks": 69760,
          "time": 48.444396000000005,
          "velocity": 0.6299212598425197
        },
        {
          "duration": 0.3159719062499988,
          "durationTicks": 455,
          "midi": 65,
          "name": "F4",
          "ticks": 70080,
          "time": 48.666618,
          "velocity": 0.6299212598425197
        },
        {
          "duration": 0.15763873125000316,
          "durationTicks": 227,
          "midi": 62,
          "name": "D4",
          "ticks": 70560,
          "time": 48.999950999999996,
          "velocity": 0.6299212598425197
        },
        {
          "duration": 0.15763873124999606,
          "durationTicks": 227,
          "midi": 64,
          "name": "E4",
          "ticks": 70800,
          "time": 49.1666175,
          "velocity": 0.6299212598425197
        },
        {
          "duration": 0.3159719062499988,
          "durationTicks": 455,
          "midi": 60,
          "name": "C4",
          "ticks": 71280,
          "time": 49.4999505,
          "velocity": 0.6299212598425197
        },
        {
          "duration": 0.15763873124999606,
          "durationTicks": 227,
          "midi": 57,
          "name": "A3",
          "ticks": 71760,
          "time": 49.8332835,
          "velocity": 0.6299212598425197
        },
        {
          "duration": 0.15763873124999606,
          "durationTicks": 227,
          "midi": 59,
          "name": "B3",
          "ticks": 72000,
          "time": 49.99995,
          "velocity": 0.6299212598425197
        },
        {
          "duration": 0.3159719062499988,
          "durationTicks": 455,
          "midi": 55,
          "name": "G3",
          "ticks": 72240,
          "time": 50.166616499999996,
          "velocity": 0.6299212598425197
        },
        {
          "duration": 0.3159719062499988,
          "durationTicks": 455,
          "midi": 55,
          "name": "G3",
          "ticks": 72960,
          "time": 50.666616,
          "velocity": 0.6299212598425197
        },
        {
          "duration": 0.3159719062499988,
          "durationTicks": 455,
          "midi": 52,
          "name": "E3",
          "ticks": 73680,
          "time": 51.1666155,
          "velocity": 0.6299212598425197
        },
        {
          "duration": 0.3159719062499917,
          "durationTicks": 455,
          "midi": 48,
          "name": "C3",
          "ticks": 74400,
          "time": 51.666615,
          "velocity": 0.6299212598425197
        },
        {
          "duration": 0.3159719062499917,
          "durationTicks": 455,
          "midi": 53,
          "name": "F3",
          "ticks": 75120,
          "time": 52.1666145,
          "velocity": 0.6299212598425197
        },
        {
          "duration": 0.3159719062499988,
          "durationTicks": 455,
          "midi": 55,
          "name": "G3",
          "ticks": 75600,
          "time": 52.4999475,
          "velocity": 0.6299212598425197
        },
        {
          "duration": 0.15763873124999606,
          "durationTicks": 227,
          "midi": 54,
          "name": "F#3",
          "ticks": 76080,
          "time": 52.8332805,
          "velocity": 0.6299212598425197
        },
        {
          "duration": 0.3159719062499988,
          "durationTicks": 455,
          "midi": 53,
          "name": "F3",
          "ticks": 76320,
          "time": 52.999947,
          "velocity": 0.6299212598425197
        },
        {
          "duration": 0.2104164562499946,
          "durationTicks": 303,
          "midi": 52,
          "name": "E3",
          "ticks": 76800,
          "time": 53.33328,
          "velocity": 0.6299212598425197
        },
        {
          "duration": 0.21041645625000882,
          "durationTicks": 303,
          "midi": 60,
          "name": "C4",
          "ticks": 77120,
          "time": 53.555502,
          "velocity": 0.6299212598425197
        },
        {
          "duration": 0.21041645625000172,
          "durationTicks": 303,
          "midi": 64,
          "name": "E4",
          "ticks": 77440,
          "time": 53.777724,
          "velocity": 0.6299212598425197
        },
        {
          "duration": 0.3159719062499917,
          "durationTicks": 455,
          "midi": 65,
          "name": "F4",
          "ticks": 77760,
          "time": 53.999946,
          "velocity": 0.6299212598425197
        },
        {
          "duration": 0.15763873125000316,
          "durationTicks": 227,
          "midi": 62,
          "name": "D4",
          "ticks": 78240,
          "time": 54.333279,
          "velocity": 0.6299212598425197
        },
        {
          "duration": 0.15763873125000316,
          "durationTicks": 227,
          "midi": 64,
          "name": "E4",
          "ticks": 78480,
          "time": 54.499945499999995,
          "velocity": 0.6299212598425197
        },
        {
          "duration": 0.3159719062499988,
          "durationTicks": 455,
          "midi": 60,
          "name": "C4",
          "ticks": 78960,
          "time": 54.8332785,
          "velocity": 0.6299212598425197
        },
        {
          "duration": 0.15763873124999606,
          "durationTicks": 227,
          "midi": 57,
          "name": "A3",
          "ticks": 79440,
          "time": 55.1666115,
          "velocity": 0.6299212598425197
        },
        {
          "duration": 0.15763873124999606,
          "durationTicks": 227,
          "midi": 59,
          "name": "B3",
          "ticks": 79680,
          "time": 55.333278,
          "velocity": 0.6299212598425197
        },
        {
          "duration": 0.3159719062499988,
          "durationTicks": 455,
          "midi": 55,
          "name": "G3",
          "ticks": 79920,
          "time": 55.4999445,
          "velocity": 0.6299212598425197
        },
        {
          "duration": 0.3159719062499988,
          "durationTicks": 455,
          "midi": 48,
          "name": "C3",
          "ticks": 80640,
          "time": 55.999944,
          "velocity": 0.6299212598425197
        },
        {
          "duration": 0.15763873124999606,
          "durationTicks": 227,
          "midi": 54,
          "name": "F#3",
          "ticks": 81360,
          "time": 56.4999435,
          "velocity": 0.6299212598425197
        },
        {
          "duration": 0.3159719062499988,
          "durationTicks": 455,
          "midi": 55,
          "name": "G3",
          "ticks": 81600,
          "time": 56.66661,
          "velocity": 0.6299212598425197
        },
        {
          "duration": 0.3159719062499917,
          "durationTicks": 455,
          "midi": 60,
          "name": "C4",
          "ticks": 82080,
          "time": 56.999943,
          "velocity": 0.6299212598425197
        },
        {
          "duration": 0.3159719062499988,
          "durationTicks": 455,
          "midi": 53,
          "name": "F3",
          "ticks": 82560,
          "time": 57.333276,
          "velocity": 0.6299212598425197
        },
        {
          "duration": 0.3159719062499917,
          "durationTicks": 455,
          "midi": 53,
          "name": "F3",
          "ticks": 83040,
          "time": 57.666609,
          "velocity": 0.6299212598425197
        },
        {
          "duration": 0.15763873125000316,
          "durationTicks": 227,
          "midi": 60,
          "name": "C4",
          "ticks": 83520,
          "time": 57.999942,
          "velocity": 0.6299212598425197
        },
        {
          "duration": 0.15763873125000316,
          "durationTicks": 227,
          "midi": 60,
          "name": "C4",
          "ticks": 83760,
          "time": 58.166608499999995,
          "velocity": 0.6299212598425197
        },
        {
          "duration": 0.3159719062499917,
          "durationTicks": 455,
          "midi": 53,
          "name": "F3",
          "ticks": 84000,
          "time": 58.333275,
          "velocity": 0.6299212598425197
        },
        {
          "duration": 0.3159719062499988,
          "durationTicks": 455,
          "midi": 50,
          "name": "D3",
          "ticks": 84480,
          "time": 58.666608,
          "velocity": 0.6299212598425197
        },
        {
          "duration": 0.15763873124999606,
          "durationTicks": 227,
          "midi": 53,
          "name": "F3",
          "ticks": 85200,
          "time": 59.1666075,
          "velocity": 0.6299212598425197
        },
        {
          "duration": 0.3159719062499988,
          "durationTicks": 455,
          "midi": 55,
          "name": "G3",
          "ticks": 85440,
          "time": 59.333273999999996,
          "velocity": 0.6299212598425197
        },
        {
          "duration": 0.3159719062499988,
          "durationTicks": 455,
          "midi": 59,
          "name": "B3",
          "ticks": 85920,
          "time": 59.666607,
          "velocity": 0.6299212598425197
        },
        {
          "duration": 0.3159719062499988,
          "durationTicks": 455,
          "midi": 53,
          "name": "F3",
          "ticks": 86400,
          "time": 59.999939999999995,
          "velocity": 0.6299212598425197
        },
        {
          "duration": 0.3159719062499988,
          "durationTicks": 455,
          "midi": 53,
          "name": "F3",
          "ticks": 86880,
          "time": 60.333273,
          "velocity": 0.6299212598425197
        },
        {
          "duration": 0.15763873124999606,
          "durationTicks": 227,
          "midi": 60,
          "name": "C4",
          "ticks": 87360,
          "time": 60.666606,
          "velocity": 0.6299212598425197
        },
        {
          "duration": 0.15763873124999606,
          "durationTicks": 227,
          "midi": 60,
          "name": "C4",
          "ticks": 87600,
          "time": 60.8332725,
          "velocity": 0.6299212598425197
        },
        {
          "duration": 0.3159719062499988,
          "durationTicks": 455,
          "midi": 53,
          "name": "F3",
          "ticks": 87840,
          "time": 60.999939,
          "velocity": 0.6299212598425197
        },
        {
          "duration": 0.3159719062499917,
          "durationTicks": 455,
          "midi": 48,
          "name": "C3",
          "ticks": 88320,
          "time": 61.333272,
          "velocity": 0.6299212598425197
        },
        {
          "duration": 0.15763873125000316,
          "durationTicks": 227,
          "midi": 54,
          "name": "F#3",
          "ticks": 89040,
          "time": 61.833271499999995,
          "velocity": 0.6299212598425197
        },
        {
          "duration": 0.3159719062499917,
          "durationTicks": 455,
          "midi": 55,
          "name": "G3",
          "ticks": 89280,
          "time": 61.999938,
          "velocity": 0.6299212598425197
        },
        {
          "duration": 0.3159719062499988,
          "durationTicks": 455,
          "midi": 60,
          "name": "C4",
          "ticks": 89760,
          "time": 62.333270999999996,
          "velocity": 0.6299212598425197
        },
        {
          "duration": 0.3159719062499988,
          "durationTicks": 455,
          "midi": 53,
          "name": "F3",
          "ticks": 90240,
          "time": 62.666604,
          "velocity": 0.6299212598425197
        },
        {
          "duration": 0.3159719062499988,
          "durationTicks": 455,
          "midi": 53,
          "name": "F3",
          "ticks": 90720,
          "time": 62.999936999999996,
          "velocity": 0.6299212598425197
        },
        {
          "duration": 0.15763873124999606,
          "durationTicks": 227,
          "midi": 60,
          "name": "C4",
          "ticks": 91200,
          "time": 63.33327,
          "velocity": 0.6299212598425197
        },
        {
          "duration": 0.15763873125000316,
          "durationTicks": 227,
          "midi": 60,
          "name": "C4",
          "ticks": 91440,
          "time": 63.4999365,
          "velocity": 0.6299212598425197
        },
        {
          "duration": 0.3159719062499988,
          "durationTicks": 455,
          "midi": 53,
          "name": "F3",
          "ticks": 91680,
          "time": 63.666602999999995,
          "velocity": 0.6299212598425197
        },
        {
          "duration": 0.15763873124999606,
          "durationTicks": 227,
          "midi": 55,
          "name": "G3",
          "ticks": 92160,
          "time": 63.999936,
          "velocity": 0.6299212598425197
        },
        {
          "duration": 0.3159719062499988,
          "durationTicks": 455,
          "midi": 55,
          "name": "G3",
          "ticks": 92400,
          "time": 64.1666025,
          "velocity": 0.6299212598425197
        },
        {
          "duration": 0.15763873125000316,
          "durationTicks": 227,
          "midi": 55,
          "name": "G3",
          "ticks": 92880,
          "time": 64.49993549999999,
          "velocity": 0.6299212598425197
        },
        {
          "duration": 0.21041645625000172,
          "durationTicks": 303,
          "midi": 55,
          "name": "G3",
          "ticks": 93120,
          "time": 64.666602,
          "velocity": 0.6299212598425197
        },
        {
          "duration": 0.21041645625000172,
          "durationTicks": 303,
          "midi": 57,
          "name": "A3",
          "ticks": 93440,
          "time": 64.888824,
          "velocity": 0.6299212598425197
        },
        {
          "duration": 0.21041645625000172,
          "durationTicks": 303,
          "midi": 59,
          "name": "B3",
          "ticks": 93760,
          "time": 65.111046,
          "velocity": 0.6299212598425197
        },
        {
          "duration": 0.3159719062499846,
          "durationTicks": 455,
          "midi": 60,
          "name": "C4",
          "ticks": 94080,
          "time": 65.333268,
          "velocity": 0.6299212598425197
        },
        {
          "duration": 0.3159719062499988,
          "durationTicks": 455,
          "midi": 55,
          "name": "G3",
          "ticks": 94560,
          "time": 65.666601,
          "velocity": 0.6299212598425197
        },
        {
          "duration": 0.3159719062499988,
          "durationTicks": 455,
          "midi": 48,
          "name": "C3",
          "ticks": 95040,
          "time": 65.999934,
          "velocity": 0.6299212598425197
        },
        {
          "duration": 0.3159719062499988,
          "durationTicks": 455,
          "midi": 48,
          "name": "C3",
          "ticks": 96000,
          "time": 66.6666,
          "velocity": 0.6299212598425197
        },
        {
          "duration": 0.15763873124998895,
          "durationTicks": 227,
          "midi": 54,
          "name": "F#3",
          "ticks": 96720,
          "time": 67.1665995,
          "velocity": 0.6299212598425197
        },
        {
          "duration": 0.3159719062499988,
          "durationTicks": 455,
          "midi": 55,
          "name": "G3",
          "ticks": 96960,
          "time": 67.333266,
          "velocity": 0.6299212598425197
        },
        {
          "duration": 0.3159719062499846,
          "durationTicks": 455,
          "midi": 60,
          "name": "C4",
          "ticks": 97440,
          "time": 67.666599,
          "velocity": 0.6299212598425197
        },
        {
          "duration": 0.3159719062499988,
          "durationTicks": 455,
          "midi": 53,
          "name": "F3",
          "ticks": 97920,
          "time": 67.999932,
          "velocity": 0.6299212598425197
        },
        {
          "duration": 0.3159719062499988,
          "durationTicks": 455,
          "midi": 53,
          "name": "F3",
          "ticks": 98400,
          "time": 68.333265,
          "velocity": 0.6299212598425197
        },
        {
          "duration": 0.15763873125000316,
          "durationTicks": 227,
          "midi": 60,
          "name": "C4",
          "ticks": 98880,
          "time": 68.666598,
          "velocity": 0.6299212598425197
        },
        {
          "duration": 0.15763873125000316,
          "durationTicks": 227,
          "midi": 60,
          "name": "C4",
          "ticks": 99120,
          "time": 68.8332645,
          "velocity": 0.6299212598425197
        },
        {
          "duration": 0.3159719062499846,
          "durationTicks": 455,
          "midi": 53,
          "name": "F3",
          "ticks": 99360,
          "time": 68.999931,
          "velocity": 0.6299212598425197
        },
        {
          "duration": 0.3159719062499988,
          "durationTicks": 455,
          "midi": 50,
          "name": "D3",
          "ticks": 99840,
          "time": 69.333264,
          "velocity": 0.6299212598425197
        },
        {
          "duration": 0.15763873124998895,
          "durationTicks": 227,
          "midi": 53,
          "name": "F3",
          "ticks": 100560,
          "time": 69.8332635,
          "velocity": 0.6299212598425197
        },
        {
          "duration": 0.3159719062499988,
          "durationTicks": 455,
          "midi": 55,
          "name": "G3",
          "ticks": 100800,
          "time": 69.99992999999999,
          "velocity": 0.6299212598425197
        },
        {
          "duration": 0.3159719062499988,
          "durationTicks": 455,
          "midi": 59,
          "name": "B3",
          "ticks": 101280,
          "time": 70.333263,
          "velocity": 0.6299212598425197
        },
        {
          "duration": 0.3159719062499988,
          "durationTicks": 455,
          "midi": 53,
          "name": "F3",
          "ticks": 101760,
          "time": 70.666596,
          "velocity": 0.6299212598425197
        },
        {
          "duration": 0.3159719062499988,
          "durationTicks": 455,
          "midi": 53,
          "name": "F3",
          "ticks": 102240,
          "time": 70.999929,
          "velocity": 0.6299212598425197
        },
        {
          "duration": 0.15763873124998895,
          "durationTicks": 227,
          "midi": 60,
          "name": "C4",
          "ticks": 102720,
          "time": 71.333262,
          "velocity": 0.6299212598425197
        },
        {
          "duration": 0.15763873125000316,
          "durationTicks": 227,
          "midi": 60,
          "name": "C4",
          "ticks": 102960,
          "time": 71.4999285,
          "velocity": 0.6299212598425197
        },
        {
          "duration": 0.3159719062499988,
          "durationTicks": 455,
          "midi": 53,
          "name": "F3",
          "ticks": 103200,
          "time": 71.666595,
          "velocity": 0.6299212598425197
        },
        {
          "duration": 0.3159719062499988,
          "durationTicks": 455,
          "midi": 48,
          "name": "C3",
          "ticks": 103680,
          "time": 71.999928,
          "velocity": 0.6299212598425197
        },
        {
          "duration": 0.15763873125000316,
          "durationTicks": 227,
          "midi": 54,
          "name": "F#3",
          "ticks": 104400,
          "time": 72.4999275,
          "velocity": 0.6299212598425197
        },
        {
          "duration": 0.3159719062499846,
          "durationTicks": 455,
          "midi": 55,
          "name": "G3",
          "ticks": 104640,
          "time": 72.666594,
          "velocity": 0.6299212598425197
        },
        {
          "duration": 0.3159719062499988,
          "durationTicks": 455,
          "midi": 60,
          "name": "C4",
          "ticks": 105120,
          "time": 72.999927,
          "velocity": 0.6299212598425197
        },
        {
          "duration": 0.3159719062499988,
          "durationTicks": 455,
          "midi": 53,
          "name": "F3",
          "ticks": 105600,
          "time": 73.33326,
          "velocity": 0.6299212598425197
        },
        {
          "duration": 0.3159719062499988,
          "durationTicks": 455,
          "midi": 53,
          "name": "F3",
          "ticks": 106080,
          "time": 73.66659299999999,
          "velocity": 0.6299212598425197
        },
        {
          "duration": 0.15763873124998895,
          "durationTicks": 227,
          "midi": 60,
          "name": "C4",
          "ticks": 106560,
          "time": 73.999926,
          "velocity": 0.6299212598425197
        },
        {
          "duration": 0.15763873125000316,
          "durationTicks": 227,
          "midi": 60,
          "name": "C4",
          "ticks": 106800,
          "time": 74.1665925,
          "velocity": 0.6299212598425197
        },
        {
          "duration": 0.3159719062499988,
          "durationTicks": 455,
          "midi": 53,
          "name": "F3",
          "ticks": 107040,
          "time": 74.333259,
          "velocity": 0.6299212598425197
        },
        {
          "duration": 0.15763873125000316,
          "durationTicks": 227,
          "midi": 55,
          "name": "G3",
          "ticks": 107520,
          "time": 74.666592,
          "velocity": 0.6299212598425197
        },
        {
          "duration": 0.3159719062499988,
          "durationTicks": 455,
          "midi": 55,
          "name": "G3",
          "ticks": 107760,
          "time": 74.8332585,
          "velocity": 0.6299212598425197
        },
        {
          "duration": 0.15763873125000316,
          "durationTicks": 227,
          "midi": 55,
          "name": "G3",
          "ticks": 108240,
          "time": 75.1665915,
          "velocity": 0.6299212598425197
        },
        {
          "duration": 0.21041645625000172,
          "durationTicks": 303,
          "midi": 55,
          "name": "G3",
          "ticks": 108480,
          "time": 75.333258,
          "velocity": 0.6299212598425197
        },
        {
          "duration": 0.21041645625001593,
          "durationTicks": 303,
          "midi": 57,
          "name": "A3",
          "ticks": 108800,
          "time": 75.55547999999999,
          "velocity": 0.6299212598425197
        },
        {
          "duration": 0.2104164562499875,
          "durationTicks": 303,
          "midi": 59,
          "name": "B3",
          "ticks": 109120,
          "time": 75.777702,
          "velocity": 0.6299212598425197
        },
        {
          "duration": 0.3159719062499988,
          "durationTicks": 455,
          "midi": 60,
          "name": "C4",
          "ticks": 109440,
          "time": 75.999924,
          "velocity": 0.6299212598425197
        },
        {
          "duration": 0.3159719062499846,
          "durationTicks": 455,
          "midi": 55,
          "name": "G3",
          "ticks": 109920,
          "time": 76.333257,
          "velocity": 0.6299212598425197
        },
        {
          "duration": 0.3159719062499988,
          "durationTicks": 455,
          "midi": 48,
          "name": "C3",
          "ticks": 110400,
          "time": 76.66659,
          "velocity": 0.6299212598425197
        },
        {
          "duration": 0.3159719062499988,
          "durationTicks": 455,
          "midi": 44,
          "name": "G#2",
          "ticks": 111360,
          "time": 77.33325599999999,
          "velocity": 0.6299212598425197
        },
        {
          "duration": 0.15763873125000316,
          "durationTicks": 227,
          "midi": 51,
          "name": "D#3",
          "ticks": 112080,
          "time": 77.83325549999999,
          "velocity": 0.6299212598425197
        },
        {
          "duration": 0.3159719062499988,
          "durationTicks": 455,
          "midi": 56,
          "name": "G#3",
          "ticks": 112800,
          "time": 78.333255,
          "velocity": 0.6299212598425197
        },
        {
          "duration": 0.3159719062499846,
          "durationTicks": 455,
          "midi": 55,
          "name": "G3",
          "ticks": 113280,
          "time": 78.666588,
          "velocity": 0.6299212598425197
        },
        {
          "duration": 0.15763873125000316,
          "durationTicks": 227,
          "midi": 48,
          "name": "C3",
          "ticks": 114000,
          "time": 79.16658749999999,
          "velocity": 0.6299212598425197
        },
        {
          "duration": 0.3159719062499988,
          "durationTicks": 455,
          "midi": 43,
          "name": "G2",
          "ticks": 114720,
          "time": 79.66658699999999,
          "velocity": 0.6299212598425197
        },
        {
          "duration": 0.3159719062499846,
          "durationTicks": 455,
          "midi": 44,
          "name": "G#2",
          "ticks": 115200,
          "time": 79.99992,
          "velocity": 0.6299212598425197
        },
        {
          "duration": 0.15763873124998895,
          "durationTicks": 227,
          "midi": 51,
          "name": "D#3",
          "ticks": 115920,
          "time": 80.4999195,
          "velocity": 0.6299212598425197
        },
        {
          "duration": 0.3159719062499988,
          "durationTicks": 455,
          "midi": 56,
          "name": "G#3",
          "ticks": 116640,
          "time": 80.99991899999999,
          "velocity": 0.6299212598425197
        },
        {
          "duration": 0.3159719062499988,
          "durationTicks": 455,
          "midi": 55,
          "name": "G3",
          "ticks": 117120,
          "time": 81.333252,
          "velocity": 0.6299212598425197
        },
        {
          "duration": 0.15763873124998895,
          "durationTicks": 227,
          "midi": 48,
          "name": "C3",
          "ticks": 117840,
          "time": 81.8332515,
          "velocity": 0.6299212598425197
        },
        {
          "duration": 0.3159719062499846,
          "durationTicks": 455,
          "midi": 43,
          "name": "G2",
          "ticks": 118560,
          "time": 82.333251,
          "velocity": 0.6299212598425197
        },
        {
          "duration": 0.3159719062499988,
          "durationTicks": 455,
          "midi": 44,
          "name": "G#2",
          "ticks": 119040,
          "time": 82.666584,
          "velocity": 0.6299212598425197
        },
        {
          "duration": 0.15763873124998895,
          "durationTicks": 227,
          "midi": 51,
          "name": "D#3",
          "ticks": 119760,
          "time": 83.1665835,
          "velocity": 0.6299212598425197
        },
        {
          "duration": 0.3159719062499846,
          "durationTicks": 455,
          "midi": 56,
          "name": "G#3",
          "ticks": 120480,
          "time": 83.666583,
          "velocity": 0.6299212598425197
        },
        {
          "duration": 0.3159719062499988,
          "durationTicks": 455,
          "midi": 55,
          "name": "G3",
          "ticks": 120960,
          "time": 83.999916,
          "velocity": 0.6299212598425197
        },
        {
          "duration": 0.15763873125000316,
          "durationTicks": 227,
          "midi": 48,
          "name": "C3",
          "ticks": 121680,
          "time": 84.4999155,
          "velocity": 0.6299212598425197
        },
        {
          "duration": 0.3159719062499988,
          "durationTicks": 455,
          "midi": 43,
          "name": "G2",
          "ticks": 122400,
          "time": 84.999915,
          "velocity": 0.6299212598425197
        },
        {
          "duration": 0.15763873125000316,
          "durationTicks": 227,
          "midi": 50,
          "name": "D3",
          "ticks": 122880,
          "time": 85.333248,
          "velocity": 0.6299212598425197
        },
        {
          "duration": 0.15763873124998895,
          "durationTicks": 227,
          "midi": 50,
          "name": "D3",
          "ticks": 123120,
          "time": 85.4999145,
          "velocity": 0.6299212598425197
        },
        {
          "duration": 0.15763873125000316,
          "durationTicks": 227,
          "midi": 50,
          "name": "D3",
          "ticks": 123600,
          "time": 85.8332475,
          "velocity": 0.6299212598425197
        },
        {
          "duration": 0.15763873125000316,
          "durationTicks": 227,
          "midi": 50,
          "name": "D3",
          "ticks": 124080,
          "time": 86.1665805,
          "velocity": 0.6299212598425197
        },
        {
          "duration": 0.3159719062499988,
          "durationTicks": 455,
          "midi": 50,
          "name": "D3",
          "ticks": 124320,
          "time": 86.333247,
          "velocity": 0.6299212598425197
        },
        {
          "duration": 0.31597190625001303,
          "durationTicks": 455,
          "midi": 55,
          "name": "G3",
          "ticks": 124800,
          "time": 86.66658,
          "velocity": 0.6299212598425197
        },
        {
          "duration": 0.3159719062499988,
          "durationTicks": 455,
          "midi": 43,
          "name": "G2",
          "ticks": 125760,
          "time": 87.333246,
          "velocity": 0.6299212598425197
        },
        {
          "duration": 0.31597190625001303,
          "durationTicks": 455,
          "midi": 48,
          "name": "C3",
          "ticks": 126720,
          "time": 87.999912,
          "velocity": 0.6299212598425197
        },
        {
          "duration": 0.15763873125000316,
          "durationTicks": 227,
          "midi": 54,
          "name": "F#3",
          "ticks": 127440,
          "time": 88.4999115,
          "velocity": 0.6299212598425197
        },
        {
          "duration": 0.3159719062499988,
          "durationTicks": 455,
          "midi": 55,
          "name": "G3",
          "ticks": 127680,
          "time": 88.666578,
          "velocity": 0.6299212598425197
        },
        {
          "duration": 0.31597190625001303,
          "durationTicks": 455,
          "midi": 60,
          "name": "C4",
          "ticks": 128160,
          "time": 88.999911,
          "velocity": 0.6299212598425197
        },
        {
          "duration": 0.31597190625001303,
          "durationTicks": 455,
          "midi": 53,
          "name": "F3",
          "ticks": 128640,
          "time": 89.333244,
          "velocity": 0.6299212598425197
        },
        {
          "duration": 0.3159719062499988,
          "durationTicks": 455,
          "midi": 53,
          "name": "F3",
          "ticks": 129120,
          "time": 89.666577,
          "velocity": 0.6299212598425197
        },
        {
          "duration": 0.15763873125000316,
          "durationTicks": 227,
          "midi": 60,
          "name": "C4",
          "ticks": 129600,
          "time": 89.99991,
          "velocity": 0.6299212598425197
        },
        {
          "duration": 0.15763873125000316,
          "durationTicks": 227,
          "midi": 60,
          "name": "C4",
          "ticks": 129840,
          "time": 90.16657649999999,
          "velocity": 0.6299212598425197
        },
        {
          "duration": 0.31597190625001303,
          "durationTicks": 455,
          "midi": 53,
          "name": "F3",
          "ticks": 130080,
          "time": 90.333243,
          "velocity": 0.6299212598425197
        },
        {
          "duration": 0.31597190625001303,
          "durationTicks": 455,
          "midi": 50,
          "name": "D3",
          "ticks": 130560,
          "time": 90.66657599999999,
          "velocity": 0.6299212598425197
        },
        {
          "duration": 0.15763873125000316,
          "durationTicks": 227,
          "midi": 53,
          "name": "F3",
          "ticks": 131280,
          "time": 91.1665755,
          "velocity": 0.6299212598425197
        },
        {
          "duration": 0.3159719062499988,
          "durationTicks": 455,
          "midi": 55,
          "name": "G3",
          "ticks": 131520,
          "time": 91.333242,
          "velocity": 0.6299212598425197
        },
        {
          "duration": 0.31597190625001303,
          "durationTicks": 455,
          "midi": 59,
          "name": "B3",
          "ticks": 132000,
          "time": 91.666575,
          "velocity": 0.6299212598425197
        },
        {
          "duration": 0.31597190625001303,
          "durationTicks": 455,
          "midi": 53,
          "name": "F3",
          "ticks": 132480,
          "time": 91.99990799999999,
          "velocity": 0.6299212598425197
        },
        {
          "duration": 0.3159719062499988,
          "durationTicks": 455,
          "midi": 53,
          "name": "F3",
          "ticks": 132960,
          "time": 92.333241,
          "velocity": 0.6299212598425197
        },
        {
          "duration": 0.15763873125000316,
          "durationTicks": 227,
          "midi": 60,
          "name": "C4",
          "ticks": 133440,
          "time": 92.666574,
          "velocity": 0.6299212598425197
        },
        {
          "duration": 0.15763873124998895,
          "durationTicks": 227,
          "midi": 60,
          "name": "C4",
          "ticks": 133680,
          "time": 92.8332405,
          "velocity": 0.6299212598425197
        },
        {
          "duration": 0.31597190625001303,
          "durationTicks": 455,
          "midi": 53,
          "name": "F3",
          "ticks": 133920,
          "time": 92.999907,
          "velocity": 0.6299212598425197
        },
        {
          "duration": 0.3159719062499988,
          "durationTicks": 455,
          "midi": 48,
          "name": "C3",
          "ticks": 134400,
          "time": 93.33324,
          "velocity": 0.6299212598425197
        },
        {
          "duration": 0.15763873125000316,
          "durationTicks": 227,
          "midi": 54,
          "name": "F#3",
          "ticks": 135120,
          "time": 93.83323949999999,
          "velocity": 0.6299212598425197
        },
        {
          "duration": 0.31597190625001303,
          "durationTicks": 455,
          "midi": 55,
          "name": "G3",
          "ticks": 135360,
          "time": 93.999906,
          "velocity": 0.6299212598425197
        },
        {
          "duration": 0.31597190625001303,
          "durationTicks": 455,
          "midi": 60,
          "name": "C4",
          "ticks": 135840,
          "time": 94.33323899999999,
          "velocity": 0.6299212598425197
        },
        {
          "duration": 0.3159719062499988,
          "durationTicks": 455,
          "midi": 53,
          "name": "F3",
          "ticks": 136320,
          "time": 94.666572,
          "velocity": 0.6299212598425197
        },
        {
          "duration": 0.3159719062499988,
          "durationTicks": 455,
          "midi": 53,
          "name": "F3",
          "ticks": 136800,
          "time": 94.999905,
          "velocity": 0.6299212598425197
        },
        {
          "duration": 0.15763873125000316,
          "durationTicks": 227,
          "midi": 60,
          "name": "C4",
          "ticks": 137280,
          "time": 95.333238,
          "velocity": 0.6299212598425197
        },
        {
          "duration": 0.15763873125000316,
          "durationTicks": 227,
          "midi": 60,
          "name": "C4",
          "ticks": 137520,
          "time": 95.4999045,
          "velocity": 0.6299212598425197
        },
        {
          "duration": 0.31597190625001303,
          "durationTicks": 455,
          "midi": 53,
          "name": "F3",
          "ticks": 137760,
          "time": 95.66657099999999,
          "velocity": 0.6299212598425197
        },
        {
          "duration": 0.15763873124998895,
          "durationTicks": 227,
          "midi": 55,
          "name": "G3",
          "ticks": 138240,
          "time": 95.999904,
          "velocity": 0.6299212598425197
        },
        {
          "duration": 0.31597190625001303,
          "durationTicks": 455,
          "midi": 55,
          "name": "G3",
          "ticks": 138480,
          "time": 96.16657049999999,
          "velocity": 0.6299212598425197
        },
        {
          "duration": 0.15763873124998895,
          "durationTicks": 227,
          "midi": 55,
          "name": "G3",
          "ticks": 138960,
          "time": 96.4999035,
          "velocity": 0.6299212598425197
        },
        {
          "duration": 0.21041645625001593,
          "durationTicks": 303,
          "midi": 55,
          "name": "G3",
          "ticks": 139200,
          "time": 96.66657,
          "velocity": 0.6299212598425197
        },
        {
          "duration": 0.2104164562499875,
          "durationTicks": 303,
          "midi": 57,
          "name": "A3",
          "ticks": 139520,
          "time": 96.88879200000001,
          "velocity": 0.6299212598425197
        },
        {
          "duration": 0.21041645625000172,
          "durationTicks": 303,
          "midi": 59,
          "name": "B3",
          "ticks": 139840,
          "time": 97.111014,
          "velocity": 0.6299212598425197
        },
        {
          "duration": 0.3159719062499988,
          "durationTicks": 455,
          "midi": 60,
          "name": "C4",
          "ticks": 140160,
          "time": 97.333236,
          "velocity": 0.6299212598425197
        },
        {
          "duration": 0.31597190625001303,
          "durationTicks": 455,
          "midi": 55,
          "name": "G3",
          "ticks": 140640,
          "time": 97.666569,
          "velocity": 0.6299212598425197
        },
        {
          "duration": 0.31597190625001303,
          "durationTicks": 455,
          "midi": 48,
          "name": "C3",
          "ticks": 141120,
          "time": 97.99990199999999,
          "velocity": 0.6299212598425197
        },
        {
          "duration": 0.3159719062499988,
          "durationTicks": 455,
          "midi": 48,
          "name": "C3",
          "ticks": 142080,
          "time": 98.666568,
          "velocity": 0.6299212598425197
        },
        {
          "duration": 0.15763873125000316,
          "durationTicks": 227,
          "midi": 54,
          "name": "F#3",
          "ticks": 142800,
          "time": 99.1665675,
          "velocity": 0.6299212598425197
        },
        {
          "duration": 0.31597190625001303,
          "durationTicks": 455,
          "midi": 55,
          "name": "G3",
          "ticks": 143040,
          "time": 99.33323399999999,
          "velocity": 0.6299212598425197
        },
        {
          "duration": 0.3159719062499988,
          "durationTicks": 455,
          "midi": 60,
          "name": "C4",
          "ticks": 143520,
          "time": 99.666567,
          "velocity": 0.6299212598425197
        },
        {
          "duration": 0.31597190625001303,
          "durationTicks": 455,
          "midi": 53,
          "name": "F3",
          "ticks": 144000,
          "time": 99.9999,
          "velocity": 0.6299212598425197
        },
        {
          "duration": 0.31597190625001303,
          "durationTicks": 455,
          "midi": 53,
          "name": "F3",
          "ticks": 144480,
          "time": 100.33323299999999,
          "velocity": 0.6299212598425197
        },
        {
          "duration": 0.15763873124998895,
          "durationTicks": 227,
          "midi": 60,
          "name": "C4",
          "ticks": 144960,
          "time": 100.666566,
          "velocity": 0.6299212598425197
        },
        {
          "duration": 0.15763873125000316,
          "durationTicks": 227,
          "midi": 60,
          "name": "C4",
          "ticks": 145200,
          "time": 100.8332325,
          "velocity": 0.6299212598425197
        },
        {
          "duration": 0.3159719062499988,
          "durationTicks": 455,
          "midi": 53,
          "name": "F3",
          "ticks": 145440,
          "time": 100.999899,
          "velocity": 0.6299212598425197
        },
        {
          "duration": 0.31597190625001303,
          "durationTicks": 455,
          "midi": 50,
          "name": "D3",
          "ticks": 145920,
          "time": 101.333232,
          "velocity": 0.6299212598425197
        },
        {
          "duration": 0.15763873125000316,
          "durationTicks": 227,
          "midi": 53,
          "name": "F3",
          "ticks": 146640,
          "time": 101.8332315,
          "velocity": 0.6299212598425197
        },
        {
          "duration": 0.3159719062499988,
          "durationTicks": 455,
          "midi": 55,
          "name": "G3",
          "ticks": 146880,
          "time": 101.999898,
          "velocity": 0.6299212598425197
        },
        {
          "duration": 0.3159719062499988,
          "durationTicks": 455,
          "midi": 59,
          "name": "B3",
          "ticks": 147360,
          "time": 102.333231,
          "velocity": 0.6299212598425197
        },
        {
          "duration": 0.31597190625001303,
          "durationTicks": 455,
          "midi": 53,
          "name": "F3",
          "ticks": 147840,
          "time": 102.666564,
          "velocity": 0.6299212598425197
        },
        {
          "duration": 0.31597190625001303,
          "durationTicks": 455,
          "midi": 53,
          "name": "F3",
          "ticks": 148320,
          "time": 102.99989699999999,
          "velocity": 0.6299212598425197
        },
        {
          "duration": 0.15763873124998895,
          "durationTicks": 227,
          "midi": 60,
          "name": "C4",
          "ticks": 148800,
          "time": 103.33323,
          "velocity": 0.6299212598425197
        },
        {
          "duration": 0.15763873125000316,
          "durationTicks": 227,
          "midi": 60,
          "name": "C4",
          "ticks": 149040,
          "time": 103.49989649999999,
          "velocity": 0.6299212598425197
        },
        {
          "duration": 0.31597190625001303,
          "durationTicks": 455,
          "midi": 53,
          "name": "F3",
          "ticks": 149280,
          "time": 103.666563,
          "velocity": 0.6299212598425197
        },
        {
          "duration": 0.31597190625001303,
          "durationTicks": 455,
          "midi": 48,
          "name": "C3",
          "ticks": 149760,
          "time": 103.99989599999999,
          "velocity": 0.6299212598425197
        },
        {
          "duration": 0.15763873125000316,
          "durationTicks": 227,
          "midi": 54,
          "name": "F#3",
          "ticks": 150480,
          "time": 104.4998955,
          "velocity": 0.6299212598425197
        },
        {
          "duration": 0.3159719062499988,
          "durationTicks": 455,
          "midi": 55,
          "name": "G3",
          "ticks": 150720,
          "time": 104.666562,
          "velocity": 0.6299212598425197
        },
        {
          "duration": 0.31597190625001303,
          "durationTicks": 455,
          "midi": 60,
          "name": "C4",
          "ticks": 151200,
          "time": 104.999895,
          "velocity": 0.6299212598425197
        },
        {
          "duration": 0.31597190625001303,
          "durationTicks": 455,
          "midi": 53,
          "name": "F3",
          "ticks": 151680,
          "time": 105.33322799999999,
          "velocity": 0.6299212598425197
        },
        {
          "duration": 0.3159719062499988,
          "durationTicks": 455,
          "midi": 53,
          "name": "F3",
          "ticks": 152160,
          "time": 105.666561,
          "velocity": 0.6299212598425197
        },
        {
          "duration": 0.15763873125000316,
          "durationTicks": 227,
          "midi": 60,
          "name": "C4",
          "ticks": 152640,
          "time": 105.999894,
          "velocity": 0.6299212598425197
        },
        {
          "duration": 0.15763873124998895,
          "durationTicks": 227,
          "midi": 60,
          "name": "C4",
          "ticks": 152880,
          "time": 106.1665605,
          "velocity": 0.6299212598425197
        },
        {
          "duration": 0.31597190625001303,
          "durationTicks": 455,
          "midi": 53,
          "name": "F3",
          "ticks": 153120,
          "time": 106.333227,
          "velocity": 0.6299212598425197
        },
        {
          "duration": 0.15763873124998895,
          "durationTicks": 227,
          "midi": 55,
          "name": "G3",
          "ticks": 153600,
          "time": 106.66656,
          "velocity": 0.6299212598425197
        },
        {
          "duration": 0.31597190625001303,
          "durationTicks": 455,
          "midi": 55,
          "name": "G3",
          "ticks": 153840,
          "time": 106.8332265,
          "velocity": 0.6299212598425197
        },
        {
          "duration": 0.15763873125000316,
          "durationTicks": 227,
          "midi": 55,
          "name": "G3",
          "ticks": 154320,
          "time": 107.16655949999999,
          "velocity": 0.6299212598425197
        },
        {
          "duration": 0.21041645625000172,
          "durationTicks": 303,
          "midi": 55,
          "name": "G3",
          "ticks": 154560,
          "time": 107.333226,
          "velocity": 0.6299212598425197
        },
        {
          "duration": 0.2104164562499875,
          "durationTicks": 303,
          "midi": 57,
          "name": "A3",
          "ticks": 154880,
          "time": 107.555448,
          "velocity": 0.6299212598425197
        },
        {
          "duration": 0.21041645625001593,
          "durationTicks": 303,
          "midi": 59,
          "name": "B3",
          "ticks": 155200,
          "time": 107.77766999999999,
          "velocity": 0.6299212598425197
        },
        {
          "duration": 0.3159719062499988,
          "durationTicks": 455,
          "midi": 60,
          "name": "C4",
          "ticks": 155520,
          "time": 107.999892,
          "velocity": 0.6299212598425197
        },
        {
          "duration": 0.3159719062499988,
          "durationTicks": 455,
          "midi": 55,
          "name": "G3",
          "ticks": 156000,
          "time": 108.333225,
          "velocity": 0.6299212598425197
        },
        {
          "duration": 0.31597190625001303,
          "durationTicks": 455,
          "midi": 48,
          "name": "C3",
          "ticks": 156480,
          "time": 108.666558,
          "velocity": 0.6299212598425197
        },
        {
          "duration": 0.3159719062499988,
          "durationTicks": 455,
          "midi": 55,
          "name": "G3",
          "ticks": 157440,
          "time": 109.333224,
          "velocity": 0.6299212598425197
        },
        {
          "duration": 0.3159719062499988,
          "durationTicks": 455,
          "midi": 52,
          "name": "E3",
          "ticks": 158160,
          "time": 109.8332235,
          "velocity": 0.6299212598425197
        },
        {
          "duration": 0.3159719062499988,
          "durationTicks": 455,
          "midi": 48,
          "name": "C3",
          "ticks": 158880,
          "time": 110.333223,
          "velocity": 0.6299212598425197
        },
        {
          "duration": 0.6326382562500044,
          "durationTicks": 911,
          "midi": 41,
          "name": "F2",
          "ticks": 159360,
          "time": 110.666556,
          "velocity": 0.6299212598425197
        },
        {
          "duration": 0.6326382562500044,
          "durationTicks": 911,
          "midi": 48,
          "name": "C3",
          "ticks": 159360,
          "time": 110.666556,
          "velocity": 0.6299212598425197
        },
        {
          "duration": 0.6326382562500044,
          "durationTicks": 911,
          "midi": 37,
          "name": "C#2",
          "ticks": 160320,
          "time": 111.33322199999999,
          "velocity": 0.6299212598425197
        },
        {
          "duration": 0.6326382562500044,
          "durationTicks": 911,
          "midi": 44,
          "name": "G#2",
          "ticks": 160320,
          "time": 111.33322199999999,
          "velocity": 0.6299212598425197
        },
        {
          "duration": 1.265970956249987,
          "durationTicks": 1823,
          "midi": 36,
          "name": "C2",
          "ticks": 161280,
          "time": 111.999888,
          "velocity": 0.6299212598425197
        },
        {
          "duration": 1.265970956249987,
          "durationTicks": 1823,
          "midi": 43,
          "name": "G2",
          "ticks": 161280,
          "time": 111.999888,
          "velocity": 0.6299212598425197
        }
      ],
      "endOfTrackTicks": 163104
    }
  ]
}
